<svg xmlns="http://www.w3.org/2000/svg" viewBox="0 0 313.92 200.5"><defs><style>.cls-1{fill:#d9d4fd;opacity:0.38;}.cls-2{fill:#6ee5b2;}.cls-3{fill:#fff;}</style></defs><title>butterflyfinal</title><g id="Layer_2" data-name="Layer 2"><g id="Layer_3" data-name="Layer 3"><path class="cls-1" d="M312.93,19.28a20.27,20.27,0,0,0-7.31-10.12c-2.58-1.81-5-2.44-9-3.53a61.19,61.19,0,0,0-13-1.85s-4.95-.3-9.64-.07c-9,.44-25.67,3.72-43.86,13.35a120.15,120.15,0,0,0-20,13.35c-9.54,7.85-17.3,17.34-24.41,27.39C183,61.51,180,66.7,174.21,74.35c-2.92,3.85-5.45,6.91-7.13,8.9A14.73,14.73,0,0,1,165.4,81c-7.83-12.92,6.66-35.23,6.1-35.49-.23-.11-2.44,3.76-4.83,9.17-.38.85-1.8,4.09-4.25,10.92-1,2.69-2.25,6.38-3.67,10.83-.8-3.38-1.74-6.91-2.83-10.58s-2.3-7.27-3.5-10.58C147.33,46,146,43.94,145.92,44c-.4.21,15.62,23.73,7.91,35.41a11.57,11.57,0,0,1-1.67,2c-12.41-19.69-25.9-39-44.59-53.22A152.4,152.4,0,0,0,68.45,7.71c-11.31-4-22.76-8-37.62-6.54C23.24,1.89,6.51,3.49,2.17,13.83-1,21.3,3.66,30.19,7.84,38.2c4.64,8.91,7.89,10.53,13.34,18.13C33.86,74,33.3,81.15,39.49,97.17c4,10.46,13.29,22,25.13,18.29l-.06.35c-4.07,2.35-7.21,5.66-10.41,9.33-3.79,4.35-8.64,9.42-11.22,16.43-5.31,14.44,1.56,28.51,2.9,31.26,6,12.21,15.77,18,19.89,20.36a59.42,59.42,0,0,0,33.65,6.09c4-.48,9.46-1.15,11.46-4.45a33.23,33.23,0,0,1,4.11-5.38,6,6,0,0,1,1.54-1.31,7.53,7.53,0,0,1,3.4-.84,14.9,14.9,0,0,0,5.29-1.13c1.86-1,2.55-2.93,3.07-4.2,1.4-3.4,1-.76,7.26-11.47,2.32-4,5.22-9.25,8.33-15.67l5.33-14.33a83,83,0,0,0,.67,10.33c1.23,9.58,3.33,12.65,4.9,14.32,2.08,2.22,3.55,2.35,4.1,2.35,2.42,0,4.19-2.39,5-3.54,5-6.75,4.49-22.06,4.35-25.44,0,.09,0,.17,0,.27a49.21,49.21,0,0,0,6.39,16.32c3.37,6.74,6.7,12.7,9.79,17.86,0,0,6.64,11.11,12.16,12.63,2,.54,3,.71,3,.71,2.82.49,3.79.14,4.94.85a4.87,4.87,0,0,1,2,3.33,20.53,20.53,0,0,0,3.63,3.2c2.34,1.61,6.47,3.72,14.86,3.82,12.63.15,25.49-4.38,29.84-6a44.94,44.94,0,0,0,15.77-19.08c3.78-8.87,3.56-16.74,3.42-21.55a51.4,51.4,0,0,0-2.68-15.45c-1.45-4.11-3.58-9.9-9.16-14.33a24,24,0,0,0-3.65-2.39c5.31-1.45,11.8-4.26,16-10.2s3.27-11.28,6.25-22.48a88.88,88.88,0,0,1,8.08-20.13C295.3,54.5,306.55,45.8,311.94,33.8A19.31,19.31,0,0,0,312.93,19.28Z"/><path class="cls-2" d="M161.67,72.08"/><circle class="cls-3" cx="99.67" cy="22.83" r="1.5"/><circle class="cls-3" cx="112.38" cy="32.25" r="1.5"/><circle class="cls-3" cx="124.5" cy="43.75" r="1.5"/><circle class="cls-3" cx="137.13" cy="59.5" r="1.5"/><circle class="cls-3" cx="148.13" cy="74.5" r="1.5"/><circle class="cls-3" cx="152.25" cy="80.63" r="1.5"/><circle class="cls-3" cx="147" cy="44.37" r="2.25"/><circle class="cls-3" cx="171.75" cy="44.75" r="2.25"/><circle class="cls-3" cx="167" cy="82.25" r="1.5"/><circle class="cls-3" cx="188.38" cy="53.88" r="1.5"/><circle class="cls-3" cx="214.25" cy="27.38" r="1.5"/><circle class="cls-3" cx="245.75" cy="10.25" r="1.5"/><circle class="cls-3" cx="289.5" cy="4.5" r="1.5"/><circle class="cls-3" cx="312.38" cy="31.63" r="1.5"/><circle class="cls-3" cx="304.5" cy="45.75" r="1.5"/><circle class="cls-3" cx="291.5" cy="61.5" r="1.5"/><circle class="cls-3" cx="282.13" cy="81.13" r="1.5"/><circle class="cls-3" cx="277.25" cy="101.88" r="1.5"/><circle class="cls-3" cx="259.75" cy="118.63" r="1.5"/><circle class="cls-3" cx="272.38" cy="140" r="1.5"/><circle class="cls-3" cx="272.63" cy="165" r="1.5"/><circle class="cls-3" cx="263" cy="185.13" r="1.5"/><circle class="cls-3" cx="243.13" cy="195.13" r="1.5"/><circle class="cls-3" cx="221.88" cy="196.75" r="1.5"/><circle class="cls-3" cx="205.38" cy="188.13" r="1.5"/><circle class="cls-3" cx="193.38" cy="183.88" r="1.5"/><circle class="cls-3" cx="182.38" cy="169.25" r="1.5"/><circle class="cls-3" cx="172.88" cy="152.63" r="1.5"/><circle class="cls-3" cx="168.13" cy="140" r="1.5"/><circle class="cls-3" cx="166.5" cy="156.88" r="1.5"/><circle class="cls-3" cx="158.83" cy="167.5" r="1.5"/><circle class="cls-3" cx="151" cy="158.63" r="1.5"/><circle class="cls-3" cx="149.25" cy="141.5" r="1.5"/><circle class="cls-3" cx="143.83" cy="154.83" r="1.5"/><circle class="cls-3" cx="136.25" cy="169.13" r="1.5"/><circle class="cls-3" cx="127.25" cy="184.5" r="1.5"/><circle class="cls-3" cx="116.48" cy="188.14" r="1.5"/><circle class="cls-3" cx="107.88" cy="197.38" r="1.5"/><circle class="cls-3" cx="83.17" cy="199" r="1.5"/><circle class="cls-3" cx="62.67" cy="191.67" r="1.5"/><circle class="cls-3" cx="48" cy="176.83" r="1.5"/><circle class="cls-3" cx="41.5" cy="157.33" r="1.5"/><circle class="cls-3" cx="43.83" cy="139.17" r="1.5"/><circle class="cls-3" cx="54.15" cy="125.14" r="1.5"/><circle class="cls-3" cx="64.56" cy="115.81" r="1.5"/><circle class="cls-3" cx="50.83" cy="113.17" r="1.5"/><circle class="cls-3" cx="42.17" cy="103" r="1.5"/><circle class="cls-3" cx="35.67" cy="85.83" r="1.5"/><circle class="cls-3" cx="29.33" cy="70" r="1.5"/><circle class="cls-3" cx="20" cy="54.83" r="1.5"/><circle class="cls-3" cx="7.84" cy="38.2" r="1.5"/><circle class="cls-3" cx="1.5" cy="23.17" r="1.5"/><circle class="cls-3" cx="9.67" cy="6.67" r="1.5"/><circle class="cls-3" cx="28.83" cy="1.5" r="1.5"/><circle class="cls-3" cx="48.33" cy="2.17" r="1.5"/><circle class="cls-3" cx="178.25" cy="69" r="1.5"/><circle class="cls-3" cx="200.13" cy="40" r="1.5"/><circle class="cls-3" cx="228.75" cy="17.88" r="1.5"/><circle class="cls-3" cx="267.38" cy="4.63" r="1.5"/><circle class="cls-3" cx="308.63" cy="12" r="1.5"/><circle class="cls-3" cx="84.88" cy="14.63" r="1.5"/><circle class="cls-3" cx="68.45" cy="7.71" r="1.5"/></g></g></svg>