<svg xmlns="http://www.w3.org/2000/svg" viewBox="0 0 797.8 326.88"><defs><style>.cls-1{fill:#fefeff;}.cls-2{fill:#121212;}.cls-10,.cls-11,.cls-3,.cls-4,.cls-6,.cls-7,.cls-8,.cls-9{fill:none;stroke-linecap:round;stroke-linejoin:round;stroke-width:3px;}.cls-3{stroke:#cea2d7;}.cls-4{stroke:#ffafbb;}.cls-5{fill:#fff;}.cls-6{stroke:#ffcf84;}.cls-7{stroke:#f2ec72;}.cls-8{stroke:#acdb90;}.cls-9{stroke:#00bfd6;}.cls-10{stroke:#6dabe4;}.cls-11{stroke:#9794d2;}.cls-12{font-size:148.74px;}.cls-12,.cls-13,.cls-14{fill:#231f20;}.cls-12,.cls-13{font-family:SketchMatch, Sketch Match;}.cls-13{font-size:159.58px;}</style></defs><title>colorPuplogo</title><g id="Layer_2" data-name="Layer 2"><g id="body"><path class="cls-1" d="M517,300.42a5.8,5.8,0,0,0-.25-1.24,6,6,0,0,0-.58-2.25,48,48,0,0,0-13.85-17.32,5,5,0,0,0-2.3-1c2.77-1.94,3.73-6.38-.12-8.27-10.41-5.13-20.12-8.62-31.83-9-10.29-.32-19.25-1.94-27.84-7.15a5.49,5.49,0,0,0-.6-7.49,3.8,3.8,0,0,0-.61-2.26,10.54,10.54,0,0,0-1.72-5.12c1.66.26,3.31.46,4.95.58,4.9.36,8.59-2.19,12.59-4.67l6.27-3.9c1.44-.9,3.68-2.72,5.75-3.5,1.11-.6,2.29-1.3,3.5-2.12a42.57,42.57,0,0,0,5-3.91,40.46,40.46,0,0,0,7.71-6.21c4.93-5.48,5.85-12.38,5.72-19.49-.13-7.42-2.28-12.09-8.2-16.64a33,33,0,0,0-15.44-6.94,190.3,190.3,0,0,0-14.09-45.2,5,5,0,0,0,1.87-5.22,22.3,22.3,0,0,1,.55-11.21,5.07,5.07,0,0,0,1.45-1.07c1.08-1.11,2.18-2.18,3.29-3.24a19.84,19.84,0,0,0,.67,2.33,37.86,37.86,0,0,1,4.65,7.25c3.43,7,2,9.76,4.33,13.67,5.37,9.1,22.61,10.49,25.77,6,.74-1.05.89-2.69,2.71-4.18,2-1.64,3.49-1,4.3-1.95,2.07-2.44-5.65-8.83-9.12-19.9-2-6.49-.71-8.57-3.65-17.63a72.29,72.29,0,0,0-3.61-9,4.42,4.42,0,0,0-1.4-5.17c-4.24-9.88-13.52-18.49-24.83-18.47-14.4,0-17.58,15.29-15.4,26.77q.2,1,.48,2a43.36,43.36,0,0,0-.45,4.57,29.75,29.75,0,0,0,.58,5.94c.82,5.33.52,4.41.95,6.67.88,4.6,1.61,5.52,1.94,9a28.47,28.47,0,0,1,.06,4.69,40.73,40.73,0,0,0-10-7,47.65,47.65,0,0,0-9-3.29,38.27,38.27,0,0,0-8.78-1.78c-6.78-.27-12,3.2-16.67,6.32a48,48,0,0,0-12,11.53Q386.33,119,383,113c-1.17-2.06-3.68-5-4-7.26s.45-4.25-.11-6.55a26.87,26.87,0,0,0,2.11-5.93l.07-.08c.17-.28.32-.55.48-.83l.56-.06c5.59,1.26,12.48,1.61,15.45-3.93,3.59-6.67,4-14.08-.09-20.56-4-6.24-9.58-12.65-16.08-16.3-9-5.07-22.1-5.86-31-.15a5,5,0,0,0-2.1,1.22,11.67,11.67,0,0,0-2.81,3.15c-1.35,2.41-1.11,6.07.66,9.48l3.34,12.41c-1.06,5.94.28,12,2.37,17.94,2,5.6,4.56,10.91,8.78,14.88l11.17,15.9.77,1.12,5.34,4.85h.11a60.66,60.66,0,0,0,2.52,5.78l-4.82,19.18q-1.61,5.67-3.19,11.34a4.68,4.68,0,0,0-.13.65c-6.12,2-12.34,2-15.59-4.1-2.38-4.44-1.64-10.87-2.48-15.89l-.6-7.18L351,135.64a27.53,27.53,0,0,0-1.88-9.63c-2.62-6.56-7.24-10.14-12.78-12.66-6.37-5.06-14.75-9.88-22.57-8.43a4.83,4.83,0,0,0-5.94-.94,5.91,5.91,0,0,1-2.79.69,5.49,5.49,0,0,0-2.13-2.42,5.26,5.26,0,0,0-2-.64,5.56,5.56,0,0,0,1.07-2.7,4.67,4.67,0,0,0,1-6.08c-1.39-2.26,2.26-8.43,2.79-10.93a38.13,38.13,0,0,0,.69-11.57c-.2-2.14-1.41-4.3-3.67-4.82-1.79-.42-3.16-2.67-5.19-3.16a9.82,9.82,0,0,0-6.4.78c-4.26,2-7.09,6.88-9,11s-3.4,9.76-.92,14a7.62,7.62,0,0,0,2.89,2.86,22.44,22.44,0,0,0,10.32,12.11,5.22,5.22,0,0,0,1.77.62c-.08.13-.18.24-.25.37l-.08.18a5.43,5.43,0,0,0-1.56,5.53,56.67,56.67,0,0,0-14.79,7.71,6.22,6.22,0,0,0-1.5,1.54c-4.11,1.71-8.37,3.16-11.72,6.29-4.26,4-5,9-6.24,14a27.46,27.46,0,0,0-3.15,8.46,5.12,5.12,0,0,0,.39,3.2q-1.68,5.1-3.5,10.16a4.83,4.83,0,0,0-.3,2.19,33.56,33.56,0,0,0-2.13,15.44c.29,2.64,1.06,5.13,1.55,7.72s.12,5.24.68,7.85a37.6,37.6,0,0,0,9,17.68s0,.07,0,.11a10.68,10.68,0,0,0,3.56,8.4,3.46,3.46,0,0,0,.29.25c-1.19,2.17-2.32,4.12-2.61,4.8-2,4.58-4.36,9.57-5.34,14.5a8.38,8.38,0,0,0,.23,4.86c.83,2.06,2.59,2.72,2.73,5,.28,4.79,0,8.48,3.15,12.56a5.44,5.44,0,0,0,.65.7c-6.13,8.16-7.26,19.43-7.12,29.31,0,2.5,2.27,5.28,5,5s4.84,2,7.15,3.43a24.73,24.73,0,0,0,7.53,3c5.25,1.14,10.56.79,15.84,0,10.3-1.57,22.56-4.39,27.64-14.61,4.48-9,.19-19.4-9.51-22.21-4.86-1.41-11.06.23-15.58-2-3.76-1.9-3.59-6.27-7-7.87a9.33,9.33,0,0,0-1.31-2.14c-1.64-1.9-3.84-2.73-3.55-5.29.32-2.85,2.21-6,3.61-8.44,2.84-4.89,6.64-8.53,10.89-12.17a31.19,31.19,0,0,0,5-5.24c5,6.62,10.2,14,18,17.07a5.21,5.21,0,0,0,.61.18,34.73,34.73,0,0,1,2.67,7c1,4,2,7.76,4.17,11.28a4.34,4.34,0,0,0,.49.64c.26,2.42,2,4.63,3.74,6.35,2.64,2.57,2,6.46.57,9.71a18,18,0,0,0-1.06,11.29l-.09.18a4.87,4.87,0,0,0,.38,5.25l-.12,1.12c-2.46,2-3.83,4.67-5.5,7.86-2.4,4.6-7.65,6.28-6.55,12.42,1.06,6,6.78,8.1,12.12,8.76,3.78.46,7.57.87,11.36,1.27a40.28,40.28,0,0,0,12.5,1.33,4.87,4.87,0,0,0,4.11-2.26,70.35,70.35,0,0,0,15.6-3.43c5.2-1.79,11.34-4.1,15.66-7.6a7.62,7.62,0,0,0,2.4-3.26l3.21-1.53c2.49-1.19,3-4.63,1.8-6.85a36.67,36.67,0,0,1-2.25-4.79,5.11,5.11,0,0,0-3.24-3.19,10.94,10.94,0,0,0-1-2.17,18.86,18.86,0,0,0-4.56-4.7c-1.32-1-3.22-2-5-3.21a122.31,122.31,0,0,0,23.12-.72c4.25-.48,8.55-1.21,12.38-3.19,2.83,2.24,6.13,4.71,7,8s1.31,5.77,3.59,8.29c4.95,5.5,12.38,6.24,18.68,9.41,3.74,1.88,6.4,5.1,10.3,6.76a47.59,47.59,0,0,0,11.34,3.18c8.63,1.3,18.06-1.46,26.56-2.81a4.09,4.09,0,0,0,3.15-2.07C505.73,308.48,517.71,308,517,300.42ZM458.49,69.2a20.34,20.34,0,0,0-3,.8A6.21,6.21,0,0,1,458.49,69.2Zm-161.84,5a4.36,4.36,0,0,0-2.44-.8,2.07,2.07,0,0,1,.54-.56q.72-.37.24-.93a8.43,8.43,0,0,0,1.43,1.31l.24.15C296.65,73.69,296.66,74,296.65,74.25ZM419.44,237.09a27.67,27.67,0,0,0,2.6-1.15l.59.15a4.84,4.84,0,0,0-1.33,1.45l0,.07C420.66,237.44,420.05,237.25,419.44,237.09Z"/></g><g id="Layer_1-2" data-name="Layer 1"><path class="cls-2" d="M356.61,151.73c-.08-.13-.33-.23-.18-.41s.28,0,.32.25c.39.21.58.23.53-.43-.15-2.41-1.23-4.46-2-6.57-1-2.69-1.72-5.51-2.65-8.24-1.1-3.25-2.28-6.48-3.68-9.56a57.29,57.29,0,0,0-4.22-8,2.27,2.27,0,0,1-.45-1.46c1.22.76,2.07,2,3.35,2.61-.11-.8.37-1.7-.5-2.23a13.19,13.19,0,0,1-2.67-2.87,26.7,26.7,0,0,0-3.9-4.19,32.31,32.31,0,0,0-6.4-3.55,87.77,87.77,0,0,0-11-3.84c-2.74-.75-5.43-1.81-8.32-1.81s-6-.25-8.93-.39c-.4,0-.83.13-.89-.64a22.68,22.68,0,0,1,.32-6.66c.86-3.76,2.27-7.31,3.42-11,1.85-5.9,1.92-11.57-1.27-16.95a10.89,10.89,0,0,0-4.59-4.63,20.89,20.89,0,0,0-9.49-1.49,1.07,1.07,0,0,0-.79.23,20.13,20.13,0,0,1-2.26,1.43c-1.28.94-2.72,1.54-3.85,2.76a23.44,23.44,0,0,0-3.35,4.54c-.73,1.34-1.74,2.59-1.89,4.3l-.59,1.21a24.15,24.15,0,0,0-1.49,10,14,14,0,0,0,1.21,5.62,28.92,28.92,0,0,0,6.08,8.07,27.93,27.93,0,0,1,4.36,4.86,4.5,4.5,0,0,0,2.8,2.2c-.29.37-.51.68-.75.94a20.25,20.25,0,0,1-6.09,4.17,21.82,21.82,0,0,0-7,5.92c-1.56,1.89-3.18,3.43-5.46,4a12.9,12.9,0,0,0-5.74,2.79c-.83.75-1.6,1.86-2.9,2l1-1.65c-.33-.13-.56-.11-.74.12a27,27,0,0,0-1.68,2.25,73.43,73.43,0,0,0-6.28,12.8c-.14.39-.3.7-.74.68a1.26,1.26,0,0,1,0-.33,46.69,46.69,0,0,1,5.57-12.4,40.66,40.66,0,0,1,6.25-8,12.53,12.53,0,0,1,3.89-3,16.78,16.78,0,0,1,4.4-.75c1.69-.19,2.89-.64,3.4-1.39-3.09-1.46-6.08-.57-8.72,1.22-5,3.41-8.36,8.74-11.38,14.36a66.42,66.42,0,0,0-3.22,7.7c-.36.94-.82,1.84-1.24,2.77-1.74-2.24-1.55-4.64-.8-7.14a60.11,60.11,0,0,1,3.23-7.82c.81-1.77.78-1.92-.55-2.91-.86,2-1.67,4-2.6,5.89a22,22,0,0,0-1.55,5.54,9.09,9.09,0,0,0,.41,4.91c.52,1.4,1.42,2.65,1.39,4.3.46-.19.29-1.16,1-1-.8,2.55-1.8,5-2.54,7.53A76.86,76.86,0,0,0,251,163.71a18.12,18.12,0,0,1-.57,4.42v10.79c.42.42.29,1,.35,1.54.26,2.17.38,4.36.71,6.51.29,1.83.89,3.6,1.2,5.42a50.84,50.84,0,0,0,2.5,8.42,66.23,66.23,0,0,0,3.64,8.12,62.71,62.71,0,0,0,5.36,8.37c.57.78,1.13,1.31.24,2.27a8.21,8.21,0,0,0-.74,1.56c-1.24,2.26-2.3,4.68-4.5,6a1.87,1.87,0,0,0-.33,3c.18.18.29.45.46.64a.69.69,0,0,1,.13.81c-.8,2.52-1.77,5-2.4,7.58a22.84,22.84,0,0,0-.65,8.85c.24,1.66.64,1.94,2,1.39.61-.24.83-.09.95.62a28.14,28.14,0,0,0,.91,4.64c1.19,3.37,2.57,6.65,3.89,10a6.48,6.48,0,0,0-3.21,2.47c.26,0,.44-.18.66-.29a1.22,1.22,0,0,1,1.84.69,1.47,1.47,0,0,1-.55,2c-.79.53-1.39.21-1.84-.62-.18-.32-.3-.69-.45-1-1.44,1.78-1.77,4.12-2.26,6.32-1.33,5.91-1.1,11.94-.79,18a24.78,24.78,0,0,0,1,5.48,1.9,1.9,0,0,0,1.45,1.44c1.47.47,3,.45,4.46,1a50.5,50.5,0,0,1,8.1,4.7,12.3,12.3,0,0,0,6.53,1.89,97.09,97.09,0,0,1,12.29,1.34,32.39,32.39,0,0,0,13.32-.5,23.65,23.65,0,0,0,10.73-6.32,41.22,41.22,0,0,0,6.51-8,12,12,0,0,0,1.89-5.59c0-.5.12-1.08-.47-1.29s-1.15-.51-1.7.17a38.12,38.12,0,0,1-3.65,3.65,27.25,27.25,0,0,1-7.13,4.71,78,78,0,0,1-13,4.42,35.63,35.63,0,0,0-6.55,2.13,10.22,10.22,0,0,1-8.31.19,44.64,44.64,0,0,0-8.07-2c-.65-.11-1.28-.15-1.42.86-.07.48-.35.36-.63.34-1.92-.18-3.38-2.35-3-4.54a15.62,15.62,0,0,1,1.63-5.24c.27-.47.39-1-.13-1.34s-.7.17-.92.46a14.28,14.28,0,0,0-3.13,8.11l-2.25-.91a15,15,0,0,0-2.35-.44c-.88-.22-2,.47-2.6-.81a9.83,9.83,0,0,1-.93-3.14c0-.28-.07-.56-.11-.83-.53-4.07-.93-8.16-.08-12.25a1.79,1.79,0,0,1,.41-1.05,13.51,13.51,0,0,0,3.42-5.07c1.17-3.2,2.67-6.24,4-9.34a1.61,1.61,0,0,0-.29-1.92,17.5,17.5,0,0,1-4.06-10.29,20.82,20.82,0,0,0-1.86-7.27c-.37-.8-1-.84-1.48-.12-.12.19,0,.56-.43.63,0-.79,0-1.54,0-2.29.18-3.57,1.44-6.75,2.73-9.91a41.29,41.29,0,0,1,5.4-9.92c.52-.67,1-1.78,2-.57.32.39.48,0,.58-.43.45-1.83.75-3.71,1.19-5.55a76.69,76.69,0,0,0,1.63-9.72,6.49,6.49,0,0,0-.25-3.75c-.47-.93-1-1-1.33-.06a45.27,45.27,0,0,0-2.06,5.32c-.64,2.35-1.55,4.58-2,7-.16.79-.43.74-.86.19a71.33,71.33,0,0,1-6.3-10.4,80.12,80.12,0,0,1-4.37-9.66,11.31,11.31,0,0,1-.77-5.45,8.83,8.83,0,0,0-.26-3.53,37.37,37.37,0,0,1-1.23-11.1,7.77,7.77,0,0,1,.73-3.61,19,19,0,0,1,.69,2.34c.59,3.84,1.17,7.69,1.67,11.54.47,3.56,1.18,7,3.1,10a5.25,5.25,0,0,0,4.65,2.49c.59,0,1.32-1.35,1.18-2-.08-.38-.23-.5-.49-.3-1.57,1.23-2.67-.08-3.6-1.11-1.83-2-2.46-4.81-3-7.57s-1-5.54-1.45-8.3a69.89,69.89,0,0,1-1.49-11.56,80.51,80.51,0,0,1,1.06-13.09,66.93,66.93,0,0,1,6-19.89c1.74-3.54,3.76-6.8,6.92-8.87.1-.19.26-.48.41-.32s-.13.34-.24.51c-1.3,2-2.59,4-3.89,6-.77,1.17-1.59,2.3-2.34,3.48a2,2,0,0,0,0,1.93c.22.46.83.25,1.26.15A7,7,0,0,0,267,135c1.39-1.46,2.67-3.05,4-4.64s2.48-3,3.81-4.41a14,14,0,0,1,3.53-2.84,2.4,2.4,0,0,0,1.12-3.35c-.11-.26-.42-.42-.16-.82a8.89,8.89,0,0,1,1.18-1.77,19.46,19.46,0,0,1,5.38-3.61,40.64,40.64,0,0,1,9.78-3.27,14.59,14.59,0,0,1,10.69,1.44.91.91,0,0,0,1.16-.2,7.16,7.16,0,0,1,3.1-1.81c-4.8-1.25-9.69-1.37-14.46-2.53,1.28-.46,2.56-.75,3.83-1.07,4.77-1.22,9.53-1.51,14.14.7a35,35,0,0,0,7.12,2.4c3.75.9,7.61,1,11.34,2.08a20.66,20.66,0,0,1,6.86,3.17,20.34,20.34,0,0,1,5.22,6.76c1.18,2.18,2.26,4.42,3.32,6.68,1,2.05,1.87,4.15,2.69,6.26,1.53,3.94,3,7.92,4.23,12a14.23,14.23,0,0,1,.81,3l-.53-.53a1.35,1.35,0,0,0-1.41-.49c-.52.23-.32,1-.36,1.52a3.73,3.73,0,0,0,.26,1.27c.43,1.52,1.71,2.36,2.25,3.79.46-.45.94.2,1.4,0ZM301.93,304.68l.84-.25.84-.24.62-.19.76-.24.13,0,.38-.13.43-.17a13.53,13.53,0,0,0,1.29-.57c1-.49,1.93-1,2.88-1.52l1.1-.63c.58-.33,1.15-.67,1.71-1h0a1.53,1.53,0,0,1-.09.2c0,.07-.08.14-.12.21a2,2,0,0,1-.15.22,4.76,4.76,0,0,1-.33.38l-.16.16-.22.2a11.15,11.15,0,0,1-1.67,1.19l-.33.19-.39.21c-.42.23-.87.45-1.33.66l-.48.21-.24.1-.69.27-.62.21-.33.11-.58.18h0l-.14,0-.53.14-.12,0-.53.12-.36.07-.36.06-.31,0-.33,0-.32,0h-.36a5.38,5.38,0,0,1-.6,0h0ZM253.37,171.42v-3.19h.16l.13,3.19Zm48.58-70.35a3.2,3.2,0,0,0-.47-1.53,3.69,3.69,0,0,1-.2-.34.11.11,0,0,1,0,0h0l-.08-.06a.91.91,0,0,1-.14-.25l.41,0h0a3.57,3.57,0,0,1,.73.79c.26.53.56.92-.22,1.55-1.8,1.43-4,1.55-5.84,2.63-.84.48-1.37,0-2-.56a41.59,41.59,0,0,1-3.14-4c-1.45-1.82-3.2-3.28-4.6-5.17-2.7-3.63-4.58-7.64-4.56-12.55a19.73,19.73,0,0,1,3.72-11.13,35,35,0,0,1,7.08-7.2c.8-.67,1.74-.34,2.75-.4a16.55,16.55,0,0,1-.56,1.81,14.42,14.42,0,0,0-.86,5.47c0,.25-.09.71.28.6,1-.28,1.9-.68,2.85-1,0-.12-.06-.23-.09-.35l-1.38.37a15.32,15.32,0,0,1,1.49-6.54.49.49,0,0,1,.49-.35,7.61,7.61,0,0,1,5.9,2.6c3.27,3.46,3.58,7.92,3,12.52A33.31,33.31,0,0,1,303,89.95c-.26.47-.08.73.06,1.07,1.13,2.87.61,4.76-1.58,6.75a2.44,2.44,0,0,1-2.25.76C300.12,99.61,300.69,100.76,301.95,101.07Zm21.64,5.41-.53,0a4.37,4.37,0,0,1-.53,0h0a8.63,8.63,0,0,1-1-.06l-.5-.07h-.07l-.43-.08-.49-.11-.62-.17-.45-.14c-.45-.14-.89-.31-1.34-.48h0l-.71-.28c-.72-.29-1.43-.59-2.16-.88a8.92,8.92,0,0,1,3.1.2l.52.11.57.14.56.15c.34.09.68.2,1,.31l.54.19.54.2a19.22,19.22,0,0,1,2,.9Zm20.47,10.79a.13.13,0,0,1-.1,0h0c-.06,0-.08-.14-.12-.21l-.08-.12a.23.23,0,0,1,0-.09c.11-.18.2,0,.29.06S344.2,117.13,344.06,117.27Z"/><path class="cls-2" d="M504.71,131.64a14.77,14.77,0,0,0-2.77-5.62c-1.55-2.27-3.1-4.55-4.68-6.81a13.19,13.19,0,0,1-2.41-5.95c-.57-4.45-.64-9-1.4-13.41A77.34,77.34,0,0,0,488.31,83,50.55,50.55,0,0,0,484.16,75a44.89,44.89,0,0,0-5-6.74,44,44,0,0,0-10-8.17,7.33,7.33,0,0,0-6.53-.57,1,1,0,0,1-1.2-.18,8.28,8.28,0,0,0-3.51-2.2c-.59-.13-1.17-.37-1.75-.56H454.3c-.35.35-.81.35-1.22.5a12.4,12.4,0,0,0-2.35.89c-4.32,2.75-7.18,7-9.5,11.91a39.06,39.06,0,0,0-2.67,7.84,17.43,17.43,0,0,0-.55,6.86,20.08,20.08,0,0,0,1.31-6.27,10.23,10.23,0,0,1,1.87-6.13c0,.47,0,.83-.09,1.17a48.94,48.94,0,0,0-.65,9.75c.06,2.64,0,5.28,0,7.91a21.83,21.83,0,0,0,.2,2.62c.47,3.86,1.12,7.68,1.82,11.49a49,49,0,0,0,2.92,10.51,5,5,0,0,1,.39,1.6c.19.09.47.23.31.45s-.32-.13-.46-.27c-1.56-.91-3-2.11-4.47-3.12A16.14,16.14,0,0,0,437.5,112c-1.92-.62-3.77-1.49-5.68-2.15a53.62,53.62,0,0,0-9.74-2.16,66,66,0,0,0-11.52-.42c-.16,0-.35.09-.42-.2l.53-.78A19.24,19.24,0,0,0,404.2,109a48.35,48.35,0,0,0-4.74,3.08c-1.9,1.43-3.72,3-5.54,4.55a36.92,36.92,0,0,0-4.65,5c-.18.22-.32.42-.6.2a7.13,7.13,0,0,1-1.34-1.1c-1.6-2.1-3.4-4.07-4.13-6.86-.22-.83-.78-.74-1.25-.7s-.42.67-.4,1.05a12.85,12.85,0,0,0,1.24,5c.8,1.7,1.71,3.33,2.62,5a1.71,1.71,0,0,1-.22,2.08A56,56,0,0,0,380,134c-.12.21-.1.72-.55.41a13.31,13.31,0,0,1-1.68-1.13,66.78,66.78,0,0,1-6-6.42c-2.17-2.65-4.25-5.41-6.19-8.28a13.33,13.33,0,0,1-2-3.5h2c-.58-1.29-1.61-.92-2.41-1.19-.44-.15-.93-.07-1.23-.66a30.79,30.79,0,0,0-2.36-4.17,3.31,3.31,0,0,1-.26-3.87,3.25,3.25,0,0,0,.26-2.48,4.6,4.6,0,0,0-.92,1.55c-.4.87-.9,1-1.32.29A42.31,42.31,0,0,1,354.06,98c-1-2.47-1.81-5-2.7-7.57a4.17,4.17,0,0,0-1.5,2c.43,1.07.81,2.18,1.32,3.2,1.75,3.5,3.69,6.86,5.15,10.55a3.78,3.78,0,0,1,.21,1.88c-.32,3.52.22,4.92,2.83,5.91a5.06,5.06,0,0,1,2.35,1.68c2,2.71,3.91,5.5,5.85,8.25a44.19,44.19,0,0,0,2.94,4.14,88.8,88.8,0,0,0,6.42,6.14,5.66,5.66,0,0,1,1.63,1.75c.22.53-.49,1.22-.76,1.84s-.25,1.05-.46,1.56a58.75,58.75,0,0,0-2.75,9.08,122.5,122.5,0,0,0-2.33,13.91c-.11,1-.36,1.55-1.31.84-.27-.2-.68-.15-1-.31-.55-.28-.64.26-.82.58-.32.57.24.52.44.68a2.39,2.39,0,0,0,1.57.48c.43,0,.59.15.49.72-.35,2-.32,2-2.09,2.15-.31,0-.62.1-.92.15-1.65.24-3.33.69-4.94.1a18.48,18.48,0,0,1-6.31-4.15c-.52.41-.92,1.11-1.69,1a34,34,0,0,0,3.72,4.88,51.94,51.94,0,0,0-14.36,6.39,4.24,4.24,0,0,0,.36.56.57.57,0,0,1,0,.89c-.27.28-.53.33-.81,0s-.43-.51-.77-.51a10.79,10.79,0,0,0-3.62,3.08c-.85,1-1.9,2-2.1,3.57,0,.34-.25.75.08,1s.53-.22.8-.37c.72-.41.94-1.56,2-1.77-.13.61-.83,1-.33,1.62,1.26-1,2.46-2.14,3.64-3.26a37,37,0,0,1,7.82-5.89,21.49,21.49,0,0,1,9.76-2.75,1.14,1.14,0,0,1,1.11.47,6.1,6.1,0,0,0,2.05,1.72l.22-.24c-.56-.59-1.33-1-1.6-1.92,2.45-.28,4.88-.28,7.24-1.48.65,5.92,1.61,11.72,2,17.61.16-1.46.07-2.93.38-4.67,1.07,2.89,2.79,5.1,3.17,8.06.07.51.12,1,.21,1.54a.51.51,0,0,0,.24.33c.14.06.22-.1.32-.24a4.12,4.12,0,0,0,.16-3.7,20.92,20.92,0,0,1-1.94-4.84,4.69,4.69,0,0,1,.33-4c.11-.16.54.09.38-.43-.08-.27-.29-.33-.45-.45-.34-.23-.4.2-.52.39-.34.54-.64,1.1-1.12,1.92-1.52-5.49-1.11-10.75-.41-16.1.37.17.36.43.4.66q.63,3.86,1.26,7.73c.06.36,0,1,.43.94s.38-.64.41-1a31.2,31.2,0,0,0-.75-7.45c-.49-2.88-1.17-5.78-.12-8.7.32-.88.65-1.75.94-2.64a87.73,87.73,0,0,1,3.44-8.87c1.35-3,2.71-6,4.29-8.93a14.26,14.26,0,0,1,2.94-3.79c2.11-1.89,4.32-3.65,6.48-5.48a12.58,12.58,0,0,0,3-3.69,2.76,2.76,0,0,0-.93.1,15.16,15.16,0,0,0-5,4.14,10.78,10.78,0,0,1-2.33,2.48c-2,1.28-3.48,3.29-5.16,5-.25.26-.41.76-.93.39s-.43-.77-.32-1.23.24-.74.36-1.11a15.85,15.85,0,0,1,3.38-5.32c1.14-1.32,2.34-2.59,4-2.87,1.07-.18,1.3-.78,1-1.86a1.12,1.12,0,0,1,.2-1.1,47.12,47.12,0,0,1,5.42-5.59c1.83-1.52,3.7-3,5.65-4.31a27.12,27.12,0,0,1,8.46-4c6-1.57,11.93-.54,17.76,1.1a31.71,31.71,0,0,1,7.09,2.91c1.19.68,2.39,1.36,3.62,2a23.18,23.18,0,0,1,3.82,2.56,46.55,46.55,0,0,1,5.29,4.66,35,35,0,0,1,3.91,5.19c-2.15-1.28-4.22-2.72-6.36-4a18.53,18.53,0,0,0-7.24-2.65,16.88,16.88,0,0,0,2.52,1.71c1.82.82,3.63,1.72,5.42,2.62a33.13,33.13,0,0,1,5,2.81c2,1.51,3.67,3.31,3.89,6.3.07,1,.16,2,.25,3a2.87,2.87,0,0,0,1.33,2.6,1.39,1.39,0,0,1,.75,1.19c.18,2.67.41,5.32.59,8,.21,3.27.41,6.53.6,9.8,0,.64.25,1.11.81.74s.56,0,.73.36a18.45,18.45,0,0,1,1.6,5.26,5.57,5.57,0,0,0,.91,2.51c.47.66.55,1.82,1.6,2-.86-3.58-1.68-7.05-2.71-10.57.49.07.51.4.61.62a14.55,14.55,0,0,0,2,3.55,11.45,11.45,0,0,1,2.58,4.25,2.4,2.4,0,0,0,2.56,1.51c.45-.08.59-.34.45-.81-.09-.3-.19-.59-.28-.9-.13-.46-.08-1.29-.59-1.17s-.21.9-.21,1.4c0,.06-.06.11-.09.17-.43-.14-.57-.58-.74-.95q-1.78-3.87-3.85-7.56a28.28,28.28,0,0,1-2.22-4.94,33.81,33.81,0,0,1-1.82-9.38,60.91,60.91,0,0,1-.12-6.86l2.23,2.25a7.77,7.77,0,0,0-1.18-3.1c-1.54-2.12-3.4-3.88-5.06-5.86a6.93,6.93,0,0,1-2.05-3.74,26.11,26.11,0,0,1,.22-8,53,53,0,0,1,2.46-8.43c.21-.54.36-1.11.52-1.67.21-.74-.36-.73-.69-.9s-.56-.31-.83.25a46.36,46.36,0,0,0-2.26,5.15,15.61,15.61,0,0,0-.94,5.28c-.09-2.38-.18-4.76,1.1-6.84.34-.55.61-1.16.9-1.75.08-.15.27-.29,0-.49s-.33-.21-.44,0c-.43.88-1.24,1.29-1.72,2.16a13.22,13.22,0,0,0-1.29,7.58,6.94,6.94,0,0,1,.06,2.74,2.66,2.66,0,0,1-1.62-2,8.25,8.25,0,0,0-1.17-3.26c-.58-1.12-1.22-2.19-1.83-3.29-1.77-3.22-2.45-6.9-3.06-10.53a89.68,89.68,0,0,1-1.17-19.27,58.34,58.34,0,0,1,1.8-13.77,23.85,23.85,0,0,1,2.4-6.13,8.77,8.77,0,0,1,7.27-4.08,10.06,10.06,0,0,1,5.76,1.06,76.72,76.72,0,0,1,7.69,4.57,33.69,33.69,0,0,1,7.05,6.48,19.91,19.91,0,0,1,4.3,10.23c.11.85.68.91,1.07,1s.36-.59.52-.94,0-.93.07-1.54c2.86,2.87,4,6.72,5.32,10.56a1.73,1.73,0,0,1-1.17-1.1c-.47-1-.85-2.08-1.28-3.12-.1-.25,0-.74-.42-.67s-.28.57-.26.86A12.89,12.89,0,0,0,484.1,94c1,1.7,2.17,3.16,3.1,4.89a23.72,23.72,0,0,1,2.7,9.5c.18,2.27.18,4.55.17,6.83,0,.36-.1.7.39.93a11.19,11.19,0,0,1,3.94,2.94,9.08,9.08,0,0,1,2,3.4,11.81,11.81,0,0,1,.06,6.22c-.11.43-.4,1,0,1.28a1.17,1.17,0,0,0,1.28-.24l.5-.42c1.46-1.33,1.43-1.31,2.44.44.41.7.24.81-.37,1a35.12,35.12,0,0,1-3.94,1,2.74,2.74,0,0,0-2.12,1.24,10.6,10.6,0,0,1-1.64,1.77,5.06,5.06,0,0,1-3.35,1,42.59,42.59,0,0,1-7.25-.46l-.47,0c-1.6-.14-3.21.56-4.82-.09-3.55-1.44-5.84-4.31-7.45-8.17-.95-2.26-1.54-4.66-2.48-6.91a1.49,1.49,0,0,1-.17-.78c.23-.18.39,0,.53.13,2.07,2.57,3.95,5.33,5.83,8.08,1.64,2.4,3.43,4.7,5.89,6.08v-.27c-1.1-1.26-2.25-2.46-3.29-3.79-1.78-2.29-3.52-4.63-5.18-7-1.37-2-2.71-4-3.92-6.12a38.53,38.53,0,0,1-2.8-7c-1.06-3.18-1.92-6.45-3.13-9.56a4.94,4.94,0,0,1-.34-2.69c.38.07.59.43,1,.32-.29-2.24-.67-4.47-1.18-6.84-.18.51,0,.9-.35,1.25A38.77,38.77,0,0,0,455,88.8a5.57,5.57,0,0,0-2.49-1.28c-.55,0-.75.2-.37.73a31.32,31.32,0,0,1,2,3.61,37.41,37.41,0,0,1,2.6,6.6q1.93,6.34,3.56,12.79c1.05,4.18,2.16,8.35,3.57,12.4a41.56,41.56,0,0,0,4.33,9.55,11.92,11.92,0,0,0,7.37,5.2c2.4.55,4.83.25,7.25.14,2.08-.1,4.1-.17,6,1.15,1.22.85,2.69.17,3.38-1.27a7.41,7.41,0,0,0,.74-1.83c.1-.53.33-.62.68-.68,1.06-.17,2.13-.3,3.18-.53,2.2-.48,4.39-1.07,6.6-1.52C504.82,133.58,505,133.29,504.71,131.64ZM357.8,109.9c.74.5.87,1.34,1.21,2.07C358.09,111.59,358.06,111.54,357.8,109.9Zm2.75,58.86h-.13l-.13,0a1.07,1.07,0,0,1-.38-.23l-.09-.07-.11-.1-.13-.14-.14-.17-.23-.29q-.13-.16-.26-.35l-.39-.54-.22-.31-.12-.17-.11-.17h0l.27.08c.18,0,.35.11.52.18l.25.1.31.14.31.15.26.14c.39.21.77.45,1.16.68s.57.34.87.5A3.7,3.7,0,0,1,360.55,168.76Zm21.13-31,.15.08,0,0,0,0a.16.16,0,0,1,0,.06.18.18,0,0,1,0,.06.16.16,0,0,1,0,.07,1.64,1.64,0,0,1-.26.63c-1.11,2.13-2.26,4.23-3.31,6.4a30.58,30.58,0,0,0-2.92,9.21,4.88,4.88,0,0,1-.14.69l0,0-.11.08-.09.06-.06,0h0c0-.08,0-.15,0-.23v0c0-.08,0-.16,0-.24s0-.16,0-.24,0-.15,0-.23.06-.41.09-.61.11-.6.17-.89.06-.3.1-.44l.1-.43c.06-.24.11-.48.17-.72s.11-.47.16-.72.11-.52.17-.79c.12-.52.25-1,.38-1.55l.21-.77c.1-.36.21-.72.32-1.07,0-.15.1-.31.15-.46s.13-.4.2-.59c.12-.35.24-.7.37-1s.25-.69.39-1c.31-.78.63-1.56,1-2.33.43-1,.73-2,1.1-3.07a1.48,1.48,0,0,1,.12-.26l.06-.1.06-.07a.36.36,0,0,1,.49-.06,1.15,1.15,0,0,1,.22.15l.18.13.17.11.11,0ZM450.88,123v.14l-.09-.12Zm36.6-28.18c-.59-2-1.12-4.07-1.71-6.1-.2-.68-.4-1.35-.61-2a12.43,12.43,0,0,0-.48-1.28h0a22.78,22.78,0,0,0-1.22-2.4l-.68-1.16c-1.37-2.32-2.71-4.66-4.13-6.94a31.17,31.17,0,0,0-8-8.55l-.81-.62-1.1-.88-.48-.4-.27-.23c-.44-.36-.88-.74-1.32-1.11l-1.57-1.33-.79-.66c2.67.12,4.81,1.54,6.94,3.14a35.07,35.07,0,0,1,5.71,5.93,46.66,46.66,0,0,1,3.48,5.11,64.74,64.74,0,0,1,4.24,8,70.45,70.45,0,0,1,4.17,11.37,25.44,25.44,0,0,1,1.23,6.36A18.71,18.71,0,0,1,487.48,94.86Zm2.52,42-.42.12-.84.24-.42.13-.11,0H488l-.05,0,0,0-.05,0a1.09,1.09,0,0,1-.18-.53c-.08-.59.33-.34.54-.32.6,0,1.2.1,1.8.15Z"/><path class="cls-2" d="M412.5,76.95c-.37-1.18-1.23-1.33-2.19-1.29a17,17,0,0,1-2.59,0c-3.32-.37-4.66-1.17-6.11-5.28-1.09-3.09-2-6.28-4-8.9-3.84-5.09-8-9.7-13.38-12.59a5.29,5.29,0,0,0-3.59-1,3.51,3.51,0,0,0,1.8,1.43,5.23,5.23,0,0,1,2.33,1.48c.15.06.42.21.33.31s-.41.15-.56-.12a36.66,36.66,0,0,0-3.62-1.68c-2.15-.66-4.25-1.54-6.44-2-2-.44-3.93-1.13-6-1.43A30.53,30.53,0,0,1,363,45h-2.08c-.11.7.43.62.74.74a33.87,33.87,0,0,0,5.09,1.51,3.23,3.23,0,0,1-.58.34,21.18,21.18,0,0,1-7.73.66,54,54,0,0,0-10.06-.38,8.5,8.5,0,0,0-3.21,1c1.83.61,3.57.36,5.34.76-1.79,1.22-3.68,2-5.2,3.52a14.31,14.31,0,0,0-3.53,5.29c.21,1.28.95.55,1.5.53a5.1,5.1,0,0,0,.67-.74,17.1,17.1,0,0,1,9-7.3,14.39,14.39,0,0,1,7.58-.75A117.22,117.22,0,0,1,375.61,54a60.85,60.85,0,0,1,10.78,4.72,12.46,12.46,0,0,1,2.93,2.38,24.43,24.43,0,0,1,3.25,4.41c2.18,3.73,4.78,7.14,6.27,11.4,1.3,3.73.82,6.43-1.87,9.15a18.74,18.74,0,0,1-2.87,2.1,9.61,9.61,0,0,1-10.4.67c-2.49-1.24-4.8-2.95-7.31-4.16a9.51,9.51,0,0,0-2.08-.69c-.5-.11-.77,0-.85.67s-.35,1,.32,1.37A20,20,0,0,1,376.14,88a9.16,9.16,0,0,1-4.58-1.12,28.37,28.37,0,0,1-4.56-3,38.84,38.84,0,0,1-4.71-4.22,46.9,46.9,0,0,1-3.75-4.5c-2.42-3.51-4.79-7-4.36-11.92a4,4,0,0,0-1.26,4.14,20.13,20.13,0,0,0,3.28,7.21,76.28,76.28,0,0,0,5.42,7.21c.13.16.37.3.27.68a1.6,1.6,0,0,1,.65.5l.07.09c.11.15.21.32.32.47a2.6,2.6,0,0,0,.16.23H363l-.21,0-.12,0h0l-.09,0-.14-.08-.15-.13-.11-.13,0,0a1,1,0,0,1-.09-.15,3.22,3.22,0,0,1-.23-.5l-.09.19C358,78.59,354.4,74.39,352,69a34.46,34.46,0,0,0,.94,4.5,21.37,21.37,0,0,0,6.69,10,36.3,36.3,0,0,0,8,5.07q5.09,2.45,10,5.34a21.79,21.79,0,0,0,5.71,2c.25.07.58.22.64-.29s0-.68-.42-.8a5.32,5.32,0,0,1-2.07-1.46,10.28,10.28,0,0,1,1.1.08c1.57.32,3.13.66,4.68,1,.34.08.71.18.75-.29.08-.88.58-.66,1-.68,4.65-.2,9.31,0,13.76-2.21,1.92-.95,3.8-3.39,2.23-5.86-.28-.44-.42-1.1.25-1.37a16.44,16.44,0,0,0,2-1.45c-.36-.65-1.46-.59-1.27-1.77l-.24.09-.23.09c-.38.16-.75.35-1.12.54l-.67.33h0l-.37.16-.38.15a5.2,5.2,0,0,1-.65.18c-.68.13-1,.2-1.16,0s-.09-.37,0-.83c0-.07,0-.14,0-.21s0-.15,0-.24c.18-1.21.35-2.43.47-3.65a2,2,0,0,1,0-.21.17.17,0,0,1,0-.07.45.45,0,0,1,0-.13.12.12,0,0,1,0,0v0l0,0,0,0h0a.31.31,0,0,1,.26,0l.24.12a6.32,6.32,0,0,1,.55.37c.16.12.32.24.48.34l.21.14.22.12.22.1a2.23,2.23,0,0,0,.64.17l.49-.23.21-.09.4-.19h0V77.7s0,0,0,0a.73.73,0,0,1,.06-.19.24.24,0,0,1,0-.08l.05-.08,0,0,0,0,.08,0,.1,0,0,0,.11,0h0v0a1.21,1.21,0,0,1,.07-.24l0,0a4.77,4.77,0,0,1,3.33.56c.59.57.94,1.48,1.78,1.68C412.08,78.41,412.81,77.92,412.5,76.95Zm-36.65-27.8c.31,0,.62,0,.93.08a11.16,11.16,0,0,1,1.36.24c.3.07.59.15.88.25l.32.12.22.09a10.11,10.11,0,0,1,1.56.79c.27.17.54.36.8.56l.38.31-.1,0c-.26,0-.53-.09-.79-.16a11.06,11.06,0,0,1-1.3-.44l-.43-.18-.85-.37-.58-.26-.58-.26-.8-.32-.39-.14-.32-.1a7.69,7.69,0,0,0-.79-.2Zm8.69,7a.12.12,0,0,1,0,0h0s-.07,0-.12,0l-.11,0L366.84,50.3a4.85,4.85,0,0,1,.59-.29l.27-.1.26-.08.21-.06a4,4,0,0,1,.43-.08l.27,0,.22,0h.44l.41,0h0l.28,0,.13,0h0l.2,0h.05l.28.07c.19,0,.37.09.55.15l.55.18.57.2.39.14,1.86.7.93.35.93.35c.62.24,1.23.48,1.84.74s1.22.52,1.82.81,1.1.51,1.65.79l.46.24.26.15a5.56,5.56,0,0,1,.51.31c.16.11.32.23.48.36l.35.3.33.33C384.51,56,384.58,56,384.54,56.13ZM377.7,90.94l-.28,0h-.07l-.22,0h-.34a2.86,2.86,0,0,1-.71-.15l-.26-.1-.13-.06-.26-.15-.18-.12-.18-.13,2.66.63Zm2.4.71-.33,0h-.09l-.28-.06-.28-.08-.29-.09-.54-.2h0l.39,0,.67,0h.1l.38,0,.19,0,.38.06.37.09.28.1.27.13A4.06,4.06,0,0,1,380.1,91.65Zm19-22.43c-.17-.15-.33-.3-.49-.46l-.24-.24-.29-.32c-.11-.12-.21-.24-.3-.36a3.08,3.08,0,0,1-.2-.26,7.9,7.9,0,0,1-.49-.74c-.82-1.38-1.61-2.79-2.43-4.17l-.32-.54c-.21-.36-.43-.71-.66-1.06l-.45-.7c-.15-.23-.31-.46-.46-.69l-.48-.68c-.33-.46-.68-.91-1-1.35l-.55-.64c-.34-.39-.7-.77-1.07-1.13l-.61-.62-.61-.66-.63-.7-.67-.74.29.06a3.78,3.78,0,0,1,.62.24l.25.13a7.17,7.17,0,0,1,.66.4l.33.24,0,0,.34.26c.24.19.48.4.73.62l.33.3.55.53.43.44.12.13.19.2.68.76.25.29.49.59.25.31.24.31.49.63.24.32.47.65c.31.42.6.85.88,1.28l.24.38c.15.22.29.45.43.67s.41.67.6,1,.26.45.37.67l.18.32c.23.44.45.86.64,1.28l.21.47.19.45a2.67,2.67,0,0,1,.12.3c.11.3.21.58.3.86a2.24,2.24,0,0,1,.08.28,2.73,2.73,0,0,1,.07.26,2.13,2.13,0,0,1,.06.26c0,.09,0,.17.05.25s0,.17,0,.25h0l-.19-.15Zm3.46,18a9.43,9.43,0,0,1-.8.69l-.1.07-.36.26-.37.24-.28.17c-.21.12-.43.23-.65.33l-.27.12-.48.19-.24.08-.24.08-.33.09-.67.16A19.69,19.69,0,0,1,395,90h0l.32-.23c.21-.15.43-.28.65-.42s.43-.28.64-.42l.23-.18a4,4,0,0,0,.51-.48l.13-.15c.26-.34.57-.64.84-1a3.3,3.3,0,0,0,.23-.3,3.16,3.16,0,0,0,.28-.5c.25-.56.55-.69,1.08-.46A18.73,18.73,0,0,1,402.57,87.23Zm3.85-10.14h0Z"/><path class="cls-2" d="M519.9,297.41a40.53,40.53,0,0,0-6.52-9.38c-1.38-1.51-2.78-3-4.15-4.54s-2.71-2.9-4.1-4.28a65.3,65.3,0,0,0-7.37-6.26,54.91,54.91,0,0,0-7.43-4.59,50.92,50.92,0,0,0-8.56-3.35c-.27-.08-.62-.06-.69-.59a2,2,0,0,1,.42,0c2.56.45,5,1.61,7.56,1.93.14,0,.62,0,.26.45s0,.37.24.41l7,1.71c.15-.57-.28-.73-.52-1s-.87-.69-.92-1.38a23.49,23.49,0,0,0-3.82-2,54.05,54.05,0,0,0-8.24-2.22c-2.12-.29-4.22-1.27-6.31-1.21-7.72.24-15.45,0-23.14.93a1.41,1.41,0,0,1-1.23-.4c-.95-.84-1.91-1.67-2.87-2.49a59.42,59.42,0,0,0-5.76-4.13,8,8,0,0,1-2.75-3,15.09,15.09,0,0,1-1.5-3.23c-.08-.32-.27-.63-.56-.63s-.34.39-.44.67a4.34,4.34,0,0,0,.31,2.78,45.69,45.69,0,0,0,4.21,8.7c1.45,2.59,3.1,5,4.38,7.77.34.72.69.85,1.16.14.16-.25.33-.63.54-.67.72-.15,1.56,1.27,1.26,2.11s-.08,1.3.73,1.24c2.35-.18,4.31,1.06,6.41,2.27a17.1,17.1,0,0,1-1.33,1.42,35.79,35.79,0,0,0-6.37,6.38,13.9,13.9,0,0,0-2.31,5.18,4.86,4.86,0,0,0,2.8-2.35c1.51-2.08,2.77-4.41,4.87-5.86,1.2-.83,2.32-1.83,3.49-2.71.14-.11.65-.47.6.06-.1.88.38.56.68.59.69.08,1.36.27,2,.39,1.77.32,3.46,2.15,5.35.34a16.6,16.6,0,0,0-2.32-1.42,1.22,1.22,0,0,1-.54-1.78,2.71,2.71,0,0,1,3-1.28c2.35.95,4.87,1.13,7.24,2,.27.1.74.31.84-.12a11.78,11.78,0,0,0,.43-3.17c0-.67-.94-.39-1.39-.72a2.07,2.07,0,0,0-.48-.23c-.54-.2-.44-.8-.42-1.19s.44-.23.69-.21a51.25,51.25,0,0,1,16,3.43,34.43,34.43,0,0,1,11.11,7.37,38.47,38.47,0,0,1,7.51,10.68c.59,1.23,1.28,1.75,2.46,1.37a1.15,1.15,0,0,1,1.11.24,11,11,0,0,1,2,2.09c2.34,2.6,4.33,5.62,2.75,10a6.54,6.54,0,0,0-.4,2.92c.05.48,0,1.05.66,1.19a1.08,1.08,0,0,0,1.29-.37,6.81,6.81,0,0,0,1.71-2.9c.05-.26.11-.59.43-.66v-3.6C520.22,299.45,520.34,298.3,519.9,297.41Zm-61-25.75-.28,0-.28,0-.18,0-.25-.1-.16-.08-.09-.06-.16-.12-.21-.18a1.83,1.83,0,0,1-.2-.21,4.07,4.07,0,0,1-.35-.46l.22.06.21.08.2.09.32.19.14.09.41.29c.18.13.35.25.53.36l.28.14Zm.7,3.27-.08.07-.08.06-.07.06-.05-.1a.46.46,0,0,1,0-.13h0a.4.4,0,0,1,.18-.23s.12.09.24.19Zm19.06-10.59-.63,0-.81,0h-.53a14.07,14.07,0,0,0-1.81.19,7.12,7.12,0,0,0-.88.21l-.43.15-.43.19a8.79,8.79,0,0,1-1,.45,10.45,10.45,0,0,1-1.07.31,12.18,12.18,0,0,1-2.2.3l-1.14.07-1.14.09-.71.07-1,.1-.57.07-.74.09-.25,0-1.09.15-1.32.21-1.13.2-.34,0-.33,0a3.1,3.1,0,0,1-.82-.1,2.34,2.34,0,0,1-.38-.12,3.23,3.23,0,0,1-.37-.17l-.35-.2c-.17-.12-.34-.25-.51-.39l-.24-.23-.12-.12-.11-.12-.5-.52h0l-.49-.53a10.82,10.82,0,0,1-1.14-1.48l-.14-.23-.16-.29h0a1276011410050.59,1276011410050.59,0,0,1-.07-.26h0l.33,0h0l1.47.18h0q1.1.1,2.21.15l1.09,0c.79,0,1.59,0,2.38,0l1.54,0,2.17-.08c1.67-.07,3.34-.14,5-.15.5,0,1,0,1.48,0h.26q.9,0,1.79.1l.62.06.45,0,.33,0a26.29,26.29,0,0,1,2.74.49l.41.1q1.12.28,2.24.68c.26.09.62,0,.81.57C480.2,264.55,479.41,264.42,478.63,264.34Z"/><path class="cls-2" d="M367.55,323.19c0,.66-.21.81-.77,1-2.61.87-5.23,1.73-7.87,2.44-.13,0-.28,0-.3.25h-4.16a10.69,10.69,0,0,0-4.73-.89c-4-.1-8-.08-11.95,0a26,26,0,0,1-10-1.9,4.7,4.7,0,0,1-2-1.68c-1.52-2.15-3.55-3.61-5.24-5.52a14.69,14.69,0,0,1-2.14-3.62.6.6,0,0,1,0-.64c2.59-4.3,5-8.75,8.92-11.76a1.21,1.21,0,0,0,.51-1c.32-3.11,1.25-5.85,3.75-7.52.35-.24.47-.45.25-.95-1-2.18-.77-4.42-.33-6.74a45.13,45.13,0,0,1,3.25-9.57c.62-1.43,1.49-2.66,2-4.1a2.34,2.34,0,0,1,.88-1L342,266.7c.53.69,1.53.95,1.46,2.17a38.28,38.28,0,0,0-4.82,4.56,20.48,20.48,0,0,0-3.47,5.57c-1.62,3.79-2,7.9-2.06,12.15,1.36-.4,2.46-1.48,3.95-1.65-1.73,3.36-5,5.26-6.12,9.1.83.15,1.25-.73,2.05-.78-1.56,2.49-3.11,5-2.46,8.5a14.41,14.41,0,0,1-1.61-2.59c-.42-1.17-.86-.71-1.35-.25a24.37,24.37,0,0,0-3.44,4.25c-1,1.44-1.82,3-2.76,4.43a1.34,1.34,0,0,0-.17,1.37,12.5,12.5,0,0,0,8.22,8.08c3.5,1.28,7.14,1.4,10.76,1.62,2.45.15,4.91,0,7.68,0-1.38-1.28-1.63-3-2.4-4.49A19.16,19.16,0,0,1,343.5,313a8,8,0,0,1,2-6.51c.58-.73,1.11-.18,1.67.1s.52.75.37,1.28c-.25.9-.5,1.81-.77,2.71a6,6,0,0,0,.35,3.94,14.15,14.15,0,0,0,2.63,4,6.83,6.83,0,0,1,1.6,4.15c0,.83.36.89.86.9a64.5,64.5,0,0,0,6.84-.45,59.64,59.64,0,0,1,7.67-.61C367,322.58,367.54,322.36,367.55,323.19Z"/><path class="cls-2" d="M493,196.63a15.33,15.33,0,0,0-2.09-6.52,43.49,43.49,0,0,0-4-5.89,36.89,36.89,0,0,0-7.8-7.15c-1.06-.72-2.16-1.37-3.27-2a44.52,44.52,0,0,0-7.52-3.24A61.86,61.86,0,0,0,452.37,169c-2.17-.15-4.35,0-6.59,0,.21-1.07.42-1.91.54-2.76.4-2.73.71-5.46-.36-8.11a3,3,0,0,0-2.81-2.2c-.86.1-1.75,1.27-2,2.76-.51,3.44-.52,6.82,1.11,10,.31.59.45,1.13-.43,1.16-3,.09-5.86,1.43-8.77,2.22,0,.47-.5.67-.42,1.17,3.56-1.59,7.31-1.92,11.07-2.2a71.49,71.49,0,0,1,12,.52,58,58,0,0,1,11.4,2.28c3.73,1.12,7.49,2.32,10.75,5a13.28,13.28,0,0,1,4.19,5.8A46.11,46.11,0,0,0,484,189.7c1,1.93,2.28,3.66,3.22,5.66a8.54,8.54,0,0,1,.66,5.63,32.25,32.25,0,0,1-5.2,11.89,23.31,23.31,0,0,1-14.38,9.73,34.58,34.58,0,0,0-7,2.49c-.75.35-2,.88-1.76,1.64s1.5.9,2.42.86c2.55-.1,4.9-1.16,7.27-2.13a5,5,0,0,1,1.92-.7,1.37,1.37,0,0,1-.77,1,36.59,36.59,0,0,1-8.4,3.91c-3.91,1.28-7.7,2.93-11.5,4.55-2.82,1.21-5.65,2.47-8.64,2.71a64.75,64.75,0,0,1-17.7-.88c-4.59-.9-9.13-2.06-13.69-3.12-1.45-.34-2.87-.86-4.3-1.29-3.36-1-6.58-2.41-9.06-5.33a6.87,6.87,0,0,1-2-4.53c1.68.77,3.08,2.05,4.67,3a13.33,13.33,0,0,0,7,1.6c.4,0,.53-.21.64-.59s-.11-.59-.34-.75a3.71,3.71,0,0,0-1.45-.58c-1.37-.3-2.79.06-4.12-.47-3-1.21-5.41-3.57-7.6-6.17a8.94,8.94,0,0,1-2-3.15c.64.64,1.4.68,1.83,1.43a.91.91,0,0,0-.22-1c-1.67-2.42-3.55-4.65-5.09-7.2a22.19,22.19,0,0,1-2.58-5.78,19.7,19.7,0,0,1-.37-6.25c-1.89.7-1.27,2.56-1.55,4.3a80.94,80.94,0,0,1-1.58-8.33,5.81,5.81,0,0,0-1.1,5.08,41.59,41.59,0,0,0,2.28,7.27c1.09,2.6.5,5-.48,7.37,0,0-.18,0-.27,0h-.23c.13.41.24.83.39,1.23a9.8,9.8,0,0,1,.6,5.13c-.64,4-1.3,8.05-1.94,12.08-1.05,6.66.79,12,5.56,15.93a8.48,8.48,0,0,0,3.63,1.92c3.06.63,5.51-.47,7.7-2.92a5.37,5.37,0,0,1,2.83-2,66.75,66.75,0,0,0,7.13-2c.67-.19,1.39-.22,1.89-.81a7.91,7.91,0,0,1,2.69-1.9.43.43,0,0,0,.29-.56c-.56-.08-1.13.23-1.84,0,.51-.17.89-.33,1.29-.43a21.13,21.13,0,0,1,10.89.57c3.64,1,7.25,2.24,11,2.94,5.08,1,9.89-.32,14.62-2.25,2.16-.89,4.31-1.86,6.44-2.85,3-1.4,6-3.09,9-4.52,2.15-1,4.27-2.17,6.45-3.14a44.62,44.62,0,0,0,4.52-2.22c2.13-1.26,3.62-3.39,5.19-5.39s3.29-4.27,5-6.28,3.68-3.9,5.51-5.87a3.73,3.73,0,0,0,1.16-2.31C492.71,202.75,493.23,199.72,493,196.63Zm-6.83-10.72-.26-.15-.19-.13-.07-.06-.14-.12a.58.58,0,0,1-.12-.11l-.15-.15-.1-.1-.1-.11-.2-.25-.19-.27-.18-.3-.18-.32a4.3,4.3,0,0,1,2.25,2.25A3.43,3.43,0,0,1,486.17,185.91ZM384.92,211.75l0-.25-.09-.47c-.07-.39-.13-.74-.2-1.14h0l.19.08a1.34,1.34,0,0,1,.37.25l.08.09,0,.06a.17.17,0,0,1,0,.06.35.35,0,0,1,0,.09v.07A2.12,2.12,0,0,1,384.92,211.75Zm3.82.52-.12-.13-.07-.08c-.11-.11-.2-.23-.29-.34s-.27-.34-.39-.51-.21-.28-.3-.42-.22-.32-.33-.5a3.2,3.2,0,0,1-.17-.28c-.2-.32-.38-.65-.55-1-.08-.14-.14-.28-.21-.42s-.2-.41-.29-.63-.14-.32-.2-.48-.11-.26-.16-.4-.17-.46-.24-.69-.19-.57-.27-.86-.09-.29-.12-.44-.08-.29-.12-.44-.11-.44-.16-.66h0l.08.11.09.12c.19.26.37.53.55.8,0,0,0,0,0,0,.24.36.47.72.69,1.08s.45.73.66,1.1.42.73.62,1.1.41.78.61,1.18.38.78.55,1.18c.08.15.14.31.21.47s.18.41.26.62l.14.36.19.5c.06.17.12.33.18.5l-.49-.48a3.3,3.3,0,0,1-.22-.24ZM390,241.65h0l-.05.08a1.11,1.11,0,0,1-.16.21l-.12.13-.13.11a2.57,2.57,0,0,1-.31.19l-.35.18a1.51,1.51,0,0,1,.13-.81l0,0a.3.3,0,0,1,.11-.1l.07,0,.11,0a1,1,0,0,1,.38,0h0l.13,0,.16,0Zm3.8-19.15c-.86.32-1.29-.09-1.5-1.09h0c0-.16-.07-.31-.11-.47s-.12-.43-.2-.63a1.11,1.11,0,0,0-.07-.18l0-.12a2.42,2.42,0,0,0-.12-.23l-.09-.15a1.53,1.53,0,0,0-.16-.24l-.18-.21-.18-.17a1.65,1.65,0,0,0-.31-.21l-.26-.13-.22-.08-.19-.07a1.88,1.88,0,0,1-.27-.13l-.21-.12-.13-.1-.15-.14-.07-.08-.06-.08a1.28,1.28,0,0,1-.11-.17,1.75,1.75,0,0,1-.13-.29c0-.08,0-.15-.07-.24s0-.13,0-.2v-.13a2.61,2.61,0,0,1,0-.28,4.52,4.52,0,0,1,.1-.91h0c.29.2.58.42.85.64l.48.42.33.32.35.36.39.44.21.27.21.27v0l.11.15.11.15c.1.13.18.27.27.41l.25.42c.17.29.32.58.46.88s.3.66.43,1,.25.7.35,1.08Zm12.36,11a.42.42,0,0,1-.07.16.27.27,0,0,1-.08.08l0,0-.12,0a1.55,1.55,0,0,1-.39,0l-.42,0-.81-.12h0c-.27-.06-.53-.12-.79-.19a7.63,7.63,0,0,1-.77-.26,8.83,8.83,0,0,1-1.48-.75c-.21-.14-.43-.29-.64-.45l-.15-.12-.39-.32c-.19-.17-.37-.34-.56-.53.54.13,1.07.26,1.59.4h0c.52.14,1,.3,1.53.46,1,.32,2,.68,2.94,1.08h0l.13,0,.2,0h0l.12,0,.08,0,0,.06A.42.42,0,0,1,406.18,233.55Zm1.71,2.21a9.09,9.09,0,0,1,5.17.34C411.31,236.43,409.55,237,407.9,235.75Z"/><path class="cls-2" d="M331,262.24c-.38-1.28-.73-2.57-1.18-3.8-1.16-3.09-2.31-6.19-3.6-9.21-.58-1.37-.41-2.78-.64-4.16-.09-.53-.38-.93-.48-1.44A30.49,30.49,0,0,0,320.27,233a17.38,17.38,0,0,1-2.87-6.27c-.17-.85-.43-1.68-.69-2.69-.74,1.83-.1,3.39.22,5.1a42.59,42.59,0,0,1-5.52-4c-1.36-1.06-2.69-2.21-4.37-2.53-.64-.13-.75-.42-.5-1a10.09,10.09,0,0,1,2-3,24.62,24.62,0,0,0,4.12-5.64,59.65,59.65,0,0,0,3.8-9.43,69.68,69.68,0,0,0,2.66-15c.19-2.69.18-5.4.25-8.11a5.39,5.39,0,0,1,.5,1.26c1.33,5.63,1.27,11.37,1,17.11a15.77,15.77,0,0,1-1,4.6c-.15.41-.29,1,.06,1.19a.8.8,0,0,0,1.24-.41,11.91,11.91,0,0,0,1.08-2.15,30.89,30.89,0,0,0,1.09-7.39c0-1.81,0-3.62,0-5.5a.68.68,0,0,1,.36.57c.21,2.9.44,5.79.46,8.7a70.92,70.92,0,0,1-.35,8.12c0,.28-.13.67.29.75s.5-.12.62-.46a17.06,17.06,0,0,0,.9-3.4,52.72,52.72,0,0,0,.21-10.49,49.45,49.45,0,0,0-2.23-10.26,51.69,51.69,0,0,0-2.76-7.3,77.92,77.92,0,0,0-3.73-7.26q-1.91-3.18-4-6.17a26.8,26.8,0,0,0-3.67-4.43c-2.16-2-4.15-4.1-6.12-6.28a12.73,12.73,0,0,0-3.59-2.54c-.43-.24-.63,0-.83.39s.19.53.37.64a43.15,43.15,0,0,1,6.61,5.4,44.87,44.87,0,0,1,6.74,8.16c.38.58,1.76,1.42.5,2.65-.2.2,0,.5.19.72.42.63.82,1.28,1.23,1.92l.11.31.11.1a.66.66,0,0,1,.1.11.07.07,0,0,1,0,0,.64.64,0,0,1,.07.13.49.49,0,0,1,.05.19h0a.91.91,0,0,1,0,.35c-.32-.13-.36-.48-.49-.76l-.18-.26c-.46-.47-1-.88-1.39-1.38a9.38,9.38,0,0,0-5.09-3.41,2.51,2.51,0,0,0-2.82,2.48c.41,0,.64-.4,1-.58.82-.45,1.51-.78,2.42.16a21.42,21.42,0,0,0,2.31,2,18.45,18.45,0,0,1,6.52,9.85,13,13,0,0,1,.57,4.61c-.48,0-.49-.61-.88-.69a9.11,9.11,0,0,0-.5,4.1c.11,2.23.32,4.45.44,6.68.23,4.26-1.28,8-2.77,11.72a53.33,53.33,0,0,1-5.46,10.16,68.6,68.6,0,0,1-6.36,8.14c-2.49,2.68-5.11,5.2-7.65,7.82-1.37,1.41-2.78,2.71-4.67,3-.41.07-.35.41-.46.67-.16.43.13.53.37.69a1.76,1.76,0,0,0,2.51-.21c.2-.21.43-.58.91-.21a18.35,18.35,0,0,1-1.34,1.3,18.63,18.63,0,0,0-5.66,6.31c-.72,1.39-1.5,2.73-2.13,4.18a3.2,3.2,0,0,0-.27,2.95c.51,1,.36,2.33,1.06,3.19,1.29,1.6,2.67,3.11,4,4.63a27.74,27.74,0,0,1,5.16,7.48,21.86,21.86,0,0,0,3.13,5.29c.81,1,1.57,2.08,2.94,2.25a25.4,25.4,0,0,0-7.52,2.86c-.57.31-.43.93-.33,1.35s.5.08.76,0c3-1,5.9-2.21,9.06-2.19a49,49,0,0,1,7.2,1c3.39.53,6,2.69,8.72,4.85,1.56,1.26,3.07,2.71,5.13,2.86.84.07,1.18-.34,1.39-1.16a9.11,9.11,0,0,0-.88-6.3,15.38,15.38,0,0,0-2.94-4,25.15,25.15,0,0,0-6.79-4.88c-3.3-1.67-6.84-1.89-10.39-1.68-1.62.09-3.31.16-4.69,1.24-.76.59-1.17.28-1.54-.3a29.64,29.64,0,0,1-2.24-3.83,24.62,24.62,0,0,0-3.66-5.7c-1.84-2.16-3.81-4.18-5.5-6.52a2.07,2.07,0,0,1-.31-2,17,17,0,0,1,2.25-4.65,79.85,79.85,0,0,1,6.81-8.79c2.85-3.25,5.9-6.23,8.94-9.24.65-.64,1.3-.84,1.92.06a41,41,0,0,1,2.55,3.74c1,1.93,2.63,3.19,4,4.77s2.81,2.77,4.14,4.25a52.37,52.37,0,0,1,3.9,4.75,12.23,12.23,0,0,1,2.14,4.54,37.51,37.51,0,0,0,3.11,9.29,28,28,0,0,1,2,4.29,26.18,26.18,0,0,0,1.23,2.88c.43,1,1.66,1.6,2.36,1.13C331.76,263.84,331.25,263,331,262.24Zm-30.93,4a68.25,68.25,0,0,1,9.85,1.52l.72.19a19.64,19.64,0,0,1,2.08.71,19.08,19.08,0,0,1,2,.93l.64.35a11.36,11.36,0,0,1,1,.66q.49.36.95.76a11.84,11.84,0,0,1,1.17,1.17c.19.21.36.42.54.65s.34.45.51.69.33.48.48.73a14.58,14.58,0,0,1,1.28,2.78c.14.38.27.77.4,1.16l.19.58-.24.17a13.15,13.15,0,0,1-1.12-1,13,13,0,0,0-2.62-2.25l-.46-.28a10.49,10.49,0,0,0-.94-.5L316,275l-.12-.06-.19-.07-.21-.08,0,0-.18-.07-.25-.08-.11,0c-.31-.1-.62-.19-.94-.27l-1.25-.3-2.5-.62q-1.25-.31-2.49-.68c-1.24-.36-2.47-.77-3.68-1.25a8.33,8.33,0,0,1-4.31-3,2.36,2.36,0,0,1-.47-1.29C299.26,266.48,299.41,266.15,300.09,266.22Zm18.44-28.88-.74-.77-.59-.62c-.43-.46-.85-.94-1.25-1.43l-.31-.38c-.22-.29-.44-.58-.65-.89s-.41-.61-.6-.94c-.07-.12-.14-.23-.2-.35l-.1-.18h0a1,1,0,0,1,.34,0,.52.52,0,0,1,.18,0l.17,0h0l.16.06a4.62,4.62,0,0,1,1,.63,8.15,8.15,0,0,1,.84.78l.21.23.23.27a14.12,14.12,0,0,1,1.35,1.89c.12.2.24.41.35.62a12.85,12.85,0,0,1,.68,1.46l.12.34c.09.25.17.5.23.74C319.52,238.37,319,237.86,318.53,237.34Z"/><path class="cls-2" d="M470.77,186.28a10.91,10.91,0,0,0-3.39-4,33.33,33.33,0,0,0-6.94-3.56,56.31,56.31,0,0,0-13-2.9,7.13,7.13,0,0,0-4.68.46,30.77,30.77,0,0,1-6.85,2.55,33.09,33.09,0,0,0-9.22,3.68,11.21,11.21,0,0,0-4.44,5.41,4.85,4.85,0,0,0,.08,3.81c1.71,3.81,4.75,5.78,8.05,7.14a23.87,23.87,0,0,0,10.15,1.62,70.37,70.37,0,0,0,13.36-1.42c5.23-1,10.33-2.28,15-5.34A6.49,6.49,0,0,0,470.77,186.28ZM446,181.83q0,.18,0,.36a5.26,5.26,0,0,1-.11.69c0,.11,0,.22-.08.32a5.09,5.09,0,0,1-.51,1.21,1.4,1.4,0,0,1-.11.18l-.16.23-.17.21-.17.19-.08.08-.08.07-.23.2a3,3,0,0,1-.31.23l0,0a3.32,3.32,0,0,1-.35.21,18.92,18.92,0,0,1-5.85,2.2,6.39,6.39,0,0,0-3.49,1.74,8,8,0,0,0-.92,1.06l-.12.15a1,1,0,0,1-.21.19l-.09.06-.09,0a1.61,1.61,0,0,1-.39.11l-.32,0h-.34a2.6,2.6,0,0,1-.46,0h0l-.25,0-.25-.07-.16-.06-.32-.14-.05,0-.37-.18-.65-.31-.21-.08-.22-.08-.28-.08c-.23,0-.38-.45-.34-.8s.06-.44.1-.66.06-.31.09-.46.07-.32.11-.48a7.32,7.32,0,0,1,.84-2q.14-.22.29-.43c.07-.1.15-.2.23-.3s.16-.19.25-.29a7.16,7.16,0,0,1,.57-.53l.32-.25c.21-.16.43-.31.64-.45l.33-.2c.22-.13.44-.25.67-.36l.34-.16c.36-.17.73-.31,1.1-.44l.42-.14.85-.26c1.51-.43,3-.76,4.51-1.34.35-.14.81-.06,1.1-.28l.22-.15.16-.09.08,0,.08,0,.17-.08a1.93,1.93,0,0,1,.33-.11l.27,0,.12,0,.2,0h.08l.3,0,.25,0h0l.27.06.28.07.36.12.19.07.36.14.92.36.11,0,.1.06a.5.5,0,0,1,.12.11l.07.1,0,.09a.91.91,0,0,1,0,.11.25.25,0,0,1,0,.08s0,.06,0,.09Zm12.83,7.24h0l-.14.1-.14.08-.14.08a2.79,2.79,0,0,1-.43.17l-.15,0-.41.08-.53.07-.35,0a3.65,3.65,0,0,0-.65.12h0l.54-.28.22-.11.14-.07.14-.06.21-.09.31-.1.16,0,.08,0,.14,0,.24,0h.24a2.76,2.76,0,0,1,.55.06Zm5.21-1.61c-.1-.16-.21-.33-.3-.51a1.84,1.84,0,0,1-.16-.4s0-.09,0-.14a4.18,4.18,0,0,0-.09-.53,3.91,3.91,0,0,0-.12-.46,3.12,3.12,0,0,0-.26-.57,1.76,1.76,0,0,0-.13-.2,2.25,2.25,0,0,0-.2-.24,2.08,2.08,0,0,0-.24-.24l-.15-.1-.16-.1-.11-.07-.15-.07-.31-.12-.32-.1a6.8,6.8,0,0,0-.68-.14c-.46-.08-.93-.13-1.38-.21l-.21,0h0l-.28,0c-.6,0-1.24,0-1.91,0a1.71,1.71,0,0,1,.06-.21c0-.07,0-.12.07-.17a1,1,0,0,1,.13-.2l.08-.08a.32.32,0,0,1,.11-.07l.09,0,.1,0a1.23,1.23,0,0,1,.38,0,16.27,16.27,0,0,1,1.64.29l.53.14a9.77,9.77,0,0,1,2.09.83,21.11,21.11,0,0,0,1.93.9l1,.41c.33.14.66.28,1,.42l.33.17a1.24,1.24,0,0,1,.26.19.69.69,0,0,1,.1.11.46.46,0,0,1,.08.12.39.39,0,0,1,0,.13.48.48,0,0,1,0,.15.94.94,0,0,1,0,.25l0,.13a2.51,2.51,0,0,1-.24.46c-.23.36-.43.75-.66,1.1l-.19.27-.1.12-.11.12-.11.12-.19.16a1.48,1.48,0,0,1-.21.15A4.62,4.62,0,0,0,464,187.46Zm4.63,2a1,1,0,0,1,0,.12,1.34,1.34,0,0,1-.16.37l0,.06c-.3.43-.58.87-.87,1.32l-.86,1.38c-.37-.26-.45-.74-.84-.95a2.2,2.2,0,0,1-.57-.4.56.56,0,0,1,0-.83,3.13,3.13,0,0,1,.53-.52c.53-.44,1-.93,1.56-1.36l.08-.07.16-.16.05,0,.06-.06.06,0a.48.48,0,0,1,.13-.08l.05,0a.19.19,0,0,1,.11,0l.06,0,.06,0,.06,0,.08.09.12.2a1.27,1.27,0,0,1,.1.22,1.3,1.3,0,0,1,.08.3.63.63,0,0,1,0,.09A.86.86,0,0,1,468.64,189.47Z"/><path class="cls-2" d="M435.74,256.45c-.51-.3-.31.3-.41.52-.22.48-.41,1-.65,1.48-.12.25-.25.64-.53.45l-.08.11c0-.08,0-.17-.07-.25l0,0,0,0v0c.09-.25.17-.51.24-.77a20.71,20.71,0,0,0,.68-7.3l-1.18.23a47.89,47.89,0,0,1-2.29,8.39,21.32,21.32,0,0,1-3.83,6.59,20.27,20.27,0,0,1-6.15,4.73c.16-1-.38-1-.92-.7a42.47,42.47,0,0,1-7.89,3.7,34.13,34.13,0,0,1-14.79,2.32,15.23,15.23,0,0,0-6.36.77c-.73.26-1,.4-.75,1.05-1.5,0-3,0-4.47,0a64.76,64.76,0,0,1-6.85-.26,18,18,0,0,1-4.8-.91,37.15,37.15,0,0,1-6.23-3.63,29,29,0,0,0-7.91-4,5.39,5.39,0,0,0-4.81.52c5.63-.12,10.47,2.44,15.3,5.74a2.26,2.26,0,0,1-.48.09l-1.82-.41c-.22,0-.64-.16-.47.26.43,1.07-.35.62-.59.63a44.74,44.74,0,0,0-11.23,2c-2.06.72-4.22,1.1-6.21,2.2a2.07,2.07,0,0,0,1.45.66c5.42.62,10.87.55,16.31.65a25,25,0,0,1,4,.37,23.85,23.85,0,0,1-3.67.63c-.41,0-1,.09-.94.68s.59.41.91.45c3.13.4,6.25.82,9.4,1,2,.13,4.09.29,5.85,1.84a80.82,80.82,0,0,0,8.57,6.35c1.07.72,2.17,1.41,3.51,1,.46-.15.82,0,1.11.56a62.89,62.89,0,0,1,3.65,7.83,1.79,1.79,0,0,1-.26,2.09,46.81,46.81,0,0,1-11.76,9.73c-2.63,1.56-5.31,3-8.32,3.38a8.91,8.91,0,0,1-5-.68c.87-.31,1.75-.47,2.6-.76.33-.12,1,.13.95-.58-.05-.55-.64-.28-1-.31a11.11,11.11,0,0,0-4.2.52c-.62.19-.91,0-1.06-.64a31.5,31.5,0,0,1-.51-13.23c0-.24.27-.58,0-.74a.48.48,0,0,0-.73.21,15.72,15.72,0,0,0-1.34,2.81,27.9,27.9,0,0,0-.77,8.06c-.84-.59-1.15-1.5-1.76-2a1.13,1.13,0,0,0-1.16-.35c-.45.17-.39.72-.37,1.13a5.92,5.92,0,0,0,2,4.48,29.1,29.1,0,0,1,2.89,2.88c.71.81.9,2,1.77,2.7a7.11,7.11,0,0,0,4.34,1.28c.67.06,1.27-.15,1.37-.9.2-1.5,1.12-1.3,2-1.34a3.42,3.42,0,0,0,.62-.08,34.26,34.26,0,0,0,11.1-4.91,47,47,0,0,0,6.75-5.2,17.59,17.59,0,0,0,4.08-4.86,4.61,4.61,0,0,0-.21-4.36c-.83-1.35-1.95-2.45-2.5-4.05a23.74,23.74,0,0,0-3.55-6.48,17.29,17.29,0,0,0-4.59-4.36c-1.55-1-3.19-2.09-4.9-2.07-2.93,0-5-1.94-7.41-3.24a2.28,2.28,0,0,1-1.06-1.4,9.55,9.55,0,0,1,3.91,1.18c1.84.88,3.63,2,5.65,2.23,3.93.45,7.81,1.19,11.71,1.85a4.13,4.13,0,0,0,1.23.1c2.5-.35,5-.78,7.48-1.26a34,34,0,0,0,7.55-2.41,23.56,23.56,0,0,0,6.84-4.77,43.61,43.61,0,0,0,5.38-6.83c2-3,3.63-6.25,6-8.89a8.54,8.54,0,0,0,1.55-2.64C435.82,257,436.11,256.66,435.74,256.45Zm-13.58,17.11a4.9,4.9,0,0,1-.37.52,5.84,5.84,0,0,1-.42.45,5.25,5.25,0,0,1-.45.4l-.33.25-.26.18c-.45.31-.93.58-1.39.86l-.49.3-.63.4a50.94,50.94,0,0,1-4.54,2.52c-2.7,1.31-5.55,1.56-8.4,1.83-3.8.36-7.59-.18-11.37-.51a57.71,57.71,0,0,1-5.82-.9c0-.1,0-.2,0-.29,1.15,0,2.31.09,3.45,0l.43,0,3.47-.36.25,0q2.69-.31,5.38-.68l1.82-.26,1.82-.27,1.82-.28,2.37-.39.15,0,2.46-.43.37-.07.73-.18.72-.22.32-.1.32-.11c1.1-.39,2.19-.84,3.31-1.17.17,0,.32-.26.51-.22h0l.08,0,0,0,.24.18.25.15a1.78,1.78,0,0,0,.46.17l.13,0a2.3,2.3,0,0,0,1.83-.64,8.17,8.17,0,0,1,1.62-1.23l1.37-1.25C423.24,273,422.67,273.22,422.16,273.56ZM434,258.73a0,0,0,0,1,0,0,.81.81,0,0,0,.14.14l0,0Z"/><path class="cls-2" d="M511,302.52c-.29,2.13-.64,4.22-2.15,5.75a11.64,11.64,0,0,1-3.78,2.11A64.5,64.5,0,0,1,494,314.16a94.9,94.9,0,0,1-13.69,2.51,27.86,27.86,0,0,1-8.28-.19c-1.31-.25-2.62.17-3.93.19a14.74,14.74,0,0,0-2,.15,2.51,2.51,0,0,1-3-1.43c-.29-.59-.93-.43-1.4-.66a15.36,15.36,0,0,0-4.16-1.38,11.85,11.85,0,0,1-4.8-2.28,7.5,7.5,0,0,1-1.94-2.39,5.32,5.32,0,0,0-4.28-2.65c-1.85-.25-3.69-.58-5.52-1-.87-.19-1.7-.64-2.56-.9-.62-.19-.36-.7-.34-1.06,0-.67-.17-.84-.75-.93a13.1,13.1,0,0,1-6.14-2.87,26.21,26.21,0,0,1-5.44-6.22,44.53,44.53,0,0,1-3.81-6.91,17.16,17.16,0,0,0-.87-1.76c-.31-.53-.75-1.06-.45-1.72s.86-.36,1.39-.4a3.21,3.21,0,0,0-.57-1.63c-.17-.24-.55-.48-.08-.83s.61-.25.82.24a22.08,22.08,0,0,0,6.68,8.24c.66.56,1.31,1.15,2,1.7a1.1,1.1,0,0,1,.53,1.17c-.13.62-.58.43-.93.48a3.51,3.51,0,0,1-2.69-.92c-.09,0-.22-.12-.24-.09s0,.26.07.36a20.39,20.39,0,0,0,4.18,5.45,11.09,11.09,0,0,0,5.6,2.82,4.27,4.27,0,0,0,2.2.18,15.93,15.93,0,0,0-.82-1.53c-1.32-1.89-1.07-3.75-.13-5.75a21.83,21.83,0,0,1,4.6-6.94,7.8,7.8,0,0,1,2.46-1.48c.85-.35,1.26.11,1.1,1.13a5.82,5.82,0,0,1-.63,1.62,12.75,12.75,0,0,0-.77,2.71c-.16.71,0,.78.62.58a8.34,8.34,0,0,0,3-2.29,29.79,29.79,0,0,1,4.59-4c.3-.19.7-.52.9-.28s.13.82,0,1.23a17.16,17.16,0,0,1-3.6,5.83,7.83,7.83,0,0,1-5.71,2.6c-.76,0-1.28-.15-1.34-1.17a5.49,5.49,0,0,0-.33-1.24c0-.14-.13-.34-.23-.36s-.33.12-.37.31c-.36,1.51-1.28,2.73-1.59,4.26a2.24,2.24,0,0,0,.5,2.07c1.29,1.46,2.37,3.14,3.62,4.65a4.15,4.15,0,0,0,2.79,1.51,15.4,15.4,0,0,1,2.87.48c1.21.43,1.62,1.23,1.18,2.62-.28.85-.09,1.15.61,1.45,2.46,1.1,4.89,2.32,7.36,3.43a10.34,10.34,0,0,0,4.25.9c.64,0,.86-.26.71-1.08a29.11,29.11,0,0,1-.68-7.81c0-.39,0-.85.47-.9s.6.3.71.71c.77,3.11,2.31,6,2.38,9.29,0,.47.21.5.52.51,5.67,0,11.33.34,17-.89a18.93,18.93,0,0,0,5.25-2c1.11-.62,1.32-1.33.58-2.44-2.24-3.4-4.76-6.55-7.17-9.79a73.75,73.75,0,0,1-5-8c-.6-1.07.07-1.94.54-2.71s1-.26,1.57.06a18.4,18.4,0,0,1,4.24,3.67,47.79,47.79,0,0,1,3.94,5c1.37,2,2.61,4.14,3.8,6.32a18.6,18.6,0,0,1,1.81,6.87c.11.88.36,1.15,1.11.77,2.84-1.45,5.8-2.47,8.73-3.61a3.87,3.87,0,0,1,1.84-.27,1.91,1.91,0,0,0,2.2-1.67C509.26,302.58,509.85,302,511,302.52Z"/><path class="cls-2" d="M413,245.09a4,4,0,0,1-3.44,2.48c-3.8.31-6.51,2.91-9.36,5.33-3.66,3.1-7.69,4.88-12.29,3.92a13.89,13.89,0,0,1-5.68-2.72,20.48,20.48,0,0,1-4.06-4,16.3,16.3,0,0,1-3.61-9.71,68.63,68.63,0,0,1,1-10,1.5,1.5,0,0,0-.43-1.43,10,10,0,0,1-2.55-4.67,5.87,5.87,0,0,1,.06-3l2.73,4.71c1.49-8.65.33-16.94-.87-25.26a10.77,10.77,0,0,1,1.67,3.64c1.45,5.68,1.44,11.49,1.41,17.33,0,6.38-.34,12.78.21,19.14.25,3,.92,5.94,2.8,8.16a11.36,11.36,0,0,0,12.78,3.55c3.21-1.21,6.25-2.89,9.39-4.28a4.21,4.21,0,0,1,1.19-.38c2.11-.25,3.75-1.7,5.5-2.87a4.19,4.19,0,0,1,3.27-.75C413.22,244.42,413.24,244.65,413,245.09Z"/><path class="cls-2" d="M340.52,231c-.11,1.23-.13,2.47-.19,3.71-.15,4.63-.28,9.25-.47,13.88a29.4,29.4,0,0,1-.79,5c-.94,4.35-1.83,8.72-2.76,13.07-.35,1.61-1,3.13-1.24,4.78,0,.23-.09.51-.35.52s-.23-.23-.23-.43c.05-4-.77-8-.72-12,.06-4.61,1.25-8.91,2.42-13.24a62.46,62.46,0,0,0,1.47-8.15,49.91,49.91,0,0,1,1.07-7.51c.16-.53.2-1.49.94-1.29S340.59,230.14,340.52,231Z"/><path class="cls-2" d="M368.12,266.66c0,.31-.3.29-.48.3a3.4,3.4,0,0,1-2.3-1.2,13.85,13.85,0,0,1-3.31-5.91A74.72,74.72,0,0,1,359.22,241a1.47,1.47,0,0,1,.4-1.27c.4-.37.75-.42,1.05.09a9.34,9.34,0,0,1,1,2.18c1.47,5.33,2.76,10.71,3.78,16.18a13.93,13.93,0,0,1,.41,3.63,4,4,0,0,0,1.92,4.41A.65.65,0,0,1,368.12,266.66Z"/><path class="cls-2" d="M421.84,172.21c-.07,1.19-1.13,1.5-1.6,2.34-.1.17-.38,0-.58-.06a4.71,4.71,0,0,1-2.63-2.62,10.52,10.52,0,0,1-1.21-4.7l3.94-4.42c.3-.33.55-.74,1.05-.61a8.38,8.38,0,0,1,1.06,2.83,4.6,4.6,0,0,1-.85,1.59A4.49,4.49,0,0,0,421.84,172.21Z"/><path class="cls-2" d="M448.93,135.29a8.49,8.49,0,0,1,.83,3.14,1.68,1.68,0,0,1-1.5-1.23,5.27,5.27,0,0,0-4.66-3.86,3.39,3.39,0,0,1-1.3-.35c-.37-.21-1.17.22-1.09-.7s.21-1.78,1.13-2.06c.36-.11.72-.2,1.07-.3.06-.56-.75-.74-.41-1.37s.5-1.18,1.43-.58a27.63,27.63,0,0,1,5,3.69,1.41,1.41,0,0,1-.11,2.1C448.64,134.17,448.67,134.62,448.93,135.29Z"/><path class="cls-2" d="M415,133.71c-.69,1.21-1.84,1.31-2.85,1.68a12.86,12.86,0,0,0-2.92,1.44,2,2,0,0,1-1.07.4c-1.6,0-2.3,1.44-3.16,2.61a2.26,2.26,0,0,0-.38,1.56c0,.63,0,1.19-.73.83-1.11.15-1.09-.51-.77-1.37a16.52,16.52,0,0,1,3-5c1.7-2,3.49-3.94,6-4.49a3.39,3.39,0,0,1,2.33.17C415.41,132,415.54,132.72,415,133.71Z"/><path class="cls-2" d="M510.49,276.14c-.4.52-1.07-.09-1.62-.26a20.25,20.25,0,0,1-6.58-3.82c-.5-.41-1.18-.47-1.6-1.05-.08-.51.19-.76.51-1a2.21,2.21,0,0,0,.95-1.33.17.17,0,0,1,.18,0,.32.32,0,0,0,.45-.14c2-.16,3.93-.29,5.89-.49.79-.08,1,.17.91,1.11-.09,1.24-.46,1.65-1.57,1.56-1.65-.14-3.31-.06-5,0-.22,0-.61-.23-.66.24s.33.55.55.59c1.94.39,3.75,1.39,5.69,1.66a1.47,1.47,0,0,1,1.42,1.32C510.17,275,510.8,275.72,510.49,276.14Z"/><path class="cls-2" d="M371.5,272.11a5.74,5.74,0,0,1-2.87-1,66.81,66.81,0,0,0-9.56-4.65,13.19,13.19,0,0,0-6.29-1.19c-.07-.48.43-.67.43-1.12a1.12,1.12,0,0,1,.82,0,.51.51,0,0,0,.63.12c2.39-.06,4.62.8,6.89,1.49a27.26,27.26,0,0,1,7.87,4A10.47,10.47,0,0,1,371.5,272.11Z"/><path class="cls-2" d="M481.07,305.44a21.61,21.61,0,0,1-5.24,2.08,6.64,6.64,0,0,1-4-.11c-.31-.11-.69-.15-.91-.67,2.59-.2,4.68-1.66,6.7-3.31.59-.48,3.31-.2,3.74.47A1,1,0,0,1,481.07,305.44Z"/><path class="cls-2" d="M420,160.74a26.13,26.13,0,0,1-3.91,4.7c-.08.08-.27,0-.41,0l0-2.14a1.68,1.68,0,0,0,.12-1.22,6.34,6.34,0,0,1,.69-2.8.89.89,0,0,1,1-.58c.44,0,.55.37.6.8C418.26,160.91,419.34,160.36,420,160.74Z"/><path class="cls-2" d="M426.21,174.59c-.12.92-1.15,1.31-1.05,2.35-1.71.69-3.16,2.06-5,2.48,0-.79-.85-.81-1-1.44A38.64,38.64,0,0,1,426.21,174.59Z"/><path d="M432.67,173.18a51,51,0,0,0-7.51,3.76c-.1-1,.93-1.43,1.05-2.35,1.49-1,3.25-1.13,4.83-1.89a4.6,4.6,0,0,1,2-.69C433.12,172.49,432.59,172.69,432.67,173.18Z"/><path d="M421.84,172.21a4.49,4.49,0,0,1-.83-5.66,4.6,4.6,0,0,0,.85-1.59C422.37,167.39,422.91,169.8,421.84,172.21Z"/><path d="M349.87,84.68l-1,.24a25.44,25.44,0,0,1-.68-8.42l1.07,0A33.64,33.64,0,0,0,349.87,84.68Z"/><path d="M502.14,268.62a2.21,2.21,0,0,1-.95,1.33c-.32.29-.59.53-.51,1a13.68,13.68,0,0,0-4.19-2.11c.15-.57-.28-.73-.52-1s-.87-.69-.92-1.38a8.63,8.63,0,0,1,2.28,1.34C498.87,268.79,500.51,268.63,502.14,268.62Z"/><path class="cls-2" d="M337.79,124.15c-1.25-.38-1.25-.38-3.83-5.85,1.91.14,2.27.51,2.78,2.5C337,121.94,337.44,123,337.79,124.15Z"/><path class="cls-2" d="M353.83,156.86c-1.27-1.51-1.61-3.5-2.14-5.66a13.6,13.6,0,0,1,3.41,4.19C355.18,156.44,354.68,156.85,353.83,156.86Z"/><path class="cls-2" d="M357.23,163.32a2.49,2.49,0,0,1-2.5-2c-.09-.3-.11-.64-.49-.64h0c-.31-.85-.8-1.32-1.64-1a7.55,7.55,0,0,1-.15-4.06,23.58,23.58,0,0,0,3.39,6.17A17.16,17.16,0,0,0,357.23,163.32Z"/><path d="M351.36,90.42a4.17,4.17,0,0,0-1.5,2c-.61-.84-.44-1.88-.57-2.85-.11-.74-.14-1.49-.2-2.23.58.15.79-.56,1.24-.72C350.91,87.78,350.82,89.21,351.36,90.42Z"/><path d="M420.81,162.14c-.5-.13-.75.28-1.05.61l-3.94,4.42a4.9,4.9,0,0,1-.17-1.69c.14,0,.33,0,.41,0a26.13,26.13,0,0,0,3.91-4.7C420.73,160.82,420.53,161.67,420.81,162.14Z"/><path d="M357.4,163.55c-.52.41-.92,1.11-1.69,1-.84-1.22-2-2.13-2.71-3.44-.24-.42-.57-.8-.41-1.38.85-.31,1.34.15,1.64,1h0c.38,0,.4.34.49.64a2.49,2.49,0,0,0,2.5,2Z"/><path d="M262.94,269.56c-.79.53-1.39.21-1.84-.62-.18-.32-.3-.69-.45-1a1,1,0,0,1,.34-.74c.26,0,.44-.18.66-.29a1.22,1.22,0,0,1,1.84.69A1.47,1.47,0,0,1,262.94,269.56Z"/><path class="cls-2" d="M372.36,297.93c-.08.8-.22,1.38-1,1.39a4.71,4.71,0,0,1-2.9-.64,4.25,4.25,0,0,0,2-1.42,1,1,0,0,1,1-.41C372,296.93,372.44,297,372.36,297.93Z"/><path class="cls-2" d="M350.53,71.74a10.51,10.51,0,0,0-1.31,4.78l-1.07,0V76a.46.46,0,0,0,.07-.48,11.73,11.73,0,0,1,.8-4.09A2.25,2.25,0,0,0,350.53,71.74Z"/><path d="M357.56,160.78a11.21,11.21,0,0,1-3.73-3.93c.85,0,1.34-.41,1.26-1.47.6.34.47,1.19.86,1.67-.57.25-.84.59-.44,1.32s.75.67,1.21.17A4.91,4.91,0,0,1,357.56,160.78Z"/><path d="M352.79,265.25a15.66,15.66,0,0,1-4,.2v-1.13a11.34,11.34,0,0,1,4.39-.18C353.22,264.58,352.72,264.77,352.79,265.25Z"/><path class="cls-2" d="M274.37,162.72a1.65,1.65,0,0,1-1.78-.54c-.54-.52-.1-1,0-1.49s0-1.17.64-1.37l1.42,2.7C274.89,162.45,274.79,162.59,274.37,162.72Z"/><path class="cls-2" d="M419.35,179.88a7.14,7.14,0,0,1-3.77,1.25,6,6,0,0,1,2.7-2.47A3.32,3.32,0,0,1,419.35,179.88Z"/><path d="M370.35,177a13.68,13.68,0,0,1-5.31-2.89l.22-.24C366.81,175.26,368.85,175.54,370.35,177Z"/><path d="M420.25,121.12a20.29,20.29,0,0,1-5.15,1.65C416.83,122.26,418.19,120.33,420.25,121.12Z"/><path class="cls-2" d="M350.32,86.59c-.44.17-.65.87-1.24.72a12.5,12.5,0,0,1-.25-2.39l1-.24C350.24,85.25,350,86,350.32,86.59Z"/><path d="M344.71,267.92l-1.28.95c.08-1.22-.93-1.48-1.46-2.17.32-.29.61-.62,1.06-.57A4,4,0,0,0,344.71,267.92Z"/><path class="cls-2" d="M345.3,267.13a.64.64,0,0,1-.59.79,4,4,0,0,1-1.68-1.8h.4a.88.88,0,0,0,.83.1C344.75,266.3,345.23,266.44,345.3,267.13Z"/><path d="M434.91,250.64l-1.18.23a16.8,16.8,0,0,0,.42-2.67A5.3,5.3,0,0,1,434.91,250.64Z"/><path d="M356.87,156.56c-.55.19-.39-.93-.75-1.32a1.81,1.81,0,0,1-.23-.52c.46-.45.94.2,1.4,0C357.32,155.39,357.37,156.38,356.87,156.56Z"/><path d="M350.94,70.55a2.67,2.67,0,0,1-.41,1.19,2.25,2.25,0,0,1-1.52-.27l.43-1.45C349.65,71.3,350.39,70.57,350.94,70.55Z"/><path d="M420.19,179.42a1.43,1.43,0,0,1-.84.45,3.32,3.32,0,0,0-1.07-1.22l.87-.68C419.34,178.61,420.16,178.64,420.19,179.42Z"/><path class="cls-2" d="M356.73,158.54c-.46.5-.84.51-1.21-.17s-.13-1.07.44-1.32A2.61,2.61,0,0,1,356.73,158.54Z"/><path d="M345.42,177.23c-.27.28-.53.33-.81,0s-.43-.51-.77-.51l1.24-1a4.24,4.24,0,0,0,.36.56A.57.57,0,0,1,345.42,177.23Z"/><path d="M382.74,211.54h-.23c-.34-1.13-1.1-2.09-1.13-3.37A8.35,8.35,0,0,1,382.74,211.54Z"/><path class="cls-2" d="M348.83,264.32v1.13c-.54,0-1.29,0-1.27-.69S348.37,264.39,348.83,264.32Z"/><path class="cls-2" d="M368.14,166a1.67,1.67,0,0,1-1.6.34c.35-.59.74-1,1.26-1C368,165.4,368.25,165.93,368.14,166Z"/><path d="M282.86,231.15c-.35.65-.78.14-1.21-.08.47-.13.54-1.05,1.12-.79C283,230.39,283,230.9,282.86,231.15Z"/><path d="M481.54,135a7.37,7.37,0,0,1-2.69-1.42v-.27c.68.53,1.55.58,2.21,1.18C481.24,134.67,481.52,134.69,481.54,135Z"/><path d="M481.56,135l0,0s0,0,0,0Z"/><path d="M409.87,226.55c-.43.46-.9.45-1.56.13.21-.18.29-.3.37-.31.42,0,.76-.64,1.23-.22C410,226.27,410,226.43,409.87,226.55Z"/><path d="M415.68,163.34a2.44,2.44,0,0,1,.12-1.22A1.68,1.68,0,0,1,415.68,163.34Z"/><path d="M344.27,266.21a.88.88,0,0,1-.83-.1A1.05,1.05,0,0,1,344.27,266.21Z"/><path d="M354.67,264.29a.51.51,0,0,1-.63-.12Z"/><path d="M348.14,76c0-.16,0-.32.07-.48A.46.46,0,0,1,348.14,76Z"/><path d="M502.77,268.45a.32.32,0,0,1-.45.14A.4.4,0,0,1,502.77,268.45Z"/><path d="M481.56,135v0h0Z"/><path d="M482,135.27l-.47,0a.46.46,0,0,1,0-.2Z"/><path class="cls-2" d="M414.16,88.75h0Z"/><path d="M378.94,125.75c-1.13-1.88-1.29-4.17-1.94-6.29A13.75,13.75,0,0,1,378.94,125.75Z"/><path class="cls-2" d="M354.24,160.7l0,.09,0-.08Z"/></g><g id="text"><path class="cls-3" d="M81.77,146.77c-.29.34,14.89,12.53,14.69,12.77-.34.39-20.1-11.24-20.41-10.89s14.29,11.8,14,12.15-16.08-8.33-16.36-8,18,14.81,17.57,15.27c-.22.26-15.13-7.16-15.41-6.85-.42.48,13.62,11.12,13.26,11.53-.64.73-27.7-18.67-28.22-18.07s21.75,17.82,21.21,18.44"/><path class="cls-3" d="M79.68,127.48c-.12.14,2.8,2.17,2.66,2.32"/><path class="cls-3" d="M81.55,86.72c-.11.13,9.69,8.18,9.57,8.32s-9.53-2.3-9.68-2.13c-.29.34,9.74,7.91,9.46,8.23s-14.55-7.22-14.84-6.88c-.45.52,20.94,17.48,20.58,17.89-.54.63-26.9-18.34-27.38-17.78s23.85,19.85,23.41,20.35c-.78.89-35.15-24.73-35.87-23.91s35.79,29.75,35.12,30.53S54.72,93.61,53.83,94.64,92.11,126.48,91.4,127.3c-.91,1-43.67-33.71-44.65-32.58s44.85,36.93,43.83,38.1S37.29,91,36.16,92.35c-.68.79,29.5,24.21,28.79,25-.44.5-26.88-18-27.31-17.51S59.27,117.19,58.54,118c-.42.48-23.45-14.48-23.91-13.95-.67.77,26.67,22.07,26.12,22.7S32,106.84,31.36,107.61s24,19.61,23.36,20.3-28.76-20-29.34-19.36S57.21,135,56.6,135.7,26.41,114.22,25.8,114.93c-.77.88,32.3,26.6,31.57,27.44s-33.27-23.93-33.9-23.21S59.68,149,58.88,149.95c-.6.69-36-26.54-36.6-25.82-.83,1,33.77,27.71,33,28.65-.6.69-32.19-22.5-32.77-21.83-1.19,1.36,62.17,51.71,61,53-1,1.17-59.42-47.08-60.44-45.91C21.68,139.63,75,181.14,74,182.32S24.88,144.21,23.67,145.6,74,187,72.83,188.33c-.88,1-47.5-36.66-48.31-35.74-1,1.1,44,36.73,43.25,37.59S28,160.22,27,161.34c-.64.74,28.39,23.31,27.71,24.09"/><path class="cls-4" d="M143.94,143.21c-.55.63,25.74,21.29,25.2,21.91S149.78,153.58,149.4,154s16.26,13.16,15.78,13.72S145.12,156,144.8,156.36c-.49.56,22,18,21.45,18.65s-28-19.05-28.57-18.46,29.23,24.29,28.68,24.93"/><path class="cls-4" d="M157.09,123.15c-.09.11,6,5.06,5.94,5.16-.36.41-21.63-12.6-22.08-12.09-.61.71,27.52,22.49,26.81,23.31s-34.51-25.05-35.16-24.31c-.88,1,38.8,32.07,38,33s-42.38-32.66-43.34-31.56c-.81.94,49.21,41.08,48.37,42s-48.18-37.62-49.39-36.24c-.94,1.08,49.93,41.12,48.8,42.42S119.11,120.63,118,122c-.49.56,22.07,18.26,21.61,18.79s-26.06-16.5-26.5-16c-.59.68,22.71,18.74,22.21,19.31s-24.13-15-24.51-14.53,26.39,21.83,25.84,22.46-24.82-16.57-25.35-16,24.89,20.38,24.27,21.1c-.45.52-22.11-13.58-22.5-13.14-1.21,1.39,44.13,36.61,43.26,37.61-1,1.15-49.11-38.8-50.2-37.55s46.71,38.33,45.59,39.63c-.9,1-43-32.72-44-31.63s39.26,32.63,38.51,33.48c-.47.54-27-17.7-27.5-17.16s16.74,13.45,16.2,14.08"/><path class="cls-5" d="M176.86,200.73"/><path class="cls-6" d="M218.23,96.8c-.13.15,5.09,4.23,5,4.34s-10.69-2.61-10.9-2.37c-.39.45,14.52,11.79,14.11,12.26S201.9,95.27,201.37,95.88s23.48,19.09,22.82,19.84S200.84,100.4,200.35,101c-.71.82,29.14,23.85,28.4,24.69S194.61,101,193.84,101.94c-.57.66,34.73,29,34.15,29.68S193.5,107.2,192.78,108c-.55.63,33.25,27.36,32.48,28.24-.42.48-22.38-14.29-22.86-13.73s18.53,15.1,18,15.67c-.32.36-19-10.07-19.43-9.62-.56.64,18,14.62,17.51,15.22-.35.4-16.41-8.71-16.69-8.38-.56.64,21.89,18,21.39,18.59s-26.94-17.7-27.57-17,22.24,18.23,21.7,18.86c-.41.48-21.75-12.47-22.16-12s20.93,17.23,20.45,17.78c-.28.32-18.05-9.19-18.36-8.84-.5.57,19,15.66,18.6,16.17s-19-10-19.31-9.63c-.51.59,25.54,20.75,24.82,21.58-.51.58-27.14-18.66-27.75-18-.77.89,26.1,21.13,25.32,22s-29.66-20.27-30.35-19.49,33.87,28.22,33.27,28.92S185.31,168,184.59,168.82s32,26.76,31.5,27.38-29.84-20.66-30.32-20.1,18.67,15.17,18.15,15.77c-.34.39-17.93-10.05-18.25-9.69s11.39,9.35,11.12,9.66"/><path class="cls-7" d="M276.78,164.7c-.42.48,24.12,20,23.64,20.55s-24.52-15.65-25-15.11,20.58,17.11,20.19,17.55-20.27-12.51-20.75-12,16,13.07,15.57,13.53-19.39-10.94-19.77-10.51,18.89,15.33,18.35,16-20.62-12.28-21-11.83c-.53.61,22.1,18.37,21.69,18.85s-26.66-17.62-27.29-16.9,22.74,18.66,22.19,19.29"/><path class="cls-7" d="M282.88,142.84c-.21.24,4.86,3.75,4.62,4s-16.21-8.39-16.52-8c-.69.79,27.55,22.63,26.9,23.38S261,134.73,260.29,135.5c-1,1.12,41.87,34.45,40.91,35.56s-42.34-32.51-43.39-31.3c-.85,1,39.23,32.38,38.38,33.36s-41-30.54-41.87-29.55c-1.08,1.24,43.16,35.6,42.21,36.69-1.2,1.38-49-38.06-49.77-37.12-.51.58,22.54,18.52,22,19.13s-25.66-16.86-26.09-16.36,21.78,17.8,21.22,18.45c-.38.44-18.06-9.64-18.39-9.26-.58.67,21.8,18.09,21.37,18.58-.61.71-26.35-17.38-27-16.68-.45.51,26.68,22.06,26.12,22.71s-28.58-19.18-29.24-18.42c-.44.5,23.58,19.27,23,20-.42.48-23.22-15.18-23.71-14.62-1,1.14,45.86,37.89,44.88,39-.84,1-38-27.78-38.85-26.75s30.68,25.39,30,26.12c-.41.47-25.74-16.77-26.25-16.18s23.22,19.23,22.74,19.77"/><path class="cls-8" d="M366.17,195.59c-.09.1,3.58,2.94,3.5,3"/><path class="cls-8" d="M359.74,139.28c-.44.5,17.43,14.29,17,14.78s-20-11.3-20.31-10.93c-.63.72,27.17,22.59,26.66,23.18-.75.86-32.74-23.8-33.51-22.92-.61.7,30,25,29.47,25.62-.79.91-40.83-29.8-41.53-29s39,32.4,38.28,33.28-38.65-28.93-39.45-28,33.26,26.95,32.29,28.07c-.82.95-40.53-30.06-41.34-29.14s34.61,28.62,33.89,29.46S323.9,146.55,323,147.54s33.37,27.05,32.4,28.17c-.63.72-37.17-27.31-37.91-26.47s38.67,32,37.87,32.92c-.6.69-27.13-17.45-27.64-16.87-.78.9,43,35.62,42.15,36.64-.61.7-35.06-24.57-35.65-23.89-.8.92,34.91,28.91,34.2,29.73S335.74,184.4,335,185.24s29,23.48,28.12,24.45c-.51.58-30.8-21.85-31.53-21s31,25.68,30.37,26.4-32.9-23.15-33.6-22.35c-.45.51,21.1,17.2,20.53,17.85s-24.21-15.9-24.72-15.32,19.74,16.25,19.29,16.77c-.2.23-11.29-4.13-11.51-3.88s6.64,5.39,6.45,5.61"/><path class="cls-9" d="M476,97.6c-1.61,1.85,67.21,56,66,57.39s-64.61-52.32-66.21-50.48c-1.41,1.63,61,50.37,59.68,51.88s-56.76-44.74-57.72-43.64,49,40.76,48.08,41.79-41.86-31.9-42.79-30.83c-.76.88,38.74,31.69,37.76,32.82-.73.83-40-30-40.83-29s41.92,34.74,41.08,35.71S477.9,129.85,477,130.91s37.68,31.51,37.07,32.22-36.58-26.86-37.27-26.07,29.79,24.28,29,25.2c-.44.51-25.4-16-25.93-15.4s18.2,14.87,17.73,15.41c-.29.34-15.85-8-16.17-7.6s13,10.54,12.61,11"/><path class="cls-9" d="M525.37,127.63c-.17.19,7.08,5.9,7,6"/><path class="cls-9" d="M536.49,66.07c-.14.17,8.75,7.28,8.59,7.47-.38.44-17.58-9.35-17.87-9-.42.48,19,15.6,18.52,16.1-.74.86-37.81-28.06-38.57-27.18s39.93,33,39.08,34S500,52.42,499,53.52,542.32,89,541.24,90.23c-.86,1-50.49-38.83-51.57-37.58-.95,1.09,48.78,39.74,47.46,41.26-1,1.17-54-43.41-55.25-42-1.37,1.58,58.16,47.89,56.84,49.41S480.31,55.14,479,56.64s53.81,44,52.44,45.59-55.83-44.26-56.95-43c-1.34,1.54,57.63,47.85,56.52,49.13s-65.61-53-67.19-51.19,65.92,54.45,64.51,56.08c-1.56,1.79-66.63-54.82-68.18-53-1.27,1.46,64.71,54,63.57,55.26-1.68,1.93-67.36-54.52-68.59-53.1-1,1.19,58.76,48.93,57.7,50.16s-58.5-46.45-59.62-45.17,64.23,53.38,63,54.78c-1.37,1.58-60.57-48.36-62-46.66-1.71,2,89.64,74.08,87.74,76.27s-87.32-73.41-89.43-71c-.39.45,17.65,14.72,17.34,15.07"/><path class="cls-10" d="M611.4,98.14c-.56.64,21,17.26,20.51,17.83-.32.37-20.08-11.87-20.52-11.36-.71.81,36.11,30,35.42,30.79s-36.62-27.07-37.34-26.25,39,32.41,38.27,33.27-34.48-25.5-35.23-24.64,31.57,26.18,30.95,26.9c-.81.93-34.55-24.55-35.37-23.62s27.72,22.79,27.07,23.53"/><path class="cls-10" d="M631.16,75.71c-.14.17,9.06,7.62,8.93,7.77-.34.39-18.52-10.47-18.8-10.14s14,11.41,13.64,11.85S613.7,72,613.27,72.47s25.57,21,25,21.69-33.94-23.59-34.5-22.95,34.38,28.54,33.71,29.3-32.15-22.79-32.67-22.19c-.76.87,28.21,22.92,27.41,23.83s-41.22-31-42.2-29.84c-.78.9,41.57,34.45,40.74,35.41s-43.55-33.67-44.46-32.63,46,38.09,45.05,39.16c-1.12,1.29-54-41.55-55-40.49-.41.47,25.8,21.59,25.38,22.07-.6.69-25.38-16.62-26-15.95s23.66,19.43,23.1,20.08-29.63-20.16-30.34-19.35c-.55.63,28.21,23.29,27.6,24s-30.45-21-31.05-20.27c-.75.87,35.07,29,34.34,29.85-.52.6-29-19.3-29.56-18.62-1.52,1.75,56.65,46.5,55.29,48.06-.92,1.06-49.79-38.71-51-37.32-.72.83,37.21,30.64,36.36,31.61S571.94,108.58,571,109.64s35,29,34.29,29.81c-.5.57-30.72-20.79-31.21-20.22-.78.9,32.54,27.1,32,27.78s-29.46-20.63-30-20.06,19.27,15.79,18.79,16.34"/><path class="cls-11" d="M688.55,137.75c-.31.36,9.32,7.5,9,7.84"/><path class="cls-11" d="M701.66,101.8c-.6.69,28.29,23.43,27.72,24.1s-27.9-19.09-28.53-18.37c-.44.51,29.11,24.24,28.58,24.85s-27.13-17.51-27.62-16.94,19.19,15.84,18.77,16.32-19-11-19.39-10.51,20,16.33,19.49,16.94-28.34-19.27-29-18.51,26.47,22,26,22.58-23.36-15.18-23.84-14.64,19.21,15.66,18.69,16.25"/><path class="cls-11" d="M676,75.54c-.18.21,3.22,2.45,3,2.65s-13.67-6.33-14-6c-.73.84,30.26,25.07,29.65,25.77s-36.2-26-37-25.14,36.66,30.3,35.88,31.19-29.95-21.11-30.52-20.45c-.8.92,26.47,21.89,25.92,22.53s-31.63-21.41-32.14-20.83c-.68.78,30.41,25,29.71,25.83-.35.4-22.13-13.41-22.57-12.89-.67.77,23.1,18.93,22.53,19.59-.29.34-18.71-9.88-19-9.51-.47.54,18.61,15.27,18.16,15.79s-19.19-10.28-19.51-9.91c-.8.92,38.89,31.9,37.95,33-.78.9-44.45-34-45.37-32.94-.6.69,21.67,17.86,21.18,18.42s-22.89-14.79-23.32-14.3,26.32,22,25.89,22.51S661.65,128,661.21,128.51s19.22,15.56,18.65,16.21c-.29.33-18.11-9.21-18.43-8.83-.71.82,29.74,24.7,29.17,25.36s-29.51-20.44-30.12-19.74,23.59,19.3,23,20-33.69-23.62-34.23-23,35,29,34.31,29.82c-.54.62-27.8-18.8-28.31-18.22s14.15,11.53,13.76,12-14.64-7.07-14.9-6.77,8.08,6.48,7.81,6.79"/><path class="cls-11" d="M709.84,82c-.09.1,8.72,7.41,8.64,7.51-.26.29-15.06-6.36-15.29-6.1-.69.79,23.37,19.05,22.75,19.77S695.7,82.44,695,83.22c-.94,1.08,34.66,28.51,33.86,29.43S691.65,85.74,690.81,86.7c-1,1.11,37.23,30.51,36.31,31.57"/><text class="cls-12" transform="matrix(1.02, -0.09, 0.1, 1, 22.23, 190.37)">C</text><text class="cls-12" transform="matrix(1.03, 0.05, -0.04, 1, 104.35, 182.74)">o</text><text class="cls-12" transform="matrix(1.01, 0.19, -0.18, 0.98, 175.32, 186.98)">l</text><text class="cls-12" transform="matrix(1.01, 0.19, -0.17, 0.98, 228.86, 199.26)">o</text><text class="cls-12" transform="matrix(1.02, -0.13, 0.13, 0.99, 322.46, 214.31)">r</text><text class="cls-12" transform="matrix(0.97, -0.34, 0.34, 0.94, 403.42, 200)"> </text><text class="cls-12" transform="matrix(0.96, -0.37, 0.37, 0.93, 440.82, 186.22)"> </text><text class="cls-13" transform="matrix(0.99, -0.27, 0.28, 0.96, 472.95, 171.03)">P</text><text class="cls-12" transform="matrix(1.03, -0.06, 0.06, 1, 562.78, 146.44)">u</text><text class="cls-12" transform="matrix(1.02, 0.12, -0.11, 0.99, 644.53, 141.81)">p</text><path class="cls-14" d="M444.53,535.88"/></g><g id="head"><path class="cls-5" d="M500.38,124.93c-8.41-9.27-7.6-23.47-10.67-34.92a46.39,46.39,0,0,0-22.78-29,5.29,5.29,0,0,0-2.58-.69c-5.76-3.74-12.62-5.42-18.39,0-3.48,3.24-4.4,7.91-4.79,12.44-.56,6.58-.75,13.21-1.12,19.8a4.28,4.28,0,0,0,1.75,3.89,120.61,120.61,0,0,0,1.61,18q-.37.92-.73,1.85a94.82,94.82,0,0,0-17.18-6.85,5.09,5.09,0,0,0-3.24-1.56l-5.62-.47a4.15,4.15,0,0,0-2.61.61,22.74,22.74,0,0,0-12.08,2.77c-5.48,3-8.92,10.41-14.76,12.47a4.34,4.34,0,0,0-.7-2l-.56-.84a29.83,29.83,0,0,0-5.7-9.56l-.22-.62a48.19,48.19,0,0,0,.05-11,20.17,20.17,0,0,0,1.38-5.82,159,159,0,0,0,18.74-2.46,4,4,0,0,0,3.5-3.1c2.64-1,3.68-3.29,3.29-6.06A40.25,40.25,0,0,0,389,54c-3.75-2.45-10.8-6.77-15.11-3.9a7,7,0,0,0-1.13,1C361.88,47.68,349.87,48,343,58.9a4.52,4.52,0,0,0,1.65,6.55,15.44,15.44,0,0,0,.18,6.67,196.54,196.54,0,0,0,6.84,23c5.34,14.83,12.95,29.05,25.45,39a6.44,6.44,0,0,0,2.9,1.29c-3,5.28-4,11.56-5,17.47a132.47,132.47,0,0,0-2.42,20.45,13.76,13.76,0,0,0,1,11.4,4.23,4.23,0,0,0,1.28,1.43l1,22.49.85,19.41c.23,5.27,0,10.86,1,16.05.76,3.77,2.63,7.34,6.27,9,4.55,2.06,8.42-.11,12.54-2,4.47-2,9-2.1,13-5.39a33,33,0,0,0,7.31-9.63c4.85-2.69,12.32-.57,17.47.24,7.14,1.13,14.66,1.2,20.73-3.3a6.45,6.45,0,0,0,1.46-1.48,32.54,32.54,0,0,0,11.31-4.15,7.31,7.31,0,0,0,1.82-.7,4.74,4.74,0,0,0,2.39-3.85c4.27-3.83,9.34-6.68,12.89-11.44s5.78-11.13,4.59-17.22c-1-5.33-4.52-8.72-8.43-11.89a4.11,4.11,0,0,0-2.5-4.27,40.16,40.16,0,0,1-8.91-5.66q-2-2.05-3.92-4.23a42.49,42.49,0,0,1-3.42-9.49c-1.45-5.73-2.84-11.47-4.23-17.22a5.3,5.3,0,0,0,.28-2.72,39,39,0,0,0-2.62-8.76,4.73,4.73,0,0,0,.65-3.88q-1.58-5.4-2.6-10.85c.35-.79.67-1.56.94-2.31a44.22,44.22,0,0,0,2.73-13c0-1.09-.75-5.63-.87-9.12,4.07,4.11,3.54,10.81,4.27,16.2a51.34,51.34,0,0,0,7,20c3.13,5,7.49,9.76,13.45,11.25,6.67,1.66,12.84-1.79,18.1-5.49A5.09,5.09,0,0,0,500.38,124.93Z"/></g><g id="Layer_2-2" data-name="Layer 2"><path class="cls-2" d="M504.67,131.61a14.77,14.77,0,0,0-2.77-5.62c-1.55-2.27-3.1-4.55-4.68-6.81a13.19,13.19,0,0,1-2.41-5.95c-.57-4.45-.64-9-1.4-13.41a77.34,77.34,0,0,0-5.13-16.89A50.55,50.55,0,0,0,484.11,75a44.89,44.89,0,0,0-5-6.74,44,44,0,0,0-10-8.17,7.33,7.33,0,0,0-6.53-.57,1,1,0,0,1-1.2-.18,8.28,8.28,0,0,0-3.51-2.2c-.59-.13-1.17-.37-1.75-.56h-1.87c-.35.35-.81.35-1.22.5a12.4,12.4,0,0,0-2.35.89c-4.32,2.75-7.18,7-9.5,11.91a39.06,39.06,0,0,0-2.67,7.84A17.43,17.43,0,0,0,438,84.6a20.08,20.08,0,0,0,1.31-6.27,10.23,10.23,0,0,1,1.87-6.13c0,.47,0,.83-.09,1.17a48.94,48.94,0,0,0-.65,9.75c.06,2.64,0,5.28,0,7.91a21.83,21.83,0,0,0,.2,2.62c.47,3.86,1.12,7.68,1.82,11.49a49,49,0,0,0,2.92,10.51,5,5,0,0,1,.39,1.6c.19.09.47.23.31.45s-.32-.13-.46-.27c-1.56-.91-3-2.11-4.47-3.12a16.14,16.14,0,0,0-3.67-2.32c-1.92-.62-3.77-1.49-5.68-2.15a53.62,53.62,0,0,0-9.74-2.16,66,66,0,0,0-11.52-.42c-.16,0-.35.09-.42-.2l.53-.78a19.24,19.24,0,0,0-6.47,2.76,48.35,48.35,0,0,0-4.74,3.08c-1.9,1.43-3.72,3-5.54,4.55a36.92,36.92,0,0,0-4.65,5c-.18.22-.32.42-.6.2a7.13,7.13,0,0,1-1.34-1.1c-1.6-2.1-3.4-4.07-4.13-6.86-.22-.83-.78-.74-1.25-.7s-.42.67-.4,1.05a12.85,12.85,0,0,0,1.24,5c.8,1.7,1.71,3.33,2.62,5a1.71,1.71,0,0,1-.22,2.08,56,56,0,0,0-5.24,7.79c-.12.21-.1.72-.55.41a13.31,13.31,0,0,1-1.68-1.13,66.78,66.78,0,0,1-6-6.42c-2.17-2.65-4.25-5.41-6.19-8.28a13.33,13.33,0,0,1-2-3.5h2c-.58-1.29-1.61-.92-2.41-1.19-.44-.15-.93-.07-1.23-.66a30.79,30.79,0,0,0-2.36-4.17,3.31,3.31,0,0,1-.26-3.87,3.25,3.25,0,0,0,.26-2.48,4.6,4.6,0,0,0-.92,1.55c-.4.87-.9,1-1.32.29A42.31,42.31,0,0,1,354,98c-1-2.47-1.81-5-2.7-7.57a4.17,4.17,0,0,0-1.5,2c.43,1.07.81,2.18,1.32,3.2,1.75,3.5,3.69,6.86,5.15,10.55a3.78,3.78,0,0,1,.21,1.88c-.32,3.52.22,4.92,2.83,5.91a5.06,5.06,0,0,1,2.35,1.68c2,2.71,3.91,5.5,5.85,8.25a44.19,44.19,0,0,0,2.94,4.14,88.8,88.8,0,0,0,6.42,6.14,5.66,5.66,0,0,1,1.63,1.75c.22.53-.49,1.22-.76,1.84s-.25,1.05-.46,1.56a58.75,58.75,0,0,0-2.75,9.08,122.5,122.5,0,0,0-2.33,13.91c-.11,1-.36,1.55-1.31.84-.27-.2-.68-.15-1-.31-.55-.28-.64.26-.82.58-.32.57.24.52.44.68a2.39,2.39,0,0,0,1.57.48c.43,0,.59.15.49.72a5.35,5.35,0,0,1-.52,1.76,5.52,5.52,0,0,0-.25,3.46c.65,5.92,1.61,11.72,2,17.61.16-1.46.07-2.93.38-4.67,1.07,2.89,2.79,5.1,3.17,8.06.07.51.12,1,.21,1.54a.51.51,0,0,0,.24.33c.14.06.22-.1.32-.24a4.12,4.12,0,0,0,.16-3.7,20.92,20.92,0,0,1-1.94-4.84,4.69,4.69,0,0,1,.33-4c.11-.16.54.09.38-.43-.08-.27-.29-.33-.45-.45-.34-.23-.4.2-.52.39-.34.54-.64,1.1-1.12,1.92-1.52-5.49-1.11-10.75-.41-16.1.37.17.36.43.4.66q.63,3.86,1.26,7.73c.06.36,0,1,.43.94s.38-.64.41-1a31.2,31.2,0,0,0-.75-7.45c-.49-2.88-1.17-5.78-.12-8.7.32-.88.65-1.75.94-2.64a87.73,87.73,0,0,1,3.44-8.87c1.35-3,2.71-6,4.29-8.93a14.26,14.26,0,0,1,2.94-3.79c2.11-1.89,4.32-3.65,6.48-5.48a12.58,12.58,0,0,0,3-3.69,2.76,2.76,0,0,0-.93.1,15.16,15.16,0,0,0-5,4.14,10.78,10.78,0,0,1-2.33,2.48c-2,1.28-3.48,3.29-5.16,5-.25.26-.41.76-.93.39s-.43-.77-.32-1.23.24-.74.36-1.11a15.85,15.85,0,0,1,3.38-5.32c1.14-1.32,2.34-2.59,4-2.87,1.07-.18,1.3-.78,1-1.86a1.12,1.12,0,0,1,.2-1.1,47.12,47.12,0,0,1,5.42-5.59c1.83-1.52,3.7-3,5.65-4.31a27.12,27.12,0,0,1,8.46-4c6-1.57,11.93-.54,17.76,1.1a31.71,31.71,0,0,1,7.09,2.91c1.19.68,2.39,1.36,3.62,2a23.18,23.18,0,0,1,3.82,2.56,46.55,46.55,0,0,1,5.29,4.66,35,35,0,0,1,3.91,5.19c-2.15-1.28-4.22-2.72-6.36-4a18.53,18.53,0,0,0-7.24-2.65,16.88,16.88,0,0,0,2.52,1.71c1.82.82,3.63,1.72,5.42,2.62a33.13,33.13,0,0,1,5,2.81c2,1.51,3.67,3.31,3.89,6.3.07,1,.16,2,.25,3a2.87,2.87,0,0,0,1.33,2.6,1.39,1.39,0,0,1,.75,1.19c.18,2.67.41,5.32.59,8,.21,3.27.41,6.53.6,9.8,0,.64.25,1.11.81.74s.56,0,.73.36a18.45,18.45,0,0,1,1.6,5.26,5.57,5.57,0,0,0,.91,2.51c.47.66.55,1.82,1.6,2-.86-3.58-1.68-7.05-2.71-10.57.49.07.51.4.61.62a14.55,14.55,0,0,0,2,3.55,11.45,11.45,0,0,1,2.58,4.25,2.4,2.4,0,0,0,2.56,1.51c.45-.08.59-.34.45-.81-.09-.3-.19-.59-.28-.9-.13-.46-.08-1.29-.59-1.17s-.21.9-.21,1.4c0,.06-.06.11-.09.17-.43-.14-.57-.58-.74-.95q-1.78-3.87-3.85-7.56a28.28,28.28,0,0,1-2.22-4.94,33.81,33.81,0,0,1-1.82-9.38,60.91,60.91,0,0,1-.12-6.86l2.23,2.25a7.77,7.77,0,0,0-1.18-3.1c-1.54-2.12-3.4-3.88-5.06-5.86a6.93,6.93,0,0,1-2.05-3.74,26.11,26.11,0,0,1,.22-8,53,53,0,0,1,2.46-8.43c.21-.54.36-1.11.52-1.67.21-.74-.36-.73-.69-.9s-.56-.31-.83.25a46.36,46.36,0,0,0-2.26,5.15,15.61,15.61,0,0,0-.94,5.28c-.09-2.38-.18-4.76,1.1-6.84.34-.55.61-1.16.9-1.75.08-.15.27-.29,0-.49s-.33-.21-.44,0c-.43.88-1.24,1.29-1.72,2.16a13.22,13.22,0,0,0-1.29,7.58,6.94,6.94,0,0,1,.06,2.74,2.66,2.66,0,0,1-1.62-2,8.25,8.25,0,0,0-1.17-3.26c-.58-1.12-1.22-2.19-1.83-3.29-1.77-3.22-2.45-6.9-3.06-10.53a89.68,89.68,0,0,1-1.17-19.27,58.34,58.34,0,0,1,1.8-13.77,23.85,23.85,0,0,1,2.4-6.13,8.77,8.77,0,0,1,7.27-4.08,10.06,10.06,0,0,1,5.76,1.06,76.72,76.72,0,0,1,7.69,4.57,33.69,33.69,0,0,1,7.05,6.48A19.91,19.91,0,0,1,478.13,83c.11.85.68.91,1.07,1s.36-.59.52-.94,0-.93.07-1.54c2.86,2.87,4,6.72,5.32,10.56a1.73,1.73,0,0,1-1.17-1.1c-.47-1-.85-2.08-1.28-3.12-.1-.25,0-.74-.42-.67s-.28.57-.26.86A12.89,12.89,0,0,0,484.05,94c1,1.7,2.17,3.16,3.1,4.89a23.72,23.72,0,0,1,2.7,9.5c.18,2.27.18,4.55.17,6.83,0,.36-.1.7.39.93a11.19,11.19,0,0,1,3.94,2.94,9.08,9.08,0,0,1,2,3.4,11.81,11.81,0,0,1,.06,6.22c-.11.43-.4,1,0,1.28a1.17,1.17,0,0,0,1.28-.24l.5-.42c1.46-1.33,1.43-1.31,2.44.44.41.7.24.81-.37,1a35.12,35.12,0,0,1-3.94,1,2.74,2.74,0,0,0-2.12,1.24,10.6,10.6,0,0,1-1.64,1.77,5.06,5.06,0,0,1-3.35,1,42.59,42.59,0,0,1-7.25-.46l-.47,0c-1.6-.14-3.21.56-4.82-.09-3.55-1.44-5.84-4.31-7.45-8.17-.95-2.26-1.54-4.66-2.48-6.91a1.49,1.49,0,0,1-.17-.78c.23-.18.39,0,.53.13,2.07,2.57,3.95,5.33,5.83,8.08,1.64,2.4,3.43,4.7,5.89,6.08v-.27c-1.1-1.26-2.25-2.46-3.29-3.79-1.78-2.29-3.52-4.63-5.18-7-1.37-2-2.71-4-3.92-6.12a38.53,38.53,0,0,1-2.8-7c-1.06-3.18-1.92-6.45-3.13-9.56a4.94,4.94,0,0,1-.34-2.69c.38.07.59.43,1,.32-.29-2.24-.67-4.47-1.18-6.84-.18.51,0,.9-.35,1.25A38.77,38.77,0,0,0,455,88.78a5.57,5.57,0,0,0-2.49-1.28c-.55,0-.75.2-.37.73a31.32,31.32,0,0,1,2,3.61,37.41,37.41,0,0,1,2.6,6.6q1.93,6.34,3.56,12.79c1.05,4.18,2.16,8.35,3.57,12.4a41.56,41.56,0,0,0,4.33,9.55,11.92,11.92,0,0,0,7.37,5.2c2.4.55,4.83.25,7.25.14,2.08-.1,4.1-.17,6,1.15,1.22.85,2.69.17,3.38-1.27a7.41,7.41,0,0,0,.74-1.83c.1-.53.33-.62.68-.68,1.06-.17,2.13-.3,3.18-.53,2.2-.48,4.39-1.07,6.6-1.52C504.78,133.56,505,133.27,504.67,131.61Zm-146.9-21.73c.74.5.87,1.34,1.21,2.07C358,111.57,358,111.52,357.76,109.88Zm23.88,27.83.15.08,0,0,0,0a.16.16,0,0,1,0,.06.18.18,0,0,1,0,.06.16.16,0,0,1,0,.07,1.64,1.64,0,0,1-.26.63c-1.11,2.13-2.26,4.23-3.31,6.4a30.58,30.58,0,0,0-2.92,9.21,4.88,4.88,0,0,1-.14.69l0,0-.11.08-.09.06-.06,0h0c0-.08,0-.15,0-.23v0c0-.08,0-.16,0-.24s0-.16,0-.24,0-.15,0-.23.06-.41.09-.61.11-.6.17-.89.06-.3.1-.44l.1-.43c.06-.24.11-.48.17-.72s.11-.47.16-.72.11-.52.17-.79c.12-.52.25-1,.38-1.55l.21-.77c.1-.36.21-.72.32-1.07,0-.15.1-.31.15-.46s.13-.4.2-.59c.12-.35.24-.7.37-1s.25-.69.39-1c.31-.78.63-1.56,1-2.33.43-1,.73-2,1.1-3.07a1.48,1.48,0,0,1,.12-.26l.06-.1.06-.07a.36.36,0,0,1,.49-.06,1.15,1.15,0,0,1,.22.15l.18.13.17.11.11,0ZM450.84,123v.14l-.09-.12Zm36.6-28.18c-.59-2-1.12-4.07-1.71-6.1-.2-.68-.4-1.35-.61-2a12.43,12.43,0,0,0-.48-1.28h0a22.78,22.78,0,0,0-1.22-2.4l-.68-1.16c-1.37-2.32-2.71-4.66-4.13-6.94a31.17,31.17,0,0,0-8-8.55l-.81-.62-1.1-.88-.48-.4-.27-.23c-.44-.36-.88-.74-1.32-1.11L465,61.83l-.79-.66c2.67.12,4.81,1.54,6.94,3.14a35.07,35.07,0,0,1,5.71,5.93,46.66,46.66,0,0,1,3.48,5.11,64.74,64.74,0,0,1,4.24,8,70.45,70.45,0,0,1,4.17,11.37,25.44,25.44,0,0,1,1.23,6.36A18.71,18.71,0,0,1,487.44,94.84Zm2.52,42-.42.12-.84.24-.42.13-.11,0h-.23l-.05,0,0,0-.05,0a1.09,1.09,0,0,1-.18-.53c-.08-.59.33-.34.54-.32.6,0,1.2.1,1.8.15Zm-77.86-46"/><path class="cls-2" d="M412.46,76.93c-.37-1.18-1.23-1.33-2.19-1.29a17,17,0,0,1-2.59,0c-3.32-.37-4.66-1.17-6.11-5.28-1.09-3.09-2-6.28-4-8.9-3.84-5.09-8-9.7-13.38-12.59a5.29,5.29,0,0,0-3.59-1,3.51,3.51,0,0,0,1.8,1.43,5.23,5.23,0,0,1,2.33,1.48c.15.06.42.21.33.31s-.41.15-.56-.12a36.66,36.66,0,0,0-3.62-1.68c-2.15-.66-4.25-1.54-6.44-2-2-.44-3.93-1.13-6-1.43a30.53,30.53,0,0,1-5.58-.9h-2.08c-.11.7.43.62.74.74a33.87,33.87,0,0,0,5.09,1.51,3.23,3.23,0,0,1-.58.34,21.18,21.18,0,0,1-7.73.66,54,54,0,0,0-10.06-.38,8.5,8.5,0,0,0-3.21,1c1.83.61,3.57.36,5.34.76-1.79,1.22-3.68,2-5.2,3.52a14.31,14.31,0,0,0-3.53,5.29c.21,1.28.95.55,1.5.53a5.1,5.1,0,0,0,.67-.74,17.1,17.1,0,0,1,9-7.3,14.39,14.39,0,0,1,7.58-.75A117.22,117.22,0,0,1,375.57,54a60.85,60.85,0,0,1,10.78,4.72,12.46,12.46,0,0,1,2.93,2.38,24.43,24.43,0,0,1,3.25,4.41c2.18,3.73,4.78,7.14,6.27,11.4,1.3,3.73.82,6.43-1.87,9.15a18.74,18.74,0,0,1-2.87,2.1,9.61,9.61,0,0,1-10.4.67c-2.49-1.24-4.8-2.95-7.31-4.16a9.51,9.51,0,0,0-2.08-.69c-.5-.11-.77,0-.85.67s-.35,1,.32,1.37A20,20,0,0,1,376.1,88a9.16,9.16,0,0,1-4.58-1.12,28.37,28.37,0,0,1-4.56-3,38.84,38.84,0,0,1-4.71-4.22,46.9,46.9,0,0,1-3.75-4.5c-2.42-3.51-4.79-7-4.36-11.92a4,4,0,0,0-1.26,4.14,20.13,20.13,0,0,0,3.28,7.21,76.28,76.28,0,0,0,5.42,7.21c.13.16.37.3.27.68a1.6,1.6,0,0,1,.65.5l.07.09c.11.15.21.32.32.47a2.6,2.6,0,0,0,.16.23H363l-.21,0-.12,0h0l-.09,0-.14-.08-.15-.13-.11-.13,0,0a1,1,0,0,1-.09-.15,3.22,3.22,0,0,1-.23-.5l-.09.19c-3.75-4.18-7.35-8.38-9.78-13.76a34.46,34.46,0,0,0,.94,4.5,21.37,21.37,0,0,0,6.69,10,36.3,36.3,0,0,0,8,5.07q5.09,2.45,10,5.34a21.79,21.79,0,0,0,5.71,2c.25.07.58.22.64-.29s0-.68-.42-.8a5.32,5.32,0,0,1-2.07-1.46,10.28,10.28,0,0,1,1.1.08c1.57.32,3.13.66,4.68,1,.34.08.71.18.75-.29.08-.88.58-.66,1-.68,4.65-.2,9.31,0,13.76-2.21,1.92-.95,3.8-3.39,2.23-5.86-.28-.44-.42-1.1.25-1.37a16.44,16.44,0,0,0,2-1.45c-.36-.65-1.46-.59-1.27-1.77l-.24.09-.23.09c-.38.16-.75.35-1.12.54l-.67.33h0l-.37.16-.38.15a5.2,5.2,0,0,1-.65.18c-.68.13-1,.2-1.16,0s-.09-.37,0-.83c0-.07,0-.14,0-.21s0-.15,0-.24c.18-1.21.35-2.43.47-3.65a2,2,0,0,1,0-.21.17.17,0,0,1,0-.07.45.45,0,0,1,0-.13.12.12,0,0,1,0,0v0l0,0,0,0h0a.31.31,0,0,1,.26,0l.24.12a6.32,6.32,0,0,1,.55.37c.16.12.32.24.48.34l.21.14.22.12.22.1a2.23,2.23,0,0,0,.64.17l.49-.23.21-.09.4-.19h0v-.12s0,0,0,0a.73.73,0,0,1,.06-.19.24.24,0,0,1,0-.08l.05-.08,0,0,0,0,.08,0,.1,0,0,0,.11,0h0v0a1.21,1.21,0,0,1,.07-.24l0,0a4.77,4.77,0,0,1,3.33.56c.59.57.94,1.48,1.78,1.68C412,78.39,412.77,77.9,412.46,76.93Zm-36.65-27.8c.31,0,.62,0,.93.08a11.16,11.16,0,0,1,1.36.24c.3.07.59.15.88.25l.32.12.22.09a10.11,10.11,0,0,1,1.56.79c.27.17.54.36.8.56l.38.31-.1,0c-.26,0-.53-.09-.79-.16a11.06,11.06,0,0,1-1.3-.44l-.43-.18-.85-.37-.58-.26-.58-.26-.8-.32-.39-.14-.32-.1a7.69,7.69,0,0,0-.79-.2Zm8.69,7a.12.12,0,0,1,0,0h0s-.07,0-.12,0l-.11,0-17.44-5.85a4.85,4.85,0,0,1,.59-.29l.27-.1.26-.08.21-.06a4,4,0,0,1,.43-.08l.27,0,.22,0h.44l.41,0h0l.28,0,.13,0h0l.2,0h.05l.28.07c.19,0,.37.09.55.15l.55.18.57.2.39.14,1.86.7.93.35.93.35c.62.24,1.23.48,1.84.74s1.22.52,1.82.81,1.1.51,1.65.79l.46.24.26.15a5.56,5.56,0,0,1,.51.31c.16.11.32.23.48.36l.35.3.33.33C384.46,56,384.53,56,384.5,56.11Zm-6.84,34.81-.28,0h-.07l-.22,0h-.34a2.86,2.86,0,0,1-.71-.15l-.26-.1-.13-.06-.26-.15-.18-.12-.18-.13,2.66.63Zm2.4.71-.33,0h-.09l-.28-.06-.28-.08-.29-.09-.54-.2h0l.39,0,.67,0h.1l.38,0,.19,0,.38.06.37.09.28.1.27.13A4.06,4.06,0,0,1,380.06,91.63Zm19-22.43c-.17-.15-.33-.3-.49-.46l-.24-.24-.29-.32c-.11-.12-.21-.24-.3-.36a3.08,3.08,0,0,1-.2-.26,7.9,7.9,0,0,1-.49-.74c-.82-1.38-1.61-2.79-2.43-4.17l-.32-.54c-.21-.36-.43-.71-.66-1.06l-.45-.7c-.15-.23-.31-.46-.46-.69l-.48-.68c-.33-.46-.68-.91-1-1.35l-.55-.64c-.34-.39-.7-.77-1.07-1.13l-.61-.62-.61-.66-.63-.7-.67-.74.29.06a3.78,3.78,0,0,1,.62.24l.25.13a7.17,7.17,0,0,1,.66.4l.33.24,0,0,.34.26c.24.19.48.4.73.62l.33.3.55.53.43.44.12.13.19.2.68.76.25.29.49.59.25.31.24.31.49.63.24.32.47.65c.31.42.6.85.88,1.28l.24.38c.15.22.29.45.43.67s.41.67.6,1,.26.45.37.67l.18.32c.23.44.45.86.64,1.28l.21.47.19.45a2.67,2.67,0,0,1,.12.3c.11.3.21.58.3.86a2.24,2.24,0,0,1,.08.28,2.73,2.73,0,0,1,.07.26,2.13,2.13,0,0,1,.06.26c0,.09,0,.17.05.25s0,.17,0,.25h0l-.19-.15Zm3.46,18a9.43,9.43,0,0,1-.8.69l-.1.07-.36.26-.37.24-.28.17c-.21.12-.43.23-.65.33l-.27.12-.48.19-.24.08-.24.08-.33.09-.67.16A19.69,19.69,0,0,1,395,90h0l.32-.23c.21-.15.43-.28.65-.42s.43-.28.64-.42l.23-.18a4,4,0,0,0,.51-.48l.13-.15c.26-.34.57-.64.84-1a3.3,3.3,0,0,0,.23-.3,3.16,3.16,0,0,0,.28-.5c.25-.56.55-.69,1.08-.46A18.73,18.73,0,0,1,402.53,87.21Zm3.85-10.14h0Z"/><path class="cls-2" d="M493,196.61a15.33,15.33,0,0,0-2.09-6.52,43.49,43.49,0,0,0-4-5.89,36.89,36.89,0,0,0-7.8-7.15c-1.06-.72-2.16-1.37-3.27-2a44.52,44.52,0,0,0-7.52-3.24A61.86,61.86,0,0,0,452.33,169c-2.17-.15-4.35,0-6.59,0,.21-1.07.42-1.91.54-2.76.4-2.73.71-5.46-.36-8.11a3,3,0,0,0-2.81-2.2c-.86.1-1.75,1.27-2,2.76-.51,3.44-.52,6.82,1.11,10,.31.59.45,1.13-.43,1.16-3,.09-5.86,1.43-8.77,2.22,0,.47-.5.67-.42,1.17,3.56-1.59,7.31-1.92,11.07-2.2a71.49,71.49,0,0,1,12,.52,58,58,0,0,1,11.4,2.28c3.73,1.12,7.49,2.32,10.75,5a13.28,13.28,0,0,1,4.19,5.8,46.11,46.11,0,0,0,1.87,5.13c1,1.93,2.28,3.66,3.22,5.66a8.54,8.54,0,0,1,.66,5.63,32.25,32.25,0,0,1-5.2,11.89,23.31,23.31,0,0,1-14.38,9.73,34.58,34.58,0,0,0-7,2.49c-.75.35-2,.88-1.76,1.64s1.5.9,2.42.86c2.55-.1,4.9-1.16,7.27-2.13a5,5,0,0,1,1.92-.7,1.37,1.37,0,0,1-.77,1,36.59,36.59,0,0,1-8.4,3.91c-3.91,1.28-7.7,2.93-11.5,4.55-2.82,1.21-5.65,2.47-8.64,2.71a64.75,64.75,0,0,1-17.7-.88c-4.59-.9-9.13-2.06-13.69-3.12-1.45-.34-2.87-.86-4.3-1.29-3.36-1-6.58-2.41-9.06-5.33a6.87,6.87,0,0,1-2-4.53c1.68.77,3.08,2.05,4.67,3a13.33,13.33,0,0,0,7,1.6c.4,0,.53-.21.64-.59s-.11-.59-.34-.75a3.71,3.71,0,0,0-1.45-.58c-1.37-.3-2.79.06-4.12-.47-3-1.21-5.41-3.57-7.6-6.17a8.94,8.94,0,0,1-2-3.15c.64.64,1.4.68,1.83,1.43a.91.91,0,0,0-.22-1c-1.67-2.42-3.55-4.65-5.09-7.2a22.19,22.19,0,0,1-2.58-5.78,19.7,19.7,0,0,1-.37-6.25c-1.89.7-1.27,2.56-1.55,4.3a80.94,80.94,0,0,1-1.58-8.33,5.81,5.81,0,0,0-1.1,5.08,41.59,41.59,0,0,0,2.28,7.27c1.09,2.6.5,5-.48,7.37,0,0-.18,0-.27,0h-.23c.13.41.24.83.39,1.23a9.8,9.8,0,0,1,.6,5.13c-.64,4-1.3,8.05-1.94,12.08-1.05,6.66.79,12,5.56,15.93a8.48,8.48,0,0,0,3.63,1.92c3.06.63,5.51-.47,7.7-2.92a5.37,5.37,0,0,1,2.83-2,66.75,66.75,0,0,0,7.13-2c.67-.19,1.39-.22,1.89-.81a7.91,7.91,0,0,1,2.69-1.9.43.43,0,0,0,.29-.56c-.56-.08-1.13.23-1.84,0,.51-.17.89-.33,1.29-.43a21.13,21.13,0,0,1,10.89.57c3.64,1,7.25,2.24,11,2.94,5.08,1,9.89-.32,14.62-2.25,2.16-.89,4.31-1.86,6.44-2.85,3-1.4,6-3.09,9-4.52,2.15-1,4.27-2.17,6.45-3.14a44.62,44.62,0,0,0,4.52-2.22c2.13-1.26,3.62-3.39,5.19-5.39s3.29-4.27,5-6.28,3.68-3.9,5.51-5.87a3.73,3.73,0,0,0,1.16-2.31C492.67,202.73,493.19,199.7,493,196.61Zm-6.83-10.72-.26-.15-.19-.13-.07-.06-.14-.12a.58.58,0,0,1-.12-.11l-.15-.15-.1-.1L485,185l-.2-.25-.19-.27-.18-.3-.18-.32a4.3,4.3,0,0,1,2.25,2.25A3.43,3.43,0,0,1,486.13,185.89ZM384.88,211.73l0-.25-.09-.47c-.07-.39-.13-.74-.2-1.14h0l.19.08a1.34,1.34,0,0,1,.37.25l.08.09,0,.06a.17.17,0,0,1,0,.06.35.35,0,0,1,0,.09v.07A2.12,2.12,0,0,1,384.88,211.73Zm3.82.52-.12-.13-.07-.08c-.11-.11-.2-.23-.29-.34s-.27-.34-.39-.51-.21-.28-.3-.42-.22-.32-.33-.5A3.2,3.2,0,0,1,387,210c-.2-.32-.38-.65-.55-1-.08-.14-.14-.28-.21-.42s-.2-.41-.29-.63-.14-.32-.2-.48-.11-.26-.16-.4-.17-.46-.24-.69-.19-.57-.27-.86-.09-.29-.12-.44-.08-.29-.12-.44-.11-.44-.16-.66h0l.08.11.09.12c.19.26.37.53.55.8,0,0,0,0,0,0,.24.36.47.72.69,1.08s.45.73.66,1.1.42.73.62,1.1.41.78.61,1.18.38.78.55,1.18c.08.15.14.31.21.47s.18.41.26.62l.14.36.19.5c.06.17.12.33.18.5l-.49-.48a3.3,3.3,0,0,1-.22-.24ZM390,241.63h0l-.05.08a1.11,1.11,0,0,1-.16.21l-.12.13-.13.11a2.57,2.57,0,0,1-.31.19l-.35.18a1.51,1.51,0,0,1,.13-.81l0,0a.3.3,0,0,1,.11-.1l.07,0,.11,0a1,1,0,0,1,.38,0h0l.13,0,.16,0Zm3.8-19.15c-.86.32-1.29-.09-1.5-1.09h0c0-.16-.07-.31-.11-.47s-.12-.43-.2-.63a1.11,1.11,0,0,0-.07-.18l0-.12a2.42,2.42,0,0,0-.12-.23l-.09-.15a1.53,1.53,0,0,0-.16-.24l-.18-.21-.18-.17a1.65,1.65,0,0,0-.31-.21l-.26-.13-.22-.08-.19-.07a1.88,1.88,0,0,1-.27-.13l-.21-.12-.13-.1-.15-.14-.07-.08-.06-.08a1.28,1.28,0,0,1-.11-.17,1.75,1.75,0,0,1-.13-.29c0-.08,0-.15-.07-.24s0-.13,0-.2v-.13a2.61,2.61,0,0,1,0-.28,4.52,4.52,0,0,1,.1-.91h0c.29.2.58.42.85.64l.48.42.33.32.35.36.39.44.21.27.21.27v0l.11.15.11.15c.1.13.18.27.27.41l.25.42c.17.29.32.58.46.88s.3.66.43,1,.25.7.35,1.08Zm12.36,11a.42.42,0,0,1-.07.16.27.27,0,0,1-.08.08l0,0-.12,0a1.55,1.55,0,0,1-.39,0l-.42,0-.81-.12h0c-.27-.06-.53-.12-.79-.19a7.63,7.63,0,0,1-.77-.26,8.83,8.83,0,0,1-1.48-.75c-.21-.14-.43-.29-.64-.45l-.15-.12-.39-.32c-.19-.17-.37-.34-.56-.53.54.13,1.07.26,1.59.4h0c.52.14,1,.3,1.53.46,1,.32,2,.68,2.94,1.08h0l.13,0,.2,0h0l.12,0,.08,0,0,.06A.42.42,0,0,1,406.14,233.52Zm1.71,2.21a9.09,9.09,0,0,1,5.17.34C411.27,236.4,409.51,237,407.86,235.73Z"/><path class="cls-2" d="M470.72,186.26a10.91,10.91,0,0,0-3.39-4,33.33,33.33,0,0,0-6.94-3.56,56.31,56.31,0,0,0-13-2.9,7.13,7.13,0,0,0-4.68.46,30.77,30.77,0,0,1-6.85,2.55,33.09,33.09,0,0,0-9.22,3.68,11.21,11.21,0,0,0-4.44,5.41,4.85,4.85,0,0,0,.08,3.81c1.71,3.81,4.75,5.78,8.05,7.14a23.87,23.87,0,0,0,10.15,1.62,70.37,70.37,0,0,0,13.36-1.42c5.23-1,10.33-2.28,15-5.34A6.49,6.49,0,0,0,470.72,186.26Zm-24.79-4.45q0,.18,0,.36a5.26,5.26,0,0,1-.11.69c0,.11,0,.22-.08.32a5.09,5.09,0,0,1-.51,1.21,1.4,1.4,0,0,1-.11.18l-.16.23-.17.21-.17.19-.08.08-.08.07-.23.2a3,3,0,0,1-.31.23l0,0a3.32,3.32,0,0,1-.35.21,18.92,18.92,0,0,1-5.85,2.2,6.39,6.39,0,0,0-3.49,1.74,8,8,0,0,0-.92,1.06l-.12.15a1,1,0,0,1-.21.19l-.09.06-.09,0a1.61,1.61,0,0,1-.39.11l-.32,0h-.34a2.6,2.6,0,0,1-.46,0h0l-.25,0-.25-.07-.16-.06-.32-.14-.05,0-.37-.18-.65-.31-.21-.08-.22-.08-.28-.08c-.23,0-.38-.45-.34-.8s.06-.44.1-.66.06-.31.09-.46.07-.32.11-.48a7.32,7.32,0,0,1,.84-2q.14-.22.29-.43c.07-.1.15-.2.23-.3s.16-.19.25-.29a7.16,7.16,0,0,1,.57-.53l.32-.25c.21-.16.43-.31.64-.45l.33-.2c.22-.13.44-.25.67-.36l.34-.16c.36-.17.73-.31,1.1-.44l.42-.14.85-.26c1.51-.43,3-.76,4.51-1.34.35-.14.81-.06,1.1-.28l.22-.15.16-.09.08,0,.08,0,.17-.08a1.93,1.93,0,0,1,.33-.11l.27,0,.12,0,.2,0h.08l.3,0,.25,0h0l.27.06.28.07.36.12.19.07.36.14.92.36.11,0,.1.06a.5.5,0,0,1,.12.11l.07.1,0,.09a.91.91,0,0,1,0,.11.25.25,0,0,1,0,.08s0,.06,0,.09ZM458.76,189h0l-.14.1-.14.08-.14.08a2.79,2.79,0,0,1-.43.17l-.15,0-.41.08-.53.07-.35,0a3.65,3.65,0,0,0-.65.12h0l.54-.28.22-.11.14-.07.14-.06.21-.09.31-.1.16,0,.08,0,.14,0,.24,0h.24a2.76,2.76,0,0,1,.55.06Zm5.21-1.61c-.1-.16-.21-.33-.3-.51a1.84,1.84,0,0,1-.16-.4s0-.09,0-.14a4.18,4.18,0,0,0-.09-.53,3.91,3.91,0,0,0-.12-.46,3.12,3.12,0,0,0-.26-.57,1.76,1.76,0,0,0-.13-.2,2.25,2.25,0,0,0-.2-.24,2.08,2.08,0,0,0-.24-.24l-.15-.1-.16-.1-.11-.07-.15-.07-.31-.12-.32-.1a6.8,6.8,0,0,0-.68-.14c-.46-.08-.93-.13-1.38-.21l-.21,0h0l-.28,0c-.6,0-1.24,0-1.91,0a1.71,1.71,0,0,1,.06-.21c0-.07,0-.12.07-.17a1,1,0,0,1,.13-.2l.08-.08a.32.32,0,0,1,.11-.07l.09,0,.1,0a1.23,1.23,0,0,1,.38,0,16.27,16.27,0,0,1,1.64.29l.53.14a9.77,9.77,0,0,1,2.09.83,21.11,21.11,0,0,0,1.93.9l1,.41c.33.14.66.28,1,.42l.33.17a1.24,1.24,0,0,1,.26.19.69.69,0,0,1,.1.11.46.46,0,0,1,.08.12.39.39,0,0,1,0,.13.48.48,0,0,1,0,.15.94.94,0,0,1,0,.25l0,.13a2.51,2.51,0,0,1-.24.46c-.23.36-.43.75-.66,1.1l-.19.27-.1.12-.11.12-.11.12-.19.16a1.48,1.48,0,0,1-.21.15A4.62,4.62,0,0,0,464,187.44Zm4.63,2a1,1,0,0,1,0,.12,1.34,1.34,0,0,1-.16.37l0,.06c-.3.43-.58.87-.87,1.32l-.86,1.38c-.37-.26-.45-.74-.84-.95a2.2,2.2,0,0,1-.57-.4.56.56,0,0,1,0-.83,3.13,3.13,0,0,1,.53-.52c.53-.44,1-.93,1.56-1.36l.08-.07.16-.16.05,0,.06-.06.06,0a.48.48,0,0,1,.13-.08l.05,0a.19.19,0,0,1,.11,0l.06,0,.06,0,.06,0,.08.09.12.2a1.27,1.27,0,0,1,.1.22,1.3,1.3,0,0,1,.08.3.63.63,0,0,1,0,.09A.86.86,0,0,1,468.59,189.44Z"/><path class="cls-2" d="M413,245.07a4,4,0,0,1-3.44,2.48c-3.8.31-6.51,2.91-9.36,5.33-3.66,3.1-7.69,4.88-12.29,3.92a13.89,13.89,0,0,1-5.68-2.72,20.48,20.48,0,0,1-4.06-4,16.3,16.3,0,0,1-3.61-9.71,68.63,68.63,0,0,1,1-10,1.5,1.5,0,0,0-.43-1.43,10,10,0,0,1-2.55-4.67,5.87,5.87,0,0,1,.06-3l2.73,4.71c1.49-8.65.33-16.94-.87-25.26a10.77,10.77,0,0,1,1.67,3.64c1.45,5.68,1.44,11.49,1.41,17.33,0,6.38-.34,12.78.21,19.14.25,3,.92,5.94,2.8,8.16a11.36,11.36,0,0,0,12.78,3.55c3.21-1.21,6.25-2.89,9.39-4.28a4.21,4.21,0,0,1,1.19-.38c2.11-.25,3.75-1.7,5.5-2.87a4.19,4.19,0,0,1,3.27-.75C413.18,244.39,413.19,244.63,413,245.07Z"/><path class="cls-2" d="M421.8,172.19c-.07,1.19-1.13,1.5-1.6,2.34-.1.17-.38,0-.58-.06a4.71,4.71,0,0,1-2.63-2.62,10.52,10.52,0,0,1-1.21-4.7l3.94-4.42c.3-.33.55-.74,1.05-.61a8.38,8.38,0,0,1,1.06,2.83,4.6,4.6,0,0,1-.85,1.59A4.49,4.49,0,0,0,421.8,172.19Z"/><path class="cls-2" d="M448.89,135.27a8.49,8.49,0,0,1,.83,3.14,1.68,1.68,0,0,1-1.5-1.23,5.27,5.27,0,0,0-4.66-3.86,3.39,3.39,0,0,1-1.3-.35c-.37-.21-1.17.22-1.09-.7s.21-1.78,1.13-2.06c.36-.11.72-.2,1.07-.3.06-.56-.75-.74-.41-1.37s.5-1.18,1.43-.58a27.63,27.63,0,0,1,5,3.69,1.41,1.41,0,0,1-.11,2.1C448.59,134.15,448.63,134.6,448.89,135.27Z"/><path class="cls-2" d="M414.92,133.69c-.69,1.21-1.84,1.31-2.85,1.68a12.86,12.86,0,0,0-2.92,1.44,2,2,0,0,1-1.07.4c-1.6,0-2.3,1.44-3.16,2.61a2.26,2.26,0,0,0-.38,1.56c0,.63,0,1.19-.73.83-1.11.15-1.09-.51-.77-1.37a16.52,16.52,0,0,1,3-5c1.7-2,3.49-3.94,6-4.49a3.39,3.39,0,0,1,2.33.17C415.37,132,415.49,132.7,414.92,133.69Z"/><path class="cls-2" d="M419.93,160.72a26.13,26.13,0,0,1-3.91,4.7c-.08.08-.27,0-.41,0l0-2.14a1.68,1.68,0,0,0,.12-1.22,6.34,6.34,0,0,1,.69-2.8.89.89,0,0,1,1-.58c.44,0,.55.37.6.8C418.22,160.89,419.3,160.34,419.93,160.72Z"/><path class="cls-2" d="M426.17,174.57c-.12.92-1.15,1.31-1.05,2.35-1.71.69-3.16,2.06-5,2.48,0-.79-.85-.81-1-1.44A38.64,38.64,0,0,1,426.17,174.57Z"/><path d="M432.63,173.16a51,51,0,0,0-7.51,3.76c-.1-1,.93-1.43,1.05-2.35,1.49-1,3.25-1.13,4.83-1.89a4.6,4.6,0,0,1,2-.69C433.08,172.47,432.54,172.67,432.63,173.16Z"/><path d="M421.8,172.19a4.49,4.49,0,0,1-.83-5.66,4.6,4.6,0,0,0,.85-1.59C422.33,167.36,422.87,169.78,421.8,172.19Z"/><path d="M349.83,84.66l-1,.24a25.44,25.44,0,0,1-.68-8.42l1.07,0A33.64,33.64,0,0,0,349.83,84.66Z"/><path d="M351.32,90.39a4.17,4.17,0,0,0-1.5,2c-.61-.84-.44-1.88-.57-2.85-.11-.74-.14-1.49-.2-2.23.58.15.79-.56,1.24-.72C350.86,87.76,350.78,89.19,351.32,90.39Z"/><path d="M420.77,162.12c-.5-.13-.75.28-1.05.61l-3.94,4.42a4.9,4.9,0,0,1-.17-1.69c.14,0,.33,0,.41,0a26.13,26.13,0,0,0,3.91-4.7C420.69,160.8,420.49,161.65,420.77,162.12Z"/><path class="cls-2" d="M350.49,71.72a10.51,10.51,0,0,0-1.31,4.78l-1.07,0V76a.46.46,0,0,0,.07-.48,11.73,11.73,0,0,1,.8-4.09A2.25,2.25,0,0,0,350.49,71.72Z"/><path class="cls-2" d="M419.3,179.85a7.14,7.14,0,0,1-3.77,1.25,6,6,0,0,1,2.7-2.47A3.32,3.32,0,0,1,419.3,179.85Z"/><path d="M420.2,121.09a20.29,20.29,0,0,1-5.15,1.65C416.78,122.24,418.15,120.31,420.2,121.09Z"/><path class="cls-2" d="M350.28,86.57c-.44.17-.65.87-1.24.72a12.5,12.5,0,0,1-.25-2.39l1-.24C350.19,85.23,350,86,350.28,86.57Z"/><path d="M350.9,70.53a2.67,2.67,0,0,1-.41,1.19,2.25,2.25,0,0,1-1.52-.27L349.4,70C349.61,71.28,350.35,70.54,350.9,70.53Z"/><path d="M420.14,179.4a1.43,1.43,0,0,1-.84.45,3.32,3.32,0,0,0-1.07-1.22l.87-.68C419.3,178.59,420.12,178.61,420.14,179.4Z"/><path d="M382.69,211.52h-.23c-.34-1.13-1.1-2.09-1.13-3.37A8.35,8.35,0,0,1,382.69,211.52Z"/><path d="M481.49,135a7.37,7.37,0,0,1-2.69-1.42v-.27c.68.53,1.55.58,2.21,1.18C481.2,134.65,481.48,134.67,481.49,135Z"/><path d="M481.52,135l0,0s0,0,0,0Z"/><path d="M409.83,226.53c-.43.46-.9.45-1.56.13.21-.18.29-.3.37-.31.42,0,.76-.64,1.23-.22C410,226.25,409.94,226.41,409.83,226.53Z"/><path d="M415.64,163.32a2.44,2.44,0,0,1,.12-1.22A1.68,1.68,0,0,1,415.64,163.32Z"/><path d="M348.1,76c0-.16,0-.32.07-.48A.46.46,0,0,1,348.1,76Z"/><path d="M481.52,135v0h0Z"/><path d="M481.94,135.24l-.47,0a.46.46,0,0,1,0-.2Z"/><path class="cls-2" d="M414.11,88.73h0Z"/><path d="M378.9,125.73c-1.13-1.88-1.29-4.17-1.94-6.29A13.75,13.75,0,0,1,378.9,125.73Z"/><path d="M413.48,89.46h0l-.23.77h0c-.29-.1-.63,0-.87-.25l.49-.24.21-.09Z"/><rect x="413.48" y="89.45" height="0.01"/><path d="M413.48,89.46c0-.45.24-.69.63-.73"/><path class="cls-2" d="M315.13,222.5"/></g></g></svg>