<svg xmlns="http://www.w3.org/2000/svg" xmlns:xlink="http://www.w3.org/1999/xlink" viewBox="0 0 651.37 648.2"><defs><style>.cls-1{opacity:0.38;}.cls-2{fill:#d9d4fd;stroke:#d9d4fd;stroke-width:6px;}.cls-2,.cls-3,.cls-5{stroke-miterlimit:10;}.cls-3{fill:none;}.cls-3,.cls-5{stroke:#fff;}.cls-4{fill:url(#radial-gradient);}.cls-5{fill:#fff;}</style><radialGradient id="radial-gradient" cx="246.27" cy="298.9" r="9.48" gradientTransform="translate(550.36 -49.58) rotate(90) scale(1 0.9)" gradientUnits="userSpaceOnUse"><stop offset="0" stop-color="#fff"/><stop offset="0.1" stop-color="#fff" stop-opacity="0.86"/><stop offset="0.29" stop-color="#fff" stop-opacity="0.6"/><stop offset="0.47" stop-color="#fff" stop-opacity="0.39"/><stop offset="0.63" stop-color="#fff" stop-opacity="0.22"/><stop offset="0.78" stop-color="#fff" stop-opacity="0.1"/><stop offset="0.91" stop-color="#fff" stop-opacity="0.03"/><stop offset="1" stop-color="#fff" stop-opacity="0"/></radialGradient></defs><title>foxfill</title><g id="svg"><g class="cls-1"><path class="cls-2" d="M557.09,448.82c-11.46-30-24.75-37.85-39.65-80.9a315.87,315.87,0,0,1-9.52-33.32c-12.31,4-65.12,22.58-74.55,63.45-4.3,18.66,1.45,37.49,7.93,58.69,12.26,40.14,26.24,43.94,24.68,67.07-2.13,31.74-30.27,51.87-32.61,53.49-9.25,6.41-17.65,12.24-26.92,10.33-18.78-3.88-13.21-39.3-37.7-69.38a618.46,618.46,0,0,0-68.52-71.53c-49-43.56-90-66.11-85.23-78,3.78-9.32,31.78-2.56,90.79-15,7.36-1.55,18.48-4.06,29.55-12.42,17.06-12.87,30.5-36.88,23.56-47.54-6.59-10.14-26,.35-56.11-8.13a104.55,104.55,0,0,1-40.26-22.28A260.87,260.87,0,0,1,257,219.3c-1.22-30.23,3.39-47-1.28-48.83-9.88-3.87-41.6,67.1-53.1,63-10.51-3.79,4.82-62.1-4.72-65.1-3.93-1.23-9,7.9-35.12,46.26-21.69,31.92-22,28.49-31.7,44.55-13.31,22.18-20.24,40.18-30,65.53-10,25.94-15,38.92-16.7,54-1.5,13-.57,25.77,1.28,51.4,1.39,19.12,2.62,27.23,4.72,47.54,1.85,18,5.37,35,5.56,69.38.19,34.77,1.73,44.61,1.46,64.89C97,644.42,94.73,652,89.15,655c-6.94,3.79-12.1-3.15-25.39,0C48.5,658.65,40.7,671.27,40,672.48c-2.07,3.47-8.43,14.12-4.75,20.62,5.9,10.46,37.74,10.16,59.44-2.25,46.81-26.79,40.52-106.76,57.82-106.64,11.79.08,11.51,33.32,42.4,57.82,26.06,20.68,57,21.07,56.22,26-.52,3.35-7.28,5.81-11,7.12-5.16,1.79-9.3,1.86-20,1.47-19-.7-20.91-1.47-25.33.33-5.24,2.14-12.45,7.27-12.57,13.58-.14,7.54,9.95,13,13.5,15,18.73,10.48,32.94,2.72,66,3,30.14.26,28,6.79,51,4.5a140.49,140.49,0,0,0,52.5-16.5,142.14,142.14,0,0,0,25.45-17.75,177.84,177.84,0,0,0,38.07-12.68c18.37-8.54,24.14-15.11,42.84-27,36.12-22.94,42.84-16.77,60.27-31.72,21-18,27.42-42.38,31.72-58.69C575.74,502.12,561.83,461.21,557.09,448.82Z" transform="translate(35.08 -102.21)"/><path class="cls-2" d="M863.06,642.58" transform="translate(35.08 -102.21)"/></g></g><g id="starlay"><rect class="cls-3" x="0.5" y="0.5" width="650.37" height="647.2"/><circle class="cls-4" cx="281.35" cy="196.69" r="9.48"/><circle class="cls-5" cx="380.3" cy="529.31" r="2" transform="translate(-227.81 321.73) rotate(-45)"/><circle class="cls-5" cx="297.07" cy="439.61" r="2" transform="translate(-188.76 236.6) rotate(-45)"/><circle class="cls-5" cx="341.33" cy="481.33" r="2" transform="translate(-205.3 280.13) rotate(-45)"/><circle class="cls-5" cx="218.64" cy="371.56" r="2" transform="translate(-163.61 161.22) rotate(-45)"/><circle class="cls-5" cx="252.67" cy="404" r="2" transform="translate(-176.59 194.78) rotate(-45)"/><circle class="cls-5" cx="198.73" cy="165.34" r="2" transform="translate(-23.63 86.74) rotate(-45)"/><circle class="cls-5" cx="509.99" cy="330.12" r="2" transform="translate(-48.98 355.09) rotate(-45)"/><circle class="cls-5" cx="463.07" cy="353.23" r="2" transform="translate(-79.06 328.68) rotate(-45)"/><circle class="cls-5" cx="428.72" cy="406.57" r="2" transform="translate(-126.84 320.02) rotate(-45)"/><circle class="cls-5" cx="453.43" cy="491.4" r="2" transform="translate(-179.58 362.34) rotate(-45)"/><circle class="cls-5" cx="459.88" cy="535.06" r="2" transform="translate(-208.57 379.69) rotate(-45)"/><circle class="cls-5" cx="438.36" cy="568.15" r="2" transform="translate(-238.27 374.16) rotate(-45)"/><circle class="cls-5" cx="403.99" cy="581.96" r="2" transform="translate(-258.1 353.9) rotate(-45)"/><circle class="cls-5" cx="565.26" cy="552.75" r="2" transform="translate(-190.21 459.38) rotate(-45)"/><circle class="cls-5" cx="568.5" cy="480.78" r="2" transform="translate(-138.37 440.59) rotate(-45)"/><circle class="cls-5" cx="533.12" cy="397.26" r="2" transform="translate(-89.68 391.11) rotate(-45)"/><circle class="cls-5" cx="538.92" cy="606.39" r="2" transform="translate(-235.86 456.47) rotate(-45)"/><circle class="cls-5" cx="491.7" cy="630.81" r="2" transform="translate(-266.95 430.23) rotate(-45)"/><circle class="cls-5" cx="439.66" cy="665.18" r="2" transform="translate(-306.5 403.5) rotate(-45)"/><circle class="cls-5" cx="390.17" cy="682.5" r="2" transform="translate(-333.24 373.58) rotate(-45)"/><circle class="cls-5" cx="340" cy="712" r="2" transform="translate(-368.8 346.74) rotate(-45)"/><circle class="cls-5" cx="295" cy="716.33" r="2" transform="translate(-385.04 316.19) rotate(-45)"/><circle class="cls-5" cx="191.67" cy="706.67" r="2" transform="translate(-408.47 240.29) rotate(-45)"/><circle class="cls-5" cx="238" cy="713.33" r="2" transform="translate(-399.61 275.01) rotate(-45)"/><circle class="cls-5" cx="190.33" cy="676.67" r="2" transform="translate(-387.65 230.56) rotate(-45)"/><circle class="cls-5" cx="212.67" cy="674" r="2" transform="translate(-379.22 245.58) rotate(-45)"/><circle class="cls-5" cx="246.67" cy="669.67" r="2" transform="translate(-366.2 268.35) rotate(-45)"/><circle class="cls-5" cx="228" cy="662.67" r="2" transform="translate(-366.72 253.1) rotate(-45)"/><circle class="cls-5" cx="180" cy="689" r="2" transform="translate(-399.4 226.87) rotate(-45)"/><circle class="cls-5" cx="209.33" cy="654" r="2" transform="translate(-366.06 237.36) rotate(-45)"/><circle class="cls-5" cx="185.5" cy="637" r="2" transform="translate(-361.02 215.53) rotate(-45)"/><circle class="cls-5" cx="168.75" cy="616.25" r="2" transform="translate(-351.25 197.61) rotate(-45)"/><circle class="cls-5" cx="152.79" cy="586.14" r="2" transform="translate(-334.63 177.5) rotate(-45)"/><circle class="cls-5" cx="141" cy="615.67" r="2" transform="translate(-358.96 177.81) rotate(-45)"/><circle class="cls-5" cx="128.75" cy="652.75" r="2" transform="translate(-388.77 180.01) rotate(-45)"/><circle class="cls-5" cx="106.24" cy="685.41" r="2" transform="translate(-418.46 173.66) rotate(-45)"/><circle class="cls-5" cx="120" cy="672" r="2" transform="translate(-404.95 179.46) rotate(-45)"/><circle class="cls-5" cx="66.09" cy="703.4" r="2" transform="translate(-442.94 150.54) rotate(-45)"/><circle class="cls-5" cx="31.69" cy="689.25" r="2" transform="translate(-443.01 122.07) rotate(-45)"/><circle class="cls-5" cx="57.07" cy="654.23" r="2" transform="translate(-410.82 129.76) rotate(-45)"/><circle class="cls-5" cx="90.08" cy="650.75" r="2" transform="translate(-398.68 152.08) rotate(-45)"/><circle class="cls-5" cx="94.08" cy="612.59" r="2" transform="translate(-370.53 143.73) rotate(-45)"/><circle class="cls-5" cx="92.75" cy="577.41" r="2" transform="translate(-346.05 132.49) rotate(-45)"/><circle class="cls-5" cx="83.41" cy="444.08" r="2" transform="translate(-254.5 86.84) rotate(-45)"/><circle class="cls-5" cx="86.67" cy="362" r="2" transform="translate(-195.51 65.1) rotate(-45)"/><circle class="cls-5" cx="109.75" cy="292.86" r="2" transform="translate(-139.86 61.17) rotate(-45)"/><circle class="cls-5" cx="149.24" cy="229.24" r="2" transform="translate(-83.31 70.46) rotate(-45)"/><circle class="cls-5" cx="175.75" cy="189.59" r="2" transform="translate(-47.5 77.59) rotate(-45)"/><circle class="cls-5" cx="204.19" cy="229.26" r="2" transform="translate(-67.23 109.32) rotate(-45)"/><circle class="cls-5" cx="202.5" cy="202" r="2" transform="translate(-48.44 100.14) rotate(-45)"/><circle class="cls-5" cx="204.33" cy="180.33" r="2" transform="translate(-32.59 95.09) rotate(-45)"/><circle class="cls-5" cx="125.33" cy="264" r="2" transform="translate(-109.34 49.37) rotate(-41.98)"/><circle class="cls-5" cx="216.82" cy="217" r="2" transform="translate(-54.42 98.5) rotate(-41.98)"/><circle class="cls-5" cx="308" cy="284.33" r="2" transform="translate(-76.06 176.77) rotate(-41.98)"/><circle class="cls-5" cx="241.67" cy="178.67" r="2" transform="translate(-22.41 105.29) rotate(-41.98)"/><circle class="cls-5" cx="255.9" cy="166.62" r="2" transform="translate(-7.79 127.54) rotate(-45)"/><circle class="cls-5" cx="259.67" cy="223.67" r="2" transform="translate(-47.02 146.91) rotate(-45)"/><path class="cls-5" d="M253.31,218.64" transform="translate(35.08 -102.21)"/><circle class="cls-5" cx="265.22" cy="263.31" r="2" transform="translate(-73.43 162.45) rotate(-45)"/><circle class="cls-5" cx="361.26" cy="293.18" r="2" transform="translate(-66.42 239.11) rotate(-45)"/><circle class="cls-5" cx="330.43" cy="349.08" r="2" transform="translate(-114.97 233.68) rotate(-45)"/><circle class="cls-5" cx="279.33" cy="362.16" r="2" transform="translate(-139.19 201.38) rotate(-45)"/></g></svg>
