<?xml version="1.0" encoding="utf-8"?>
<!-- Generator: Adobe Illustrator 21.0.0, SVG Export Plug-In . SVG Version: 6.00 Build 0)  -->
<svg version="1.1" id="Layer_1" xmlns="http://www.w3.org/2000/svg" xmlns:xlink="http://www.w3.org/1999/xlink" x="0px" y="0px"
	 viewBox="0 0 651.4 648.2" style="enable-background:new 0 0 651.4 648.2;" xml:space="preserve">
<style type="text/css">
	.st0{opacity:0.38;}
	.st1{fill:#D9D4FD;stroke:#D9D4FD;stroke-width:6;stroke-miterlimit:10;}
	.st2{fill:none;stroke:#FFFFFF;stroke-miterlimit:10;}
	.st3{fill:url(#SVGID_1_);}
	.st4{fill:#FFFFFF;stroke:#FFFFFF;stroke-miterlimit:10;}
</style>
<title>foxfill</title>
<g id="svg">
	<g class="st0">
		<path class="st1" d="M592.2,346.6c-11.5-30-24.8-37.9-39.7-80.9c-3.8-10.9-7-22-9.5-33.3c-12.3,4-65.1,22.6-74.5,63.5
			c-4.3,18.7,1.5,37.5,7.9,58.7c12.3,40.1,26.2,43.9,24.7,67.1c-2.1,31.7-30.3,51.9-32.6,53.5c-9.2,6.4-17.7,12.2-26.9,10.3
			c-18.8-3.9-13.2-39.3-37.7-69.4c-20.9-25.6-43.8-49.6-68.5-71.5c-49-43.6-90-66.1-85.2-78c3.8-9.3,31.8-2.6,90.8-15
			c7.4-1.5,18.5-4.1,29.5-12.4c17.1-12.9,30.5-36.9,23.6-47.5c-6.6-10.1-26,0.4-56.1-8.1c-14.9-4.3-28.7-12-40.3-22.3
			c-3.1-14.5-4.9-29.2-5.5-44c-1.2-30.2,3.4-47-1.3-48.8c-9.9-3.9-41.6,67.1-53.1,63c-10.5-3.8,4.8-62.1-4.7-65.1
			c-3.9-1.2-9,7.9-35.1,46.3c-21.7,31.9-22,28.5-31.7,44.6c-13.3,22.2-20.2,40.2-30,65.5c-10,25.9-15,38.9-16.7,54
			c-1.5,13-0.6,25.8,1.3,51.4c1.4,19.1,2.6,27.2,4.7,47.5c1.8,18,5.4,35,5.6,69.4c0.2,34.8,1.7,44.6,1.5,64.9
			c-0.4,32.5-2.7,40.1-8.3,43.1c-6.9,3.8-12.1-3.2-25.4,0c-15.3,3.7-23.1,16.3-23.8,17.5c-2.1,3.5-8.4,14.1-4.8,20.6
			c5.9,10.5,37.7,10.2,59.4-2.2c46.8-26.8,40.5-106.8,57.8-106.6c11.8,0.1,11.5,33.3,42.4,57.8c26.1,20.7,57,21.1,56.2,26
			c-0.5,3.3-7.3,5.8-11,7.1c-5.2,1.8-9.3,1.9-20,1.5c-19-0.7-20.9-1.5-25.3,0.3c-5.2,2.1-12.4,7.3-12.6,13.6
			c-0.1,7.5,9.9,13,13.5,15c18.7,10.5,32.9,2.7,66,3c30.1,0.3,28,6.8,51,4.5c18.4-2,36.3-7.6,52.5-16.5c9.1-5,17.6-10.9,25.5-17.8
			c13.1-2.8,25.9-7,38.1-12.7c18.4-8.5,24.1-15.1,42.8-27c36.1-22.9,42.8-16.8,60.3-31.7c21-18,27.4-42.4,31.7-58.7
			C610.8,399.9,596.9,359,592.2,346.6z"/>
		<path class="st1" d="M898.1,540.4"/>
	</g>
</g>
<g id="starlay">
	<rect x="0.5" y="0.5" class="st2" width="650.4" height="647.2"/>
	
		<radialGradient id="SVGID_1_" cx="337.27" cy="399.8778" r="9.48" gradientTransform="matrix(6.123234e-17 1 0.9 -5.510911e-17 -78.54 -140.58)" gradientUnits="userSpaceOnUse">
		<stop  offset="0" style="stop-color:#FFFFFF"/>
		<stop  offset="0.1" style="stop-color:#FFFFFF;stop-opacity:0.86"/>
		<stop  offset="0.29" style="stop-color:#FFFFFF;stop-opacity:0.6"/>
		<stop  offset="0.47" style="stop-color:#FFFFFF;stop-opacity:0.39"/>
		<stop  offset="0.63" style="stop-color:#FFFFFF;stop-opacity:0.22"/>
		<stop  offset="0.78" style="stop-color:#FFFFFF;stop-opacity:0.1"/>
		<stop  offset="0.91" style="stop-color:#FFFFFF;stop-opacity:3.000000e-02"/>
		<stop  offset="1" style="stop-color:#FFFFFF;stop-opacity:0"/>
	</radialGradient>
	<circle class="st3" cx="281.4" cy="196.7" r="9.5"/>
	<ellipse transform="matrix(0.7071 -0.7071 0.7071 0.7071 -180.3401 418.8125)" class="st4" cx="415.4" cy="427.1" rx="3" ry="3"/>
	<ellipse transform="matrix(0.7071 -0.7071 0.7071 0.7071 -141.2866 333.6861)" class="st4" cx="332.2" cy="337.4" rx="3" ry="3"/>
	<ellipse transform="matrix(0.7071 -0.7071 0.7071 0.7071 -157.8344 377.2041)" class="st4" cx="376.4" cy="379.1" rx="3" ry="3"/>
	<ellipse transform="matrix(0.7071 -0.7071 0.7071 0.7071 -116.1456 258.3013)" class="st4" cx="253.7" cy="269.4" rx="3" ry="3"/>
	<ellipse transform="matrix(0.7071 -0.7071 0.7071 0.7071 -129.1165 291.8582)" class="st4" cx="287.7" cy="301.8" rx="3" ry="3"/>
	<ellipse transform="matrix(0.7071 -0.7071 0.7071 0.7071 23.8409 183.8163)" class="st4" cx="233.8" cy="63.1" rx="3" ry="3"/>
	<ellipse transform="matrix(0.7071 -0.7071 0.7071 0.7071 -1.505 452.1721)" class="st4" cx="545.1" cy="227.9" rx="3" ry="3"/>
	<ellipse transform="matrix(0.7071 -0.7071 0.7071 0.7071 -31.5867 425.7657)" class="st4" cx="498.2" cy="251" rx="3" ry="3"/>
	<ellipse transform="matrix(0.7071 -0.7071 0.7071 0.7071 -79.3697 417.0999)" class="st4" cx="463.8" cy="304.4" rx="3" ry="3"/>
	<ellipse transform="matrix(0.7071 -0.7071 0.7071 0.7071 -132.1151 459.4235)" class="st4" cx="488.5" cy="389.2" rx="3" ry="3"/>
	<ellipse transform="matrix(0.7071 -0.7071 0.7071 0.7071 -161.1013 476.7676)" class="st4" cx="495" cy="432.9" rx="3" ry="3"/>
	<ellipse transform="matrix(0.7071 -0.7071 0.7071 0.7071 -190.7987 471.242)" class="st4" cx="473.4" cy="465.9" rx="3" ry="3"/>
	<ellipse transform="matrix(0.7071 -0.7071 0.7071 0.7071 -210.6289 450.9844)" class="st4" cx="439.1" cy="479.7" rx="3" ry="3"/>
	<ellipse transform="matrix(0.7071 -0.7071 0.7071 0.7071 -142.7395 556.4646)" class="st4" cx="600.3" cy="450.5" rx="3" ry="3"/>
	<ellipse transform="matrix(0.7071 -0.7071 0.7071 0.7071 -90.8988 537.676)" class="st4" cx="603.6" cy="378.6" rx="3" ry="3"/>
	<ellipse transform="matrix(0.7071 -0.7071 0.7071 0.7071 -42.2052 488.1926)" class="st4" cx="568.2" cy="295" rx="3" ry="3"/>
	<ellipse transform="matrix(0.7071 -0.7071 0.7071 0.7071 -188.3884 553.5472)" class="st4" cx="574" cy="504.2" rx="3" ry="3"/>
	<ellipse transform="matrix(0.7071 -0.7071 0.7071 0.7071 -219.482 527.3149)" class="st4" cx="526.8" cy="528.6" rx="3" ry="3"/>
	<ellipse transform="matrix(0.7071 -0.7071 0.7071 0.7071 -259.0295 500.5809)" class="st4" cx="474.7" cy="563" rx="3" ry="3"/>
	<ellipse transform="matrix(0.7071 -0.7071 0.7071 0.7071 -285.7724 470.6613)" class="st4" cx="425.3" cy="580.3" rx="3" ry="3"/>
	<ellipse transform="matrix(0.7071 -0.7071 0.7071 0.7071 -321.3249 443.8205)" class="st4" cx="375.1" cy="609.8" rx="3" ry="3"/>
	<ellipse transform="matrix(0.7071 -0.7071 0.7071 0.7071 -337.5674 413.2708)" class="st4" cx="330.1" cy="614.1" rx="3" ry="3"/>
	<ellipse transform="matrix(0.7071 -0.7071 0.7071 0.7071 -360.9965 337.3774)" class="st4" cx="226.8" cy="604.4" rx="3" ry="3"/>
	<ellipse transform="matrix(0.7071 -0.7071 0.7071 0.7071 -352.1426 372.0907)" class="st4" cx="273.1" cy="611.1" rx="3" ry="3"/>
	<ellipse transform="matrix(0.7071 -0.7071 0.7071 0.7071 -340.179 327.6438)" class="st4" cx="225.4" cy="574.5" rx="3" ry="3"/>
	<ellipse transform="matrix(0.7071 -0.7071 0.7071 0.7071 -331.7519 342.6592)" class="st4" cx="247.8" cy="571.8" rx="3" ry="3"/>
	<ellipse transform="matrix(0.7071 -0.7071 0.7071 0.7071 -318.7294 365.4315)" class="st4" cx="281.8" cy="567.5" rx="3" ry="3"/>
	<ellipse transform="matrix(0.7071 -0.7071 0.7071 0.7071 -319.2497 350.1792)" class="st4" cx="263.1" cy="560.5" rx="3" ry="3"/>
	<ellipse transform="matrix(0.7071 -0.7071 0.7071 0.7071 -351.9271 323.9476)" class="st4" cx="215.1" cy="586.8" rx="3" ry="3"/>
	<ellipse transform="matrix(0.7071 -0.7071 0.7071 0.7071 -318.5889 334.4368)" class="st4" cx="244.4" cy="551.8" rx="3" ry="3"/>
	<ellipse transform="matrix(0.7071 -0.7071 0.7071 0.7071 -313.5477 312.6063)" class="st4" cx="220.6" cy="534.8" rx="3" ry="3"/>
	<ellipse transform="matrix(0.7071 -0.7071 0.7071 0.7071 -303.7813 294.6877)" class="st4" cx="203.8" cy="514" rx="3" ry="3"/>
	<ellipse transform="matrix(0.7071 -0.7071 0.7071 0.7071 -287.1599 274.5841)" class="st4" cx="187.9" cy="483.9" rx="3" ry="3"/>
	<ellipse transform="matrix(0.7071 -0.7071 0.7071 0.7071 -311.4911 274.8987)" class="st4" cx="176.1" cy="513.5" rx="3" ry="3"/>
	<ellipse transform="matrix(0.7071 -0.7071 0.7071 0.7071 -341.3004 277.0958)" class="st4" cx="163.8" cy="550.5" rx="3" ry="3"/>
	<ellipse transform="matrix(0.7071 -0.7071 0.7071 0.7071 -370.9892 270.743)" class="st4" cx="141.3" cy="583.2" rx="3" ry="3"/>
	<ellipse transform="matrix(0.7071 -0.7071 0.7071 0.7071 -357.4759 276.5427)" class="st4" cx="155.1" cy="569.8" rx="3" ry="3"/>
	<ellipse transform="matrix(0.7071 -0.7071 0.7071 0.7071 -395.4704 247.6225)" class="st4" cx="101.2" cy="601.2" rx="3" ry="3"/>
	<ellipse transform="matrix(0.7071 -0.7071 0.7071 0.7071 -395.5396 219.1532)" class="st4" cx="66.8" cy="587" rx="3" ry="3"/>
	<ellipse transform="matrix(0.7071 -0.7071 0.7071 0.7071 -363.3455 226.8381)" class="st4" cx="92.1" cy="552" rx="3" ry="3"/>
	<ellipse transform="matrix(0.7071 -0.7071 0.7071 0.7071 -351.2115 249.1674)" class="st4" cx="125.2" cy="548.5" rx="3" ry="3"/>
	<ellipse transform="matrix(0.7071 -0.7071 0.7071 0.7071 -323.057 240.8152)" class="st4" cx="129.2" cy="510.4" rx="3" ry="3"/>
	<ellipse transform="matrix(0.7071 -0.7071 0.7071 0.7071 -298.5756 229.5675)" class="st4" cx="127.8" cy="475.2" rx="3" ry="3"/>
	<ellipse transform="matrix(0.7071 -0.7071 0.7071 0.7071 -207.0347 183.9184)" class="st4" cx="118.5" cy="341.9" rx="3" ry="3"/>
	<ellipse transform="matrix(0.7071 -0.7071 0.7071 0.7071 -148.0386 162.1786)" class="st4" cx="121.7" cy="259.8" rx="3" ry="3"/>
	<ellipse transform="matrix(0.7071 -0.7071 0.7071 0.7071 -92.3895 158.2486)" class="st4" cx="144.8" cy="190.6" rx="3" ry="3"/>
	<ellipse transform="matrix(0.7071 -0.7071 0.7071 0.7071 -35.8379 167.5367)" class="st4" cx="184.3" cy="127" rx="3" ry="3"/>
	
		<ellipse transform="matrix(0.7071 -0.7071 0.7071 0.7071 -3.244912e-02 174.6744)" class="st4" cx="210.8" cy="87.4" rx="3" ry="3"/>
	<ellipse transform="matrix(0.7071 -0.7071 0.7071 0.7071 -19.7567 206.3975)" class="st4" cx="239.3" cy="127" rx="3" ry="3"/>
	<ellipse transform="matrix(0.7071 -0.7071 0.7071 0.7071 -0.9727 197.2245)" class="st4" cx="237.6" cy="99.8" rx="3" ry="3"/>
	<ellipse transform="matrix(0.7071 -0.7071 0.7071 0.7071 14.8815 192.166)" class="st4" cx="239.4" cy="78.1" rx="3" ry="3"/>
	<ellipse transform="matrix(0.7434 -0.6689 0.6689 0.7434 -67.0536 148.8128)" class="st4" cx="160.4" cy="161.8" rx="3" ry="3"/>
	<ellipse transform="matrix(0.7434 -0.6689 0.6689 0.7434 -12.1346 197.9487)" class="st4" cx="251.9" cy="114.8" rx="3" ry="3"/>
	<ellipse transform="matrix(0.7434 -0.6689 0.6689 0.7434 -33.7745 276.2133)" class="st4" cx="343.1" cy="182.1" rx="3" ry="3"/>
	<ellipse transform="matrix(0.7434 -0.6689 0.6689 0.7434 19.8758 204.7319)" class="st4" cx="276.7" cy="76.5" rx="3" ry="3"/>
	<ellipse transform="matrix(0.7071 -0.7071 0.7071 0.7071 39.6807 224.6167)" class="st4" cx="291" cy="64.4" rx="3" ry="3"/>
	<ellipse transform="matrix(0.7071 -0.7071 0.7071 0.7071 0.4501 243.9949)" class="st4" cx="294.8" cy="121.5" rx="3" ry="3"/>
	<path class="st4" d="M288.4,116.4"/>
	<ellipse transform="matrix(0.7071 -0.7071 0.7071 0.7071 -25.9595 259.5271)" class="st4" cx="300.3" cy="161.1" rx="3" ry="3"/>
	<ellipse transform="matrix(0.7071 -0.7071 0.7071 0.7071 -18.9513 336.1878)" class="st4" cx="396.3" cy="191" rx="3" ry="3"/>
	<ellipse transform="matrix(0.7071 -0.7071 0.7071 0.7071 -67.5045 330.7647)" class="st4" cx="365.5" cy="246.9" rx="3" ry="3"/>
	<ellipse transform="matrix(0.7071 -0.7071 0.7071 0.7071 -91.7231 298.4603)" class="st4" cx="314.4" cy="259.9" rx="3" ry="3"/>
</g>
</svg>
