<svg xmlns="http://www.w3.org/2000/svg" viewBox="0 0 333.83 89.17"><defs><style>.cls-1{fill:#d9d4fd;opacity:0.38;}.cls-2{fill:#fff;}</style></defs><title>mouse</title><g id="Layer_2" data-name="Layer 2"><g id="Layer_3" data-name="Layer 3"><path class="cls-1" d="M308.33,77.17q-7.54.33-15.33.5c-12.14.25-23.87.16-35.18-.2C246.44,74.34,238,72,233.82,71a13.59,13.59,0,0,1-5.65-2.7c-1.29-1.06-2.53-2.07-2.67-3.5-.28-2.8,3.84-5.34,7.33-7.5,4-2.46,4.79-2.11,7.17-3.67,3.3-2.16,8-6.91,8.14-12.26.23-8.06-9.91-13.86-14.51-16.49-4-2.27-7.61-3.51-13.8-5.08a205.9,205.9,0,0,0-29.09-5.16,36.87,36.87,0,0,0-5.59-5,41.82,41.82,0,0,0-12.06-5.9A63.81,63.81,0,0,0,144.76,1c-6.62.87-21.64,2.84-30.63,12.78a76.74,76.74,0,0,1-12,11.61,50.34,50.34,0,0,1-6.59,4.48,105.32,105.32,0,0,1-18.83,8.23,15.25,15.25,0,0,0,2.32-1.45A17.56,17.56,0,0,0,85.19,27c1.42-5.47-2.53-9.7-3.42-10.81a15.59,15.59,0,0,0-4.44-3.72,16.67,16.67,0,0,0-9.67-2,18.2,18.2,0,0,0-8,2.67,21.44,21.44,0,0,0-7.06,7,17.77,17.77,0,0,0-2.93,6c-1.08,4.68.34,9.1,2.8,13a183.91,183.91,0,0,0-27.6,8.62c-3.52,1.41-6.86,2.88-10,4.38a4.77,4.77,0,0,1-3.17.25c-1.08-.33-1.31-.93-2.83-1.7A6.08,6.08,0,0,0,6,49.83c-6.43,0-6.45,10,0,10l.39,0a11.46,11.46,0,0,0-.15,4.05c1.61,10.95,20.2,19.71,36.59,20.47,10.22.48,16.21-2.32,29.5-1.5a122,122,0,0,1,12.56,1.38c4.28.76,5.89,1.39,10.25,2.06a107.08,107.08,0,0,0,11.36,1.11c13.15.61,26.42,0,39.61-.46.76,0,1.88,0,3.22-.1C165,86.11,180,85.42,190.86,75.42,204.53,62.79,203.13,43,203,42a55,55,0,0,0-3.66-13.55,59.22,59.22,0,0,1,7.77,1.35,63.23,63.23,0,0,1,11,3.86c11.88,5.19,17.82,7.79,17.78,10.09,0,3-6.28,2.83-12.73,9.24-1.26,1.26-8.94,8.88-7.37,16.22,1.42,6.65,9.73,9.8,18,12.93a71.52,71.52,0,0,0,26.36,4.54c12.45.39,23.35.36,32.33.16,13-.28,19.71-.85,27.5-4a54.78,54.78,0,0,0,12.33-7Z"/></g><g id="Layer_2-2" data-name="Layer 2"><circle class="cls-2" cx="13.83" cy="52.33" r="1.5"/><circle class="cls-2" cx="7.21" cy="50" r="1.5"/><circle class="cls-2" cx="1.5" cy="53.17" r="1.5"/><circle class="cls-2" cx="6" cy="59.83" r="1.5"/><circle class="cls-2" cx="10" cy="71.5" r="1.5"/><circle class="cls-2" cx="24.5" cy="80.17" r="1.5"/><circle class="cls-2" cx="45.67" cy="84.67" r="1.5"/><circle class="cls-2" cx="72.33" cy="82.83" r="1.5"/><circle class="cls-2" cx="99.5" cy="87.33" r="1.5"/><circle class="cls-2" cx="131.67" cy="87.67" r="1.5"/><circle class="cls-2" cx="163.67" cy="86.33" r="1.5"/><circle class="cls-2" cx="190.86" cy="75.42" r="1.5"/><circle class="cls-2" cx="202.67" cy="52.67" r="1.5"/><circle class="cls-2" cx="199.67" cy="29.5" r="1.5"/><circle class="cls-2" cx="216.17" cy="32.83" r="1.5"/><circle class="cls-2" cx="235.17" cy="42.83" r="1.5"/><circle class="cls-2" cx="227.83" cy="49.67" r="1.5"/><circle class="cls-2" cx="216.17" cy="63.67" r="1.5"/><circle class="cls-2" cx="220.33" cy="75.67" r="1.5"/><circle class="cls-2" cx="238.17" cy="83.5" r="1.5"/><circle class="cls-2" cx="257.17" cy="86.33" r="1.5"/><circle class="cls-2" cx="274.83" cy="87.17" r="1.5"/><circle class="cls-2" cx="292.5" cy="86.85" r="1.5"/><circle class="cls-2" cx="312" cy="84.83" r="1.5"/><circle class="cls-2" cx="332.33" cy="75.83" r="1.5"/><circle class="cls-2" cx="317.17" cy="77.17" r="1.5"/><circle class="cls-2" cx="297.5" cy="78.17" r="1.5"/><circle class="cls-2" cx="277.83" cy="78.5" r="1.5"/><circle class="cls-2" cx="257.82" cy="77.47" r="1.5"/><circle class="cls-2" cx="238.17" cy="72.67" r="1.5"/><circle class="cls-2" cx="226.67" cy="64.17" r="1.5"/><circle class="cls-2" cx="240.83" cy="53.67" r="1.5"/><circle class="cls-2" cx="248.83" cy="40.33" r="1.5"/><circle class="cls-2" cx="237.17" cy="27.17" r="1.5"/><circle class="cls-2" cx="222.83" cy="21.5" r="1.5"/><circle class="cls-2" cx="190.74" cy="14.67" r="1.5"/><circle class="cls-2" cx="167.83" cy="2.17" r="1.5"/><circle class="cls-2" cx="141.33" cy="1.5" r="1.5"/><circle class="cls-2" cx="120.67" cy="8.5" r="1.5"/><circle class="cls-2" cx="107.5" cy="20.67" r="1.5"/><circle class="cls-2" cx="92" cy="31.5" r="1.5"/><circle class="cls-2" cx="78" cy="36.83" r="1.5"/><circle class="cls-2" cx="85.5" cy="27.83" r="1.5"/><circle class="cls-2" cx="80.97" cy="15.13" r="1.5"/><circle class="cls-2" cx="64" cy="11.17" r="1.5"/><circle class="cls-2" cx="52.61" cy="20.2" r="1.5"/><circle class="cls-2" cx="52.17" cy="39.67" r="1.5"/><circle class="cls-2" cx="33.08" cy="44.75" r="1.5"/></g></g></svg>