<svg id="Layer_1" data-name="Layer 1" xmlns="http://www.w3.org/2000/svg" xmlns:xlink="http://www.w3.org/1999/xlink" viewBox="0 0 840.11 649.57"><defs><style>.cls-1,.cls-2,.cls-4,.cls-46,.cls-52,.cls-54{fill:none;}.cls-2,.cls-4{stroke:gray;}.cls-2,.cls-26,.cls-27,.cls-4,.cls-46,.cls-49,.cls-51,.cls-52,.cls-53,.cls-54,.cls-57{stroke-miterlimit:10;}.cls-3,.cls-49,.cls-57{fill:#fff;}.cls-4{stroke-width:0.5px;}.cls-5{clip-path:url(#clip-path);}.cls-6{clip-path:url(#clip-path-2);}.cls-7{clip-path:url(#clip-path-3);}.cls-8{clip-path:url(#clip-path-4);}.cls-9{clip-path:url(#clip-path-5);}.cls-10{clip-path:url(#clip-path-6);}.cls-11{clip-path:url(#clip-path-7);}.cls-12{clip-path:url(#clip-path-8);}.cls-13{font-size:1.64px;}.cls-13,.cls-22,.cls-39{font-family:MedusaGothic, Medusa Gothic;}.cls-14{letter-spacing:-0.06em;}.cls-15{letter-spacing:-0.03em;}.cls-16{letter-spacing:-0.02em;}.cls-17{letter-spacing:-0.03em;}.cls-18{letter-spacing:-0.11em;}.cls-19{letter-spacing:0em;}.cls-20{letter-spacing:-0.02em;}.cls-21{letter-spacing:0em;}.cls-22{font-size:1.67px;}.cls-23{letter-spacing:-0.09em;}.cls-24{letter-spacing:-0.02em;}.cls-25{letter-spacing:-0.03em;}.cls-26{fill:#998675;stroke:#998675;}.cls-27{fill:#f9f8ec;stroke:#f5f3df;}.cls-28{opacity:0.65;}.cls-29{fill:#1072ba;}.cls-30{fill:#ec2227;}.cls-31{clip-path:url(#clip-path-9);}.cls-32{clip-path:url(#clip-path-10);}.cls-33{clip-path:url(#clip-path-11);}.cls-34{clip-path:url(#clip-path-12);}.cls-35{clip-path:url(#clip-path-13);}.cls-36{clip-path:url(#clip-path-14);}.cls-37{clip-path:url(#clip-path-15);}.cls-38{clip-path:url(#clip-path-16);}.cls-39{opacity:0.78;font-size:33.74px;}.cls-39,.cls-55,.cls-56{fill:#1b1464;}.cls-40{letter-spacing:-0.07em;}.cls-41{letter-spacing:-0.02em;}.cls-42{letter-spacing:-0.14em;}.cls-43{letter-spacing:-0.17em;}.cls-44{letter-spacing:-0.04em;}.cls-45{letter-spacing:-0.06em;}.cls-46{stroke:#736357;}.cls-47{mask:url(#mask);}.cls-48{opacity:0.23;}.cls-49{stroke:#ed1c24;}.cls-49,.cls-57{stroke-linecap:round;}.cls-49,.cls-54{stroke-width:2px;}.cls-50,.cls-56,.cls-57{opacity:0.42;}.cls-51{font-size:13.86px;}.cls-51,.cls-52,.cls-53,.cls-54,.cls-57{stroke:#1b1464;}.cls-51,.cls-53{stroke-width:0.25px;font-family:MyriadPro-Regular, Myriad Pro;}.cls-52{stroke-width:3px;}.cls-53{font-size:13.69px;}.cls-56{font-size:9.7px;font-family:ArialNarrow, Arial Narrow;}</style><clipPath id="clip-path" transform="translate(34.89)"><polygon class="cls-1" points="270.87 582.66 270.87 579.7 263.62 572.45 263.62 582.66 270.87 582.66"/></clipPath><clipPath id="clip-path-2" transform="translate(34.89)"><polygon class="cls-1" points="273.83 579.7 270.87 579.7 263.62 572.45 273.83 572.45 273.83 579.7"/></clipPath><clipPath id="clip-path-3" transform="translate(34.89)"><polygon class="cls-1" points="341.13 579.7 344.08 579.7 351.33 572.45 341.13 572.45 341.13 579.7"/></clipPath><clipPath id="clip-path-4" transform="translate(34.89)"><polygon class="cls-1" points="344.08 582.66 344.08 579.7 351.33 572.45 351.33 582.66 344.08 582.66"/></clipPath><clipPath id="clip-path-5" transform="translate(34.89)"><polygon class="cls-1" points="344.08 626.54 344.08 629.5 351.33 636.75 351.33 626.54 344.08 626.54"/></clipPath><clipPath id="clip-path-6" transform="translate(34.89)"><polygon class="cls-1" points="341.13 629.5 344.08 629.5 351.33 636.75 341.13 636.75 341.13 629.5"/></clipPath><clipPath id="clip-path-7" transform="translate(34.89)"><polygon class="cls-1" points="273.83 629.5 270.87 629.5 263.62 636.75 273.83 636.75 273.83 629.5"/></clipPath><clipPath id="clip-path-8" transform="translate(34.89)"><polygon class="cls-1" points="270.87 626.54 270.87 629.5 263.62 636.75 263.62 626.54 270.87 626.54"/></clipPath><clipPath id="clip-path-9" transform="translate(34.89)"><polygon class="cls-1" points="39.92 67.25 39.92 39.92 27.32 27.32 27.32 67.25 39.92 67.25"/></clipPath><clipPath id="clip-path-10" transform="translate(34.89)"><polygon class="cls-1" points="67.25 39.92 39.92 39.92 27.32 27.32 67.25 27.32 67.25 39.92"/></clipPath><clipPath id="clip-path-11" transform="translate(34.89)"><polygon class="cls-1" points="737.97 39.92 765.29 39.92 777.89 27.32 737.97 27.32 737.97 39.92"/></clipPath><clipPath id="clip-path-12" transform="translate(34.89)"><polygon class="cls-1" points="765.29 67.25 765.29 39.92 777.89 27.32 777.89 67.25 765.29 67.25"/></clipPath><clipPath id="clip-path-13" transform="translate(34.89)"><polygon class="cls-1" points="765.29 491.98 765.29 519.3 777.89 531.9 777.89 491.98 765.29 491.98"/></clipPath><clipPath id="clip-path-14" transform="translate(34.89)"><polygon class="cls-1" points="737.97 519.3 765.29 519.3 777.89 531.9 737.97 531.9 737.97 519.3"/></clipPath><clipPath id="clip-path-15" transform="translate(34.89)"><polygon class="cls-1" points="67.25 519.3 39.92 519.3 27.32 531.9 67.25 531.9 67.25 519.3"/></clipPath><clipPath id="clip-path-16" transform="translate(34.89)"><polygon class="cls-1" points="39.92 491.98 39.92 519.3 27.32 531.9 27.32 491.98 39.92 491.98"/></clipPath><mask id="mask" x="440.97" y="-54.04" width="794.2" height="462.46" maskUnits="userSpaceOnUse"><g transform="translate(34.89)"><image width="565" height="329" transform="translate(406.08 -54.04) scale(1.41)" xlink:href="distress texture.jpg"/></g></mask></defs><title>postcardsvg</title><line class="cls-2" x1="0.5" y1="649.57" x2="0.5" y2="298.86"/><rect class="cls-3" x="302.14" y="576.08" width="80.46" height="57.05"/><path class="cls-4" d="M266.37,629v-2.33a1.75,1.75,0,1,0,0-3.49V620.9" transform="translate(34.89)"/><path class="cls-4" d="M266.37,620.9v-2.33a1.75,1.75,0,1,0,0-3.49v-2.33" transform="translate(34.89)"/><path class="cls-4" d="M266.37,612.75v-2.33a1.75,1.75,0,1,0,0-3.49V604.6" transform="translate(34.89)"/><path class="cls-4" d="M266.37,604.6v-2.33a1.75,1.75,0,1,0,0-3.49v-2.33" transform="translate(34.89)"/><path class="cls-4" d="M266.37,596.46v-2.33a1.75,1.75,0,1,0,0-3.49v-2.33" transform="translate(34.89)"/><path class="cls-4" d="M266.37,588.31V586a1.75,1.75,0,1,0,0-3.49v-2.33" transform="translate(34.89)"/><path class="cls-4" d="M271.33,575.2h2.3a1.72,1.72,0,1,0,3.44,0h2.3" transform="translate(34.89)"/><path class="cls-4" d="M279.36,575.2h2.3a1.72,1.72,0,1,0,3.44,0h2.3" transform="translate(34.89)"/><path class="cls-4" d="M287.4,575.2h2.3a1.72,1.72,0,1,0,3.44,0h2.3" transform="translate(34.89)"/><path class="cls-4" d="M295.43,575.2h2.3a1.72,1.72,0,1,0,3.44,0h2.3" transform="translate(34.89)"/><path class="cls-4" d="M303.46,575.2h2.3a1.72,1.72,0,1,0,3.44,0h2.3" transform="translate(34.89)"/><path class="cls-4" d="M311.49,575.2h2.3a1.72,1.72,0,1,0,3.44,0h2.3" transform="translate(34.89)"/><path class="cls-4" d="M319.53,575.2h2.3a1.72,1.72,0,1,0,3.44,0h2.3" transform="translate(34.89)"/><path class="cls-4" d="M327.56,575.2h2.3a1.72,1.72,0,1,0,3.44,0h2.3" transform="translate(34.89)"/><path class="cls-4" d="M335.59,575.2h2.3a1.72,1.72,0,1,0,3.44,0h2.3" transform="translate(34.89)"/><path class="cls-4" d="M348.58,580.16v2.33a1.75,1.75,0,1,0,0,3.49v2.33" transform="translate(34.89)"/><path class="cls-4" d="M348.58,588.31v2.33a1.75,1.75,0,1,0,0,3.49v2.33" transform="translate(34.89)"/><path class="cls-4" d="M348.58,596.46v2.33a1.75,1.75,0,1,0,0,3.49v2.33" transform="translate(34.89)"/><path class="cls-4" d="M348.58,604.6v2.33a1.75,1.75,0,1,0,0,3.49v2.33" transform="translate(34.89)"/><path class="cls-4" d="M348.58,612.75v2.33a1.75,1.75,0,1,0,0,3.49v2.33" transform="translate(34.89)"/><path class="cls-4" d="M348.58,620.9v2.33a1.75,1.75,0,1,0,0,3.49V629" transform="translate(34.89)"/><path class="cls-4" d="M343.63,634h-2.3a1.72,1.72,0,1,0-3.44,0h-2.3" transform="translate(34.89)"/><path class="cls-4" d="M335.59,634h-2.3a1.72,1.72,0,1,0-3.44,0h-2.3" transform="translate(34.89)"/><path class="cls-4" d="M327.56,634h-2.3a1.72,1.72,0,1,0-3.44,0h-2.3" transform="translate(34.89)"/><path class="cls-4" d="M319.53,634h-2.3a1.72,1.72,0,1,0-3.44,0h-2.3" transform="translate(34.89)"/><path class="cls-4" d="M311.49,634h-2.3a1.72,1.72,0,1,0-3.44,0h-2.3" transform="translate(34.89)"/><path class="cls-4" d="M303.46,634h-2.3a1.72,1.72,0,1,0-3.44,0h-2.3" transform="translate(34.89)"/><path class="cls-4" d="M295.43,634h-2.3a1.72,1.72,0,1,0-3.44,0h-2.3" transform="translate(34.89)"/><path class="cls-4" d="M287.4,634h-2.3a1.72,1.72,0,1,0-3.44,0h-2.3" transform="translate(34.89)"/><path class="cls-4" d="M279.36,634h-2.3a1.72,1.72,0,1,0-3.44,0h-2.3" transform="translate(34.89)"/><g class="cls-5"><path class="cls-4" d="M266.37,580.16v-2.33a1.75,1.75,0,0,0,0-3.5V572" transform="translate(34.89)"/></g><g class="cls-6"><path class="cls-4" d="M263.16,575.2h2.33a1.75,1.75,0,0,0,3.5,0h2.33" transform="translate(34.89)"/></g><g class="cls-7"><path class="cls-4" d="M343.63,575.2H346a1.75,1.75,0,0,0,3.5,0h2.33" transform="translate(34.89)"/></g><g class="cls-8"><path class="cls-4" d="M348.58,572v2.33a1.75,1.75,0,0,0,0,3.5v2.33" transform="translate(34.89)"/></g><g class="cls-9"><path class="cls-4" d="M348.58,629v2.33a1.75,1.75,0,0,0,0,3.5v2.33" transform="translate(34.89)"/></g><g class="cls-10"><path class="cls-4" d="M351.79,634h-2.33a1.75,1.75,0,0,0-3.5,0h-2.33" transform="translate(34.89)"/></g><g class="cls-11"><path class="cls-4" d="M271.33,634H269a1.75,1.75,0,0,0-3.5,0h-2.33" transform="translate(34.89)"/></g><g class="cls-12"><path class="cls-4" d="M266.37,637.21v-2.33a1.75,1.75,0,1,0,0-3.5V629" transform="translate(34.89)"/></g><text class="cls-13" transform="translate(310.19 582.16) scale(0.98 1)"><tspan class="cls-14">S</tspan><tspan class="cls-15" x="1.14" y="0">o</tspan><tspan x="2.69" y="0">u</tspan><tspan class="cls-16" x="4.35" y="0">t</tspan><tspan x="5.66" y="0">h </tspan><tspan class="cls-17" x="7.55" y="0">C</tspan><tspan x="8.97" y="0">a</tspan><tspan class="cls-18" x="10.69" y="0">r</tspan><tspan class="cls-16" x="11.93" y="0">o</tspan><tspan class="cls-19" x="13.5" y="0">li</tspan><tspan class="cls-20" x="15.31" y="0">n</tspan><tspan class="cls-21" x="16.9" y="0">a</tspan></text><text class="cls-22" transform="translate(365.5 629.22)"><tspan class="cls-23">f</tspan><tspan class="cls-24" x="1.12" y="0">o</tspan><tspan x="2.71" y="0">r</tspan><tspan class="cls-25" x="4.16" y="0">ev</tspan><tspan x="6.94" y="0">er</tspan></text><path class="cls-26" d="M276.66,622.15c4.33-2.3,8.63-4.64,12.95-7l6-3c.37-.18,2.27,1.38,2.7,1.57,2.09.93,4.82.86,7.07.76,1.3-.06,3.12-.62,4,.65.78,1.08,1,3.36,1.3,4.65q.64,2.64,1,5.32a5.08,5.08,0,0,0,.73,2.35,1.65,1.65,0,0,0,2.17.54c-2.6-3.51-3.27-8-3.85-12.38a1.14,1.14,0,0,1,0-.68,1.16,1.16,0,0,1,.6-.45c3.69-1.67,7.83-4,10.27-7.33a14.49,14.49,0,0,0,2.78-9.85c-.44-3.31-1.46-6.27.95-9.15.87-1,3.81-3,5.17-3h-3c-3.16,0-8.6-4.53-10.9-.1-.76,1.46-1.26,3.52-2.1,5.1-1.88,3.53-6,7-6,7-2.05,1.31-4.06,2.68-6,4.13a27,27,0,0,0-3.8,3.13c-2.68,2.89-4.21,6.24-7.57,8.55s-7.09,3.5-10.61,5.28C279,619.08,277.06,620.25,276.66,622.15Z" transform="translate(34.89)"/><rect class="cls-27" x="52.35" y="20.62" width="770.3" height="517.28"/><line class="cls-1" x1="804.65" y1="9.12" x2="814.65" y2="22.12"/><g class="cls-28"><path class="cls-29" d="M38.93,469.11a3.8,3.8,0,0,1,1,2.35V487.3c0,.76-.45.94-1,.4L28.31,477.25a3.8,3.8,0,0,1-1-2.35V459.06c0-.76.45-.94,1-.4Z" transform="translate(34.89)"/></g><g class="cls-28"><path class="cls-30" d="M38.93,432.61a3.8,3.8,0,0,1,1,2.35V450.8c0,.76-.45.94-1,.4L28.31,440.76a3.8,3.8,0,0,1-1-2.35V422.56c0-.76.45-.94,1-.4Z" transform="translate(34.89)"/></g><g class="cls-28"><path class="cls-29" d="M38.93,399a3.8,3.8,0,0,1,1,2.35v15.84c0,.76-.45.94-1,.4L28.31,407.13a3.8,3.8,0,0,1-1-2.35V388.94c0-.76.45-.94,1-.4Z" transform="translate(34.89)"/></g><g class="cls-28"><path class="cls-30" d="M38.93,362.48a3.8,3.8,0,0,1,1,2.35v15.84c0,.76-.45.94-1,.4L28.31,370.63a3.8,3.8,0,0,1-1-2.35V352.44c0-.76.45-.94,1-.4Z" transform="translate(34.89)"/></g><g class="cls-28"><path class="cls-29" d="M38.93,328.85a3.8,3.8,0,0,1,1,2.35V347c0,.76-.45.94-1,.4L28.31,337a3.8,3.8,0,0,1-1-2.35V318.81c0-.76.45-.94,1-.4Z" transform="translate(34.89)"/></g><g class="cls-28"><path class="cls-30" d="M38.93,292.35a3.8,3.8,0,0,1,1,2.35v15.84c0,.76-.45.94-1,.4L28.31,300.5a3.8,3.8,0,0,1-1-2.35V282.31c0-.76.45-.94,1-.4Z" transform="translate(34.89)"/></g><g class="cls-28"><path class="cls-29" d="M38.93,258.73a3.8,3.8,0,0,1,1,2.35v15.84c0,.76-.45.94-1,.4L28.31,266.87a3.8,3.8,0,0,1-1-2.35V248.68c0-.76.45-.94,1-.4Z" transform="translate(34.89)"/></g><g class="cls-28"><path class="cls-30" d="M38.93,222.23a3.8,3.8,0,0,1,1,2.35v15.84c0,.76-.45.94-1,.4L28.31,230.37a3.8,3.8,0,0,1-1-2.35V212.18c0-.76.45-.94,1-.4Z" transform="translate(34.89)"/></g><g class="cls-28"><path class="cls-29" d="M38.93,188.6a3.8,3.8,0,0,1,1,2.35v15.84c0,.76-.45.94-1,.4L28.31,196.74a3.8,3.8,0,0,1-1-2.35V178.55c0-.76.45-.94,1-.4Z" transform="translate(34.89)"/></g><g class="cls-28"><path class="cls-30" d="M38.93,152.1a3.8,3.8,0,0,1,1,2.35v15.84c0,.76-.45.94-1,.4L28.31,160.24a3.8,3.8,0,0,1-1-2.35V142.05c0-.76.45-.94,1-.4Z" transform="translate(34.89)"/></g><g class="cls-28"><path class="cls-29" d="M38.93,118.47a3.8,3.8,0,0,1,1,2.35v15.84c0,.76-.45.94-1,.4L28.31,126.62a3.8,3.8,0,0,1-1-2.35V108.43c0-.76.45-.94,1-.4Z" transform="translate(34.89)"/></g><g class="cls-28"><path class="cls-30" d="M38.93,82a3.8,3.8,0,0,1,1,2.35v15.84c0,.76-.45.94-1,.4L28.31,90.12a3.8,3.8,0,0,1-1-2.35V71.93c0-.76.45-.94,1-.4Z" transform="translate(34.89)"/></g><g class="cls-28"><path class="cls-29" d="M91.4,38.93a4.13,4.13,0,0,1-2.48,1H72.19c-.8,0-1-.45-.43-1l11-10.62a4.13,4.13,0,0,1,2.48-1H102c.8,0,1,.45.43,1Z" transform="translate(34.89)"/></g><g class="cls-28"><path class="cls-30" d="M129.95,38.93a4.13,4.13,0,0,1-2.48,1H110.74c-.8,0-1-.45-.43-1l11-10.62a4.13,4.13,0,0,1,2.48-1h16.73c.8,0,1,.45.43,1Z" transform="translate(34.89)"/></g><g class="cls-28"><path class="cls-29" d="M165.46,38.93a4.13,4.13,0,0,1-2.48,1H146.25c-.8,0-1-.45-.43-1l11-10.62a4.13,4.13,0,0,1,2.48-1h16.73c.8,0,1,.45.43,1Z" transform="translate(34.89)"/></g><g class="cls-28"><path class="cls-30" d="M204,38.93a4.13,4.13,0,0,1-2.48,1H184.79c-.8,0-1-.45-.43-1l11-10.62a4.13,4.13,0,0,1,2.48-1h16.73c.8,0,1,.45.43,1Z" transform="translate(34.89)"/></g><g class="cls-28"><path class="cls-29" d="M239.52,38.93a4.13,4.13,0,0,1-2.48,1H220.31c-.8,0-1-.45-.43-1l11-10.62a4.13,4.13,0,0,1,2.48-1h16.73c.8,0,1,.45.43,1Z" transform="translate(34.89)"/></g><g class="cls-28"><path class="cls-30" d="M278.06,38.93a4.13,4.13,0,0,1-2.48,1H258.85c-.8,0-1-.45-.43-1l11-10.62a4.13,4.13,0,0,1,2.48-1h16.73c.8,0,1,.45.43,1Z" transform="translate(34.89)"/></g><g class="cls-28"><path class="cls-29" d="M313.58,38.93a4.13,4.13,0,0,1-2.48,1H294.37c-.8,0-1-.45-.43-1l11-10.62a4.13,4.13,0,0,1,2.48-1h16.73c.8,0,1,.45.43,1Z" transform="translate(34.89)"/></g><g class="cls-28"><path class="cls-30" d="M352.12,38.93a4.13,4.13,0,0,1-2.48,1H332.91c-.8,0-1-.45-.43-1l11-10.62a4.13,4.13,0,0,1,2.48-1h16.73c.8,0,1,.45.43,1Z" transform="translate(34.89)"/></g><g class="cls-28"><path class="cls-29" d="M387.64,38.93a4.13,4.13,0,0,1-2.48,1H368.43c-.8,0-1-.45-.43-1l11-10.62a4.13,4.13,0,0,1,2.48-1h16.73c.8,0,1,.45.43,1Z" transform="translate(34.89)"/></g><g class="cls-28"><path class="cls-30" d="M426.18,38.93a4.13,4.13,0,0,1-2.48,1H407c-.8,0-1-.45-.43-1l11-10.62a4.13,4.13,0,0,1,2.48-1h16.73c.8,0,1,.45.43,1Z" transform="translate(34.89)"/></g><g class="cls-28"><path class="cls-29" d="M461.7,38.93a4.13,4.13,0,0,1-2.48,1H442.49c-.8,0-1-.45-.43-1l11-10.62a4.13,4.13,0,0,1,2.48-1H472.3c.8,0,1,.45.43,1Z" transform="translate(34.89)"/></g><g class="cls-28"><path class="cls-30" d="M500.24,38.93a4.13,4.13,0,0,1-2.48,1H481c-.8,0-1-.45-.43-1l11-10.62a4.13,4.13,0,0,1,2.48-1h16.73c.8,0,1,.45.43,1Z" transform="translate(34.89)"/></g><g class="cls-28"><path class="cls-29" d="M535.75,38.93a4.13,4.13,0,0,1-2.48,1H516.54c-.8,0-1-.45-.43-1l11-10.62a4.13,4.13,0,0,1,2.48-1h16.73c.8,0,1,.45.43,1Z" transform="translate(34.89)"/></g><g class="cls-28"><path class="cls-30" d="M574.3,38.93a4.13,4.13,0,0,1-2.48,1H555.09c-.8,0-1-.45-.43-1l11-10.62a4.13,4.13,0,0,1,2.48-1h16.73c.8,0,1,.45.43,1Z" transform="translate(34.89)"/></g><g class="cls-28"><path class="cls-29" d="M609.81,38.93a4.13,4.13,0,0,1-2.48,1H590.6c-.8,0-1-.45-.43-1l11-10.62a4.13,4.13,0,0,1,2.48-1h16.73c.8,0,1,.45.43,1Z" transform="translate(34.89)"/></g><g class="cls-28"><path class="cls-30" d="M648.36,38.93a4.13,4.13,0,0,1-2.48,1H629.15c-.8,0-1-.45-.43-1l11-10.62a4.13,4.13,0,0,1,2.48-1H659c.8,0,1,.45.43,1Z" transform="translate(34.89)"/></g><g class="cls-28"><path class="cls-29" d="M683.87,38.93a4.13,4.13,0,0,1-2.48,1H664.66c-.8,0-1-.45-.43-1l11-10.62a4.13,4.13,0,0,1,2.48-1h16.73c.8,0,1,.45.43,1Z" transform="translate(34.89)"/></g><g class="cls-28"><path class="cls-30" d="M722.42,38.93a4.13,4.13,0,0,1-2.48,1H703.21c-.8,0-1-.45-.43-1l11-10.62a4.13,4.13,0,0,1,2.48-1H733c.8,0,1,.45.43,1Z" transform="translate(34.89)"/></g><g class="cls-28"><path class="cls-29" d="M766.28,90.12a3.8,3.8,0,0,1-1-2.35V71.93c0-.76.45-.94,1-.4L776.9,82a3.8,3.8,0,0,1,1,2.35v15.84c0,.76-.45.94-1,.4Z" transform="translate(34.89)"/></g><g class="cls-28"><path class="cls-30" d="M766.28,126.62a3.8,3.8,0,0,1-1-2.35V108.43c0-.76.45-.94,1-.4l10.62,10.45a3.8,3.8,0,0,1,1,2.35v15.84c0,.76-.45.94-1,.4Z" transform="translate(34.89)"/></g><g class="cls-28"><path class="cls-29" d="M766.28,160.24a3.8,3.8,0,0,1-1-2.35V142.05c0-.76.45-.94,1-.4L776.9,152.1a3.8,3.8,0,0,1,1,2.35v15.84c0,.76-.45.94-1,.4Z" transform="translate(34.89)"/></g><g class="cls-28"><path class="cls-30" d="M766.28,196.74a3.8,3.8,0,0,1-1-2.35V178.55c0-.76.45-.94,1-.4L776.9,188.6a3.8,3.8,0,0,1,1,2.35v15.84c0,.76-.45.94-1,.4Z" transform="translate(34.89)"/></g><g class="cls-28"><path class="cls-29" d="M766.28,230.37a3.8,3.8,0,0,1-1-2.35V212.18c0-.76.45-.94,1-.4l10.62,10.45a3.8,3.8,0,0,1,1,2.35v15.84c0,.76-.45.94-1,.4Z" transform="translate(34.89)"/></g><g class="cls-28"><path class="cls-30" d="M766.28,266.87a3.8,3.8,0,0,1-1-2.35V248.68c0-.76.45-.94,1-.4l10.62,10.45a3.8,3.8,0,0,1,1,2.35v15.84c0,.76-.45.94-1,.4Z" transform="translate(34.89)"/></g><g class="cls-28"><path class="cls-29" d="M766.28,300.5a3.8,3.8,0,0,1-1-2.35V282.31c0-.76.45-.94,1-.4l10.62,10.45a3.8,3.8,0,0,1,1,2.35v15.84c0,.76-.45.94-1,.4Z" transform="translate(34.89)"/></g><g class="cls-28"><path class="cls-30" d="M766.28,337a3.8,3.8,0,0,1-1-2.35V318.81c0-.76.45-.94,1-.4l10.62,10.45a3.8,3.8,0,0,1,1,2.35V347c0,.76-.45.94-1,.4Z" transform="translate(34.89)"/></g><g class="cls-28"><path class="cls-29" d="M766.28,370.63a3.8,3.8,0,0,1-1-2.35V352.44c0-.76.45-.94,1-.4l10.62,10.45a3.8,3.8,0,0,1,1,2.35v15.84c0,.76-.45.94-1,.4Z" transform="translate(34.89)"/></g><g class="cls-28"><path class="cls-30" d="M766.28,407.13a3.8,3.8,0,0,1-1-2.35V388.94c0-.76.45-.94,1-.4L776.9,399a3.8,3.8,0,0,1,1,2.35v15.84c0,.76-.45.94-1,.4Z" transform="translate(34.89)"/></g><g class="cls-28"><path class="cls-29" d="M766.28,440.76a3.8,3.8,0,0,1-1-2.35V422.56c0-.76.45-.94,1-.4l10.62,10.45a3.8,3.8,0,0,1,1,2.35V450.8c0,.76-.45.94-1,.4Z" transform="translate(34.89)"/></g><g class="cls-28"><path class="cls-30" d="M766.28,477.25a3.8,3.8,0,0,1-1-2.35V459.06c0-.76.45-.94,1-.4l10.62,10.45a3.8,3.8,0,0,1,1,2.35V487.3c0,.76-.45.94-1,.4Z" transform="translate(34.89)"/></g><g class="cls-28"><path class="cls-29" d="M713.82,520.29a4.13,4.13,0,0,1,2.48-1H733c.8,0,1,.45.43,1l-11,10.62a4.13,4.13,0,0,1-2.48,1H703.21c-.8,0-1-.45-.43-1Z" transform="translate(34.89)"/></g><g class="cls-28"><path class="cls-30" d="M675.27,520.29a4.13,4.13,0,0,1,2.48-1h16.73c.8,0,1,.45.43,1l-11,10.62a4.13,4.13,0,0,1-2.48,1H664.66c-.8,0-1-.45-.43-1Z" transform="translate(34.89)"/></g><g class="cls-28"><path class="cls-29" d="M639.76,520.29a4.13,4.13,0,0,1,2.48-1H659c.8,0,1,.45.43,1l-11,10.62a4.13,4.13,0,0,1-2.48,1H629.15c-.8,0-1-.45-.43-1Z" transform="translate(34.89)"/></g><g class="cls-28"><path class="cls-30" d="M601.21,520.29a4.13,4.13,0,0,1,2.48-1h16.73c.8,0,1,.45.43,1l-11,10.62a4.13,4.13,0,0,1-2.48,1H590.6c-.8,0-1-.45-.43-1Z" transform="translate(34.89)"/></g><g class="cls-28"><path class="cls-29" d="M565.7,520.29a4.13,4.13,0,0,1,2.48-1h16.73c.8,0,1,.45.43,1l-11,10.62a4.13,4.13,0,0,1-2.48,1H555.09c-.8,0-1-.45-.43-1Z" transform="translate(34.89)"/></g><g class="cls-28"><path class="cls-30" d="M527.15,520.29a4.13,4.13,0,0,1,2.48-1h16.73c.8,0,1,.45.43,1l-11,10.62a4.13,4.13,0,0,1-2.48,1H516.54c-.8,0-1-.45-.43-1Z" transform="translate(34.89)"/></g><g class="cls-28"><path class="cls-29" d="M491.64,520.29a4.13,4.13,0,0,1,2.48-1h16.73c.8,0,1,.45.43,1l-11,10.62a4.13,4.13,0,0,1-2.48,1H481c-.8,0-1-.45-.43-1Z" transform="translate(34.89)"/></g><g class="cls-28"><path class="cls-30" d="M453.09,520.29a4.13,4.13,0,0,1,2.48-1H472.3c.8,0,1,.45.43,1l-11,10.62a4.13,4.13,0,0,1-2.48,1H442.49c-.8,0-1-.45-.43-1Z" transform="translate(34.89)"/></g><g class="cls-28"><path class="cls-29" d="M417.58,520.29a4.13,4.13,0,0,1,2.48-1h16.73c.8,0,1,.45.43,1l-11,10.62a4.13,4.13,0,0,1-2.48,1H407c-.8,0-1-.45-.43-1Z" transform="translate(34.89)"/></g><g class="cls-28"><path class="cls-30" d="M379,520.29a4.13,4.13,0,0,1,2.48-1h16.73c.8,0,1,.45.43,1l-11,10.62a4.13,4.13,0,0,1-2.48,1H368.43c-.8,0-1-.45-.43-1Z" transform="translate(34.89)"/></g><g class="cls-28"><path class="cls-29" d="M343.52,520.29a4.13,4.13,0,0,1,2.48-1h16.73c.8,0,1,.45.43,1l-11,10.62a4.13,4.13,0,0,1-2.48,1H332.91c-.8,0-1-.45-.43-1Z" transform="translate(34.89)"/></g><g class="cls-28"><path class="cls-30" d="M305,520.29a4.13,4.13,0,0,1,2.48-1h16.73c.8,0,1,.45.43,1l-11,10.62a4.13,4.13,0,0,1-2.48,1H294.37c-.8,0-1-.45-.43-1Z" transform="translate(34.89)"/></g><g class="cls-28"><path class="cls-29" d="M269.46,520.29a4.13,4.13,0,0,1,2.48-1h16.73c.8,0,1,.45.43,1l-11,10.62a4.13,4.13,0,0,1-2.48,1H258.85c-.8,0-1-.45-.43-1Z" transform="translate(34.89)"/></g><g class="cls-28"><path class="cls-30" d="M230.92,520.29a4.13,4.13,0,0,1,2.48-1h16.73c.8,0,1,.45.43,1l-11,10.62a4.13,4.13,0,0,1-2.48,1H220.31c-.8,0-1-.45-.43-1Z" transform="translate(34.89)"/></g><g class="cls-28"><path class="cls-29" d="M195.4,520.29a4.13,4.13,0,0,1,2.48-1h16.73c.8,0,1,.45.43,1l-11,10.62a4.13,4.13,0,0,1-2.48,1H184.79c-.8,0-1-.45-.43-1Z" transform="translate(34.89)"/></g><g class="cls-28"><path class="cls-30" d="M156.86,520.29a4.13,4.13,0,0,1,2.48-1h16.73c.8,0,1,.45.43,1l-11,10.62a4.13,4.13,0,0,1-2.48,1H146.25c-.8,0-1-.45-.43-1Z" transform="translate(34.89)"/></g><g class="cls-28"><path class="cls-29" d="M121.34,520.29a4.13,4.13,0,0,1,2.48-1h16.73c.8,0,1,.45.43,1l-11,10.62a4.13,4.13,0,0,1-2.48,1H110.74c-.8,0-1-.45-.43-1Z" transform="translate(34.89)"/></g><g class="cls-28"><path class="cls-30" d="M82.8,520.29a4.13,4.13,0,0,1,2.48-1H102c.8,0,1,.45.43,1l-11,10.62a4.13,4.13,0,0,1-2.48,1H72.19c-.8,0-1-.45-.43-1Z" transform="translate(34.89)"/></g><g class="cls-31"><g class="cls-28"><path class="cls-29" d="M38.93,48a3.9,3.9,0,0,1,1,2.39v16.1c0,.77-.45,1-1,.41L28.31,56.31a3.9,3.9,0,0,1-1-2.39V37.82c0-.77.45-1,1-.41Z" transform="translate(34.89)"/></g><g class="cls-28"><path class="cls-30" d="M38.93,10.93a3.9,3.9,0,0,1,1,2.39v16.1c0,.77-.45,1-1,.41L28.31,19.21a3.9,3.9,0,0,1-1-2.39V.72c0-.77.45-1,1-.41Z" transform="translate(34.89)"/></g></g><g class="cls-32"><g class="cls-28"><path class="cls-29" d="M19.21,38.93a3.9,3.9,0,0,1-2.39,1H.72c-.77,0-1-.45-.41-1L10.93,28.31a3.9,3.9,0,0,1,2.39-1h16.1c.77,0,1,.45.41,1Z" transform="translate(34.89)"/></g><g class="cls-28"><path class="cls-30" d="M56.31,38.93a3.9,3.9,0,0,1-2.39,1H37.82c-.77,0-1-.45-.41-1L48,28.31a3.9,3.9,0,0,1,2.39-1h16.1c.77,0,1,.45.41,1Z" transform="translate(34.89)"/></g></g><g class="cls-33"><g class="cls-28"><path class="cls-29" d="M757.18,38.93a3.9,3.9,0,0,1-2.39,1h-16.1c-.77,0-1-.45-.41-1L748.9,28.31a3.9,3.9,0,0,1,2.39-1h16.1c.77,0,1,.45.41,1Z" transform="translate(34.89)"/></g><g class="cls-28"><path class="cls-30" d="M794.28,38.93a3.9,3.9,0,0,1-2.39,1h-16.1c-.77,0-1-.45-.41-1L786,28.31a3.9,3.9,0,0,1,2.39-1h16.1c.77,0,1,.45.41,1Z" transform="translate(34.89)"/></g></g><g class="cls-34"><g class="cls-28"><path class="cls-29" d="M766.28,19.21a3.9,3.9,0,0,1-1-2.39V.72c0-.77.45-1,1-.41L776.9,10.93a3.9,3.9,0,0,1,1,2.39v16.1c0,.77-.45,1-1,.41Z" transform="translate(34.89)"/></g><g class="cls-28"><path class="cls-30" d="M766.28,56.31a3.9,3.9,0,0,1-1-2.39V37.82c0-.77.45-1,1-.41L776.9,48a3.9,3.9,0,0,1,1,2.39v16.1c0,.77-.45,1-1,.41Z" transform="translate(34.89)"/></g></g><g class="cls-35"><g class="cls-28"><path class="cls-29" d="M766.28,511.19a3.9,3.9,0,0,1-1-2.39V492.7c0-.77.45-1,1-.41l10.62,10.62a3.9,3.9,0,0,1,1,2.39v16.1c0,.77-.45,1-1,.41Z" transform="translate(34.89)"/></g><g class="cls-28"><path class="cls-30" d="M766.28,548.29a3.9,3.9,0,0,1-1-2.39V529.8c0-.77.45-1,1-.41L776.9,540a3.9,3.9,0,0,1,1,2.39v16.1c0,.77-.45,1-1,.41Z" transform="translate(34.89)"/></g></g><g class="cls-36"><g class="cls-28"><path class="cls-29" d="M786,520.29a3.9,3.9,0,0,1,2.39-1h16.1c.77,0,1,.45.41,1l-10.62,10.62a3.9,3.9,0,0,1-2.39,1h-16.1c-.77,0-1-.45-.41-1Z" transform="translate(34.89)"/></g><g class="cls-28"><path class="cls-30" d="M748.9,520.29a3.9,3.9,0,0,1,2.39-1h16.1c.77,0,1,.45.41,1l-10.62,10.62a3.9,3.9,0,0,1-2.39,1h-16.1c-.77,0-1-.45-.41-1Z" transform="translate(34.89)"/></g></g><g class="cls-37"><g class="cls-28"><path class="cls-29" d="M48,520.29a3.9,3.9,0,0,1,2.39-1h16.1c.77,0,1,.45.41,1L56.31,530.91a3.9,3.9,0,0,1-2.39,1H37.82c-.77,0-1-.45-.41-1Z" transform="translate(34.89)"/></g><g class="cls-28"><path class="cls-30" d="M10.93,520.29a3.9,3.9,0,0,1,2.39-1h16.1c.77,0,1,.45.41,1L19.21,530.91a3.9,3.9,0,0,1-2.39,1H.72c-.77,0-1-.45-.41-1Z" transform="translate(34.89)"/></g></g><g class="cls-38"><g class="cls-28"><path class="cls-29" d="M38.93,540a3.9,3.9,0,0,1,1,2.39v16.1c0,.77-.45,1-1,.41L28.31,548.29a3.9,3.9,0,0,1-1-2.39V529.8c0-.77.45-1,1-.41Z" transform="translate(34.89)"/></g><g class="cls-28"><path class="cls-30" d="M38.93,502.91a3.9,3.9,0,0,1,1,2.39v16.1c0,.77-.45,1-1,.41L28.31,511.19a3.9,3.9,0,0,1-1-2.39V492.7c0-.77.45-1,1-.41Z" transform="translate(34.89)"/></g></g><text class="cls-39" transform="translate(304.04 98.63)"><tspan class="cls-40">C</tspan><tspan class="cls-41" x="27.81" y="0">on</tspan><tspan class="cls-42" x="92.92" y="0">t</tspan><tspan class="cls-43" x="115.64" y="0">a</tspan><tspan class="cls-44" x="145.04" y="0">c</tspan><tspan x="174" y="0">t </tspan><tspan class="cls-45" x="209.47" y="0">U</tspan><tspan x="241.57" y="0">s</tspan></text><path class="cls-46" d="M608.26,187.62" transform="translate(34.89)"/><g class="cls-47"><g class="cls-48"><path class="cls-49" d="M543.13,98.09s33.82-19.52,69.58,0,69.58,0,69.58,0,33.82-19.52,69.58,0" transform="translate(34.89)"/><path class="cls-49" d="M543.13,112.43s33.82-19.52,69.58,0,69.58,0,69.58,0,33.82-19.52,69.58,0" transform="translate(34.89)"/><path class="cls-49" d="M543.13,126.76s33.82-19.52,69.58,0,69.58,0,69.58,0,33.82-19.52,69.58,0" transform="translate(34.89)"/><path class="cls-49" d="M543.13,141.1s33.82-19.52,69.58,0,69.58,0,69.58,0,33.82-19.52,69.58,0" transform="translate(34.89)"/></g><g class="cls-50"><text class="cls-51" transform="translate(691.44 95.08) rotate(-47.81) scale(0.98 1)">B</text><text class="cls-51" transform="matrix(0.79, -0.59, 0.6, 0.8, 696.01, 89.83)">O</text><text class="cls-51" transform="translate(703.2 84.48) rotate(-25.83) scale(0.98 1)">Z</text><text class="cls-51" transform="matrix(0.94, -0.28, 0.28, 0.96, 709.66, 81.36)">E</text><text class="cls-51" transform="translate(715.6 79.34) rotate(-4.67) scale(0.98 1)">M</text><text class="cls-51" transform="translate(725.91 78.57) rotate(7.77) scale(0.98 1)">A</text><text class="cls-51" transform="translate(733.72 79.56) rotate(19.23) scale(0.98 1)">N</text><text class="cls-51" transform="matrix(0.88, 0.45, -0.45, 0.89, 741.83, 82.59)">,</text><text class="cls-51" transform="matrix(0.84, 0.5, -0.51, 0.86, 744.21, 83.8)"> </text><text class="cls-51" transform="translate(746.58 84.81) rotate(39.86) scale(0.98 1)">M</text><text class="cls-51" transform="matrix(0.62, 0.77, -0.78, 0.63, 754.45, 91.58)">T</text><ellipse class="cls-52" cx="721.41" cy="118.52" rx="56.4" ry="56.05"/><text class="cls-53" transform="matrix(0.59, 0.78, -0.8, 0.6, 680.23, 148.65)">P</text><text class="cls-53" transform="translate(685.13 155.14) rotate(43.07) scale(0.98 1)">O</text><text class="cls-53" transform="translate(692.73 161.99) rotate(33.48) scale(0.98 1)">S</text><text class="cls-53" transform="translate(698.97 166.05) rotate(25.35) scale(0.98 1)">T</text><text class="cls-53" transform="translate(704.79 168.88) rotate(17.42) scale(0.98 1)">A</text><text class="cls-53" transform="matrix(0.97, 0.14, -0.15, 0.99, 713.54, 171.48)">L</text><text class="cls-53" transform="translate(720.39 172.38) rotate(2.84) scale(0.98 1)"> </text><text class="cls-53" transform="matrix(0.98, -0.05, 0.05, 1, 723.79, 172.61)">S</text><text class="cls-53" transform="translate(731.21 172.19) rotate(-10.94) scale(0.98 1)">E</text><text class="cls-53" transform="translate(738.53 170.73) rotate(-19.47) scale(0.98 1)">R</text><text class="cls-53" transform="translate(746.41 167.86) rotate(-28.79) scale(0.98 1)">V</text><text class="cls-53" transform="translate(753.48 163.79) rotate(-35.31) scale(0.98 1)">I</text><text class="cls-53" transform="translate(756.7 161.63) rotate(-41.94) scale(0.98 1)">C</text><text class="cls-53" transform="translate(763.07 155.76) rotate(-50.58) scale(0.98 1)">E</text><circle class="cls-54" cx="721.41" cy="118.52" r="38.66"/><polygon class="cls-55" points="675.04 113.68 676.62 116.87 680.13 117.38 677.59 119.86 678.19 123.36 675.04 121.71 671.9 123.36 672.5 119.86 669.95 117.38 673.47 116.87 675.04 113.68"/><polygon class="cls-55" points="767.82 113.68 769.39 116.87 772.91 117.38 770.36 119.86 770.96 123.36 767.82 121.71 764.67 123.36 765.27 119.86 762.73 117.38 766.25 116.87 767.82 113.68"/></g><text class="cls-56" transform="translate(702.25 144.46) scale(0.98 1)">14 Nov 2016</text><line class="cls-57" x1="724.67" y1="100.63" x2="739.68" y2="120.79"/><line class="cls-57" x1="735.11" y1="114.49" x2="738.53" y2="111.44"/><line class="cls-57" x1="739.02" y1="111.02" x2="748.81" y2="116.4"/><line class="cls-57" x1="724.67" y1="100.63" x2="714.22" y2="113.23"/><line class="cls-57" x1="722.06" y1="122.05" x2="707.7" y2="106.93"/><line class="cls-57" x1="707.7" y1="106.93" x2="697.26" y2="118.27"/><line class="cls-57" x1="695.95" y1="118.27" x2="695.95" y2="119.53"/><line class="cls-57" x1="702.48" y1="113.23" x2="706.39" y2="111.97"/><line class="cls-57" x1="706.39" y1="111.97" x2="710.31" y2="113.23"/><line class="cls-57" x1="710.31" y1="113.23" x2="711.61" y2="111.97"/><line class="cls-57" x1="720.75" y1="106.93" x2="722.06" y2="106.93"/><line class="cls-57" x1="722.06" y1="106.93" x2="724.67" y2="108.19"/><line class="cls-57" x1="724.67" y1="108.19" x2="725.97" y2="106.93"/><line class="cls-57" x1="725.97" y1="106.93" x2="728.58" y2="106.93"/></g></svg>