<svg xmlns="http://www.w3.org/2000/svg" viewBox="0 0 271.86 285.94"><defs><style>.cls-1{fill:none;stroke:#9556a2;stroke-linecap:round;stroke-linejoin:round;stroke-width:9px;}.cls-2{fill:#fff;}.cls-3{fill:#121212;}</style></defs><title>pupfacescrib</title><g id="Layer_2" data-name="Layer 2"><g id="headscribble"><path class="cls-1" d="M210.39,222.42c-.12-.18-53,36.1-53.15,35.85-.84-1.24,68.09-64.64,66.67-66.76S99.2,278.27,98,276.45c-.31-.46,160.07-126.57,158.42-129-1.9-2.81-175.68,127-179.62,121.15-6.17-9.14,176.69-132.71,173.12-138,0,0-221.47,153.95-223.59,150.81-4.44-6.59,237.1-166.21,229.87-176.94-2.06-3.05-246,177.9-251.54,169.66-7-10.34,247.56-179.88,243.27-186.24C247.48,87.25,42.11,237.37,37.16,230c-2.09-3.1,232.6-173,230.18-176.55-.48-.71-229.16,159.18-231.29,156-1.46-2.17,217.13-154,210.6-163.66-.38-.56-236.22,166-239.32,161.42-.5-.74,196.47-143.73,191.58-151C194.63,49.94,30.48,175.79,27.73,171.73c-.31-.45,161.09-128.49,160.17-129.85C186,39.06,23.58,157.1,21.55,154.09,19.88,151.61,216.84,14.33,210.29,4.62,207.09-.13,15,143.23,11.78,138.51c-.3-.45,139.94-111.34,137.84-114.44S23.39,109.58,23.22,109.32"/></g><g id="head"><path class="cls-2" d="M61.16,108.88c4.22,4.86,9.36,9.7,16.24,9.7,6.14,0,11.52-3.52,15.77-7.66a51.34,51.34,0,0,0,11.64-17.7c2-5,3.12-11.68,8.06-14.68-1,3.36-2.83,7.57-3.05,8.64a44.22,44.22,0,0,0-.49,13.26c.08.8.21,1.62.35,2.47q-2.32,5-5.15,9.9a4.73,4.73,0,0,0-.31,3.92,39,39,0,0,0-4.66,7.87,5.3,5.3,0,0,0-.39,2.71c-2.73,5.24-5.47,10.48-8.27,15.68a42.49,42.49,0,0,1-5.61,8.38q-2.36,1.65-4.83,3.15a40.16,40.16,0,0,1-10,3.34A4.11,4.11,0,0,0,67,161.39c-4.55,2.13-8.75,4.57-11.05,9.49-2.63,5.62-2.06,12.21.29,17.82s6.51,9.47,9.74,14.22a4.74,4.74,0,0,0,1.39,4.32,7.31,7.31,0,0,0,1.6,1.12,32.54,32.54,0,0,0,10,6.77A6.45,6.45,0,0,0,80,216.91c4.8,5.84,12.11,7.58,19.31,8.22,5.19.46,13,.21,17,4a33,33,0,0,0,4.76,11.12c3,4.14,7.43,5.32,11.28,8.36,3.55,2.81,6.78,5.85,11.69,4.95,3.93-.72,6.61-3.73,8.26-7.21,2.27-4.79,3.36-10.27,4.86-15.33l5.52-18.63,6.39-21.59a4.23,4.23,0,0,0,1.59-1.08,13.76,13.76,0,0,0,3.76-10.81,132.47,132.47,0,0,0,2.6-20.43c.4-6,1-12.32-.65-18.17a6.44,6.44,0,0,0,3.12-.55c14.55-6.67,25.37-18.62,34.14-31.72a196.54,196.54,0,0,0,12.19-20.62A15.44,15.44,0,0,0,227.6,81a4.52,4.52,0,0,0,3.18-6c-4-12.26-15.62-15.46-27-14.84a7,7,0,0,0-.87-1.2c-3.49-3.83-11.37-1.34-15.6.13a40.25,40.25,0,0,0-24.12,22.53c-1.05,2.59-.59,5,1.73,6.68a4,4,0,0,0,2.64,3.85,159,159,0,0,0,17.59,6.92,20.17,20.17,0,0,0-.06,6,48.19,48.19,0,0,0-2.62,10.72l-.36.55a29.83,29.83,0,0,0-7.85,7.9l-.74.68a4.34,4.34,0,0,0-1.17,1.77c-5.17-3.42-6.72-11.43-11.3-15.67A22.74,22.74,0,0,0,150,105.42a4.15,4.15,0,0,0-2.39-1.22l-5.57-.9a5.09,5.09,0,0,0-3.52.73,94.82,94.82,0,0,0-18.33,2.49c-.08-.66-.17-1.31-.26-2a120.61,120.61,0,0,0,5.91-17,4.28,4.28,0,0,0,2.64-3.35c1.24-6.48,2.65-13,3.7-19.48.72-4.5,1-9.24-1.64-13.23-4.3-6.62-11.37-6.64-17.86-4.41a5.29,5.29,0,0,0-2.67,0A46.39,46.39,0,0,0,80.88,69.72c-5.75,10.37-8.39,24.34-18.8,31.3A5.09,5.09,0,0,0,61.16,108.88Z"/></g><g id="Layer_2-2" data-name="Layer 2"><path class="cls-3" d="M57,108.94c2,1,4,2.07,6,3.07,1,.48,2,.86,3,1.28a.69.69,0,0,1,.5.82,7.41,7.41,0,0,0,.28,2c.32,1.56,1.59,2.58,3,2.05,2.17-.82,4.12-.26,6.11.34,2.32.69,4.6,1.57,7.07,1.62a11.92,11.92,0,0,0,8.41-3.26,41.56,41.56,0,0,0,6.51-8.22c2.35-3.59,4.43-7.36,6.47-11.16s4.28-7.76,6.55-11.55A37.41,37.41,0,0,1,115,80.11a31.32,31.32,0,0,1,2.78-3c.49-.42.37-.71-.18-.8a5.57,5.57,0,0,0-2.73.64,38.77,38.77,0,0,0-5.26,1.84c-.22-.41,0-.76,0-1.3-1.07,2.19-2,4.25-2.8,6.36.4.21.69-.09,1.07-.06a4.94,4.94,0,0,1-1,2.52c-1.93,2.73-3.56,5.69-5.35,8.52a38.53,38.53,0,0,1-4.41,6.12c-1.68,1.76-3.48,3.4-5.28,5-2.19,1.93-4.45,3.78-6.73,5.57-1.33,1-2.73,1.92-4.11,2.88l-.05.27c2.73-.74,5-2.55,7.19-4.48,2.5-2.22,5-4.44,7.61-6.43.18-.14.37-.23.55,0a1.49,1.49,0,0,1-.36.72c-1.46,1.95-2.61,4.13-4.08,6.1-2.5,3.35-5.41,5.58-9.21,6.12-1.72.24-3.11-.83-4.7-1.08l-.46-.1a42.59,42.59,0,0,1-7.14-1.3,5.06,5.06,0,0,1-3-1.76,10.6,10.6,0,0,1-1.17-2.12,2.74,2.74,0,0,0-1.76-1.72,35.12,35.12,0,0,1-3.58-1.91c-.56-.29-.69-.44-.13-1,1.41-1.45,1.38-1.48,2.47.16l.38.53a1.17,1.17,0,0,0,1.18.54c.41-.14.27-.81.28-1.25a11.81,11.81,0,0,1,1.57-6,9.08,9.08,0,0,1,2.77-2.81,11.19,11.19,0,0,1,4.53-1.9c.52-.11.51-.46.6-.81.55-2.21,1.1-4.42,1.82-6.58A23.72,23.72,0,0,1,81.22,79c1.32-1.45,2.85-2.58,4.19-4a12.89,12.89,0,0,0,3.44-5.19c.08-.28.43-.7,0-.9s-.41.33-.57.55c-.67.9-1.3,1.84-2,2.71a1.73,1.73,0,0,1-1.4.78c2.22-3.4,4.24-6.86,7.71-9-.06.62-.39,1-.31,1.51s-.24,1.06.27,1,1,.06,1.29-.74a19.91,19.91,0,0,1,6.64-8.88,33.69,33.69,0,0,1,8.41-4.58,76.72,76.72,0,0,1,8.56-2.58,10.06,10.06,0,0,1,5.85.36,8.77,8.77,0,0,1,6.07,5.72,23.85,23.85,0,0,1,.84,6.53,58.34,58.34,0,0,1-1.58,13.8,89.68,89.68,0,0,1-5.8,18.42c-1.48,3.38-3,6.78-5.52,9.48-.85.92-1.74,1.8-2.57,2.75a8.25,8.25,0,0,0-1.92,2.88,2.66,2.66,0,0,1-2,1.52,6.94,6.94,0,0,1,.72-2.64,13.22,13.22,0,0,0,.58-7.66c-.25-1-.94-1.56-1.14-2.52-.05-.24-.24-.21-.42-.12s-.11.32-.07.49c.14.64.25,1.29.45,1.91.74,2.33.08,4.62-.59,6.91a15.61,15.61,0,0,0,.37-5.35,46.36,46.36,0,0,0-.95-5.55c-.12-.61-.42-.51-.74-.45s-.92-.06-.89.7c0,.58,0,1.17.1,1.75a53,53,0,0,1,.35,8.78,26.11,26.11,0,0,1-1.71,7.8,6.93,6.93,0,0,1-2.9,3.14c-2.09,1.52-4.32,2.78-6.33,4.46a7.77,7.77,0,0,0-1.89,2.72l2.71-1.64a60.91,60.91,0,0,1-1.78,6.63,33.81,33.81,0,0,1-4,8.66,28.28,28.28,0,0,1-3.35,4.26q-2.89,3.08-5.56,6.4c-.25.31-.5.71-.94.74,0-.07-.06-.13,0-.19.12-.49.69-1.13.14-1.41s-.62.58-.86,1l-.49.8c-.25.43-.18.71.24.9a2.4,2.4,0,0,0,2.84-.85,11.45,11.45,0,0,1,3.53-3.5,14.55,14.55,0,0,0,2.83-3c.15-.19.25-.51.74-.46-1.85,3.16-3.49,6.33-5.18,9.6,1.06.07,1.42-1,2-1.56A5.57,5.57,0,0,0,90,149.77a18.45,18.45,0,0,1,2.83-4.72c.25-.32.37-.63.79-.18s.78.09,1-.52c1-3.12,2-6.24,2.95-9.36.82-2.54,1.69-5.07,2.51-7.61a1.39,1.39,0,0,1,1-1c1.1-.27,1.56-1.16,1.92-2.2s.65-1.89,1-2.83c.93-2.85,3-4.2,5.3-5.17a33.13,33.13,0,0,1,5.51-1.52c2-.44,3.93-.88,5.89-1.23a16.88,16.88,0,0,0,2.86-1,18.53,18.53,0,0,0-7.67.82c-2.39.72-4.74,1.61-7.14,2.33a35,35,0,0,1,5.05-4.09,46.55,46.55,0,0,1,6.26-3.24,23.18,23.18,0,0,1,4.33-1.55c1.34-.29,2.67-.66,4-1a31.71,31.71,0,0,1,7.58-1.11c6.05-.18,12,.26,17.5,3.23a27.12,27.12,0,0,1,7.24,5.93c1.57,1.76,3,3.63,4.44,5.55A47.12,47.12,0,0,1,169,126a1.12,1.12,0,0,1-.07,1.11c-.53,1-.46,1.61.54,2,1.55.68,2.41,2.2,3.2,3.75a15.85,15.85,0,0,1,2,6c0,.39.09.78.08,1.17s-.06.91-.61,1.12-.63-.29-.81-.6c-1.21-2.08-2.12-4.39-3.79-6.12a10.78,10.78,0,0,1-1.66-3,15.16,15.16,0,0,0-3.81-5.22,2.76,2.76,0,0,0-.88-.32,12.58,12.58,0,0,0,2,4.31c1.65,2.3,3.37,4.53,5,6.88a14.26,14.26,0,0,1,1.93,4.39c.83,3.18,1.42,6.44,2,9.7a87.73,87.73,0,0,1,1.2,9.44c.06.93.18,1.85.27,2.79.31,3.08-1.05,5.74-2.22,8.41a31.2,31.2,0,0,0-2.53,7c-.07.4-.35,1,.15,1.11s.5-.47.64-.81q1.55-3.6,3.09-7.19c.09-.22.15-.47.54-.55-.62,5.35-1.49,10.56-4.29,15.52-.26-.91-.42-1.53-.62-2.14-.07-.22,0-.64-.41-.5-.19.07-.4.08-.55.32-.29.47.2.33.26.51a4.69,4.69,0,0,1-.64,3.95,20.92,20.92,0,0,1-3.06,4.23,4.12,4.12,0,0,0-.74,3.63c.05.16.09.33.25.31a.51.51,0,0,0,.31-.26c.21-.47.38-1,.57-1.44,1.08-2.77,3.29-4.51,5-7-.12,1.76-.56,3.17-.76,4.62,1.76-5.63,4.09-11,6.16-16.61a5.52,5.52,0,0,0,.59-3.42,5.35,5.35,0,0,1-.07-1.84c0-.58.23-.7.65-.58a2.39,2.39,0,0,0,1.64-.08c.23-.1.76.08.59-.55-.09-.35-.05-.9-.65-.76-.34.07-.72-.07-1,.06-1.09.46-1.2-.14-1.07-1.13a122.5,122.5,0,0,0,1.11-14.06,58.75,58.75,0,0,0-.47-9.47c-.08-.55,0-1.1-.07-1.63s-.63-1.51-.29-2a5.66,5.66,0,0,1,2-1.31,88.8,88.8,0,0,0,7.72-4.4,44.19,44.19,0,0,0,3.86-3.3c2.55-2.2,5.09-4.43,7.67-6.59a5.06,5.06,0,0,1,2.68-1.06c2.77-.34,3.64-1.56,4.18-5.05a3.78,3.78,0,0,1,.66-1.78c2.31-3.23,5-6,7.55-9,.74-.86,1.37-1.85,2.05-2.79a4.17,4.17,0,0,0-1-2.28c-1.48,2.24-2.89,4.53-4.45,6.69a42.31,42.31,0,0,1-4.74,5.63c-.58.57-1,.34-1.21-.6a4.6,4.6,0,0,0-.51-1.73,3.25,3.25,0,0,0-.35,2.47,3.31,3.31,0,0,1-1.19,3.69,30.79,30.79,0,0,0-3.3,3.47c-.44.5-.89.31-1.36.34-.84.07-1.75-.54-2.62.57l2,.49a13.33,13.33,0,0,1-2.82,2.9c-2.58,2.31-5.26,4.49-8,6.54a66.78,66.78,0,0,1-7.36,4.78,13.31,13.31,0,0,1-1.91.69c-.51.19-.37-.3-.43-.53a56,56,0,0,0-3.2-8.83,1.71,1.71,0,0,1,.29-2.07c1.28-1.36,2.56-2.72,3.74-4.17a12.85,12.85,0,0,0,2.41-4.55c.11-.37.37-.95-.13-1.12s-1-.37-1.38.38c-1.38,2.53-3.6,4-5.66,5.66a7.13,7.13,0,0,1-1.56.74c-.32.15-.42-.08-.54-.34a36.92,36.92,0,0,0-3.31-5.93c-1.38-2-2.77-3.92-4.27-5.76a48.35,48.35,0,0,0-3.86-4.14,19.24,19.24,0,0,0-5.61-4.24c.12.35.23.62.33.88-.13.27-.3.14-.45.1a66,66,0,0,0-11.28-2.37,53.62,53.62,0,0,0-10-.26c-2,.18-4,.57-6,.71a16.14,16.14,0,0,0-4.12,1.36c-1.7.61-3.36,1.44-5.09,1.95-.17.1-.41.4-.51.15s.2-.32.41-.36a5,5,0,0,1,.77-1.45,49,49,0,0,0,5.37-9.49c1.59-3.53,3.15-7.08,4.54-10.71a21.83,21.83,0,0,0,.83-2.49c.64-2.56,1.23-5.13,1.93-7.67a48.94,48.94,0,0,0,1.72-9.62c0-.35.12-.69.2-1.16a10.23,10.23,0,0,1,.33,6.4,20.08,20.08,0,0,0-.25,6.4,17.43,17.43,0,0,0,1.13-6.78,39.06,39.06,0,0,0-.69-8.25c-1.07-5.28-2.8-10.14-6.33-13.85a12.4,12.4,0,0,0-2.06-1.43c-.36-.25-.81-.36-1.06-.78l-1.82-.45c-.61,0-1.23.14-1.83.12a8.28,8.28,0,0,0-3.93,1.29,1,1,0,0,1-1.21-.11,7.33,7.33,0,0,0-6.47-1,44,44,0,0,0-11.64,5.52,44.89,44.89,0,0,0-6.52,5.32A50.55,50.55,0,0,0,84,63.2a77.34,77.34,0,0,0-9.07,15.15c-1.82,4.13-3,8.49-4.61,12.68a13.19,13.19,0,0,1-3.78,5.19c-2.07,1.8-4.13,3.64-6.18,5.47a14.77,14.77,0,0,0-4,4.78C55.61,108,55.73,108.33,57,108.94Zm145.39,13.69c.51-.63.84-1.41,1.68-1.72C203.47,122.45,203.43,122.49,202.43,122.63Zm-28.11,19.5.12,0,.19-.07.2-.08a1.15,1.15,0,0,1,.25-.09.36.36,0,0,1,.46.17l0,.08a.77.77,0,0,1,0,.11,1.48,1.48,0,0,1,.05.28c.12,1.08.16,2.18.33,3.24.13.83.26,1.67.37,2.5.05.37.09.73.13,1.1s.08.73.11,1.11c0,.2,0,.41.05.62s0,.32,0,.48c0,.37,0,.74.06,1.12s0,.53,0,.79c0,.53,0,1.07,0,1.6,0,.27,0,.54,0,.8s0,.49,0,.73,0,.49,0,.74,0,.3,0,.45,0,.3,0,.45,0,.6,0,.91,0,.41-.06.61,0,.15,0,.23,0,.16,0,.23,0,.15,0,.23v0c0,.08,0,.15,0,.22h0l0-.06-.07-.08a.5.5,0,0,1-.09-.1.07.07,0,0,1,0,0,4.88,4.88,0,0,1,0-.7,30.58,30.58,0,0,0-.61-9.65c-.5-2.35-1.11-4.67-1.67-7a1.64,1.64,0,0,1-.1-.68.16.16,0,0,1,0-.06l0-.05a.16.16,0,0,1,.05,0l0,0,.05,0,.17,0ZM110.71,111.2l-.11.09,0-.14ZM77.9,80.37a25.44,25.44,0,0,1,2.73-5.87,70.45,70.45,0,0,1,6.8-10,64.74,64.74,0,0,1,6-6.73,46.66,46.66,0,0,1,4.61-4.12,35.07,35.07,0,0,1,7-4.37c2.45-1,4.87-1.9,7.49-1.37l-.92.45-1.85.91-1.55.76-.32.15-.56.27-1.28.58-.94.4a31.17,31.17,0,0,0-9.84,6.36c-1.93,1.86-3.8,3.81-5.69,5.73l-.94,1a22.78,22.78,0,0,0-1.77,2h0a12.43,12.43,0,0,0-.78,1.12c-.37.6-.72,1.2-1.08,1.81C84,71.27,83,73.13,81.92,75A18.71,18.71,0,0,1,77.9,80.37Zm-8.52,34.45c.6.1,1.19.18,1.78.29.21,0,.67-.11.45.45a1.09,1.09,0,0,1-.3.48l-.06,0-.05,0H71l-.1,0-.1-.06-.37-.23-.76-.44-.38-.22ZM156,89.35"/><path class="cls-3" d="M159.34,77.94c.87,0,1.43-.8,2.14-1.2a4.77,4.77,0,0,1,3.36.27l0,0a1.21,1.21,0,0,1,0,.25s0,0,0,0l0,0,.1,0,0,0,.09.07.06.07,0,0,0,0a.41.41,0,0,1,0,.09.24.24,0,0,1,0,.09.73.73,0,0,1,0,.2s0,0,0,0l0,.12h0l.34.28.18.14.42.34a2.23,2.23,0,0,0,.66,0l.24,0,.24-.06.23-.08c.18-.06.36-.14.55-.22a6.32,6.32,0,0,1,.63-.23l.26-.06a.31.31,0,0,1,.26,0h0l0,0,0,0v0a.12.12,0,0,1,0,0,.45.45,0,0,1,0,.14.17.17,0,0,1,0,.07,2,2,0,0,1,0,.22c-.18,1.22-.31,2.44-.42,3.66,0,.08,0,.16,0,.24s0,.14,0,.21c-.05.46-.1.71-.23.8s-.48,0-1.11-.32a5.2,5.2,0,0,1-.59-.33l-.33-.24-.32-.25h0l-.57-.48c-.31-.28-.63-.55-1-.8l-.2-.14-.21-.14c-.09,1.19-1.15.87-1.66,1.41.58.58.92,1.4,1.59,1.89s.28,1-.09,1.39c-2.13,2-.89,4.85.74,6.23,3.78,3.2,8.35,4.15,12.81,5.47.44.13,1,0,.84.91-.07.46.31.45.66.46,1.59,0,3.19.08,4.79.14a10.28,10.28,0,0,1,1.08.19,5.32,5.32,0,0,1-2.37.92c-.45,0-.54.31-.6.67s.28.44.55.44a21.79,21.79,0,0,0,6-.58q5.46-1.62,11-2.76a36.3,36.3,0,0,0,9-3,21.37,21.37,0,0,0,8.91-8.08,34.46,34.46,0,0,0,2-4.14c-3.66,4.63-8.16,7.83-12.81,11a1.82,1.82,0,0,1,0-.21,3.22,3.22,0,0,1-.35.43l-.12.12,0,0-.13.1-.18.09-.15,0h-.23l-.21,0h-.05l.21-.19c.14-.12.28-.25.42-.38l.09-.07a1.6,1.6,0,0,1,.75-.32c0-.4.26-.47.43-.6a76.28,76.28,0,0,0,7-5.68,20.13,20.13,0,0,0,4.92-6.2,4,4,0,0,0-.22-4.32c-.78,4.91-3.91,7.69-7.11,10.51a46.9,46.9,0,0,1-4.73,3.46,38.84,38.84,0,0,1-5.6,3,28.37,28.37,0,0,1-5.15,1.81,9.16,9.16,0,0,1-4.71,0,20,20,0,0,1,2.74-1.3c.75-.23.58-.72.65-1.25s-.15-.84-.66-.85a9.51,9.51,0,0,0-2.18.17c-2.73.57-5.38,1.67-8.1,2.27a9.61,9.61,0,0,1-9.93-3.17,18.74,18.74,0,0,1-2.28-2.73c-1.95-3.29-1.77-6,.4-9.33,2.48-3.77,5.83-6.45,8.84-9.54A24.43,24.43,0,0,1,185.32,66a12.46,12.46,0,0,1,3.42-1.61,60.85,60.85,0,0,1,11.6-2,117.22,117.22,0,0,1,15.6-.17,14.39,14.39,0,0,1,7.17,2.56,17.1,17.1,0,0,1,7,9.27,5.1,5.1,0,0,0,.47.88c.53.15,1.07,1,1.58-.15a14.31,14.31,0,0,0-2.15-6c-1.1-1.87-2.75-3.05-4.2-4.67,1.82,0,3.44.71,5.37.55A8.5,8.5,0,0,0,228.32,63a54,54,0,0,0-9.86-2.07,21.18,21.18,0,0,1-7.34-2.51,3.23,3.23,0,0,1-.48-.47,33.87,33.87,0,0,0,5.3-.23c.33,0,.83.17.89-.54l-2-.5a30.53,30.53,0,0,1-5.63-.48c-2-.2-4.09,0-6.13-.05-2.25-.06-4.5.29-6.74.41a36.66,36.66,0,0,0-3.92.75c-.21.22-.48.21-.57,0s.24-.2.4-.22a5.23,5.23,0,0,1,2.62-.87,3.51,3.51,0,0,0,2.09-.95,5.29,5.29,0,0,0-3.72.06c-5.92,1.5-11.07,5-16,9-2.55,2.06-4.21,4.94-6,7.67-2.4,3.63-3.89,4.08-7.2,3.64a17,17,0,0,1-2.52-.6,1.85,1.85,0,0,0-2.43.72C158.47,76.58,159.07,77.23,159.34,77.94ZM201.75,57.7a7.69,7.69,0,0,0-.82,0l-.34,0-.41,0-.85.12-.63.11-.63.12-.92.16-.46.07a11.06,11.06,0,0,1-1.37.11c-.27,0-.54,0-.81,0h-.1l.45-.21c.3-.13.61-.25.91-.35a10.11,10.11,0,0,1,1.71-.39l.24,0,.34,0c.31,0,.61,0,.92,0a11.16,11.16,0,0,1,1.37.09c.31,0,.61.08.92.14Zm-10.42,4.43.4-.24.41-.21.55-.23a5.56,5.56,0,0,1,.57-.18l.29-.08.5-.12c.6-.14,1.2-.24,1.79-.36s1.31-.25,2-.35,1.31-.19,2-.27l1-.12,1-.12,2-.23.41,0,.6-.06.58,0,.57,0h.71l.28,0h0l.4.07.43.11.21.07.25.1a4,4,0,0,1,.4.19l.19.11.23.14.24.17a4.85,4.85,0,0,1,.5.43l-18.34,1.46h-.11c-.05,0-.1,0-.12,0h0a.12.12,0,0,1,0,0C191.16,62.18,191.24,62.14,191.33,62.13Zm-2,35.57,2.73,0-.21.08-.2.07-.29.08-.14,0L191,98a2.86,2.86,0,0,1-.72,0l-.19,0h0l-.11,0-.21-.07-.06,0-.26-.12Zm-3.65-.22.29-.06.29,0h.38l.38,0,.19,0,.38.07.1,0,.66.15.38.07h0l-.58.07-.3,0h-.66l-.34,0A4.06,4.06,0,0,1,185.73,97.48ZM173.57,71.59l-.22.1h0c0-.08.06-.15.11-.23l.11-.23a2.13,2.13,0,0,1,.12-.24l.13-.24a2.24,2.24,0,0,1,.15-.25c.15-.25.32-.51.5-.77a2.67,2.67,0,0,1,.19-.26l.29-.39.32-.41c.28-.36.59-.73.93-1.09l.25-.27c.16-.19.34-.37.52-.56l.82-.82c.18-.19.37-.37.58-.55l.33-.31c.38-.35.76-.69,1.16-1l.62-.52.31-.25.62-.49.31-.24.32-.24.62-.46.31-.22.85-.57.23-.15.15-.1.52-.32.66-.39.39-.21c.3-.16.58-.3.86-.43l.39-.17h0l.38-.15a7.17,7.17,0,0,1,.74-.23l.28-.07a3.78,3.78,0,0,1,.66-.08h.3l-.83.55-.78.53-.75.49-.74.46c-.45.26-.89.54-1.32.84l-.69.49c-.45.34-.9.69-1.34,1.06l-.63.54-.62.56-.61.57-.9.87-.45.45c-1.13,1.14-2.24,2.32-3.37,3.46a7.9,7.9,0,0,1-.65.6l-.25.2-.37.28-.36.24-.29.18c-.19.12-.39.23-.59.33ZM169,87.46c.57-.1.83.1.94.71a3.16,3.16,0,0,0,.15.55,3.3,3.3,0,0,0,.15.34c.18.39.4.75.58,1.15l.09.18a4,4,0,0,0,.38.59l.18.23c.17.2.35.38.52.57s.36.37.53.56a3.52,3.52,0,0,1,.25.3h0a19.69,19.69,0,0,1-2.58-1c-.21-.1-.41-.2-.61-.32l-.3-.17-.22-.13-.22-.14-.42-.3-.23-.18c-.19-.15-.37-.31-.55-.48l-.23-.23-.3-.32c-.1-.11-.2-.22-.29-.34l-.08-.09a9.43,9.43,0,0,1-.61-.87A18.73,18.73,0,0,1,169,87.46Zm-4.16-10.14h0Z"/><path class="cls-3" d="M50.22,181.4a3.73,3.73,0,0,0,.57,2.52c1.29,2.35,2.7,4.62,3.92,7s2.26,4.87,3.36,7.31,2,4.75,3.73,6.49A44.62,44.62,0,0,0,65.66,208c1.88,1.47,3.65,3.1,5.5,4.61,2.59,2.12,5,4.47,7.62,6.56,1.83,1.48,3.68,2.94,5.56,4.33,4.12,3,8.49,5.41,13.64,5.72,3.77.22,7.56-.09,11.34-.2a21.13,21.13,0,0,1,10.7,2.08c.36.19.7.44,1.15.73-.74.06-1.22-.37-1.79-.43a.43.43,0,0,0,.15.62,7.91,7.91,0,0,1,2.15,2.5c.34.7,1,.9,1.64,1.25a66.75,66.75,0,0,0,6.44,3.66,5.37,5.37,0,0,1,2.25,2.67c1.53,2.91,3.64,4.57,6.77,4.7a8.48,8.48,0,0,0,4-1c5.58-2.64,8.66-7.4,9.25-14.11.35-4.06.69-8.13,1-12.19a9.8,9.8,0,0,1,1.82-4.83c.24-.35.45-.73.68-1.1l-.22-.06c-.1,0-.27,0-.28,0-.37-2.55-.37-5,1.32-7.27a41.59,41.59,0,0,0,4-6.5,5.81,5.81,0,0,0,.16-5.19,80.94,80.94,0,0,1-3.54,7.7c.14-1.76,1.2-3.41-.47-4.55a19.7,19.7,0,0,1-1.87,6,22.19,22.19,0,0,1-3.91,5c-2.11,2.1-4.47,3.8-6.68,5.75a.91.91,0,0,0-.45.88c.59-.62,1.34-.47,2.12-.94A8.94,8.94,0,0,1,143,216.9c-2.75,2-5.62,3.71-8.87,4.14-1.42.19-2.72-.5-4.11-.54a3.71,3.71,0,0,0-1.54.21c-.26.1-.54.21-.52.65s.09.63.48.73a13.33,13.33,0,0,0,7.21.14c1.76-.51,3.43-1.42,5.25-1.76a6.87,6.87,0,0,1-3.07,3.9c-3.11,2.23-6.57,2.82-10.08,3-1.49.07-3,.24-4.48.21-4.68-.08-9.36-.05-14-.29a64.75,64.75,0,0,1-17.38-3.43c-2.84-1-5.28-2.87-7.73-4.72-3.29-2.49-6.57-5-10.05-7.2a36.59,36.59,0,0,1-7.2-5.82,1.37,1.37,0,0,1-.51-1.15A5,5,0,0,1,68,206.09c2.06,1.52,4.08,3.11,6.53,3.83.88.26,2.12.53,2.56-.25s-.68-1.49-1.31-2a34.58,34.58,0,0,0-6.17-4.11A23.31,23.31,0,0,1,58,190.62a32.25,32.25,0,0,1-2.17-12.79,8.54,8.54,0,0,1,2-5.3c1.4-1.71,3.05-3.09,4.49-4.71a46.11,46.11,0,0,0,3.05-4.53,13.28,13.28,0,0,1,5.47-4.62c3.8-1.79,7.75-2,11.64-2.23a58,58,0,0,1,11.61.55,71.49,71.49,0,0,1,11.8,2.4c3.58,1.18,7.13,2.41,10.21,4.81.2-.46-.27-.78-.13-1.23-2.64-1.47-5-3.45-8-4.27-.85-.24-.58-.73-.14-1.23,2.34-2.65,3.14-5.94,3.49-9.4.14-1.51-.43-2.85-1.25-3.16a3,3,0,0,0-3.26,1.45c-1.68,2.31-2,5-2.31,7.78-.09.86-.08,1.72-.14,2.81-2.17-.54-4.26-1.19-6.4-1.57a61.86,61.86,0,0,0-16.15-1.12,44.52,44.52,0,0,0-8.08,1.33c-1.23.34-2.45.7-3.65,1.14a36.89,36.89,0,0,0-9.29,5.05,43.49,43.49,0,0,0-5.31,4.75,15.33,15.33,0,0,0-3.61,5.82C51,175.3,50.75,178.37,50.22,181.4Zm10.54-17.71A4.3,4.3,0,0,1,63.48,162l-.25.27-.25.25-.25.22-.25.2-.12.08-.12.08-.18.11a.58.58,0,0,1-.14.08l-.16.08-.08,0-.21.08-.29.09ZM153,212l0-.06.05-.08,0-.05.05,0,.1-.07a1.34,1.34,0,0,1,.42-.16l.21,0h0l-.47,1.06-.2.44-.1.24A2.12,2.12,0,0,1,153,212Zm-3.86.91-.28.18-.59.35.3-.44.31-.43.23-.32.4-.54c.1-.14.2-.27.31-.4.27-.35.54-.68.82-1s.58-.67.87-1,.57-.62.86-.91.6-.61.91-.91.61-.59.93-.88c0,0,0,0,0,0l.73-.65.11-.1.11-.09h0l-.32.6-.22.4-.23.4q-.22.4-.47.77c-.13.21-.26.41-.4.61l-.25.35-.31.42q-.21.28-.43.54c-.1.12-.2.25-.31.36-.25.29-.51.57-.78.83l-.23.23-.44.4c-.12.12-.25.23-.39.33l-.5.4c-.12.09-.24.18-.37.26l-.09.06-.15.1ZM141,241h.32a1,1,0,0,1,.38.07l.09.06.06.05a.3.3,0,0,1,.08.12.14.14,0,0,1,0,.05,1.51,1.51,0,0,1-.07.82l-.3-.26a2.57,2.57,0,0,1-.25-.26l-.1-.14-.09-.15a1.11,1.11,0,0,1-.11-.25l0-.09h0Zm.94-19.49c.19-.34.4-.66.6-1s.43-.6.66-.88.43-.51.66-.74l.35-.35.36-.33.14-.12.14-.12h0l.26-.21.27-.21.48-.33.43-.27.4-.23.56-.29c.31-.15.64-.29,1-.42h0a4.52,4.52,0,0,1-.12.91,2.61,2.61,0,0,1-.08.27l0,.12-.09.18-.12.21a1.75,1.75,0,0,1-.2.25l-.15.14-.08.06-.09.06-.18.1-.15.06-.23.07a1.88,1.88,0,0,1-.29.06l-.2,0-.23,0-.28.07a1.65,1.65,0,0,0-.35.13l-.22.12-.23.16a1.53,1.53,0,0,0-.21.19l-.12.12-.17.2-.07.1-.11.15c-.12.18-.24.37-.35.57s-.15.28-.22.43h0c-.44.92-1,1.22-1.71.7Zm-14.55,7.43.06,0,.09,0h.16l.2,0H128c1-.16,2.06-.27,3.12-.34.53,0,1.06-.06,1.6-.07h0c.54,0,1.09,0,1.64,0-.23.14-.45.27-.67.38l-.45.22-.18.08c-.24.1-.48.2-.72.28a8.83,8.83,0,0,1-1.62.37,7.63,7.63,0,0,1-.81.06c-.27,0-.54,0-.81,0h0l-.81-.08-.41-.06a1.55,1.55,0,0,1-.38-.09l-.11-.07,0,0a.27.27,0,0,1-.06-.09.51.51,0,0,1,.08-.47ZM120,230a9.09,9.09,0,0,1,5.1.92C123.15,231.7,121.58,230.74,120,230Z"/><path class="cls-3" d="M76,175.44c3.78,4.09,8.4,6.61,13.25,8.8a70.37,70.37,0,0,0,12.62,4.61,23.87,23.87,0,0,0,10.24.88c3.54-.52,7-1.69,9.54-5a4.85,4.85,0,0,0,1-3.68,11.21,11.21,0,0,0-3-6.33,33.09,33.09,0,0,0-8.05-5.8,30.77,30.77,0,0,1-6-4.13,7.13,7.13,0,0,0-4.43-1.58,56.31,56.31,0,0,0-13.28-.33,33.33,33.33,0,0,0-7.6,1.77,10.91,10.91,0,0,0-4.24,3A6.49,6.49,0,0,0,76,175.44Zm25.17-6.14,0-.09a.25.25,0,0,1,0-.08l0-.1.06-.08.09-.09a.5.5,0,0,1,.14-.08l.11,0,.12,0,1-.13.38,0,.2,0,.38,0h.57l.25,0,.29.06.08,0,.19.06.12,0,.25.11a1.93,1.93,0,0,1,.29.19.79.79,0,0,1,.15.12l.07.06.07.06.13.13.18.2c.23.29.69.32,1,.54,1.29.92,2.7,1.61,4.05,2.4l.76.46.37.24c.33.22.65.45,1,.69l.29.24c.19.16.38.33.56.51l.27.27c.18.19.35.38.52.59l.24.32a7.16,7.16,0,0,1,.42.66c.06.11.12.22.17.34s.11.23.16.35.12.32.17.49a7.32,7.32,0,0,1,.34,2.1q0,.25,0,.49c0,.16,0,.31,0,.47s0,.44-.07.66-.29.71-.52.7h-.29l-.23,0-.23,0-.71.14-.4.08h-.06l-.34.06-.17,0h-.55a2.6,2.6,0,0,1-.45-.11l-.17,0-.16,0-.31-.11a1.61,1.61,0,0,1-.35-.2l-.08-.07-.07-.08a1,1,0,0,1-.16-.23,1.17,1.17,0,0,1-.08-.17,8,8,0,0,0-.64-1.25,6.39,6.39,0,0,0-3-2.53,18.92,18.92,0,0,1-5.14-3.55,3.32,3.32,0,0,1-.29-.29l0,0a3,3,0,0,1-.25-.29l-.17-.25-.06-.09-.06-.09c0-.07-.08-.15-.12-.22l-.11-.25c0-.09-.07-.18-.1-.26a1.4,1.4,0,0,1-.07-.2,5.09,5.09,0,0,1-.2-1.3c0-.11,0-.22,0-.33a5.26,5.26,0,0,1,.06-.69q0-.18.06-.36Zm-14.22,4a2.76,2.76,0,0,1,.55.08h0l.2.06.23.08.13.06.07,0,.14.08a2,2,0,0,1,.27.18l.18.14.12.09.12.1.19.16.46.4h0a3.65,3.65,0,0,0-.61-.27l-.33-.12-.5-.19-.38-.18-.13-.08a2.79,2.79,0,0,1-.38-.27l-.12-.11-.11-.11L87,173.3h0Zm-6-1.39a1.48,1.48,0,0,1-.16-.19,1.93,1.93,0,0,1-.14-.2l-.08-.15-.07-.14a1.18,1.18,0,0,1-.07-.14c0-.1-.08-.2-.12-.31-.14-.4-.24-.82-.38-1.23a2.51,2.51,0,0,1-.12-.51s0-.09,0-.13a.94.94,0,0,1,0-.25.48.48,0,0,1,.05-.14.39.39,0,0,1,.08-.12.46.46,0,0,1,.1-.1.69.69,0,0,1,.12-.08,1.24,1.24,0,0,1,.3-.12l.36-.08,1.05-.17,1.05-.16a21.11,21.11,0,0,0,2.1-.41,9.77,9.77,0,0,1,2.23-.3h.55a16.27,16.27,0,0,1,1.66.12,1.23,1.23,0,0,1,.37.09l.09,0,.08.06a.32.32,0,0,1,.09.1l.06.1a1,1,0,0,1,.08.23c0,.05,0,.11,0,.18a1.71,1.71,0,0,1,0,.22c-.65-.16-1.25-.39-1.84-.5l-.28,0h0l-.21,0c-.46,0-.93-.09-1.39-.13a6.8,6.8,0,0,0-.69,0l-.34,0-.33,0-.16,0-.13,0-.18.06-.17.06a2.08,2.08,0,0,0-.29.17L84,168l-.17.17a3.12,3.12,0,0,0-.39.49,3.91,3.91,0,0,0-.23.42,4.18,4.18,0,0,0-.21.5l-.06.13a1.84,1.84,0,0,1-.25.35c-.13.15-.28.29-.41.42A4.62,4.62,0,0,0,81,171.91Zm-3.6-.86,0-.08a1.3,1.3,0,0,1,.15-.27,1.27,1.27,0,0,1,.15-.19l.17-.17.1-.07.07,0,.06,0h.06a.19.19,0,0,1,.11,0l0,0a.48.48,0,0,1,.11.11l0,.06,0,.07,0,.06.11.19.06.08c.41.55.78,1.15,1.19,1.7a3.13,3.13,0,0,1,.38.63.56.56,0,0,1-.2.8,2.2,2.2,0,0,1-.65.25c-.42.11-.62.56-1,.72l-.5-1.55c-.17-.51-.34-1-.52-1.49a.42.42,0,0,1,0-.07,1.34,1.34,0,0,1-.07-.4,1,1,0,0,1,0-.12A.86.86,0,0,1,77.38,171Z"/><path class="cls-3" d="M117.81,238.73a4,4,0,0,0,2.74,3.24c3.61,1.22,5.61,4.4,7.79,7.44,2.8,3.89,6.28,6.59,11,6.78a13.89,13.89,0,0,0,6.17-1.27A20.48,20.48,0,0,0,150.4,252a16.3,16.3,0,0,0,5.85-8.55,68.63,68.63,0,0,0,1.48-9.9,1.5,1.5,0,0,1,.76-1.28,10,10,0,0,0,3.6-3.91,5.87,5.87,0,0,0,.67-2.94L159,229.36c.65-8.75,3.77-16.52,7-24.3a10.77,10.77,0,0,0-2.5,3.13c-2.78,5.16-4.18,10.8-5.56,16.47-1.52,6.2-2.76,12.48-4.83,18.52-1,2.83-2.33,5.54-4.69,7.23a11.36,11.36,0,0,1-13.26.35c-2.82-1.95-5.36-4.31-8.07-6.43a4.21,4.21,0,0,0-1.06-.66c-2-.75-3.23-2.56-4.64-4.11a4.19,4.19,0,0,0-3-1.52C117.79,238,117.72,238.25,117.81,238.73Z"/><path class="cls-3" d="M126.9,165.88c-.22,1.18.73,1.73,1,2.66.05.19.36.12.58.08a4.71,4.71,0,0,0,3.18-1.9,10.52,10.52,0,0,0,2.31-4.27l-2.75-5.24c-.21-.39-.36-.85-.87-.85a8.38,8.38,0,0,0-1.71,2.49,4.6,4.6,0,0,0,.45,1.75A4.49,4.49,0,0,1,126.9,165.88Z"/><path class="cls-3" d="M109.54,123.51a8.49,8.49,0,0,0-1.56,2.85,1.68,1.68,0,0,0,1.75-.83,5.27,5.27,0,0,1,5.46-2.62,3.39,3.39,0,0,0,1.35,0c.41-.12,1.08.5,1.23-.42s.23-1.78-.59-2.28c-.32-.19-.65-.37-1-.55.08-.56.91-.53.73-1.23s-.2-1.26-1.25-.91a27.63,27.63,0,0,0-5.74,2.38,1.41,1.41,0,0,0-.4,2.07C110.1,122.49,110,122.92,109.54,123.51Z"/><path class="cls-3" d="M142.88,130.19c.37,1.34,1.47,1.71,2.35,2.32a12.86,12.86,0,0,1,2.49,2.11,2,2,0,0,0,.94.65c1.55.4,1.88,2,2.44,3.3a2.26,2.26,0,0,1,0,1.61c-.2.6-.32,1.15.5,1,1,.41,1.18-.23,1.08-1.14A16.52,16.52,0,0,0,151,134.4c-1.17-2.35-2.43-4.66-4.77-5.82a3.39,3.39,0,0,0-2.3-.4C142.87,128.4,142.57,129.09,142.88,130.19Z"/><path class="cls-3" d="M131.49,155.21a26.13,26.13,0,0,0,2.65,5.51c.05.1.25.09.38.14l.49-2.09a1.68,1.68,0,0,1,.17-1.21,6.34,6.34,0,0,0,0-2.88.89.89,0,0,0-.86-.81c-.44-.06-.63.23-.77.64C133.11,155.78,132.19,155,131.49,155.21Z"/><path class="cls-3" d="M122.08,167.14c-.1.92.8,1.54.45,2.54,1.49,1.09,2.57,2.77,4.23,3.61.22-.76,1-.58,1.35-1.15A38.64,38.64,0,0,0,122.08,167.14Z"/><path d="M116.16,164.21a51,51,0,0,1,6.38,5.47c.35-1-.55-1.61-.45-2.54-1.2-1.36-2.88-1.89-4.23-3A4.6,4.6,0,0,0,116,163C115.89,163.43,116.36,163.75,116.16,164.21Z"/><path d="M126.9,165.88a4.49,4.49,0,0,0,2.17-5.29,4.6,4.6,0,0,1-.45-1.75C127.55,161.07,126.44,163.29,126.9,165.88Z"/><path d="M217.91,98.37l.94.48a25.44,25.44,0,0,0,2.7-8l-1-.24A33.64,33.64,0,0,1,217.91,98.37Z"/><path d="M215.08,103.57a4.17,4.17,0,0,1,1,2.28c.79-.67.88-1.72,1.24-2.62.28-.69.49-1.41.73-2.12-.6,0-.63-.73-1-1C216.15,101.12,215.89,102.53,215.08,103.57Z"/><path d="M130.34,156.36c.51,0,.66.46.87.85l2.75,5.24a4.9,4.9,0,0,0,.57-1.6c-.13,0-.33,0-.38-.14a26.13,26.13,0,0,1-2.65-5.51C130.73,155.1,130.72,156,130.34,156.36Z"/><path class="cls-3" d="M220.4,85.65a10.51,10.51,0,0,1,.12,5l1,.24.13-.45a.46.46,0,0,1,.05-.48,11.73,11.73,0,0,0,.21-4.16A2.25,2.25,0,0,1,220.4,85.65Z"/><path class="cls-3" d="M127.47,173.92a7.14,7.14,0,0,0,3.36,2.13,6,6,0,0,0-2-3A3.32,3.32,0,0,0,127.47,173.92Z"/><path d="M140.81,116.69a20.29,20.29,0,0,0,4.6,2.84C143.85,118.63,143,116.43,140.81,116.69Z"/><path class="cls-3" d="M217,100.11c.39.27.42,1,1,1a12.5,12.5,0,0,0,.82-2.26l-.94-.48C217.41,98.83,217.42,99.6,217,100.11Z"/><path d="M220.29,84.39a2.67,2.67,0,0,0,.11,1.25,2.25,2.25,0,0,0,1.54.11c0-.51,0-1-.07-1.51C221.36,85.43,220.82,84.54,220.29,84.39Z"/><path d="M126.76,173.28a1.43,1.43,0,0,0,.71.64,3.32,3.32,0,0,1,1.33-.92l-.68-.87C127.78,172.7,127,172.52,126.76,173.28Z"/><path d="M155.33,213.51l.22.06c.61-1,1.57-1.76,1.91-3A8.35,8.35,0,0,0,155.33,213.51Z"/><path d="M78,115.36a7.37,7.37,0,0,0,3-.73l.05-.27c-.79.35-1.65.19-2.43.61C78.35,115.09,78.07,115,78,115.36Z"/><path d="M77.95,115.36v0Z"/><path d="M125.37,221.51c.31.55.76.65,1.48.5-.16-.23-.2-.36-.28-.39-.39-.14-.58-.81-1.14-.51C125.28,221.2,125.29,221.36,125.37,221.51Z"/><path d="M135,158.76a2.44,2.44,0,0,0,.17-1.21A1.68,1.68,0,0,0,135,158.76Z"/><path d="M221.68,90.39c0-.16,0-.32.05-.48A.46.46,0,0,0,221.68,90.39Z"/><path d="M77.95,115.36s0,0,0,0h0Z"/><path d="M77.48,115.49l.46.1a.46.46,0,0,0,0-.2Z"/><path class="cls-3" d="M154.55,86.76h0Z"/><path d="M179.76,131.18c1.55-1.55,2.26-3.73,3.4-5.64A13.75,13.75,0,0,0,179.76,131.18Z"/><path d="M155,87.62h0c0,.26,0,.53,0,.8h0c.3,0,.6.18.9,0l-.42-.35-.18-.14Z"/><rect x="154.98" y="87.62" width="0.01" transform="translate(32.47 216.8) rotate(-76)"/><path d="M155,87.62a.67.67,0,0,0-.44-.86"/><path class="cls-3" d="M218.22,240.5"/></g></g></svg>