<svg xmlns="http://www.w3.org/2000/svg" xmlns:xlink="http://www.w3.org/1999/xlink" viewBox="0 0 314.37 168.33"><defs><style>.cls-1{fill:#d9d4fd;opacity:0.38;}.cls-2{fill:#fff;}.cls-3{fill:url(#radial-gradient);}</style><radialGradient id="radial-gradient" cx="272.83" cy="14.17" r="2.5" gradientUnits="userSpaceOnUse"><stop offset="0.01" stop-color="#fff"/><stop offset="1" stop-color="#fff" stop-opacity="0"/></radialGradient></defs><title>Asset 1</title><g id="Layer_2" data-name="Layer 2"><g id="Layer_2-2" data-name="Layer 2"><path class="cls-1" d="M308.5,16.5a36.43,36.43,0,0,0-3.67-3c-3.53-2.45-10.55-4.95-19.67-6a34.22,34.22,0,0,0-18.33-6c-3.93-.08-10.17-.2-15,4-2.89,2.51-4.13,5.56-5.67,9.33-.75,1.83-1.92,5.1-2.87,12a105.42,105.42,0,0,0-.93,17.52l-4.53,5c-1.77.12-4-.7-5.41-1.11A63.69,63.69,0,0,0,222.61,46a146,146,0,0,0-19.68-1.48c-7,0-13.62,1.37-20.35,3.17a191.5,191.5,0,0,1-20.78,4c-9.06,1.38-16.14,2.07-23.1,2.69-8.87.78-8.78.51-21.19,1.49-7.91.63-9.2.84-19.6,1.72-11.6,1-13.38,1-19.68,1.55C58.74,60.78,49,61.62,40.11,64.28c-9.58,2.86-17.61,6.8-25.27,10.56C8.85,77.77,4,80.48.5,82.5a212.83,212.83,0,0,0,21.33-3c8.3-1.6,10.66-2.56,15.65-3.77,2-.48,3.4-.76,5.68-1.23.93-.19,6.11-1.24,10-1.87a149,149,0,0,1,21.25-1.75c3.91-.07,7.48.08,14.63.38,9.88.41,14.82.61,19.5,1.25s9.33,1.75,18.75,4c4.15,1,9.66,2.36,16.38,4.5,7.79,2.48,10.27,3.78,12.5,5.38a36,36,0,0,0,5,3.5c3.65,1.95,5.54,1.86,8.75,3.25a23.74,23.74,0,0,1,7.63,5.38c-.22.45-.6,1.21-1.12,2.13-3.55,6.21-6.77,7.68-10.49,13.13-1,1.53-.37.83-3.54,6.42-2.43,4.3-4.54,7.76-6,10.07l.79,4.05c.79,4,.73,3.76.84,4.29.84,4.17,1,4.66,1.47,7.07.19,1.08.43,2.61.64,4.48a14.12,14.12,0,0,0,.2,4.86,9.9,9.9,0,0,0,2.06,4.74c.75.79,2.29,1.89,9.63,1.63,7.77-.29,9.82-1.6,11.88,0s1.22,4.14,3.63,5.5c1.14.65,1.92.41,4.88.25,3.56-.19,12.49-.38,15.5.25a3.74,3.74,0,0,0,1.63,0c.82-.19,2-.77,2.13-1.5.17-.94-1.43-1.78-4.62-3.87-5.32-3.48-6.47-4.8-7.09-6.3a7.55,7.55,0,0,1-.54-3.08c.42-1.22,1.16-2.66,2.5-3.12,2.27-.8,4.69,1.75,5,1.38s-2.49-5.08-6.62-5.25a6.15,6.15,0,0,0-3.62.88c-1,.68-1.15,1.31-2,1.75s-2.1.59-4.37-.5c-3-7.57-2.06-12-.75-14.5.27-.52,2.27-2.95,6.27-7.81,3.12-3.79,3.47-4.13,4.85-5.94,2.57-3.37,2.62-3.81,4.5-6,2.6-3,3-2.77,4.25-4.75a23.5,23.5,0,0,0,2.5-6.12,32.31,32.31,0,0,0,.88-4,4.77,4.77,0,0,1,1.88-2.75c1.51-1,3.29-.51,6.1.26,3.26.9,6.23,1.78,8.9,2.61a5.1,5.1,0,0,1,5.75,3.13c.85,2.57-1.25,4.85-2.5,5.75a4.87,4.87,0,0,1-4,1,4.44,4.44,0,0,1-2.37-1.62c.06,1.14-.05,2.47-.87,3-1.06.69-2.53-.44-2.87,0-.49.63,1.52,4.28,5,5.5s7.07-.74,8.38-1.5a8.58,8.58,0,0,0,3.88-3.87,7.75,7.75,0,0,0,.63-3.79c3.24.68,4.4,1.93,4.87,2.91.91,1.93.29,5.25.29,5.25s-1.61,2.16-2.54,3.25-4.4,5.16-6.62,4.38c-1.58-.56-1.63-3.3-2.37-3.25-1.06.07-1.09,5.59-2.37,5.75-1,.12-1.75-3-2.7-2.84-.72.11-1.2,2-1,3.59.35,3.56,4,5.71,5,6.25a12.33,12.33,0,0,0,7.38,0,13.13,13.13,0,0,0,6.63-5.25c1.77-2.47,1.16-3.12,3.25-7.75,2.47-5.5,4.12-6.36,3.75-8.75-.29-1.84-1.42-2.28-4.4-5.44-3.29-3.48-6.12-6.48-7.55-10.6a18.38,18.38,0,0,1-.53-9.74,22.33,22.33,0,0,1,4.44-8.72,23.61,23.61,0,0,1,3.23-3.7c3-2.85,5.2-3.63,8.27-7.76A116.27,116.27,0,0,0,266.46,49,96.5,96.5,0,0,1,273,38l4.41-2.46c1.27-.27,3.18-.64,5.52-1,4.58-.63,6.9-.51,9.87-.7,6.33-.4,12.3-.78,16.57-4.76.71-.66,4.21-3.93,3.52-7.24C312.52,20.23,311.18,19,308.5,16.5ZM169.42,129.63c.57-1.43,1.08-1.48,5.19-5.53,2.38-2.35,3.14-3.25,4.56-3.34a4.68,4.68,0,0,1,3,1l-1.9,4.19q-1.85,2.57-3.73,5.43-1.45,2.22-2.75,4.38l3.38,9.38.5,3.88a7.9,7.9,0,0,1-6.37-1.62,7.37,7.37,0,0,1-2.25-3.62v-9A9,9,0,0,1,169.42,129.63Z"/></g><g id="Layer_4" data-name="Layer 4"><circle class="cls-2" cx="78.22" cy="59.11" r="1.5"/><circle class="cls-2" cx="103.33" cy="57.17" r="1.5"/><circle class="cls-2" cx="123.33" cy="55.5" r="1.5"/><circle class="cls-2" cx="148.17" cy="53.5" r="1.5"/><circle class="cls-2" cx="174.17" cy="49.17" r="1.5"/><circle class="cls-2" cx="198.33" cy="44.67" r="1.5"/><circle class="cls-2" cx="222.61" cy="45.95" r="1.5"/><circle class="cls-2" cx="59.83" cy="60.5" r="1.5"/><circle class="cls-2" cx="43.33" cy="63.17" r="1.5"/><circle class="cls-2" cx="25.83" cy="69.17" r="1.5"/><circle class="cls-2" cx="1.5" cy="83.17" r="1.5"/><circle class="cls-2" cx="24.67" cy="79" r="1.5"/><circle class="cls-2" cx="39.17" cy="76.17" r="1.5"/><circle class="cls-2" cx="56.83" cy="72.5" r="1.5"/><circle class="cls-2" cx="78" cy="71.17" r="1.5"/><circle class="cls-2" cx="99" cy="72" r="1.5"/><circle class="cls-2" cx="122.17" cy="75.5" r="1.5"/><circle class="cls-2" cx="147.33" cy="82.17" r="1.5"/><circle class="cls-2" cx="160.17" cy="89" r="1.5"/><circle class="cls-2" cx="176.67" cy="98.5" r="1.5"/><circle class="cls-2" cx="166.33" cy="112.5" r="1.5"/><circle class="cls-2" cx="161.83" cy="157.83" r="1.5"/><circle class="cls-2" cx="173.67" cy="160.83" r="1.5"/><circle class="cls-2" cx="183.33" cy="160" r="1.5"/><circle class="cls-2" cx="188.5" cy="166.83" r="1.5"/><circle class="cls-2" cx="211.67" cy="166.67" r="1.5"/><circle class="cls-2" cx="199.42" cy="153.42" r="1.5"/><circle class="cls-2" cx="206.67" cy="150.79" r="1.5"/><circle class="cls-2" cx="202.83" cy="146.17" r="1.5"/><circle class="cls-2" cx="195.33" cy="148" r="1.5"/><circle class="cls-2" cx="189.67" cy="143.67" r="1.5"/><circle class="cls-2" cx="188.67" cy="135.67" r="1.5"/><circle class="cls-2" cx="197" cy="123.67" r="1.5"/><circle class="cls-2" cx="204" cy="114.67" r="1.5"/><circle class="cls-2" cx="210.5" cy="106.83" r="1.5"/><circle class="cls-2" cx="214.5" cy="96.67" r="1.5"/><circle class="cls-2" cx="234" cy="100.83" r="1.5"/><circle class="cls-2" cx="243.33" cy="95.5" r="1.5"/><circle class="cls-2" cx="223.81" cy="111.31" r="1.5"/><circle class="cls-2" cx="254.17" cy="109.88" r="1.5"/><circle class="cls-2" cx="256.5" cy="65" r="1.5"/><circle class="cls-2" cx="267.33" cy="47.17" r="1.5"/><circle class="cls-2" cx="278.54" cy="35" r="1.5"/><circle class="cls-2" cx="304.67" cy="32.17" r="1.5"/><circle class="cls-2" cx="312.87" cy="21.88" r="1.5"/><circle class="cls-2" cx="304" cy="13.5" r="1.5"/><circle class="cls-2" cx="284.33" cy="7.5" r="1.5"/><circle class="cls-2" cx="269.33" cy="1.5" r="1.5"/><circle class="cls-2" cx="252.33" cy="4.83" r="1.5"/><circle class="cls-2" cx="243.67" cy="22" r="1.5"/><circle class="cls-2" cx="242" cy="43.67" r="1.5"/><circle class="cls-2" cx="237.84" cy="49.35" r="1.5"/><circle class="cls-2" cx="240.5" cy="106.67" r="1.5"/><circle class="cls-2" cx="242.5" cy="83.33" r="1.5"/><circle class="cls-2" cx="244" cy="129.33" r="1.5"/><circle class="cls-2" cx="240.5" cy="121.33" r="1.5"/><circle class="cls-2" cx="229.33" cy="122.67" r="1.5"/><circle class="cls-2" cx="237.88" cy="132.62" r="1.5"/><circle class="cls-2" cx="202.17" cy="157.67" r="1.5"/><circle class="cls-2" cx="159" cy="141.83" r="1.5"/><circle class="cls-2" cx="156.42" cy="130.25" r="1.5"/><circle class="cls-3" cx="272.83" cy="14.17" r="2.5"/></g></g></svg>