<svg xmlns="http://www.w3.org/2000/svg" xmlns:xlink="http://www.w3.org/1999/xlink" viewBox="0 0 313.92 200.5"><defs><style>.cls-1{isolation:isolate;}.cls-2{fill:#d9d4fd;}.cls-2,.cls-3,.cls-33,.cls-4{opacity:0.14;}.cls-3{fill:#6ee5b2;}.cls-20,.cls-5{opacity:0.25;}.cls-10,.cls-11,.cls-12,.cls-13,.cls-14,.cls-15,.cls-16,.cls-17,.cls-18,.cls-19,.cls-20,.cls-21,.cls-22,.cls-23,.cls-24,.cls-25,.cls-26,.cls-27,.cls-28,.cls-29,.cls-30,.cls-31,.cls-32,.cls-5,.cls-6,.cls-7,.cls-8{mix-blend-mode:screen;}.cls-5{fill:url(#radial-gradient);}.cls-6{fill:url(#radial-gradient-2);}.cls-7{fill:url(#radial-gradient-3);}.cls-23,.cls-8{opacity:0.2;}.cls-8{fill:url(#radial-gradient-4);}.cls-13,.cls-9{fill:none;}.cls-10,.cls-24{opacity:0.15;}.cls-10{fill:url(#radial-gradient-5);}.cls-11,.cls-14,.cls-25,.cls-27{opacity:0.5;}.cls-11{fill:url(#radial-gradient-6);}.cls-12{fill:url(#radial-gradient-7);}.cls-13{stroke:#fff;stroke-miterlimit:10;stroke-width:2px;opacity:0.03;}.cls-14{fill:url(#radial-gradient-8);}.cls-15{fill:url(#radial-gradient-9);}.cls-16{fill:url(#radial-gradient-10);}.cls-17{fill:url(#radial-gradient-11);}.cls-18{fill:url(#radial-gradient-12);}.cls-19{fill:url(#radial-gradient-13);}.cls-20{fill:url(#radial-gradient-14);}.cls-21{fill:url(#radial-gradient-15);}.cls-22{fill:url(#radial-gradient-16);}.cls-23{fill:url(#radial-gradient-17);}.cls-24{fill:url(#radial-gradient-18);}.cls-25{fill:url(#radial-gradient-19);}.cls-26{fill:url(#radial-gradient-20);}.cls-27{fill:url(#radial-gradient-21);}.cls-28{fill:url(#radial-gradient-22);}.cls-29{fill:url(#radial-gradient-23);}.cls-30{fill:url(#radial-gradient-24);}.cls-31{fill:url(#radial-gradient-25);}.cls-32{fill:url(#radial-gradient-26);}.cls-33{fill:#fff;}</style><radialGradient id="radial-gradient" cx="78.75" cy="159.38" r="27.66" gradientUnits="userSpaceOnUse"><stop offset="0.1"/><stop offset="0.15" stop-color="#191407"/><stop offset="0.21" stop-color="#2f260d"/><stop offset="0.27" stop-color="#403312"/><stop offset="0.36" stop-color="#4b3d16"/><stop offset="0.47" stop-color="#524217"/><stop offset="0.8" stop-color="#544418"/><stop offset="1"/></radialGradient><radialGradient id="radial-gradient-2" cx="98.02" cy="137.35" r="0.92" gradientUnits="userSpaceOnUse"><stop offset="0" stop-color="#cae095"/><stop offset="0.06" stop-color="#a8ba7c"/><stop offset="0.14" stop-color="#818f5f"/><stop offset="0.22" stop-color="#5e6845"/><stop offset="0.31" stop-color="#414830"/><stop offset="0.4" stop-color="#292e1e"/><stop offset="0.5" stop-color="#171911"/><stop offset="0.62" stop-color="#0a0b07"/><stop offset="0.76" stop-color="#020302"/><stop offset="1"/></radialGradient><radialGradient id="radial-gradient-3" cx="122.5" cy="109.38" r="0.92" xlink:href="#radial-gradient-2"/><radialGradient id="radial-gradient-4" cx="120.75" cy="111.38" r="6.91" gradientUnits="userSpaceOnUse"><stop offset="0.05"/><stop offset="0.09" stop-color="#030904"/><stop offset="0.3" stop-color="#133315"/><stop offset="0.48" stop-color="#1f5222"/><stop offset="0.64" stop-color="#256529"/><stop offset="0.75" stop-color="#286c2c"/><stop offset="0.79" stop-color="#4c6c19"/><stop offset="0.84" stop-color="#6e6b07"/><stop offset="0.86" stop-color="#7b6b00"/><stop offset="0.89" stop-color="#776800"/><stop offset="0.91" stop-color="#6d5e00"/><stop offset="0.94" stop-color="#5a4f00"/><stop offset="0.96" stop-color="#413800"/><stop offset="0.98" stop-color="#201c00"/><stop offset="1"/></radialGradient><radialGradient id="radial-gradient-5" cx="87.5" cy="149.38" r="18.44" gradientUnits="userSpaceOnUse"><stop offset="0" stop-color="#230000"/><stop offset="0.73" stop-color="#93432a"/><stop offset="1" stop-color="#230000"/></radialGradient><radialGradient id="radial-gradient-6" cx="87.5" cy="149.38" r="9.22" gradientUnits="userSpaceOnUse"><stop offset="0.15" stop-color="#fff"/><stop offset="0.21" stop-color="#e2d1d2"/><stop offset="0.29" stop-color="#bf9a9c"/><stop offset="0.36" stop-color="#a67276"/><stop offset="0.42" stop-color="#975a5e"/><stop offset="0.45" stop-color="#915155"/><stop offset="0.56" stop-color="#6c3638"/><stop offset="0.68" stop-color="#44191a"/><stop offset="0.79" stop-color="#2c0707"/><stop offset="0.85" stop-color="#230000"/><stop offset="0.86" stop-color="#270201"/><stop offset="0.86" stop-color="#340805"/><stop offset="0.87" stop-color="#48120b"/><stop offset="0.88" stop-color="#652114"/><stop offset="0.89" stop-color="#8b331f"/><stop offset="0.9" stop-color="#b8492d"/><stop offset="0.9" stop-color="#d65836"/><stop offset="0.9" stop-color="#c95232"/><stop offset="0.91" stop-color="#9d3c25"/><stop offset="0.93" stop-color="#782a1a"/><stop offset="0.94" stop-color="#591b10"/><stop offset="0.95" stop-color="#410f09"/><stop offset="0.97" stop-color="#300604"/><stop offset="0.98" stop-color="#260201"/><stop offset="1" stop-color="#230000"/></radialGradient><radialGradient id="radial-gradient-7" cx="87.5" cy="149.38" r="7.68" gradientUnits="userSpaceOnUse"><stop offset="0.15" stop-color="#fff"/><stop offset="0.28" stop-color="#c2c2c2"/><stop offset="0.43" stop-color="#888"/><stop offset="0.56" stop-color="#575757"/><stop offset="0.69" stop-color="#313131"/><stop offset="0.81" stop-color="#161616"/><stop offset="0.92" stop-color="#060606"/><stop offset="1"/></radialGradient><radialGradient id="radial-gradient-8" cx="122.5" cy="109.38" r="13.83" gradientUnits="userSpaceOnUse"><stop offset="0.64"/><stop offset="0.72" stop-color="#000200"/><stop offset="0.75" stop-color="#000902"/><stop offset="0.77" stop-color="#001405"/><stop offset="0.78" stop-color="#002509"/><stop offset="0.8" stop-color="#003b0e"/><stop offset="0.8" stop-color="#004510"/><stop offset="0.82" stop-color="#182809"/><stop offset="0.83" stop-color="#2b1204"/><stop offset="0.85" stop-color="#360501"/><stop offset="0.86" stop-color="#3a0000"/><stop offset="0.87" stop-color="#250000"/><stop offset="0.89" stop-color="#140000"/><stop offset="0.9" stop-color="#090000"/><stop offset="0.93" stop-color="#020000"/><stop offset="1"/></radialGradient><radialGradient id="radial-gradient-9" cx="122.48" cy="109.4" r="0.08" gradientUnits="userSpaceOnUse"><stop offset="0.1" stop-color="#6b355f"/><stop offset="0.15" stop-color="#5f2f54"/><stop offset="0.31" stop-color="#3d1e36"/><stop offset="0.48" stop-color="#22111e"/><stop offset="0.64" stop-color="#0f070d"/><stop offset="0.82" stop-color="#040203"/><stop offset="1"/></radialGradient><radialGradient id="radial-gradient-10" cx="95.19" cy="140.59" r="2.91" gradientUnits="userSpaceOnUse"><stop offset="0.1"/><stop offset="0.17" stop-color="#001318"/><stop offset="0.3" stop-color="#003342"/><stop offset="0.43" stop-color="#004e64"/><stop offset="0.57" stop-color="#00637f"/><stop offset="0.71" stop-color="#007192"/><stop offset="0.85" stop-color="#007a9d"/><stop offset="1" stop-color="#007da1"/></radialGradient><radialGradient id="radial-gradient-11" cx="79.23" cy="158.84" r="2.78" xlink:href="#radial-gradient-9"/><radialGradient id="radial-gradient-12" cx="92.32" cy="143.88" r="0.57" gradientUnits="userSpaceOnUse"><stop offset="0.1" stop-color="#007da1"/><stop offset="0.17" stop-color="#006a89"/><stop offset="0.3" stop-color="#004a5f"/><stop offset="0.43" stop-color="#002f3d"/><stop offset="0.57" stop-color="#001a22"/><stop offset="0.71" stop-color="#000c0f"/><stop offset="0.85" stop-color="#000304"/><stop offset="1"/></radialGradient><radialGradient id="radial-gradient-13" cx="120.09" cy="112.13" r="2.83" gradientUnits="userSpaceOnUse"><stop offset="0.1"/><stop offset="0.13" stop-color="#0e0809"/><stop offset="0.25" stop-color="#402329"/><stop offset="0.37" stop-color="#6a3a44"/><stop offset="0.49" stop-color="#8c4d5b"/><stop offset="0.61" stop-color="#a75b6c"/><stop offset="0.74" stop-color="#ba6678"/><stop offset="0.86" stop-color="#c56c80"/><stop offset="1" stop-color="#c96e82"/></radialGradient><radialGradient id="radial-gradient-14" cx="225.56" cy="159.38" r="27.66" gradientTransform="matrix(-1, 0, 0, 1, 461.54, 0)" xlink:href="#radial-gradient"/><radialGradient id="radial-gradient-15" cx="244.84" cy="137.35" r="0.92" gradientTransform="matrix(-1, 0, 0, 1, 461.54, 0)" xlink:href="#radial-gradient-2"/><radialGradient id="radial-gradient-16" cx="269.31" cy="109.38" r="0.92" gradientTransform="matrix(-1, 0, 0, 1, 461.54, 0)" xlink:href="#radial-gradient-2"/><radialGradient id="radial-gradient-17" cx="267.56" cy="111.38" r="6.91" gradientTransform="matrix(-1, 0, 0, 1, 461.54, 0)" xlink:href="#radial-gradient-4"/><radialGradient id="radial-gradient-18" cx="234.31" cy="149.38" r="18.44" gradientTransform="matrix(-1, 0, 0, 1, 461.54, 0)" xlink:href="#radial-gradient-5"/><radialGradient id="radial-gradient-19" cx="234.31" cy="149.38" r="9.22" gradientTransform="matrix(-1, 0, 0, 1, 461.54, 0)" xlink:href="#radial-gradient-6"/><radialGradient id="radial-gradient-20" cx="234.31" cy="149.38" r="7.68" gradientTransform="matrix(-1, 0, 0, 1, 461.54, 0)" xlink:href="#radial-gradient-7"/><radialGradient id="radial-gradient-21" cx="269.31" cy="109.38" r="13.83" gradientTransform="matrix(-1, 0, 0, 1, 461.54, 0)" xlink:href="#radial-gradient-8"/><radialGradient id="radial-gradient-22" cx="269.29" cy="109.4" r="0.08" gradientTransform="matrix(-1, 0, 0, 1, 461.54, 0)" xlink:href="#radial-gradient-9"/><radialGradient id="radial-gradient-23" cx="242" cy="140.59" r="2.91" gradientTransform="matrix(-1, 0, 0, 1, 461.54, 0)" xlink:href="#radial-gradient-10"/><radialGradient id="radial-gradient-24" cx="226.04" cy="158.84" r="2.78" gradientTransform="matrix(-1, 0, 0, 1, 461.54, 0)" xlink:href="#radial-gradient-9"/><radialGradient id="radial-gradient-25" cx="239.13" cy="143.88" r="0.57" gradientTransform="matrix(-1, 0, 0, 1, 461.54, 0)" xlink:href="#radial-gradient-12"/><radialGradient id="radial-gradient-26" cx="266.9" cy="112.13" r="2.83" gradientTransform="matrix(-1, 0, 0, 1, 461.54, 0)" xlink:href="#radial-gradient-13"/></defs><title>butterfly_1</title><g class="cls-1"><g id="Layer_2" data-name="Layer 2"><g id="Layer_3" data-name="Layer 3"><path class="cls-2" d="M312.93,19.28a20.27,20.27,0,0,0-7.31-10.12c-2.58-1.81-5-2.44-9-3.53a61.19,61.19,0,0,0-13-1.85s-4.95-.3-9.64-.07c-9,.44-25.67,3.72-43.86,13.35a120.15,120.15,0,0,0-20,13.35c-9.54,7.85-17.3,17.34-24.41,27.39C183,61.51,180,66.7,174.21,74.35c-2.92,3.85-5.45,6.91-7.13,8.9A14.73,14.73,0,0,1,165.4,81c-7.83-12.92,6.66-35.23,6.1-35.49-.23-.11-2.44,3.76-4.83,9.17-.38.85-1.8,4.09-4.25,10.92-1,2.69-2.25,6.38-3.67,10.83-.8-3.38-1.74-6.91-2.83-10.58s-2.3-7.27-3.5-10.58C147.33,46,146,43.94,145.92,44c-.4.21,15.62,23.73,7.91,35.41a11.57,11.57,0,0,1-1.67,2c-12.41-19.69-25.9-39-44.59-53.22A152.4,152.4,0,0,0,68.45,7.71c-11.31-4-22.76-8-37.62-6.54C23.24,1.89,6.51,3.49,2.17,13.83-1,21.3,3.66,30.19,7.84,38.2c4.64,8.91,7.89,10.53,13.34,18.13C33.86,74,33.3,81.15,39.49,97.17c4,10.46,13.29,22,25.13,18.29l-.06.35c-4.07,2.35-7.21,5.66-10.41,9.33-3.79,4.35-8.64,9.42-11.22,16.43-5.31,14.44,1.56,28.51,2.9,31.26,6,12.21,15.77,18,19.89,20.36a59.42,59.42,0,0,0,33.65,6.09c4-.48,9.46-1.15,11.46-4.45a33.23,33.23,0,0,1,4.11-5.38,6,6,0,0,1,1.54-1.31,7.53,7.53,0,0,1,3.4-.84,14.9,14.9,0,0,0,5.29-1.13c1.86-1,2.55-2.93,3.07-4.2,1.4-3.4,1-.76,7.26-11.47,2.32-4,5.22-9.25,8.33-15.67l5.33-14.33a83,83,0,0,0,.67,10.33c1.23,9.58,3.33,12.65,4.9,14.32,2.08,2.22,3.55,2.35,4.1,2.35,2.42,0,4.19-2.39,5-3.54,5-6.75,4.49-22.06,4.35-25.44,0,.09,0,.17,0,.27a49.21,49.21,0,0,0,6.39,16.32c3.37,6.74,6.7,12.7,9.79,17.86,0,0,6.64,11.11,12.16,12.63,2,.54,3,.71,3,.71,2.82.49,3.79.14,4.94.85a4.87,4.87,0,0,1,2,3.33,20.53,20.53,0,0,0,3.63,3.2c2.34,1.61,6.47,3.72,14.86,3.82,12.63.15,25.49-4.38,29.84-6a44.94,44.94,0,0,0,15.77-19.08c3.78-8.87,3.56-16.74,3.42-21.55a51.4,51.4,0,0,0-2.68-15.45c-1.45-4.11-3.58-9.9-9.16-14.33a24,24,0,0,0-3.65-2.39c5.31-1.45,11.8-4.26,16-10.2s3.27-11.28,6.25-22.48a88.88,88.88,0,0,1,8.08-20.13C295.3,54.5,306.55,45.8,311.94,33.8A19.31,19.31,0,0,0,312.93,19.28Z"/><path class="cls-3" d="M161.67,72.08"/><g class="cls-4"><circle class="cls-5" cx="78.75" cy="159.38" r="27.66"/><circle class="cls-6" cx="98.02" cy="137.35" r="0.92"/><circle class="cls-7" cx="122.5" cy="109.38" r="0.92"/><circle class="cls-8" cx="120.75" cy="111.38" r="6.91"/><line class="cls-9" x1="87.5" y1="149.38" x2="122.5" y2="109.38"/><circle class="cls-10" cx="87.5" cy="149.38" r="18.44"/><circle class="cls-11" cx="87.5" cy="149.38" r="9.22"/><circle class="cls-12" cx="87.5" cy="149.38" r="7.68"/><polyline class="cls-13" points="87.5 149.38 107.75 167.52 87.5 149.38 67.25 131.24 87.5 149.38 69.36 169.63 87.5 149.38 105.64 129.13 87.5 149.38 123.33 169.12 87.5 149.38 51.67 129.64 87.5 149.38 67.76 185.21 87.5 149.38 107.24 113.55 87.5 149.38 88.96 150.02 87.5 149.38 86.04 148.74 87.5 149.38 86.86 150.84 87.5 149.38 88.14 147.92 87.5 149.38 125.79 145.25 87.5 149.38 49.21 153.51 87.5 149.38 91.63 187.67 87.5 149.38 83.37 111.09 87.5 149.38 111.47 165.55 87.5 149.38 63.53 133.21 87.5 149.38 71.33 173.35 87.5 149.38 103.67 125.41 87.5 149.38 113.14 184.04 87.5 149.38 61.85 114.72 87.5 149.38 52.84 175.03 87.5 149.38 122.16 123.73 87.5 149.38 91.25 150.19 87.5 149.38 83.75 148.57 87.5 149.38 86.69 153.13 87.5 149.38 88.31 145.63 87.5 149.38 88.81 155.44 87.5 149.38 86.19 143.32 87.5 149.38 81.44 150.69 87.5 149.38 93.56 148.07 87.5 149.38 95.7 165.96 87.5 149.38 79.3 132.8 87.5 149.38 70.92 157.58 87.5 149.38 104.08 141.18 87.5 149.38 117.93 147.6 87.5 149.38 57.07 151.16 87.5 149.38 89.28 179.81 87.5 149.38 85.72 118.95 87.5 149.38 107.25 167.56 87.5 149.38 67.75 131.2 87.5 149.38 69.32 169.13 87.5 149.38 105.68 129.63 87.5 149.38 95.4 185.09 87.5 149.38 79.6 113.67 87.5 149.38 51.79 157.28 87.5 149.38 123.21 141.48 87.5 149.38 92.56 152.68 87.5 149.38 82.44 146.08 87.5 149.38 84.2 154.44 87.5 149.38 90.8 144.32 87.5 149.38 112.55 150.07 87.5 149.38 62.45 148.69 87.5 149.38 86.81 174.43 87.5 149.38 88.19 124.33 87.5 149.38 102.23 166.53 87.5 149.38 72.77 132.23 87.5 149.38 70.35 164.11 87.5 149.38 104.65 134.65"/><circle class="cls-14" cx="122.5" cy="109.38" r="13.83"/><circle class="cls-15" cx="122.48" cy="109.4" r="0.08"/><circle class="cls-16" cx="95.19" cy="140.59" r="2.91"/><circle class="cls-17" cx="79.23" cy="158.84" r="2.78"/><circle class="cls-18" cx="92.32" cy="143.88" r="0.57"/><circle class="cls-19" cx="120.09" cy="112.13" r="2.83"/></g><g class="cls-4"><circle class="cls-20" cx="235.98" cy="159.38" r="27.66"/><circle class="cls-21" cx="216.7" cy="137.35" r="0.92"/><circle class="cls-22" cx="192.23" cy="109.38" r="0.92"/><circle class="cls-23" cx="193.98" cy="111.38" r="6.91"/><line class="cls-9" x1="227.23" y1="149.38" x2="192.23" y2="109.38"/><circle class="cls-24" cx="227.23" cy="149.38" r="18.44"/><circle class="cls-25" cx="227.23" cy="149.38" r="9.22"/><circle class="cls-26" cx="227.23" cy="149.38" r="7.68"/><polyline class="cls-13" points="227.22 149.38 206.98 167.52 227.22 149.38 247.47 131.24 227.22 149.38 245.37 169.63 227.22 149.38 209.08 129.13 227.22 149.38 191.4 169.12 227.22 149.38 263.06 129.64 227.22 149.38 246.97 185.21 227.22 149.38 207.48 113.55 227.22 149.38 225.77 150.02 227.22 149.38 228.69 148.74 227.22 149.38 227.86 150.84 227.22 149.38 226.59 147.92 227.22 149.38 188.94 145.25 227.22 149.38 265.51 153.51 227.22 149.38 223.1 187.67 227.22 149.38 231.35 111.09 227.22 149.38 203.26 165.55 227.22 149.38 251.19 133.21 227.22 149.38 243.4 173.35 227.22 149.38 211.06 125.41 227.22 149.38 201.58 184.04 227.22 149.38 252.87 114.72 227.22 149.38 261.89 175.03 227.22 149.38 192.56 123.73 227.22 149.38 223.47 150.19 227.22 149.38 230.98 148.57 227.22 149.38 228.03 153.13 227.22 149.38 226.42 145.63 227.22 149.38 225.91 155.44 227.22 149.38 228.54 143.32 227.22 149.38 233.29 150.69 227.22 149.38 221.16 148.07 227.22 149.38 219.03 165.96 227.22 149.38 235.42 132.8 227.22 149.38 243.81 157.58 227.22 149.38 210.64 141.18 227.22 149.38 196.79 147.6 227.22 149.38 257.66 151.16 227.22 149.38 225.45 179.81 227.22 149.38 229 118.95 227.22 149.38 207.48 167.56 227.22 149.38 246.97 131.2 227.22 149.38 245.41 169.13 227.22 149.38 209.04 129.63 227.22 149.38 219.32 185.09 227.22 149.38 235.13 113.67 227.22 149.38 262.93 157.28 227.22 149.38 191.52 141.48 227.22 149.38 222.16 152.68 227.22 149.38 232.29 146.08 227.22 149.38 230.53 154.44 227.22 149.38 223.93 144.32 227.22 149.38 202.18 150.07 227.22 149.38 252.27 148.69 227.22 149.38 227.92 174.43 227.22 149.38 226.53 124.33 227.22 149.38 212.5 166.53 227.22 149.38 241.95 132.23 227.22 149.38 244.37 164.11 227.22 149.38 210.08 134.65"/><circle class="cls-27" cx="192.23" cy="109.38" r="13.83"/><circle class="cls-28" cx="192.25" cy="109.4" r="0.08"/><circle class="cls-29" cx="219.54" cy="140.59" r="2.91"/><circle class="cls-30" cx="235.5" cy="158.84" r="2.78"/><circle class="cls-31" cx="222.41" cy="143.88" r="0.57"/><circle class="cls-32" cx="194.64" cy="112.13" r="2.83"/></g><circle class="cls-33" cx="99.67" cy="22.83" r="1.5"/><circle class="cls-33" cx="112.38" cy="32.25" r="1.5"/><circle class="cls-33" cx="124.5" cy="43.75" r="1.5"/><circle class="cls-33" cx="137.13" cy="59.5" r="1.5"/><circle class="cls-33" cx="148.13" cy="74.5" r="1.5"/><circle class="cls-33" cx="152.25" cy="80.63" r="1.5"/><circle class="cls-33" cx="146.25" cy="45.13" r="1.5"/><circle class="cls-33" cx="167" cy="82.25" r="1.5"/><circle class="cls-33" cx="171.5" cy="45.5" r="1.5"/><circle class="cls-33" cx="188.38" cy="53.88" r="1.5"/><circle class="cls-33" cx="214.25" cy="27.38" r="1.5"/><circle class="cls-33" cx="245.75" cy="10.25" r="1.5"/><circle class="cls-33" cx="289.5" cy="4.5" r="1.5"/><circle class="cls-33" cx="312.38" cy="31.63" r="1.5"/><circle class="cls-33" cx="304.5" cy="45.75" r="1.5"/><circle class="cls-33" cx="291.5" cy="61.5" r="1.5"/><circle class="cls-33" cx="282.13" cy="81.13" r="1.5"/><circle class="cls-33" cx="277.25" cy="101.88" r="1.5"/><circle class="cls-33" cx="259.75" cy="118.63" r="1.5"/><circle class="cls-33" cx="272.38" cy="140" r="1.5"/><circle class="cls-33" cx="272.63" cy="165" r="1.5"/><circle class="cls-33" cx="263" cy="185.13" r="1.5"/><circle class="cls-33" cx="243.13" cy="195.13" r="1.5"/><circle class="cls-33" cx="221.88" cy="196.75" r="1.5"/><circle class="cls-33" cx="205.38" cy="188.13" r="1.5"/><circle class="cls-33" cx="193.38" cy="183.88" r="1.5"/><circle class="cls-33" cx="182.38" cy="169.25" r="1.5"/><circle class="cls-33" cx="172.88" cy="152.63" r="1.5"/><circle class="cls-33" cx="168.13" cy="140" r="1.5"/><circle class="cls-33" cx="166.5" cy="156.88" r="1.5"/><circle class="cls-33" cx="158.83" cy="167.5" r="1.5"/><circle class="cls-33" cx="151" cy="158.63" r="1.5"/><circle class="cls-33" cx="149.25" cy="141.5" r="1.5"/><circle class="cls-33" cx="143.83" cy="154.83" r="1.5"/><circle class="cls-33" cx="136.25" cy="169.13" r="1.5"/><circle class="cls-33" cx="127.25" cy="184.5" r="1.5"/><circle class="cls-33" cx="116.48" cy="188.14" r="1.5"/><circle class="cls-33" cx="107.88" cy="197.38" r="1.5"/><circle class="cls-33" cx="83.17" cy="199" r="1.5"/><circle class="cls-33" cx="62.67" cy="191.67" r="1.5"/><circle class="cls-33" cx="48" cy="176.83" r="1.5"/><circle class="cls-33" cx="41.5" cy="157.33" r="1.5"/><circle class="cls-33" cx="43.83" cy="139.17" r="1.5"/><circle class="cls-33" cx="54.15" cy="125.14" r="1.5"/><circle class="cls-33" cx="64.56" cy="115.81" r="1.5"/><circle class="cls-33" cx="50.83" cy="113.17" r="1.5"/><circle class="cls-33" cx="42.17" cy="103" r="1.5"/><circle class="cls-33" cx="35.67" cy="85.83" r="1.5"/><circle class="cls-33" cx="29.33" cy="70" r="1.5"/><circle class="cls-33" cx="20" cy="54.83" r="1.5"/><circle class="cls-33" cx="7.84" cy="38.2" r="1.5"/><circle class="cls-33" cx="1.5" cy="23.17" r="1.5"/><circle class="cls-33" cx="9.67" cy="6.67" r="1.5"/><circle class="cls-33" cx="28.83" cy="1.5" r="1.5"/><circle class="cls-33" cx="48.33" cy="2.17" r="1.5"/><circle class="cls-33" cx="178.25" cy="69" r="1.5"/><circle class="cls-33" cx="200.13" cy="40" r="1.5"/><circle class="cls-33" cx="228.75" cy="17.88" r="1.5"/><circle class="cls-33" cx="267.38" cy="4.63" r="1.5"/><circle class="cls-33" cx="308.63" cy="12" r="1.5"/><circle class="cls-33" cx="84.88" cy="14.63" r="1.5"/><circle class="cls-33" cx="68.45" cy="7.71" r="1.5"/></g></g></g></svg>