<svg xmlns="http://www.w3.org/2000/svg" viewBox="0 0 285.94 499.88"><defs>
  <!-- <style>.cls-1{fill:#fff1eb;}.cls-2{fill:none;stroke
  :#111;}.cls-3{fill:#fbffe9;}.cls-4{fill:#e6fff2;}.cls-5{fill:#e3e5ff;}.cls-6{fill:#f3e1ff;}.cls-7{fill:#ffdee7;}.cls-8{fill:#00a651;}.cls-10,.cls-11,.cls-12,.cls-13,.cls-14,.cls-15,.cls-16,.cls-17,.cls-19,.cls-20,.cls-21,.cls-22,.cls-23,.cls-24,.cls-25,.cls-8,.cls-9{stroke:#020b00;}.cls-9{fill:#aaa9aa;}.cls-10{fill:#aadb7d;}.cls-12{fill:#fff;}.cls-13{fill:#94695a;}.cls-14{fill:#ff6c2c;}.cls-15{fill:#ffe800;}.cls-16{fill:#ffad48;}.cls-17{fill:#e60000;}.cls-18{fill:#f6c4bd;stroke:#000;}.cls-19{fill:#e14164;}.cls-20{fill:#662d91;}.cls-21{fill:#ece0d0;}.cls-22{fill:#816db1;}.cls-23{fill:#39499b;}.cls-24{fill:#e0f2f5;}.cls-25{fill:#00b8d8;}</style> -->
</defs><title>colorpalette</title><g id="Layer_2" data-name="Layer 2"><g id="menu"><path ng-click="userColorPick('1')" id="#"class="cls-1" d="M41,259.94c-10-20-10,250,0,230,37.39,20,84,7.52,115-30.81C166,473.77,31,239.94,41,259.94Z"/><path ng-click="userColorPick('2')" id="#"class="cls-2" d="M41,259.94c-10-20-10,250,0,230,37.39,20,84,7.52,115-30.81C166,473.77,31,239.94,41,259.94Z"/><path ng-click="userColorPick('3')" id="#"class="cls-3" d="M44.66,258.6c-17.32-17.32,117.68,216.51,115,199.18a99.36,99.36,0,0,0,84.19-84.18C261.16,376.28,27.34,241.28,44.66,258.6Z"/><path ng-click="userColorPick('4')" id="#"class="cls-2" d="M44.66,258.6c-17.32-17.32,117.68,216.51,115,199.18a99.36,99.36,0,0,0,84.19-84.18C261.16,376.28,27.34,241.28,44.66,258.6Z"/><path ng-click="userColorPick('5')" id="#"class="cls-4" d="M46,254.94c-20-10,213.83,125,199.18,115,38.34-31,50.81-77.6,30.81-115C296,244.94,26,244.94,46,254.94Z"/><path ng-click="userColorPick('6')" id="#"class="cls-2" d="M46,254.94c-20-10,213.83,125,199.18,115,38.34-31,50.81-77.6,30.81-115C296,244.94,26,244.94,46,254.94Z"/><path ng-click="userColorPick('7')" id="#"class="cls-5" d="M46,244.94c-20,10,250,10,230,0,20-37.39,7.52-84-30.81-115C259.83,119.94,26,254.94,46,244.94Z"/><path ng-click="userColorPick('8')" id="#"class="cls-2" d="M46,244.94c-20,10,250,10,230,0,20-37.39,7.52-84-30.81-115C259.83,119.94,26,254.94,46,244.94Z"/><path ng-click="userColorPick('9')" id="#"class="cls-6" d="M44.66,241.28c-17.32,17.32,216.51-117.68,199.18-115A99.36,99.36,0,0,0,159.66,42.1C162.34,24.78,27.34,258.6,44.66,241.28Z"/><path ng-click="userColorPick('10')" id="#"class="cls-2" d="M44.66,241.28c-17.32,17.32,216.51-117.68,199.18-115A99.36,99.36,0,0,0,159.66,42.1C162.34,24.78,27.34,258.6,44.66,241.28Z"/><path ng-click="userColorPick('11')" id="#"class="cls-7" d="M41,239.94c-10,20,125-213.83,115-199.18-31-38.34-77.6-50.81-115-30.81C31-10.06,31,259.94,41,239.94Z"/><path ng-click="userColorPick('12')" id="#"class="cls-2" d="M41,239.94c-10,20,125-213.83,115-199.18-31-38.34-77.6-50.81-115-30.81C31-10.06,31,259.94,41,239.94Z"/><circle cx="37" cy="249.94" r="37"/><g id="layer1"><path ng-click="userColorPick('13')" id="#"id="path7" class="cls-8" d="M177.67,276.2a13.86,13.86,0,0,0-9.79-17c-15-4-23,10.06-40.66,16.4,12.14,13.73,12.43,30.66,27,34.56a13.84,13.84,0,0,0,12.51-24A13.85,13.85,0,0,0,177.67,276.2Z"/></g><g id="layer1-2" data-name="layer1"><path ng-click="userColorPick('14')" id="#"id="path7-2" data-name="path7" class="cls-9" d="M272.07,301.55a13.86,13.86,0,0,0-9.79-17c-15-4-23,10.06-40.66,16.4,12.14,13.73,12.43,30.66,27,34.56a13.84,13.84,0,0,0,12.51-24A13.85,13.85,0,0,0,272.07,301.55Z"/></g><g id="layer1-3" data-name="layer1"><path ng-click="userColorPick('15')" id="#"id="path7-3" data-name="path7" class="cls-10" d="M224.87,288.87a13.86,13.86,0,0,0-9.79-17c-15-4-23,10.06-40.66,16.4,12.14,13.73,12.43,30.66,27,34.56a13.84,13.84,0,0,0,12.51-24A13.85,13.85,0,0,0,224.87,288.87Z"/></g><g id="layer1-4" data-name="layer1"><path ng-click="userColorPick('16')" id="#"id="path7-4" data-name="path7" class="cls-11" d="M172.2,203.88a13.86,13.86,0,0,0-17.14-9.49c-15,4.3-14.54,20.51-26.36,35,17.48,5.49,26.47,19.85,40.94,15.68a13.84,13.84,0,0,0-1.65-27A13.85,13.85,0,0,0,172.2,203.88Z"/></g><g id="layer1-5" data-name="layer1"><path ng-click="userColorPick('17')" id="#"id="path7-5" data-name="path7" class="cls-12" d="M266.13,176.88A13.86,13.86,0,0,0,249,167.39c-15,4.3-14.54,20.51-26.36,35,17.48,5.49,26.47,19.85,40.94,15.68a13.84,13.84,0,0,0-1.65-27A13.85,13.85,0,0,0,266.13,176.88Z"/></g><g id="layer1-6" data-name="layer1"><path ng-click="userColorPick('18')" id="#"id="path7-6" data-name="path7" class="cls-13" d="M219.16,190.38A13.86,13.86,0,0,0,202,180.89c-15,4.3-14.54,20.51-26.36,35,17.48,5.49,26.47,19.85,40.94,15.68a13.84,13.84,0,0,0-1.65-27A13.85,13.85,0,0,0,219.16,190.38Z"/></g><g id="layer1-7" data-name="layer1"><path ng-click="userColorPick('19')" id="#"id="path7-7" data-name="path7" class="cls-14" d="M130.15,141.14A13.86,13.86,0,0,0,110.59,140c-11.61,10.36-4.2,24.78-8.56,43,18.14-2.63,32.46,6.4,43.69-3.62a13.84,13.84,0,0,0-13.19-23.59A13.85,13.85,0,0,0,130.15,141.14Z"/></g><g id="layer1-8" data-name="layer1"><path ng-click="userColorPick('20')" id="#"id="path7-8" data-name="path7" class="cls-15" d="M204.65,76.36a14.17,14.17,0,0,0-20-1.14c-11.87,10.59-4.3,25.35-8.76,44,18.55-2.69,33.19,6.55,44.69-3.71a14.16,14.16,0,0,0-13.49-24.13A14.16,14.16,0,0,0,204.65,76.36Z"/></g><g id="layer1-9" data-name="layer1"><path ng-click="userColorPick('21')" id="#"id="path7-9" data-name="path7" class="cls-16" d="M167.36,109.64a14.17,14.17,0,0,0-20-1.14c-11.87,10.59-4.3,25.35-8.76,44,18.55-2.69,33.19,6.55,44.69-3.71a14.16,14.16,0,0,0-13.49-24.13A14.16,14.16,0,0,0,167.36,109.64Z"/></g><g id="layer1-10" data-name="layer1"><path ng-click="userColorPick('22')" id="#"id="path7-10" data-name="path7" class="cls-17" d="M60.85,111.41A14.17,14.17,0,0,0,43.1,120.7c-4.76,15.18,9.31,24,15,42.24C72.68,151.11,90,151.53,94.6,136.83a14.16,14.16,0,0,0-24-13.79A14.16,14.16,0,0,0,60.85,111.41Z"/></g><g id="layer1-11" data-name="layer1"><path ng-click="userColorPick('23')" id="#"id="path7-11" data-name="path7" class="cls-18" d="M91.69,17.07a13.86,13.86,0,0,0-17.36,9.08C69.68,41,83.43,49.58,89,67.45c14.22-11.56,31.15-11.15,35.65-25.53a13.84,13.84,0,0,0-23.43-13.49A13.85,13.85,0,0,0,91.69,17.07Z"/></g><g id="layer1-12" data-name="layer1"><path ng-click="userColorPick('24')" id="#"id="path7-12" data-name="path7" class="cls-19" d="M75.79,63.72A14.17,14.17,0,0,0,58,73c-4.76,15.18,9.31,24,15,42.24,14.54-11.83,31.85-11.41,36.46-26.11a14.16,14.16,0,0,0-24-13.79A14.16,14.16,0,0,0,75.79,63.72Z"/></g><g id="layer1-13" data-name="layer1"><path ng-click="userColorPick('25')" id="#"id="path7-13" data-name="path7" class="cls-20" d="M84.16,385.14a13.86,13.86,0,0,0,9.38-17.2C89.16,353,72.95,353.53,58.35,341.79c-5.39,17.52-19.69,26.59-15.44,41a13.84,13.84,0,0,0,27-1.81A13.85,13.85,0,0,0,84.16,385.14Z"/></g><g id="layer1-14" data-name="layer1"><path ng-click="userColorPick('26')" id="#"id="path7-14" data-name="path7" class="cls-21" d="M111.73,478.92a13.86,13.86,0,0,0,9.38-17.2c-4.39-14.93-20.59-14.41-35.19-26.15-5.39,17.52-19.69,26.59-15.44,41a13.84,13.84,0,0,0,27-1.81A13.85,13.85,0,0,0,111.73,478.92Z"/></g><g id="layer1-15" data-name="layer1"><path ng-click="userColorPick('27')" id="#"id="path7-15" data-name="path7" class="cls-22" d="M97.94,432a13.86,13.86,0,0,0,9.38-17.2c-4.39-14.93-20.59-14.41-35.19-26.15-5.39,17.52-19.69,26.59-15.44,41a13.84,13.84,0,0,0,27-1.81A13.85,13.85,0,0,0,97.94,432Z"/></g><g id="layer1-16" data-name="layer1"><path ng-click="userColorPick('28')" id="#"id="path7-16" data-name="path7" class="cls-23" d="M145.41,342.34a13.86,13.86,0,0,0-.35-19.59c-11.2-10.8-25-2.34-43.52-5.33,4,17.89-4,32.84,6.88,43.3A13.84,13.84,0,0,0,131,345.81,13.85,13.85,0,0,0,145.41,342.34Z"/></g><g id="layer1-17" data-name="layer1"><path ng-click="userColorPick('29')" id="#"id="path7-17" data-name="path7" class="cls-24" d="M215.74,410.21a13.86,13.86,0,0,0-.35-19.59c-11.2-10.8-25-2.34-43.52-5.33,4,17.89-4,32.84,6.88,43.3a13.84,13.84,0,0,0,22.54-14.92A13.85,13.85,0,0,0,215.74,410.21Z"/></g><g id="layer1-18" data-name="layer1"><path ng-click="userColorPick('30')" id="#"id="path7-18" data-name="path7" class="cls-25" d="M180.58,376.27a13.86,13.86,0,0,0-.35-19.59c-11.2-10.8-25-2.34-43.52-5.33,4,17.89-4,32.84,6.88,43.3a13.84,13.84,0,0,0,22.54-14.92A13.85,13.85,0,0,0,180.58,376.27Z"/></g></g></g></svg>
