<?xml version="1.0" encoding="utf-8"?>
<!-- Generator: Adobe Illustrator 21.0.0, SVG Export Plug-In . SVG Version: 6.00 Build 0)  -->
<svg version="1.1" id="menu" xmlns="http://www.w3.org/2000/svg" xmlns:xlink="http://www.w3.org/1999/xlink" x="0px" y="0px"
	 viewBox="0 0 504 504" style="enable-background:new 0 0 504 504;" xml:space="preserve">
<style type="text/css">
	.st0{fill:#FFF1EB;}
	.st1{fill:none;stroke:#111111;}
	.st2{fill:#FBFFE9;}
	.st3{fill:#E6FFF2;}
	.st4{fill:#E3E5FF;}
	.st5{fill:#F3E1FF;}
	.st6{fill:#FFDEE7;}
	.st7{fill:#00A651;stroke:#020B00;}
	.st8{fill:#AAA9AA;stroke:#020B00;}
	.st9{fill:#AADB7D;stroke:#020B00;}
	.st10{stroke:#020B00;}
	.st11{fill:#FFFFFF;stroke:#020B00;}
	.st12{fill:#94695A;stroke:#020B00;}
	.st13{fill:#FF6C2C;stroke:#020B00;}
	.st14{fill:#FFE800;stroke:#020B00;}
	.st15{fill:#FFAD48;stroke:#020B00;}
	.st16{fill:#E60000;stroke:#020B00;}
	.st17{fill:#F6C4BD;stroke:#000000;}
	.st18{fill:#E14164;stroke:#020B00;}
	.st19{fill:#662D91;stroke:#020B00;}
	.st20{fill:#ECE0D0;stroke:#020B00;}
	.st21{fill:#816DB1;stroke:#020B00;}
	.st22{fill:#39499B;stroke:#020B00;}
	.st23{fill:#E0F2F5;stroke:#020B00;}
	.st24{fill:#00B8D8;stroke:#020B00;}
</style>
<g id="symbolsContainer">
</g>
<g>
	<path class="st0" d="M75,263c-10-20-10,250,0,230c37.4,20,84,7.5,115-30.8C200,476.8,65,243,75,263z"/>
	<path class="st1" d="M75,263c-10-20-10,250,0,230c37.4,20,84,7.5,115-30.8C200,476.8,65,243,75,263z"/>
</g>
<g>
	<path class="st2" d="M78.7,261.7c-17.3-17.3,117.7,216.5,115,199.2c43.7-6.4,77.8-40.5,84.2-84.2
		C295.2,379.3,61.3,244.3,78.7,261.7z"/>
	<path class="st1" d="M78.7,261.7c-17.3-17.3,117.7,216.5,115,199.2c43.7-6.4,77.8-40.5,84.2-84.2
		C295.2,379.3,61.3,244.3,78.7,261.7z"/>
</g>
<g>
	<path class="st3" d="M80,258c-20-10,213.8,125,199.2,115c38.3-31,50.8-77.6,30.8-115C330,248,60,248,80,258z"/>
	<path class="st1" d="M80,258c-20-10,213.8,125,199.2,115c38.3-31,50.8-77.6,30.8-115C330,248,60,248,80,258z"/>
</g>
<g>
	<path class="st4" d="M80,248c-20,10,250,10,230,0c20-37.4,7.5-84-30.8-115C293.8,123,60,258,80,248z"/>
	<path class="st1" d="M80,248c-20,10,250,10,230,0c20-37.4,7.5-84-30.8-115C293.8,123,60,258,80,248z"/>
</g>
<g>
	<path class="st5" d="M78.7,244.3c-17.3,17.3,216.5-117.7,199.2-115c-6.4-43.7-40.5-77.8-84.2-84.2
		C196.3,27.8,61.3,261.7,78.7,244.3z"/>
	<path class="st1" d="M78.7,244.3c-17.3,17.3,216.5-117.7,199.2-115c-6.4-43.7-40.5-77.8-84.2-84.2
		C196.3,27.8,61.3,261.7,78.7,244.3z"/>
</g>
<g>
	<path class="st6" d="M75,243C65,263,200,29.2,190,43.8C158.9,5.5,112.4-7,75,13C65-7,65,263,75,243z"/>
	<path class="st1" d="M75,243C65,263,200,29.2,190,43.8C158.9,5.5,112.4-7,75,13C65-7,65,263,75,243z"/>
</g>
<circle cx="71" cy="253" r="37"/>
<g id="layer1_10_" inkscape:groupmode="layer" inkscape:label="Layer 1">
	<path id="path7_10_" sodipodi:nodetypes="ccccccc" class="st7" d="M211.7,279.3c2-7.4-2.4-15-9.8-17c-15-4-23,10.1-40.7,16.4
		c12.1,13.7,12.4,30.7,27,34.6c7.4,2,15-2.4,17-9.8c1.4-5.4-0.5-10.8-4.5-14.2C205.8,288.4,210.2,284.6,211.7,279.3z"/>
</g>
<g id="layer1_17_" inkscape:groupmode="layer" inkscape:label="Layer 1">
	<path id="path7_17_" sodipodi:nodetypes="ccccccc" class="st8" d="M306.1,304.6c2-7.4-2.4-15-9.8-17c-15-4-23,10.1-40.7,16.4
		c12.1,13.7,12.4,30.7,27,34.6c7.4,2,15-2.4,17-9.8c1.4-5.4-0.5-10.8-4.5-14.2C300.2,313.7,304.6,310,306.1,304.6z"/>
</g>
<g id="layer1_11_" inkscape:groupmode="layer" inkscape:label="Layer 1">
	<path id="path7_11_" sodipodi:nodetypes="ccccccc" class="st9" d="M258.9,291.9c2-7.4-2.4-15-9.8-17c-15-4-23,10.1-40.7,16.4
		c12.1,13.7,12.4,30.7,27,34.6c7.4,2,15-2.4,17-9.8c1.4-5.4-0.5-10.8-4.5-14.2C253,301.1,257.4,297.3,258.9,291.9z"/>
</g>
<g id="layer1_9_" inkscape:groupmode="layer" inkscape:label="Layer 1">
	<path id="path7_9_" sodipodi:nodetypes="ccccccc" class="st10" d="M206.2,206.9c-2.1-7.3-9.8-11.6-17.1-9.5
		c-15,4.3-14.5,20.5-26.4,35c17.5,5.5,26.5,19.8,40.9,15.7c7.3-2.1,11.6-9.8,9.5-17.1c-1.5-5.3-6-9-11.1-9.8
		C205.9,217.8,207.7,212.3,206.2,206.9z"/>
</g>
<g id="layer1_8_" inkscape:groupmode="layer" inkscape:label="Layer 1">
	<path id="path7_8_" sodipodi:nodetypes="ccccccc" class="st11" d="M300.1,179.9c-2.1-7.3-9.8-11.6-17.1-9.5
		c-15,4.3-14.5,20.5-26.4,35c17.5,5.5,26.5,19.8,40.9,15.7c7.3-2.1,11.6-9.8,9.5-17.1c-1.5-5.3-6-9-11.1-9.8
		C299.8,190.8,301.7,185.3,300.1,179.9z"/>
</g>
<g id="layer1_7_" inkscape:groupmode="layer" inkscape:label="Layer 1">
	<path id="path7_7_" sodipodi:nodetypes="ccccccc" class="st12" d="M253.2,193.4c-2.1-7.3-9.8-11.6-17.1-9.5
		c-15,4.3-14.5,20.5-26.4,35c17.5,5.5,26.5,19.8,40.9,15.7c7.3-2.1,11.6-9.8,9.5-17.1c-1.5-5.3-6-9-11.1-9.8
		C252.9,204.3,254.7,198.8,253.2,193.4z"/>
</g>
<g id="layer1_14_" inkscape:groupmode="layer" inkscape:label="Layer 1">
	<path id="path7_14_" sodipodi:nodetypes="ccccccc" class="st13" d="M164.2,144.2c-5.1-5.7-13.9-6.2-19.6-1.1
		c-11.6,10.4-4.2,24.8-8.6,43c18.1-2.6,32.5,6.4,43.7-3.6c5.7-5.1,6.2-13.9,1.1-19.6c-3.7-4.1-9.3-5.5-14.3-4
		C168.6,154.1,167.8,148.3,164.2,144.2z"/>
</g>
<g id="layer1_13_" inkscape:groupmode="layer" inkscape:label="Layer 1">
	<path id="path7_13_" sodipodi:nodetypes="ccccccc" class="st14" d="M238.7,79.4c-5.2-5.8-14.2-6.3-20-1.1
		c-11.9,10.6-4.3,25.3-8.8,44c18.5-2.7,33.2,6.5,44.7-3.7c5.8-5.2,6.3-14.2,1.1-20c-3.8-4.2-9.5-5.6-14.6-4.1
		C243.2,89.5,242.4,83.7,238.7,79.4z"/>
</g>
<g id="layer1_12_" inkscape:groupmode="layer" inkscape:label="Layer 1">
	<path id="path7_12_" sodipodi:nodetypes="ccccccc" class="st15" d="M201.4,112.7c-5.2-5.8-14.2-6.3-20-1.1
		c-11.9,10.6-4.3,25.3-8.8,44c18.5-2.7,33.2,6.5,44.7-3.7c5.8-5.2,6.3-14.2,1.1-20c-3.8-4.2-9.5-5.6-14.6-4.1
		C205.9,122.8,205.1,116.9,201.4,112.7z"/>
</g>
<g id="layer1_18_" inkscape:groupmode="layer" inkscape:label="Layer 1">
	<path id="path7_18_" sodipodi:nodetypes="ccccccc" class="st16" d="M94.9,114.5c-7.5-2.3-15.4,1.8-17.8,9.3
		c-4.8,15.2,9.3,24,15,42.2c14.5-11.8,31.9-11.4,36.5-26.1c2.3-7.5-1.8-15.4-9.3-17.8c-5.4-1.7-11.1,0-14.7,4
		C103.9,120.8,100.3,116.2,94.9,114.5z"/>
</g>
<g id="layer1_16_" inkscape:groupmode="layer" inkscape:label="Layer 1">
	<path id="path7_16_" sodipodi:nodetypes="ccccccc" class="st17" d="M125.7,20.1c-7.3-2.3-15.1,1.8-17.4,9.1
		c-4.7,14.8,9.1,23.4,14.7,41.3c14.2-11.6,31.1-11.2,35.6-25.5c2.3-7.3-1.8-15.1-9.1-17.4c-5.3-1.7-10.8,0-14.3,3.9
		C134.6,26.3,131,21.8,125.7,20.1z"/>
</g>
<g id="layer1_15_" inkscape:groupmode="layer" inkscape:label="Layer 1">
	<path id="path7_15_" sodipodi:nodetypes="ccccccc" class="st18" d="M109.8,66.8c-7.5-2.3-15.4,1.8-17.8,9.3
		c-4.8,15.2,9.3,24,15,42.2c14.5-11.8,31.9-11.4,36.5-26.1c2.3-7.5-1.8-15.4-9.3-17.8c-5.4-1.7-11.1,0-14.7,4
		C118.9,73.1,115.2,68.5,109.8,66.8z"/>
</g>
<g id="layer1_3_" inkscape:groupmode="layer" inkscape:label="Layer 1">
	<path id="path7_3_" sodipodi:nodetypes="ccccccc" class="st19" d="M118.2,388.2c7.3-2.2,11.5-9.9,9.4-17.2
		c-4.4-14.9-20.6-14.4-35.2-26.2c-5.4,17.5-19.7,26.6-15.4,41c2.2,7.3,9.9,11.5,17.2,9.4c5.3-1.6,9-6.1,9.8-11.2
		C107.3,388,112.8,389.8,118.2,388.2z"/>
</g>
<g id="layer1_2_" inkscape:groupmode="layer" inkscape:label="Layer 1">
	<path id="path7_2_" sodipodi:nodetypes="ccccccc" class="st20" d="M145.7,482c7.3-2.2,11.5-9.9,9.4-17.2
		c-4.4-14.9-20.6-14.4-35.2-26.2c-5.4,17.5-19.7,26.6-15.4,41c2.2,7.3,9.9,11.5,17.2,9.4c5.3-1.6,9-6.1,9.8-11.2
		C134.9,481.7,140.4,483.5,145.7,482z"/>
</g>
<g id="layer1_1_" inkscape:groupmode="layer" inkscape:label="Layer 1">
	<path id="path7_1_" sodipodi:nodetypes="ccccccc" class="st21" d="M131.9,435.1c7.3-2.2,11.5-9.9,9.4-17.2
		c-4.4-14.9-20.6-14.4-35.2-26.2c-5.4,17.5-19.7,26.6-15.4,41c2.2,7.3,9.9,11.5,17.2,9.4c5.3-1.6,9-6.1,9.8-11.2
		C121.1,434.9,126.6,436.7,131.9,435.1z"/>
</g>
<g id="layer1_6_" inkscape:groupmode="layer" inkscape:label="Layer 1">
	<path id="path7_6_" sodipodi:nodetypes="ccccccc" class="st22" d="M179.4,345.4c5.3-5.5,5.2-14.3-0.3-19.6
		c-11.2-10.8-25-2.3-43.5-5.3c4,17.9-4,32.8,6.9,43.3c5.5,5.3,14.3,5.2,19.6-0.3c3.9-4,4.8-9.7,3-14.6
		C169.9,350.6,175.6,349.4,179.4,345.4z"/>
</g>
<g id="layer1_5_" inkscape:groupmode="layer" inkscape:label="Layer 1">
	<path id="path7_5_" sodipodi:nodetypes="ccccccc" class="st23" d="M249.7,413.3c5.3-5.5,5.2-14.3-0.3-19.6
		c-11.2-10.8-25-2.3-43.5-5.3c4,17.9-4,32.8,6.9,43.3c5.5,5.3,14.3,5.2,19.6-0.3c3.9-4,4.8-9.7,3-14.6
		C240.2,418.4,245.9,417.3,249.7,413.3z"/>
</g>
<g id="layer1_4_" inkscape:groupmode="layer" inkscape:label="Layer 1">
	<path id="path7_4_" sodipodi:nodetypes="ccccccc" class="st24" d="M214.6,379.3c5.3-5.5,5.2-14.3-0.3-19.6
		c-11.2-10.8-25-2.3-43.5-5.3c4,17.9-4,32.8,6.9,43.3c5.5,5.3,14.3,5.2,19.6-0.3c3.9-4,4.8-9.7,3-14.6
		C205.1,384.5,210.7,383.3,214.6,379.3z"/>
</g>
</svg>
