<svg xmlns="http://www.w3.org/2000/svg" xmlns:xlink="http://www.w3.org/1999/xlink" viewBox="0 0 651.37 648.2"><defs><style>.cls-1{opacity:0.38;}.cls-2{fill:#d9d4fd;stroke:#d9d4fd;stroke-width:6px;}.cls-2,.cls-3,.cls-5{stroke-miterlimit:10;}.cls-3{fill:none;}.cls-3,.cls-5{stroke:#fff;}.cls-4{fill:url(#radial-gradient);}.cls-5{fill:#fff;}</style><radialGradient id="radial-gradient" cx="337.27" cy="404.43" r="9.48" gradientTransform="matrix(0, 1, 0.9, 0, -82.64, -140.58)" gradientUnits="userSpaceOnUse"><stop offset="0" stop-color="#fff"/><stop offset="0.1" stop-color="#fff" stop-opacity="0.86"/><stop offset="0.29" stop-color="#fff" stop-opacity="0.6"/><stop offset="0.47" stop-color="#fff" stop-opacity="0.39"/><stop offset="0.63" stop-color="#fff" stop-opacity="0.22"/><stop offset="0.78" stop-color="#fff" stop-opacity="0.1"/><stop offset="0.91" stop-color="#fff" stop-opacity="0.03"/><stop offset="1" stop-color="#fff" stop-opacity="0"/></radialGradient></defs><title>Asset 1</title><g id="Layer_2" data-name="Layer 2"><g id="Layer_1-2" data-name="Layer 1"><g id="svg"><g class="cls-1"><path class="cls-2" d="M592.17,346.61c-11.46-30-24.75-37.85-39.65-80.9A315.87,315.87,0,0,1,543,232.39c-12.31,4-65.12,22.58-74.55,63.45-4.3,18.66,1.45,37.49,7.93,58.69,12.26,40.14,26.24,43.94,24.68,67.07-2.13,31.74-30.27,51.87-32.61,53.49-9.25,6.41-17.65,12.24-26.92,10.33-18.78-3.88-13.21-39.3-37.7-69.38a618.46,618.46,0,0,0-68.52-71.53c-49-43.56-90-66.11-85.23-78,3.78-9.32,31.78-2.56,90.79-15,7.36-1.55,18.48-4.06,29.55-12.42,17.06-12.87,30.5-36.88,23.56-47.54-6.59-10.14-26,.35-56.11-8.13a104.55,104.55,0,0,1-40.26-22.28,260.87,260.87,0,0,1-5.53-44c-1.22-30.23,3.39-47-1.28-48.83-9.88-3.87-41.6,67.1-53.1,63-10.51-3.79,4.82-62.1-4.72-65.1-3.93-1.23-9,7.9-35.12,46.26-21.69,31.92-22,28.49-31.7,44.55-13.31,22.18-20.24,40.18-30,65.53-10,25.94-15,38.92-16.7,54-1.5,13-.57,25.77,1.28,51.4,1.39,19.12,2.62,27.23,4.72,47.54,1.85,18,5.37,35,5.56,69.38.19,34.77,1.73,44.61,1.46,64.89-.4,32.5-2.67,40.08-8.25,43.08-6.94,3.79-12.1-3.15-25.39,0-15.26,3.65-23.06,16.27-23.76,17.48-2.07,3.47-8.43,14.12-4.75,20.62,5.9,10.46,37.74,10.16,59.44-2.25,46.81-26.79,40.52-106.76,57.82-106.64,11.79.08,11.51,33.32,42.4,57.82,26.06,20.68,57,21.07,56.22,26-.52,3.35-7.28,5.81-11,7.12-5.16,1.79-9.3,1.86-20,1.47-19-.7-20.91-1.47-25.33.33-5.24,2.14-12.45,7.27-12.57,13.58-.14,7.54,9.95,13,13.5,15,18.73,10.48,32.94,2.72,66,3,30.14.26,28,6.79,51,4.5a140.49,140.49,0,0,0,52.5-16.5,142.14,142.14,0,0,0,25.45-17.75,177.84,177.84,0,0,0,38.07-12.68c18.37-8.54,24.14-15.11,42.84-27,36.12-22.94,42.84-16.77,60.27-31.72,21-18,27.42-42.38,31.72-58.69C610.82,399.91,596.91,359,592.17,346.61Z"/><path class="cls-2" d="M898.14,540.37"/></g></g><g id="starlay"><rect class="cls-3" x="0.5" y="0.5" width="650.37" height="647.2"/><circle class="cls-4" cx="281.35" cy="196.69" r="9.48"/><circle class="cls-5" cx="415.38" cy="427.1" r="3" transform="translate(-180.34 418.81) rotate(-45)"/><circle class="cls-5" cx="332.15" cy="337.39" r="3" transform="translate(-141.29 333.69) rotate(-45)"/><circle class="cls-5" cx="376.41" cy="379.12" r="3" transform="translate(-157.83 377.2) rotate(-45)"/><circle class="cls-5" cx="253.72" cy="269.35" r="3" transform="translate(-116.15 258.3) rotate(-45)"/><circle class="cls-5" cx="287.75" cy="301.79" r="3" transform="translate(-129.12 291.86) rotate(-45)"/><circle class="cls-5" cx="233.81" cy="63.13" r="3" transform="translate(23.84 183.82) rotate(-45)"/><circle class="cls-5" cx="545.07" cy="227.9" r="3" transform="translate(-1.5 452.17) rotate(-45)"/><circle class="cls-5" cx="498.15" cy="251.01" r="3" transform="translate(-31.59 425.77) rotate(-45)"/><circle class="cls-5" cx="463.8" cy="304.36" r="3" transform="translate(-79.37 417.1) rotate(-45)"/><circle class="cls-5" cx="488.52" cy="389.19" r="3" transform="translate(-132.12 459.42) rotate(-45)"/><circle class="cls-5" cx="494.96" cy="432.85" r="3" transform="translate(-161.1 476.77) rotate(-45)"/><circle class="cls-5" cx="473.44" cy="465.94" r="3" transform="translate(-190.8 471.24) rotate(-45)"/><circle class="cls-5" cx="439.07" cy="479.74" r="3" transform="translate(-210.63 450.98) rotate(-45)"/><circle class="cls-5" cx="600.34" cy="450.53" r="3" transform="translate(-142.74 556.46) rotate(-45)"/><circle class="cls-5" cx="603.58" cy="378.56" r="3" transform="translate(-90.9 537.68) rotate(-45)"/><circle class="cls-5" cx="568.2" cy="295.04" r="3" transform="translate(-42.21 488.19) rotate(-45)"/><circle class="cls-5" cx="574" cy="504.18" r="3" transform="translate(-188.39 553.55) rotate(-45)"/><circle class="cls-5" cx="526.78" cy="528.6" r="3" transform="translate(-219.48 527.31) rotate(-45)"/><circle class="cls-5" cx="474.74" cy="562.97" r="3" transform="translate(-259.03 500.58) rotate(-45)"/><circle class="cls-5" cx="425.25" cy="580.29" r="3" transform="translate(-285.77 470.66) rotate(-45)"/><circle class="cls-5" cx="375.08" cy="609.78" r="3" transform="translate(-321.32 443.82) rotate(-45)"/><circle class="cls-5" cx="330.08" cy="614.12" r="3" transform="translate(-337.57 413.27) rotate(-45)"/><circle class="cls-5" cx="226.75" cy="604.45" r="3" transform="translate(-361 337.38) rotate(-45)"/><circle class="cls-5" cx="273.08" cy="611.12" r="3" transform="translate(-352.14 372.09) rotate(-45)"/><circle class="cls-5" cx="225.41" cy="574.45" r="3" transform="translate(-340.18 327.64) rotate(-45)"/><circle class="cls-5" cx="247.75" cy="571.79" r="3" transform="translate(-331.75 342.66) rotate(-45)"/><circle class="cls-5" cx="281.75" cy="567.46" r="3" transform="translate(-318.73 365.43) rotate(-45)"/><circle class="cls-5" cx="263.08" cy="560.46" r="3" transform="translate(-319.25 350.18) rotate(-45)"/><circle class="cls-5" cx="215.08" cy="586.79" r="3" transform="translate(-351.93 323.95) rotate(-45)"/><circle class="cls-5" cx="244.41" cy="551.79" r="3" transform="translate(-318.59 334.44) rotate(-45)"/><circle class="cls-5" cx="220.58" cy="534.79" r="3" transform="translate(-313.55 312.61) rotate(-45)"/><circle class="cls-5" cx="203.83" cy="514.04" r="3" transform="translate(-303.78 294.69) rotate(-45)"/><circle class="cls-5" cx="187.87" cy="483.92" r="3" transform="translate(-287.16 274.58) rotate(-45)"/><circle class="cls-5" cx="176.09" cy="513.45" r="3" transform="translate(-311.49 274.9) rotate(-45)"/><circle class="cls-5" cx="163.83" cy="550.53" r="3" transform="translate(-341.3 277.1) rotate(-45)"/><circle class="cls-5" cx="141.32" cy="583.2" r="3" transform="translate(-370.99 270.74) rotate(-45)"/><circle class="cls-5" cx="155.08" cy="569.78" r="3" transform="translate(-357.48 276.54) rotate(-45)"/><circle class="cls-5" cx="101.17" cy="601.19" r="3" transform="translate(-395.47 247.62) rotate(-45)"/><circle class="cls-5" cx="66.77" cy="587.04" r="3" transform="translate(-395.54 219.15) rotate(-45)"/><circle class="cls-5" cx="92.15" cy="552.02" r="3" transform="translate(-363.35 226.84) rotate(-45)"/><circle class="cls-5" cx="125.17" cy="548.53" r="3" transform="translate(-351.21 249.17) rotate(-45)"/><circle class="cls-5" cx="129.16" cy="510.37" r="3" transform="translate(-323.06 240.82) rotate(-45)"/><circle class="cls-5" cx="127.82" cy="475.2" r="3" transform="translate(-298.58 229.57) rotate(-45)"/><circle class="cls-5" cx="118.49" cy="341.87" r="3" transform="translate(-207.03 183.92) rotate(-45)"/><circle class="cls-5" cx="121.75" cy="259.79" r="3" transform="translate(-148.04 162.18) rotate(-45)"/><circle class="cls-5" cx="144.83" cy="190.65" r="3" transform="translate(-92.39 158.25) rotate(-45)"/><circle class="cls-5" cx="184.32" cy="127.03" r="3" transform="translate(-35.84 167.54) rotate(-45)"/><circle class="cls-5" cx="210.83" cy="87.38" r="3" transform="translate(-0.03 174.67) rotate(-45)"/><circle class="cls-5" cx="239.27" cy="127.05" r="3" transform="translate(-19.76 206.4) rotate(-45)"/><circle class="cls-5" cx="237.58" cy="99.79" r="3" transform="translate(-0.97 197.22) rotate(-45)"/><circle class="cls-5" cx="239.41" cy="78.12" r="3" transform="translate(14.88 192.17) rotate(-45)"/><circle class="cls-5" cx="160.41" cy="161.79" r="3" transform="translate(-67.05 148.81) rotate(-41.98)"/><circle class="cls-5" cx="251.9" cy="114.79" r="3" transform="translate(-12.13 197.95) rotate(-41.98)"/><circle class="cls-5" cx="343.08" cy="182.12" r="3" transform="translate(-33.77 276.21) rotate(-41.98)"/><circle class="cls-5" cx="276.75" cy="76.46" r="3" transform="translate(19.88 204.73) rotate(-41.98)"/><circle class="cls-5" cx="290.98" cy="64.41" r="3" transform="translate(39.68 224.62) rotate(-45)"/><circle class="cls-5" cx="294.75" cy="121.45" r="3" transform="translate(0.45 243.99) rotate(-45)"/><path class="cls-5" d="M288.39,116.43"/><circle class="cls-5" cx="300.3" cy="161.1" r="3" transform="translate(-25.96 259.53) rotate(-45)"/><circle class="cls-5" cx="396.34" cy="190.97" r="3" transform="translate(-18.95 336.19) rotate(-45)"/><circle class="cls-5" cx="365.52" cy="246.87" r="3" transform="translate(-67.5 330.76) rotate(-45)"/><circle class="cls-5" cx="314.41" cy="259.95" r="3" transform="translate(-91.72 298.46) rotate(-45)"/></g></g></g></svg>