<svg class="colorthis" version="1.1" id="Layer_1" xmlns="http://www.w3.org/2000/svg" xmlns:xlink="http://www.w3.org/1999/xlink" x="0px" y="0px"
	 viewBox="0 0 744.1 1052.4" style="enable-background:new 0 0 744.1 1052.4;" xml:space="preserve">

<path path id="1" ng-click="colorMe(1)" fill="{{fillcolor}}" class="st0" d="M519.6,173c0.4-2.2,0-5.5-3.5-10c-6.3,6.1-12.1,8.5-16.3,9.4c-4.9,1.1-7.2,0.3-11.8,2.3
	c-6,2.7-6.7,6.4-11.1,8.8c-3.5,1.9-9.4,3.2-19.8-0.9c-1.7,1.8-4.5,4.4-8.5,6.3c-5.4,2.6-6.9,1.1-18,3.4c-6.9,1.4-8.9,2.6-12.2,1.3
	c-2.2-0.9-2.3-1.8-6.7-4.5c-4.1-2.6-4.7-2.1-7.8-4.1c-5.7-3.6-4.7-5.7-8.6-7.2c-4.3-1.7-9-0.6-11.2,0c-1.6,0.4-1.6,0.5-5.5,1.8
	c-4.2,1.3-7.5,2.2-8.2,2.4c-2.8,0.7-8.3,1.6-17.2,0.6c-1,0-2.4-0.3-3.8-1.1c-1.4-0.9-1.9-1.8-3-3.2c-0.9-1.2-0.8-0.8-8.1-7.4
	c-2.2-2-2.2-2-2.7-2.5c-2.8-2.3-5.9-4.8-7.6-3.9c-2.1,1-1.1,6.7-1,7.1c0,1.1-0.2,2.5-0.6,3.9c-0.9,3.3-2.5,5.7-3.7,7.1
	c-0.9-3.7-2.8-5.5-3.8-6.3c-4.7-3.7-12.3-2.4-16.9,0.2c-2.5,1.5-3.1,2.8-6.3,4c-2.1,0.8-2.5,0.5-7.3,1.2c-6.7,1-7.6,1.8-10.9,1.5
	c-1.3-0.2-3.4-0.4-5.6-1.6c-3.6-2-5.3-5.3-5.9-6.6c-2.7-5.6-0.2-8.4-2.2-10.6c-3.1-3.3-10.6,1.7-21.1,2.6c-8.1,0.8-15-1.1-19.7-2.9
	c-2.6-0.9-5.3-2-8.1-3.1c-3.1-1.3-6-2.7-8.7-4.1c-3.9,0.8-7.2,0.9-9.6,0.9c-4.6-0.1-8.1-0.8-10.9-1.4c-3.2-0.7-5.4-1.4-6-1.6
	c-8.9-2.6-31.9,6.1-41.7,26.3c-3,6.2-5.6,11.6-3.6,17.2c4,11.3,23.5,14.2,39.8,16.6c9.5,1.4,16.9,1.3,21.5,1.1
	c10.5-0.5,15.8-0.7,21.2-3.2c9.9-4.6,10.5-11.3,20.7-15.3c5.5-2.2,10.6-2.3,13.8-2.2c0.1-2.6,0.2-5.2,0.2-7.9
	c-0.7-7.1-0.9-14.6,1.2-15.2c0.5-0.1,0.9,0.1,1.1,0.2c5.1,2.9,8.4,20.9,8.9,23.3c0.4,0.9,1.4,2.8,3.4,4.2c1.4,1,2.8,1.5,3.7,1.7
	c1.7,0.8,4.5,1.7,7.8,1.4c9.1-0.7,13.9-9.7,14.2-10.5c1.3-1.7,3.4-3.8,6.3-4.2c3.9-0.6,6.2,2.2,8.1,1.1c3-1.9-0.7-10.7,2.4-12.6
	c1.1-0.6,2.7-0.2,4.4,0.2c1,0.3,2.7,0.7,4,1.9c2.7,2.5,1.5,6.1,3,6.7c1.4,0.5,3.9-2.3,5.3-4.6c1.3-2.1,3.8-7.1,2.7-15.4
	c2.7,1.2,6.8,3.3,10.5,7.1c2.6,2.7,2.5,3.7,7.2,9.8c4.2,5.5,6.3,8.2,9.4,10c1.2,0.7,0.6,0.2,7.6,3.2c2.4,1,4.1,1.8,6.7,2.8
	c3.4,1.3,5,1.9,6,1.8c4.7-0.3,7.7-8,8.7-10.5c0.2-1.2,0.9-3.9,3.2-6.5c2.2-2.5,4.7-3.6,5.8-4c-0.6,2.9-1.1,5.8-1.7,8.8
	c-4.3,9.8-4.2,12.4-3.3,12.9c1.3,0.9,4.2-3.3,10.6-5.9c7.9-3.2,16.9-2.2,17.4-0.2c0.2,1-1.6,2.2-4.2,4c-3.3,2.3-5.4,2.7-8.7,4.4
	c-4.6,2.3-8.1,4.1-7.9,5.8c0.2,2.9,10.8,5.4,20.8,4.4c2.2-0.2,3.9-0.5,11.2-2.6c18.4-5.1,17.1-5.6,23.4-6.8
	c10.8-2.1,11.8-0.2,24.2-2.9c5.5-1.2,6.1-1.8,11.7-2.8c9.3-1.7,11.4-0.8,15.1-3.1c3.5-2.2,2.5-3.6,8.2-10.4
	C515.8,177.8,518.9,177,519.6,173z"/>
<path path id="2" ng-click="colorMe(2)" fill="{{fillcolor}}" class="st0" d="M409.9,192.9c-3.2-0.8-6,0.7-8.8,2.2c-11.7,6.3-14,7.4-14.8,6.7c-0.6-0.6-0.4-2.9,1.6-6.6
	c0.8-1.4,1.7-3.4,2.5-6c1-3.5,1.9-8.8,0.9-9.1c-0.8-0.3-2.7,1.8-7.5,11.6c-2.4,2.8-4.7,5.5-7.1,8.3c-1.6,1.5-3.9,3.4-6.9,5.1
	c-3,1.7-5.9,2.7-8,3.2c-3.3,0.2-6.7,0.3-10,0.5c-1.6-4.8-2.1-8.8-2.3-11.5c-0.2-3.1,0-4.6-0.6-7.8c0,0-0.8-4.3-2.8-8.2
	c-4.7-9.2-16.5-14.2-17.9-14.8c0.3,2.3,0.5,6.1-0.9,10.4c-0.9,2.8-3.4,8.5-5.8,8.3c-2.1-0.2-2-4.6-5.7-7c-2.5-1.7-5.5-1.6-7.9-1.2
	c-0.1,4.2-0.2,8.5-0.4,12.8c-1.5-0.2-3-0.3-4.5-0.5c-0.8-0.5-2.4-1.3-4.4-1.1c-1.1,0.1-2.7,0.5-4.8,2.4c-4.9,4.5-3.5,9.7-6.9,13.4
	c-1.8,1.9-5.3,3.9-13,3.1c-2.4-1.2-5.1-3-7.6-5.5c-9.8-9.7-10.1-23.1-10-26.9c-3.1-2.8-4.5-3-5.2-2.6c-3.3,1.9,6.4,20.6,1.8,24.1
	c-1.5,1.1-4,0.4-6-0.6c-3,0.5-5.9,1-8.9,1.6c1.2,1.3,2.8,2.8,4.8,4.2c2,1.5,4,2.7,5.6,3.5c6.4,3.2,10,8.2,11.6,10.1
	c1.7,2,1.5,2.2,4.8,7c7.2,10.6,10.9,15.9,15.5,17.5c3,1.1,4.7,0.5,8.1,2.5c1.3,0.7,4.2,2.4,6,5.5c3.5,6.2-0.3,13.6-0.8,14.4
	c-3.6,4-7.2,7.9-10.8,11.9c0,3.8-0.3,9.8-2.8,16.6c-0.8,2.2-2.5,6.7-6,11.4c-1.4,1.8-6.1,7.6-15.8,12.2c-12.8,6.1-18.6,2.6-33.6,6.9
	c-5,1.5-12.2,4.1-20.3,9.3c-8.8,5-10.4,6.9-10.1,7.6c0.6,1.5,10.1-0.4,18-3.8c4.4-1.9,7.8-4,10.1-5.6c0.6,0.7,2.7,2.9,6.2,3.4
	c4.8,0.7,8.2-2.5,8.7-2.9c3.6,2.2,6.7,3.1,8.6,3.5c9.2,1.9,17.3-1.7,22.8-4.2c3.6-1.7,6.4-3.4,8-4.5c-5.9,10.2-11,13.7-14.8,14.9
	c-0.4,0.1-5,1.5-9.2,5.2c-1.5,1.3-2.5,2.3-2.3,3.1c0.6,2.3,10,2.6,17.2,0.9c4.1-0.9,11.7-3.5,19.4-11.5c2.1-1.2,7.8-4,15.5-3.4
	c8.7,0.7,14.3,5.4,16,7c2.6,2.6,6.8,6.3,12.9,9.1c7.3,3.5,14,4.2,18,4.4c-9.1-8.5-14.1-16.6-17-22.1c-1.8-3.6-2.6-5.7-1.6-7
	c2-2.8,10.2,0.1,21.1,3.6c7.5,2.4,18.5,6,32.4,10.1c4.5,0.5,5.6,0,5.9-0.6c0.8-2.1-8.9-8.3-17.5-12.2c-5.1-2.3-6-2.1-18.7-7.1
	c-6.9-2.7-10.2-4.3-12.4-7.9c-1.5-2.5-1.7-4.9-2-9.5c-0.3-4.4-0.8-12.4,2.9-21.1c1.4-3.2,3.2-6.2,6.2-11.2c2.6-4.3,3.9-6.1,4.6-9.1
	c0.9-4.1,0.2-7.7-0.6-10.1c-0.4-2-0.8-5.9,0.5-10.4c0.3-1.2,1.3-3.9,3.4-6.9c2.9-4.1,6.5-6.2,8.6-7.2c1.7-1,4.4-2.5,7.9-3.8
	c6.7-2.5,9-1.7,13.1-3.5c5.9-2.7,4.4-6,11.4-11.9c8-6.7,16.3-7.7,15.9-10.2C413.2,193.7,410.3,193,409.9,192.9z"/>
<path path id="3" ng-click="colorMe(3)" fill="{{fillcolor}}" class="st0" d="M280.8,182.6c-0.3,0.1-7.2,2.5-12.1-1.8c-2.3-2-3.1-4.6-3.4-5.8c0-2.6,0-5.2-0.2-8c-0.1-0.9-0.1-1.8-0.2-2.7
	c-18.5,6-38,4.5-55-6.1c-1.1-0.7-1.9-1.8-2.3-3c-6.4,1.5-12.9,2.1-19.2,0.1c-6.3-2.1-11.7-7.5-13.6-14c-1.6-5.7-0.1-11.7,4.2-15.8
	c4.8-4.5,10.3-6.8,15.6-8.6c3.8-1.3,4-1,4.8-1.8c3.7-3.5,0.2-10.3,0.5-18.1c0.3-7,3.9-11.6,8-18.6c9.7-16.4,27.9-23,38.6-26.8
	c18.3-6.6,34.9-6.3,45.5-5.1c-0.5-1.8-2.1-8.6,1.5-15.4c1.8-3.3,4.1-5.4,5.7-6.7c6.6-3,34.8-14.6,65-2.5c12.3,4.9,21,12.2,26.4,17.8
	c2.5,0.7,6.2,1.8,10.6,3.3c5.2,1.7,7.7,2.8,9.4,3.4c5.6,2.2,10.7,7.1,10.7,13.5c0.1,7-5.7,10.2-11.2,12.8c-1.4,0.6-2.7,1.2-3.4,2.4
	c24.8,1.1,53.6,5.4,65,30.5c0.1,0.1,0.2,1.2,0.5,2.7c1.2,6.9,1.7,10.3,0.5,13.4c-0.5,1.3-1.9,4.1-6.3,6.4c6.2,3.1,12.5,6.3,18.7,9.4
	c5.5,2.6,10,5,13.2,6.8c9.8,5.6,13.4,8.7,15.9,12.5c1.8,2.7,2.9,4.4,2.8,6.7c-0.5,5.7-8.6,9.9-15.1,11c-4.7,0.8-4.8-0.7-8.9,0
	c-8.4,1.5-10.1,8.4-17.1,10.8c-3.4,1.2-8.8,1.7-17.4-2.8c-2.7,1.3-6.7,3-11.6,4.8c-2.5,0.9-7.6,2.8-11.5,3.8
	c-11,2.7-28.9,2-34.7-7.9c-0.8-1.4-1.7-3.4-1.9-6.3c-7.8,1.4-18.1,2.4-30.1,1.3c-17.1-1.5-30.7-6.5-39.4-10.6
	c0.4,1.4,1.4,6.4-1.3,11.5c-1.5,2.8-3.5,4.6-4.7,5.5c-1.7-4.2-3.5-8.4-5.2-12.7c-3,0.8-6.1-1.9-6.1-5.3c-0.7,1.6-1.8,3-3,4.3
	c-2.9,3.1-6.6,5.6-10.4,7.5C293,181.1,287,182.5,280.8,182.6z"/>
<path id="path2831" d="M361.6,370.1c-5.2-2.2-20.7-6.3-24.1-6.3c-3.6,0-3.8-1.7-0.3-2.6c6.9-1.7,19.1,1.6,25.9,7
	C366.9,371.3,366.2,372.1,361.6,370.1z M356.6,362.3c-2.5-1.3-10.4-4.4-17.5-6.9s-14.8-5.9-17.1-7.5c-8.5-5.9-25.1-11.9-29.8-10.6
	c-1.1,0.3-4.5,2.6-7.5,5c-3,2.5-6.7,5.1-8.3,5.9l-2.8,1.4l6.3,2.3c7.3,2.7,16.4,7.1,19.3,9.5c2,1.7,2,1.7,0,1
	c-11-3.9-15.8-5.4-20.5-6.6c-10-2.4-31.5-1.3-52,2.7c-6.9,1.3-13.4,2.4-14.5,2.4c-2.2-0.1,10-5.1,18.3-7.6c2.9-0.9,8.2-3.5,11.7-5.9
	s9.8-5.8,14-7.5c7-2.9,11.5-6.1,11.5-8.1c0-0.4-1.9-0.1-4.2,0.7c-4.8,1.7-23.3,3.8-25.5,3c-0.9-0.3-1.3-1.3-0.9-2.6
	c0.7-2.6-0.1-2.5-4.7,0.6c-3.4,2.3-4.1,2.5-6.3,1.3s-3.5-1-11.6,1.9c-5.5,1.9-12.7,3.6-18.2,4.2c-4.9,0.5-11.7,1.3-15,1.7
	c-5.5,0.7-5.9,0.6-4.6-0.9c0.8-0.9,2-1.7,2.7-1.7c3.5,0,13.5-4.8,22-10.6c11.9-8.1,15.8-9.8,29.1-12.4c5.9-1.1,14.7-3,19.6-4.1
	c8.1-1.9,9-2.4,10.9-5.5c1.1-1.9,3.4-4.1,5.2-5c4.6-2.3,9.4-7.3,10.6-10.8c0.6-1.7,1.7-6.6,2.5-11c1.7-8.9,3.2-11.7,7.5-14.2
	c7-4.1,8-19.2,1.5-22.2c-1.4-0.6-4.5-1.2-6.8-1.2c-3.8,0-4.8-0.5-9.3-5.2c-6.3-6.5-8.4-9.7-11.3-16.9c-1.2-3.1-3.8-7.1-5.9-9.1
	c-4.5-4.2-13.3-9.8-15.4-9.8c-0.9,0-3.4,1.6-5.7,3.5c-5.1,4.2-14.6,8.9-22.6,11c-3.3,0.9-12.1,1.8-19.9,2.1
	c-11.6,0.5-15.9,0.2-25.4-1.5c-29-5.4-40-18.6-30.3-36.5c4.8-8.9,22.2-22.8,30.2-24.2c2.9-0.5,2.4,0-3.5,3.2
	c-8.5,4.6-21.6,17.2-24.5,23.5c-2.6,5.7-2.6,11.5,0,15.7c2.6,4.3,12,8.7,22,10.4c11.7,1.9,40.8,1.7,50.7-0.4
	c8.2-1.8,20.5-6.6,21.7-8.6c1.1-1.7-5.2-2.4-10.3-1.2c-4.2,1-6.3,0.9-14.7-1c-8.8-1.9-10.5-2-16.1-0.9s-6.7,1.1-11-0.7
	c-3.4-1.4-5.3-3-6.7-5.6c-2.6-4.9-1.4-5.7,2.9-2c6.2,5.5,17.7,5.3,26.6-0.3c4.9-3.1,5.2-1.8,0.6,2.3c-3.3,2.9-3.3,3-1.2,3.5
	c12.4,3,18.5,0.9,28.1-9.5c3.5-3.8,6.9-6.9,7.5-6.9c1.6,0,1.4,4.6-0.5,8.1c-0.9,1.7-1.4,3.2-1.2,3.4c0.9,0.9,12,5.4,13.3,5.4
	s1.4-1.5,0.9-9.8c-0.5-8.4-0.4-9.5,0.8-8c2.3,2.9,4.9,15.2,3.8,18.2c-0.9,2.4-1.4,2.6-7.8,2.6l-6.8,0.1l5,2.3
	c9.1,4.2,13,7.9,19.6,18.6c3.4,5.6,8.5,12.4,11.3,15.1l5.1,5l5.5-0.7c4.6-0.6,8.6-1.8,13.3-4.3c0.4-0.2,0.8,0.3,0.8,1.2
	s-1.6,2.5-3.5,3.7c-1.9,1.1-3.2,2.5-2.9,3c1.1,1.8,5.1,0.8,8.5-2.1c4-3.4,5-3.7,5-1.4c0,0.9-1.8,3.4-4.1,5.5
	c-4.1,3.9-4.6,4.8-7.4,15c-1.4,5-2.1,6-6.1,8.3c-6.4,3.8-7.5,5.9-7.2,14.1c0.4,10.2-3.1,18.5-9.5,23.2c-2.6,1.9-4.8,3.8-4.8,4.3
	s-2.8,2.8-6.2,5.3c-6.1,4.3-6.5,4.4-15.8,4.9c-13.8,0.7-25,4-39.6,11.4c-12.4,6.3-12.5,6.4-8.2,6.4c3.3,0,6.7-1.2,13.5-4.8l9.2-4.8
	l3,1.8c3,1.7,3,1.7,8-1.4c5.3-3.3,8.1-3.3,8.1,0c0,1.1,0.3,2.2,0.8,2.4c1.7,0.9,22.2-1.3,26-2.8c4.6-1.8,10.8-8.9,11.8-13.6
	c0.8-3.6,3.5-3.9,3.5-0.3c0,3.3-1.5,6.1-5.3,10.2c-1.7,1.8-4.9,6.2-7.1,9.9c-3.9,6.3-4.3,6.7-11.4,9.4c-4.1,1.6-7.8,3.3-8.3,3.7
	c-1.3,1.3,16.4,0.6,20.9-0.8c2.4-0.8,6.6-3.9,11.4-8.7l7.6-7.5l6.3,0.7c9.5,1.1,15.6,3.6,24.9,10.3c9.8,7,17,10.9,22,11.8
	c3.5,0.6,3.5,0.6-4.6-7.7c-4.4-4.6-9.8-10.3-11.9-12.7l-3.8-4.4l0.5-10.6c0.4-9.4,0.9-11.7,4.1-19.4c2.2-5.3,3.7-10.4,3.7-13
	c0-3.5,0.2-4,1.1-2.4c1,1.8,0.8,6.4-0.7,17.4c-2.2,15.7,4.8,21.9,36.6,32.3c8,2.6,14.7,4.5,15,4.2c0.9-0.9-6.6-6.7-12.1-9.5
	c-2.9-1.5-8.1-3.5-11.4-4.4c-8.3-2.3-17.6-6.7-19.8-9.1c-1.5-1.6-1.9-4.4-2.4-13.5c-0.8-16.4-0.3-18.6,7.8-32.3
	c4.9-8.3,6.8-12.5,6.4-13.9c-0.3-1.1-0.9-5.3-1.2-9.3c-0.6-8.1,0.2-9.9,8.9-19.6l4.3-4.8l9.2-0.8c5-0.5,10.1-1.3,11.2-2
	s3.8-3.7,6-6.9c4.7-6.9,4.9-7.1,12.9-11.1c3.4-1.7,6.2-3.4,6.2-3.7c0-1-7.3,0.8-12,2.8c-2.5,1.1-6.6,4.1-9.2,6.6
	c-4.2,4.1-4.8,4.4-5.4,2.8c-0.7-1.9,1.2-8.1,5.7-18.2c2.3-5.3,2.1-7.9-0.5-5.2c-0.8,0.8-2.8,4.9-4.6,9.2s-4.2,9.2-5.4,11
	c-2,3-2.8,3.3-8.7,3.9c-3.6,0.3-8.4,1.4-10.8,2.2s-6.8,1.6-9.9,1.6c-5.2,0-5.5-0.1-4.8-2.2c1.7-5.9,3.5-15.6,3.5-18.8
	c0-3.9-5.6-12.5-14.8-22.9c-2.9-3.3-4.8-6.1-4.1-6.1s2,0.6,2.8,1.4c2.6,2.3,15.2,8.3,21.1,10.1c3,0.9,10.1,2.1,15.8,2.6
	c12.8,1.2,23.5,0,32.7-3.7l6.8-2.7l-3.9-3c-5.1-4-13.6-12.8-12.9-13.4c0.3-0.3,3.2,1.6,6.5,4.2c12.4,9.7,23.5,12.2,36.3,8.2
	c3.2-1,6-1.6,6.3-1.3c1.3,1.3-3,6.9-7.1,9.3c-3.9,2.3-5.2,2.6-9.6,2c-2.8-0.4-6.9-1.6-9-2.7c-3.5-1.8-4.1-1.9-5.6-0.5
	c-0.9,0.8-3.6,2.6-6,3.9l-4.3,2.5l3.5,2.6c5.9,4.5,15.4,7.7,24.7,8.3l8.5,0.6l-3.8-4.2c-5.4-5.9-5-8.7,0.4-3.5
	c2,1.9,4.1,2.8,7.8,3.1c6.8,0.7,9.5-0.2,14.1-4.4l4-3.6l3,2.5c6,5.1,15.3,4.4,21.8-1.6c3.7-3.3,2.6-0.1-1.2,3.7
	c-6,6-18.8,7.5-22.7,2.6l-1.8-2.2l-2.6,3.1c-3.5,4.1-5.8,5.3-12.4,6.2c-14.1,1.9-18.1,2.9-26.6,6.3c-10.6,4.3-20.2,9.9-18.5,11
	c2.2,1.4,18.7,1.8,27.6,0.7c9.8-1.2,20.5-3.7,21.9-5.1c0.5-0.5-0.6-1.5-2.6-2.3c-5-2.1-6-4.1-1.6-3.3c9.6,1.7,22.1,2.7,27.9,2.1
	c13.4-1.3,28.7-8.1,37.1-16.5c4.6-4.6,8.9-13.4,8.9-18.3c0-11.6-10.4-19.6-38.9-29.7c-8.4-3-36.7-10-40.4-10c-0.4,0-0.7-0.5-0.7-1
	c0-1.4,13-0.4,28.5,2.2c22,3.6,42.8,12.3,51.5,21.4c6.2,6.5,8,10.6,8,17.7c0,22.5-32.6,44.1-61.6,40.8c-6.1-0.7-7.4-0.5-11.4,1.5
	c-15.8,7.9-32.7,10.3-49.3,7l-8.7-1.7l-2,2.5c-2.3,2.9-10.2,6.1-17.5,7.1c-6.3,0.8-6.1,0.7-12.4,8.4l-5.2,6.3l1.6,7.1
	c2.6,11.6,2.3,13.8-3.6,23.1c-9.3,14.8-10.3,17.8-10.3,29.3c0,7.3,0.4,10.6,1.4,11.8c2.2,2.7,9.7,6.1,24,11c14,4.8,17.8,7,28.1,16.1
	c7.3,6.5,8.3,8,4.9,7.2c-12.3-2.7-45.3-11.7-52.9-14.4c-5.2-1.9-11.3-3.4-13.5-3.4h-4l7.5,7.2c4.1,4,9,9.2,10.9,11.7s6.1,7,9.4,10.1
	c4.3,4,5.9,6.1,5.4,7.2C363.5,365.3,362.1,365.2,356.6,362.3z M362.4,205.2c1.2-0.3,2.2-0.9,2.2-1.4c0-0.8-8-6.4-8.5-5.8
	c-0.1,0.2-0.5,2-0.8,4.1c-0.5,3.5-0.4,3.7,2.1,3.7C358.9,205.8,361.1,205.5,362.4,205.2z M378,195.1c1.6-2.6,3.7-6.1,4.7-7.8l1.8-3
	H371h-13.4v3.1c0,2.7,0.8,3.5,7.8,7.7c4.3,2.6,8.2,4.7,8.8,4.7C374.7,199.8,376.5,197.7,378,195.1z M392.6,196.7
	c0-0.3,1.2-0.9,2.8-1.2c1.5-0.3,4.5-1.3,6.7-2.2c3.6-1.5,3.8-1.8,2-2.7c-1.1-0.6-3.7-2.4-5.7-4c-2.1-1.6-3.9-2.8-4.1-2.6
	c-1.5,1.7-5.5,12.7-5.6,15.1c0,0.4,0.9,0.2,2-0.5S392.6,197.1,392.6,196.7z M458.6,358.6c-4.5-1.9-14.4-3.7-20.1-3.8
	c-3.9,0-6-0.5-6.9-1.6s-2.2-1.4-4.7-0.9c-5.9,1.1-16.5-3.6-13.9-6.2c0.3-0.3,3,0.1,6,0.9c5,1.4,5.6,1.4,9.3-0.3l3.9-1.8l2.5,2.8
	c2,2.3,3.6,3,8.5,3.5c6.1,0.7,12,3,16.5,6.6C462.4,360,462.3,360.2,458.6,358.6z M145.6,352c0-0.5,1.2-1.2,2.7-1.6s5.7-2.1,9.4-3.9
	c6.6-3.1,6.8-3.2,9-1.4c2.9,2.4,1.9,3.1-6.6,5.1C149.5,352.5,145.6,353,145.6,352z M320.7,335.1c-4.7-5.7-9.3-23.2-6.2-23.2
	c0.9,0,1.4,1.2,5.1,12c1.2,3.6,3.3,8.4,4.7,10.8C327.6,340.2,325.2,340.5,320.7,335.1z M282.1,302.6c0.7-1.8,1.9-6,2.6-9.2
	c0.7-3.3,1.7-6.5,2.1-7.1c1.5-1.9,2.3-11.8,1-11c-0.6,0.4-1.2,1.6-1.2,2.7c0,1.2-0.5,1.8-1.2,1.6c-1.7-0.6-1.1-4.8,1.1-7
	c4.4-4.4,7.6,1.9,4.7,9.3c-1,2.5-2.6,7.6-3.7,11.4c-2.2,7.7-4.5,12.6-5.9,12.6C281.2,305.8,281.3,304.4,282.1,302.6z M329.7,274.4
	c-2.3-2.8-2.3-7.9,0.1-12.5c3.4-6.5,4.9-6.2,2.6,0.6c-1.3,3.9-1.7,6.9-1.3,9.5C331.9,276.1,331.6,276.6,329.7,274.4z M335.8,268.6
	c-1.6-1.6-1.5-2.9,0.9-8.5c2.3-5.5,6.5-10.3,8.9-10.3c2.3,0,4,2,4,4.7c0,2.9-1.6,3-2.3,0.2c-0.3-1.2-1.1-1.9-1.9-1.7
	c-1.6,0.5-5.8,7.7-5.8,10c0,3,1.6,1.9,3.5-2.2c2-4.4,3.5-5.2,3.5-1.9c0,2.5-1.6,5.7-4.3,8.7C340.1,270.1,337.7,270.5,335.8,268.6z
	 M333.7,240.2c0-1.2,0.9-3.3,2-4.7c2.3-3,2.7-10.2,0.8-17.4c-1-3.8-0.9-5.8,0.6-11.7c3.1-12.4,4.7-10.3,2.5,3.3
	c-0.8,5.1-0.7,7.3,0.5,11c3.4,10.5,3.3,11.5-1.8,16.8C334.4,241.6,333.7,242,333.7,240.2z M223.2,225.3c-3.2-1.7-4.5-3.2-4.5-5.3
	c0-0.9,0.8-0.7,2.6,0.8c3.8,3,8.4,2.6,16.5-1.5c3.9-2,7.5-3.4,7.9-3.2c2.1,0.7-2,5.5-7,8.1C232.6,227.2,227.6,227.6,223.2,225.3z
	 M278.9,219.7c-7.3-3.6-16.5-16-20.5-27.7c-2.2-6.5-3.7-19.9-2-18.9c0.6,0.3,1.3,2.2,1.6,4c0.7,4.6,6.3,18.2,8.8,21.8
	c1.8,2.6,2.6,2.9,7.5,2.9c6.7,0,10.8-1.9,15.6-7.3l3.7-4.2l3.1,3c7.4,7.1,10.7,15.5,8,20.5c-1.6,3.1-6.8,6.2-9,5.5
	c-2.7-0.8-2.5-1.8,1-6.7c1.6-2.3,3-5.3,3-6.7c0-2.8-2.1-9.2-3-9.2c-0.3,0-1.2,1.4-1.9,3c-0.7,1.7-2.9,4.2-4.9,5.8
	c-3,2.3-4.6,2.7-9.4,2.7c-3.2,0-5.8,0.1-5.8,0.3c0,1,7,6,11.3,8.2c2.8,1.4,5.2,3.1,5.4,3.8C292.1,222.7,283.6,222.1,278.9,219.7z
	 M302.1,190.2c-4.8-3.7-4.9-3.7-14.9-3.8c-8.8-0.1-10.8-0.4-15.9-2.8c-6.8-3.2-6.9-5.4,0-3.1c9.3,3.2,25.8-0.5,32.9-7.4
	c3.8-3.7,8.5-12.1,8.5-15c0-1.1-1.8-2.6-5-4.1c-3.6-1.7-5.7-3.5-7.5-6.6c-3.9-6.7-2.9-9.5,1.2-3.2c2.5,3.9,9.5,7.6,14.2,7.6
	c1.8,0,4.6-0.7,6.3-1.6c2.8-1.5,3-1.4,2.7,0.1c-0.2,0.9-2.2,2.7-4.5,3.8c-3.7,1.9-4.2,2.6-4.6,6.5c-0.4,3.5,0.1,5.5,2.7,10.5
	c1.8,3.4,3.5,7.3,4,8.7c0.7,2.3,0.9,2.2,3.2-2.8c2.8-6.1,4-6.7,3-1.6c-1.4,7.5-4.6,14.3-6.6,14.3c-1.8,0-4.5-4.5-6.3-10.2
	c-0.4-1.2-1.6-1.8-3.6-1.8h-3l0.2,7.6c0.1,4.8-0.2,7.8-0.8,8C307.5,193.7,304.8,192.2,302.1,190.2z M306.1,183.4
	c-0.5-2.1-0.9-2.4-2.1-1.5c-1.2,1-1.2,1.4,0.3,3C306.4,187.3,306.9,186.8,306.1,183.4z M236.3,170.7c-9-0.9-18.4-4.8-25.3-10.5
	c-3.8-3.1-4.5-3.4-6.6-2.3c-10.3,5.5-28.4,0.4-32.8-9.4c-2.5-5.5-2.5-12.8,0-17.6c2.6-5,9.1-10.8,15.7-13.8
	c7.2-3.3,10.6-2.6,3.9,0.7c-10.4,5.1-18.9,16.8-16.9,23.3c1.1,3.5,5.3,8.6,8.6,10.3c4.8,2.5,15.8,3,21.9,1c5.7-1.8,7-1.5,5.2,1.4
	c-1,1.6-0.7,2.2,2.5,4.3c7.8,5.1,14.3,7.1,24,7.6c10.1,0.5,16.2-1,28.7-6.9c3.3-1.6,6.2-2.6,6.4-2.4c1.3,1.3-2.8,7.1-6.8,9.6
	C257.3,170.7,249.2,172,236.3,170.7z M381.1,131c-4.1-2.6-6.2-5.1-7-8.6l-0.7-3l2.6,3.6c3.9,5.5,12.1,7.5,17.6,4.4
	c3.2-1.8,4-1.8,4-0.1c0,0.8-1.2,2.4-2.6,3.5C391.7,133.4,385.2,133.5,381.1,131z M405.6,127.9c-7.2-1.4-11.5-4.9-14-11.5
	c-1.3-3.5,0.1-3.1,2.7,0.9c5.7,8.8,17.2,8.6,28.3-0.5c3.4-2.8,6-3.7,6-2c0,0.5-1.5,2.9-3.4,5.4C420.3,126.5,413.2,129.3,405.6,127.9
	z M466.6,125.2c0-0.3,0.9-1.7,2-3.1c2.7-3.4,2.7-14,0.1-19.8c-2.4-5.3-11.7-13.7-19.4-17.4c-7.5-3.7-22.2-7.7-33.7-9.2
	c-13.3-1.8-13.6-2.1-5.6-5.9c10.8-5.2,13.2-11.5,6.9-18.3c-3.1-3.3-13.6-8.7-16.9-8.7c-2.2,0-3.9-1.5-2.6-2.3c0.4-0.2,3.6,0.2,7,0.9
	c17.1,3.6,25.7,13.7,20.3,23.9c-1.2,2.3-3.6,5-5.4,6.1l-3.2,1.9l3.5,0.3c29.5,2.1,52,13,59.1,28.7c4.6,10.2-0.7,23.5-9.4,23.5
	C467.9,125.8,466.6,125.6,466.6,125.2z M488.9,122.9c3.7-4.3,3.5-8.1-0.4-12.6c-2.4-2.7-2.7-3.5-1.5-3.5c3,0,7.5,3,9.1,6.1
	c2.9,5.7,0,11.2-6.6,12.6l-3.4,0.7L488.9,122.9z M198.9,112.2c-2.7-1.1-4.6-6.8-4.6-13.8c0-10.9,3.8-18.1,16.1-30.4
	c10.8-10.7,18.9-15.7,33.8-20.5c13-4.2,31.1-5.8,39-3.5c4,1.2,3.9,1.2-5.5,2c-19.1,1.5-27.5,3.6-40.4,10
	c-14.4,7.1-25.6,18.3-33.2,33c-2.2,4.3-2.8,6.7-2.8,12.4c0,3.9,0.3,8,0.8,9.2C202.8,112.9,201.8,113.4,198.9,112.2z M326.1,103.6
	c-1.6-0.6-3.5-1.5-4.2-2s-3.2-0.6-5.7-0.3c-2.5,0.4-5.9,0.4-7.6,0c-5.5-1.2-13-9.3-13-14c0-2.6,1.4-1.7,3.5,2.1
	c4.1,7.5,11.2,10.7,17.5,7.9c3.7-1.7,4.1-1.7,7.5-0.1c6.1,2.9,9.9,3,15,0.6c5.5-2.6,7.9-6.6,7.4-12.1c-0.5-4.8,0.8-5,2.7-0.5
	c2,4.8,0.4,9.7-4.5,13.9C338.6,104.2,332.3,105.8,326.1,103.6z M291,46.3c-0.9-1.4-1.9-4.7-2.1-7.2c-0.9-9.8,7.4-18.5,22-23.3
	c6.4-2.1,9.1-2.4,23.3-2.4c18.7,0,25.2,1.3,39,8c9.3,4.5,18,11.7,21,17.6c1.3,2.5,1.3,2.9,0.1,2.9c-2.8,0-6.3-1.9-13-7
	c-13.5-10.2-24-14.6-40.6-17.1c-9.3-1.4-24.4-0.2-33.7,2.5c-7.1,2.1-13,6.8-14.4,11.6c-1.1,3.5-0.9,4.6,1.1,9.2
	c1.2,2.9,2.5,5.8,2.8,6.4C297.3,50,292.7,48.9,291,46.3z"/>
</svg>
